G04 ================== begin FILE IDENTIFICATION RECORD ==================*
G04 Layout Name:  D:/Project/Circuit/BP2/BP2_02v5/pcb/BP2_02v5.brd*
G04 Film Name:    BOARD*
G04 File Format:  Gerber RS274X*
G04 File Origin:  Cadence Allegro 16.6-2015-S073*
G04 Origin Date:  Wed Dec 07 15:02:34 2016*
G04 *
G04 Layer:  BOARD GEOMETRY/NCROUTE_PATH*
G04 Layer:  BOARD GEOMETRY/OUTLINE*
G04 *
G04 Offset:    (0.000 0.000)*
G04 Mirror:    No*
G04 Mode:      Positive*
G04 Rotation:  0*
G04 FullContactRelief:  No*
G04 UndefLineWidth:     0.250*
G04 ================== end FILE IDENTIFICATION RECORD ====================*
%FSLAX34Y34*MOMM*%
%IR0*IPPOS*OFA0.00000B0.00000*MIA0B0*SFA1.00000B1.00000*%
%ADD10C,.25*%
G75*
%LPD*%
G75*
G54D10*
G01X-993000Y-55000D02*
Y2277500D01*
X35700D01*
Y-55000D01*
X-993000D01*
G01X-898600Y706200D02*
X-828600D01*
G01X-903600Y711200D02*
G03X-898600Y706200I5000J0D01*
G01X-828600Y716200D02*
X-898600D01*
G01D02*
G03X-903600Y711200I0J-5000D01*
G01X-898600Y757000D02*
X-828600D01*
G01Y767000D02*
X-898600D01*
G01D02*
G03X-903600Y762000I0J-5000D01*
G01D02*
G03X-898600Y757000I5000J0D01*
G01X-828600Y706200D02*
G03X-823600Y711200I0J5000D01*
G01D02*
G03X-828600Y716200I-5000J0D01*
G01Y757000D02*
G03X-823600Y762000I0J5000D01*
G01D02*
G03X-828600Y767000I-5000J0D01*
G01X-69400Y733950D02*
X600D01*
G01X-74400Y738950D02*
G03X-69400Y733950I5000J0D01*
G01D02*
X600D01*
G01X-74400Y738950D02*
G03X-69400Y733950I5000J0D01*
G01X600Y743950D02*
X-69400D01*
G01D02*
G03X-74400Y738950I0J-5000D01*
G01X600Y743950D02*
X-69400D01*
G01D02*
G03X-74400Y738950I0J-5000D01*
G01X600Y733950D02*
G03X5600Y738950I0J5000D01*
G01X600Y733950D02*
G03X5600Y738950I0J5000D01*
G01D02*
G03X600Y743950I-5000J0D01*
G01X5600Y738950D02*
G03X600Y743950I-5000J0D01*
M02*
