G04 ================== begin FILE IDENTIFICATION RECORD ==================*
G04 Layout Name:  D:/Project/Circuit/BP2/BP2_02v6/pcb/BP2_02V6.brd*
G04 Film Name:    BOTTOM*
G04 File Format:  Gerber RS274X*
G04 File Origin:  Cadence Allegro 16.6-2015-S073*
G04 Origin Date:  Wed Apr 05 13:53:42 2017*
G04 *
G04 Layer:  ETCH/BOTTOM*
G04 Layer:  PIN/BOTTOM*
G04 Layer:  VIA CLASS/BOTTOM*
G04 *
G04 Offset:    (0.000 0.000)*
G04 Mirror:    No*
G04 Mode:      Positive*
G04 Rotation:  0*
G04 FullContactRelief:  No*
G04 UndefLineWidth:     0.250*
G04 ================== end FILE IDENTIFICATION RECORD ====================*
%FSLAX34Y34*MOMM*%
%IR0*IPPOS*OFA0.00000B0.00000*MIA0B0*SFA1.00000B1.00000*%
%ADD11C,1.*%
%ADD23C,2.1*%
%ADD16C,2.3*%
%ADD24C,1.5*%
%ADD12C,2.4*%
%ADD14C,1.7*%
%ADD20C,2.7*%
%ADD15C,4.5*%
%ADD19C,1.9*%
%ADD10C,2.8*%
%ADD18R,2.3X2.3*%
%ADD25R,1.5X1.5*%
%ADD13R,2.4X2.4*%
%ADD21R,2.7X2.7*%
%ADD22R,1.9X1.9*%
%ADD17C,.8*%
%ADD26C,2.5*%
%ADD27C,.5*%
%ADD28C,2.704*%
G75*
%LPD*%
G75*
G36*
G01X-720000Y1985000D02*
Y2055000D01*
G02X-715000Y2060000I5000J0D01*
G01X-600000D01*
G03X-595000Y2065000I0J5000D01*
G01Y2072500D01*
G02X-590000Y2077500I5000J0D01*
G01X-570000D01*
G02X-565000Y2072500I0J-5000D01*
G01Y1985000D01*
G02X-570000Y1980000I-5000J0D01*
G01X-715000D01*
G02X-720000Y1985000I0J5000D01*
G37*
G36*
G01Y2135000D02*
Y2205000D01*
G02X-715000Y2210000I5000J0D01*
G01X-570000D01*
G02X-565000Y2205000I0J-5000D01*
G01Y2117500D01*
G02X-570000Y2112500I-5000J0D01*
G01X-590000D01*
G02X-595000Y2117500I0J5000D01*
G01Y2125000D01*
G03X-600000Y2130000I-5000J0D01*
G01X-715000D01*
G02X-720000Y2135000I0J5000D01*
G37*
G36*
G01X-355000Y1980000D02*
X-500000D01*
G02X-505000Y1985000I0J5000D01*
G01Y2072500D01*
G02X-500000Y2077500I5000J0D01*
G01X-480000D01*
G02X-475000Y2072500I0J-5000D01*
G01Y2065000D01*
G03X-470000Y2060000I5000J0D01*
G01X-355000D01*
G02X-350000Y2055000I0J-5000D01*
G01Y1985000D01*
G02X-355000Y1980000I-5000J0D01*
G37*
G36*
G01X-505000Y2117500D02*
Y2205000D01*
G02X-500000Y2210000I5000J0D01*
G01X-355000D01*
G02X-350000Y2205000I0J-5000D01*
G01Y2135000D01*
G02X-355000Y2130000I-5000J0D01*
G01X-470000D01*
G03X-475000Y2125000I0J-5000D01*
G01Y2117500D01*
G02X-480000Y2112500I-5000J0D01*
G01X-500000D01*
G02X-505000Y2117500I0J5000D01*
G37*
G36*
G01X8000Y554000D02*
G02X-2000Y544000I-10000J0D01*
G01X-180000D01*
G02X-190000Y554000I0J10000D01*
G01Y652000D01*
G02X-180000Y662000I10000J0D01*
G01X-94000D01*
G03X-84000Y672000I0J10000D01*
G01Y684000D01*
G02X-74000Y694000I10000J0D01*
G01X-62000D01*
G03X-52000Y704000I0J10000D01*
G01Y708000D01*
G02X-42000Y718000I10000J0D01*
G01X-2000D01*
G02X8000Y708000I0J-10000D01*
G01Y554000D01*
G37*
G36*
G01X-7950Y772050D02*
G02X-14560Y762470I-10247J0D01*
G02X-14920Y762400I-367J929D01*
G01X-114250D01*
G02X-126950Y775100I0J12700D01*
G01Y806850D01*
G02X-114250Y819550I12700J0D01*
G01X-16950D01*
G02X-7950Y810050I0J-9013D01*
G01Y772050D01*
G37*
%LPC*%
G75*
G54D28*
X-428500Y2032000D03*
X-367500D03*
X-428500Y2171700D03*
X-367500D03*
%LPD*%
G75*
G54D10*
X-965400Y0D03*
Y889000D03*
X0Y0D03*
Y889000D03*
Y1333500D03*
Y2222500D03*
G54D20*
X-584200Y940600D03*
X-304800D03*
G54D11*
G01X-463550Y25000D02*
Y57150D01*
G01Y25000D02*
Y-12000D01*
G01X-160000Y244750D02*
Y223130D01*
G03X-158140Y218640I6350J0D01*
G01X-152000Y212500D01*
G01X-145000Y244750D02*
Y222130D01*
G02X-146860Y217640I-6350J0D01*
G01X-152000Y212500D01*
G01X0Y550000D02*
X4490Y545510D01*
G02X6350Y541020I-4490J-4490D01*
G01Y275060D01*
G02X1960Y264460I-14992J0D01*
G01X-10610Y251890D01*
G02X-21210Y247500I-10600J10602D01*
G01X-62370D01*
G03X-66860Y245640I0J-6350D01*
G01X-100000Y212500D01*
G01X-77500Y1047500D02*
X-94750D01*
X-95000Y1047750D01*
G01D02*
X-127000D01*
X-889200Y0D03*
Y2222500D03*
X-88900Y0D03*
Y2222500D03*
G54D21*
X-584200Y1040600D03*
X-304800D03*
G54D12*
X-863800Y177400D03*
X-914600Y228200D03*
X-863800Y279000D03*
X-914600Y329800D03*
X-863800Y380600D03*
Y482200D03*
X-914600Y431400D03*
Y533000D03*
X-863800Y583800D03*
X-914600Y634600D03*
X-863800Y685400D03*
Y787000D03*
X-914600Y736200D03*
Y837800D03*
G54D22*
X-598100Y1347100D03*
X-405200Y672200D03*
G54D13*
X-914600Y126600D03*
G54D14*
X-787400Y1042000D03*
Y1117000D03*
G54D23*
X-428500Y2032000D03*
Y2171700D03*
X-367500Y2032000D03*
Y2171700D03*
X-267500Y2032000D03*
Y2171700D03*
X-206500Y2032000D03*
Y2171700D03*
G54D15*
X-721100Y1562100D03*
X-632200Y457200D03*
X-371100Y1562100D03*
X-282200Y457200D03*
G54D24*
X-196450Y1295400D03*
X-100000Y212500D03*
G54D25*
X-146450Y1295400D03*
X-50000Y212500D03*
G54D16*
X-749300Y1892100D03*
X-673100Y1232100D03*
X-647700Y1892100D03*
X-558800Y127200D03*
X-584200Y787200D03*
X-546100Y1892100D03*
X-457200Y127200D03*
X-419100Y1232100D03*
X-444500Y1892100D03*
X-355600Y127200D03*
X-330200Y787200D03*
X-254000Y127200D03*
X-77550Y1821180D03*
Y1922780D03*
Y1871980D03*
Y1973580D03*
Y2024380D03*
G54D26*
G01X-914600Y126600D02*
X-863800Y177400D01*
G01X-463550Y57150D02*
X-740920D01*
G02X-745410Y59010I0J6350D01*
G01X-863800Y177400D01*
G01Y482200D02*
X-765030D01*
G03X-760540Y484060I0J6350D01*
G01X-711460Y533140D01*
G02X-706970Y535000I4490J-4490D01*
G01X-357500D01*
X-260000Y632500D01*
Y688170D01*
X-127000Y821170D01*
G01X-914600Y533000D02*
X-863800Y482200D01*
G01X-584200Y940600D02*
X-585000Y939800D01*
X-695870D01*
G03X-700360Y937940I0J-6350D01*
G01X-734740Y903560D01*
G03X-736600Y899070I4490J-4490D01*
G01Y802730D01*
G02X-738460Y798240I-6350J0D01*
G01X-776020Y760680D01*
G03X-777880Y756190I4490J-4490D01*
G01Y710650D01*
G02X-779740Y706160I-6350J0D01*
G01X-798640Y687260D01*
G02X-803130Y685400I-4490J4490D01*
G01X-863800D01*
G01X-720000Y2037500D02*
X-882500D01*
X-911290Y2008710D01*
G03X-914400Y2001200I7513J-7510D01*
G01Y967830D01*
G03X-912540Y963340I6350J0D01*
G01X-839960Y890760D01*
G02X-838100Y886270I-4490J-4490D01*
G01Y815330D01*
G02X-839960Y810840I-6350J0D01*
G01X-863800Y787000D01*
G01X-660400Y127200D02*
X-576960Y210640D01*
G02X-572470Y212500I4490J-4490D01*
G01X-275500D01*
G01X-673100Y1232100D02*
X-586060Y1145060D01*
G02X-584200Y1140570I-4490J-4490D01*
G01Y787200D02*
X-520200D01*
X-405200Y672200D01*
G01X-584200Y787200D02*
Y940600D01*
G01D02*
X-519900D01*
G01X-584200Y1140570D02*
Y1040600D01*
G01Y1140570D02*
Y1215800D01*
X-452900Y1347100D01*
X-408100D01*
G01X-598100Y1677100D02*
Y1709270D01*
G02X-596240Y1713760I6350J0D01*
G01X-559360Y1750640D01*
G02X-554870Y1752500I4490J-4490D01*
G01X-389480D01*
G02X-384990Y1750640I0J-6350D01*
G01X-342900Y1708550D01*
G01X-419100Y1232100D02*
Y1044030D01*
G02X-420960Y1039540I-6350J0D01*
G01X-519900Y940600D01*
G01D02*
X-304800D01*
G01X-100000Y212500D02*
X-239040Y59010D01*
G02X-243530Y57150I-4490J4490D01*
G01X-463550D01*
G01X-405200Y342200D02*
X-275500Y212500D01*
G01X-342900Y1708550D02*
X-217760Y1583410D01*
G02X-215900Y1578910I-4514J-4500D01*
G01Y1395000D01*
G01X-342900Y1708550D02*
Y1892100D01*
G01X-275500Y212500D02*
X-152000D01*
G01X-267500Y2032000D02*
X-206500D01*
G01X-267500Y2171700D02*
X-206500D01*
G01X-127000Y1047750D02*
Y1184820D01*
G03X-128860Y1189310I-6350J0D01*
G01X-194590Y1255040D01*
G02X-196450Y1259530I4490J4490D01*
G01Y1295400D01*
G01D02*
X-214040Y1312990D01*
G02X-215900Y1317490I4514J4500D01*
G01Y1372500D01*
G01Y1395000D02*
Y1372500D01*
G01X-77550Y1770380D02*
X-116750D01*
G02X-121240Y1772240I0J6350D01*
G01X-204640Y1855640D01*
G02X-206500Y1860130I4490J4490D01*
G01Y2032000D01*
G01X-77550Y2024380D02*
Y2048120D01*
G03X-79410Y2052610I-6350J0D01*
G01X-196640Y2169840D01*
G03X-201130Y2171700I-4490J-4490D01*
G01X-206500D01*
G01X-152000Y212500D02*
X-100000D01*
G01X-127000Y1047750D02*
Y821170D01*
G01X-114000Y808000D02*
X-127000Y821000D01*
Y821170D01*
G01X-77550Y1770380D02*
Y1821180D01*
G01Y1973580D02*
Y2024380D01*
G54D17*
X-715000Y1985000D03*
Y2055000D03*
Y2020000D03*
Y2135000D03*
Y2170000D03*
Y2205000D03*
X-630000Y1985000D03*
X-657500D03*
X-687500D03*
X-630000Y2020000D03*
X-657500D03*
X-687500Y2055000D03*
Y2020000D03*
Y2135000D03*
Y2170000D03*
X-660000D03*
X-630000D03*
X-687500Y2205000D03*
X-660000D03*
X-630000D03*
X-570000Y1985000D03*
X-602500D03*
X-570000Y2047500D03*
Y2020000D03*
X-602500Y2055000D03*
Y2020000D03*
X-622500Y2055000D03*
X-602500Y2135000D03*
X-622500D03*
X-570000Y2142500D03*
X-602500Y2170000D03*
Y2205000D03*
X-570000D03*
Y2170000D03*
X-500000Y1985000D03*
Y2047500D03*
Y2020000D03*
Y2142500D03*
Y2205000D03*
Y2170000D03*
X-463550Y25000D03*
Y-12000D03*
X-410000Y1985000D03*
X-440000D03*
X-467500D03*
X-412500Y2055000D03*
X-440000D03*
X-467500D03*
Y2020000D03*
X-440000Y2135000D03*
X-412500D03*
X-467500D03*
X-412500Y2205000D03*
X-440000D03*
X-467500D03*
Y2170000D03*
X-355000Y1985000D03*
X-382500D03*
X-355000Y2055000D03*
X-382500D03*
X-355000Y2135000D03*
X-380000D03*
X-355000Y2205000D03*
X-380000D03*
X-215900Y1395000D03*
Y1372500D03*
X-160000Y244750D03*
X-145000D03*
X-105000Y601750D03*
X-135000Y582500D03*
X-142500Y605750D03*
X-124500Y604250D03*
X-95000Y1047750D03*
X-62500Y637500D03*
X-75000Y580500D03*
X-54950Y789050D03*
X-16300Y787800D03*
X-77500Y1047500D03*
X-5500Y606150D03*
X-15000Y577500D03*
G54D27*
G01X-428500Y2017480D02*
Y2032000D01*
G01D02*
Y2046520D01*
G01X-443020Y2032000D02*
X-428500D01*
G01D02*
X-413980D01*
G01X-439770Y2020730D02*
X-428500Y2032000D01*
G01D02*
X-417230Y2043270D01*
G01X-439770D02*
X-428500Y2032000D01*
G01D02*
X-417230Y2020730D01*
G01X-428500Y2157180D02*
Y2171700D01*
G01X-439770Y2160430D02*
X-428500Y2171700D01*
G01D02*
X-417230Y2160430D01*
G01X-428500Y2171700D02*
Y2186220D01*
G01X-443020Y2171700D02*
X-428500D01*
G01D02*
X-413980D01*
G01X-428500D02*
X-417230Y2182970D01*
G01X-439770D02*
X-428500Y2171700D01*
G01X-367500Y2017480D02*
Y2032000D01*
G01D02*
Y2046520D01*
G01X-382020Y2032000D02*
X-367500D01*
G01D02*
X-352980D01*
G01X-378770Y2020730D02*
X-367500Y2032000D01*
G01D02*
X-356230Y2043270D01*
G01X-378770D02*
X-367500Y2032000D01*
G01D02*
X-356230Y2020730D01*
G01X-367500Y2157180D02*
Y2171700D01*
G01X-378770Y2160430D02*
X-367500Y2171700D01*
G01D02*
X-356230Y2160430D01*
G01X-367500Y2171700D02*
Y2186220D01*
G01X-382020Y2171700D02*
X-367500D01*
G01D02*
X-352980D01*
G01X-367500D02*
X-356230Y2182970D01*
G01X-378770D02*
X-367500Y2171700D01*
G54D18*
X-660400Y127200D03*
X-342900Y1892100D03*
X-77550Y1770380D03*
G54D19*
X-595200Y672200D03*
X-598100Y1677100D03*
X-532200Y342200D03*
X-471100Y1677100D03*
X-405200Y342200D03*
X-408100Y1347100D03*
M02*
