G04 ================== begin FILE IDENTIFICATION RECORD ==================*
G04 Layout Name:  D:/Project/Circuit/AVANT/BP2/BP2_02v7/pcb/BP2_02V7.brd*
G04 Film Name:    BOTTOM*
G04 File Format:  Gerber RS274X*
G04 File Origin:  Cadence Allegro 16.6-2015-S073*
G04 Origin Date:  Wed Dec 06 15:33:22 2017*
G04 *
G04 Layer:  ETCH/BOTTOM*
G04 Layer:  PIN/BOTTOM*
G04 Layer:  VIA CLASS/BOTTOM*
G04 *
G04 Offset:    (0.000 0.000)*
G04 Mirror:    No*
G04 Mode:      Positive*
G04 Rotation:  0*
G04 FullContactRelief:  No*
G04 UndefLineWidth:     0.250*
G04 ================== end FILE IDENTIFICATION RECORD ====================*
%FSLAX34Y34*MOMM*%
%IR0*IPPOS*OFA0.00000B0.00000*MIA0B0*SFA1.00000B1.00000*%
%ADD17C,1.*%
%ADD25C,2.1*%
%ADD22C,3.1*%
%ADD18C,1.3*%
%ADD27C,4.1*%
%ADD24C,2.3*%
%ADD16C,1.5*%
%ADD11C,2.4*%
%ADD13C,1.7*%
%ADD20C,2.7*%
%ADD15C,1.9*%
%ADD10C,2.8*%
%ADD23R,2.3X2.3*%
%ADD19R,1.5X1.5*%
%ADD12R,2.4X2.4*%
%ADD14R,1.7X1.7*%
%ADD21R,2.7X2.7*%
%ADD26R,1.9X1.9*%
%ADD28C,2.*%
%ADD29C,2.5*%
%ADD30C,.8*%
%ADD33C,2.104*%
%ADD31C,2.304*%
%ADD32C,3.504*%
G75*
%LPD*%
G75*
G36*
G01X-840000Y2190000D02*
G02X-845000Y2195000I0J5000D01*
G01Y2245000D01*
G02X-840000Y2250000I5000J0D01*
G01X15000D01*
G02X20000Y2245000I0J-5000D01*
G01Y2195000D01*
G02X15000Y2190000I-5000J0D01*
G01X-412370D01*
G02X-413280Y2190580I-2J1001D01*
G01X-414170Y2192480D01*
X-414100Y2193050D01*
X-413910Y2193280D01*
G03X-430090I-8090J6720D01*
G01X-429900Y2193050D01*
X-429830Y2192480D01*
X-430720Y2190580D01*
G02X-431630Y2190000I-908J421D01*
G01X-512370D01*
G02X-513280Y2190580I-2J1001D01*
G01X-514170Y2192480D01*
X-514100Y2193050D01*
X-513910Y2193280D01*
G03X-530090I-8090J6720D01*
G01X-529900Y2193050D01*
X-529830Y2192480D01*
X-530720Y2190580D01*
G02X-531630Y2190000I-908J421D01*
G01X-712370D01*
G02X-713280Y2190580I-2J1001D01*
G01X-714170Y2192480D01*
X-714100Y2193050D01*
X-713910Y2193280D01*
G03X-730090I-8090J6720D01*
G01X-729900Y2193050D01*
X-729830Y2192480D01*
X-730720Y2190580D01*
G02X-731630Y2190000I-908J421D01*
G01X-812370D01*
G02X-813280Y2190580I-2J1001D01*
G01X-814170Y2192480D01*
X-814100Y2193050D01*
X-813910Y2193280D01*
G03X-830090I-8090J6720D01*
G01X-829900Y2193050D01*
X-829830Y2192480D01*
X-830720Y2190580D01*
G02X-831630Y2190000I-908J421D01*
G01X-840000D01*
G37*
G36*
G01X-321460Y661460D02*
X-382060Y722060D01*
G02X-382310Y723040I710J703D01*
G01X-381750Y724990D01*
X-381360Y725360D01*
X-381090Y725420D01*
G03X-402080Y746410I-3910J17080D01*
G01X-402140Y746140D01*
X-402510Y745750D01*
X-404460Y745190D01*
G02X-405440Y745440I-277J960D01*
G01X-408540Y748540D01*
G02X-410000Y752070I3540J3531D01*
G01Y845000D01*
G03X-525000Y960000I-115000J0D01*
G01X-645000D01*
G02X-650000Y965000I0J5000D01*
G01Y980000D01*
G03X-660000Y990000I-10000J0D01*
G01X-670000D01*
G02X-675000Y995000I0J5000D01*
G01Y1030000D01*
G02X-670000Y1035000I5000J0D01*
G01X-660000D01*
G03X-650000Y1045000I0J10000D01*
G01Y1058980D01*
G02X-649000Y1059980I1000J0D01*
G01X-640000D01*
G03X-620890Y1067700I0J27512D01*
G01X-620600Y1067980D01*
X-620480D01*
Y1068100D01*
X-620200Y1068390D01*
G03Y1106610I-19800J19110D01*
G01X-620480Y1106900D01*
Y1107020D01*
X-620600D01*
X-620890Y1107300D01*
G03X-640000Y1115020I-19110J-19792D01*
G01X-649000D01*
G02X-650000Y1116020I0J1000D01*
G01Y1210000D01*
G02X-645000Y1215000I5000J0D01*
G01X-559280D01*
G02X-558600Y1214730I-3J-1000D01*
G03X-502570Y1192480I56029J59420D01*
G01X-460000D01*
G03X-450440Y1194190I10J27522D01*
G02X-450250Y1194240I348J-935D01*
G03X-415650Y1211850I-9757J61966D01*
G01X-412790Y1214710D01*
G02X-412090Y1215000I704J-710D01*
G01X-410000D01*
G03X-403670Y1217250I9J10003D01*
G01X-403540Y1217370D01*
X-403220Y1217480D01*
X-403060D01*
X-402480Y1218060D01*
Y1218220D01*
X-402370Y1218540D01*
X-402250Y1218670D01*
G03X-400000Y1225000I-7753J6321D01*
G01Y1231150D01*
X-399940Y1231310D01*
G03Y1248690I-25060J8690D01*
G02X-400000Y1249020I939J341D01*
G01Y1280980D01*
G02X-399940Y1281310I999J-11D01*
G03Y1298690I-25060J8690D01*
G01X-400000Y1298850D01*
Y1305000D01*
G02X-395000Y1310000I5000J0D01*
G01X-215000D01*
G02X-210000Y1305000I0J-5000D01*
G01Y875000D01*
G03X-200000Y865000I10000J0D01*
G01X-178480D01*
G03X-177500Y864980I1000J25000D01*
G01X-142500D01*
G03X-141520Y865000I-20J25020D01*
G01X-75000D01*
G02X-70000Y860000I0J-5000D01*
G01Y830000D01*
G03X-60000Y820000I10000J0D01*
G01X-35000D01*
G02X-30000Y815000I0J-5000D01*
G01Y655000D01*
G02X-35000Y650000I-5000J0D01*
G01X-60000D01*
G02X-65000Y655000I0J5000D01*
G03X-70000Y660000I-5000J0D01*
G01X-317930D01*
G02X-321460Y661460I1J5000D01*
G37*
%LPC*%
G75*
G36*
G01X-341100Y1146520D02*
G03X-332520Y1155100I0J8580D01*
G01Y1172600D01*
G02X-279480I26520J0D01*
G01Y1155100D01*
G02X-341100Y1093480I-61620J0D01*
G03X-343480Y1091100I0J-2380D01*
G01Y1068500D01*
G03X-342570Y1067510I999J5D01*
G02X-335070Y1065690I-2438J-26408D01*
G01X-334890Y1065620D01*
X-334400D01*
G02X-331740Y1065470I-48J-24517D01*
G01X-331520Y1065450D01*
X-331120Y1065580D01*
X-329850Y1066720D01*
G03X-329520Y1067460I-670J742D01*
G01Y1086020D01*
G02X-328520Y1087020I1000J0D01*
G01X-289480D01*
G02X-288480Y1086020I0J-1000D01*
G01Y1046980D01*
G02X-289480Y1045980I-1000J0D01*
G01X-308040D01*
G03X-308780Y1045650I2J-1000D01*
G01X-309920Y1044380D01*
X-310050Y1043980D01*
X-310030Y1043760D01*
G02X-312060Y1030990I-24373J-2672D01*
G01X-312170Y1030740D01*
X-312120Y1030220D01*
X-310810Y1028370D01*
X-310340Y1028150D01*
X-310070Y1028170D01*
G02X-321470Y1016770I1070J-12470D01*
G01X-321450Y1017040D01*
X-321670Y1017510D01*
X-323520Y1018820D01*
X-324040Y1018870D01*
X-324290Y1018760D01*
G02X-334400Y1016580I-10110J22353D01*
G01X-334890D01*
X-335070Y1016510D01*
G02X-345000Y1014580I-9930J24580D01*
G02X-396520Y1066100I0J51520D01*
G01Y1091100D01*
G02X-393160Y1110110I55421J6D01*
G03X-393440Y1111210I-939J347D01*
G02X-397290Y1114790I47581J55030D01*
G03X-406210Y1118480I-8914J-8921D01*
G01X-538790D01*
G02X-593750Y1141250I6J77729D01*
G02X-556250Y1178750I18750J18750D01*
G03X-538790Y1171520I17457J17461D01*
G01X-406210D01*
G02X-359790Y1152290I-3J-65649D01*
G03X-345850Y1146520I13935J13941D01*
G01X-341100D01*
G37*
G36*
G01X-110440Y748900D02*
X-111900Y750360D01*
X-112350Y750510D01*
X-112580Y750470D01*
G02X-95070Y767980I-2820J20330D01*
G01X-95110Y767750D01*
X-94960Y767300D01*
X-93500Y765840D01*
X-93050Y765690D01*
X-92820Y765730D01*
G02X-92620Y725050I2817J-20327D01*
G01X-92840Y725080D01*
X-93250Y724950D01*
X-94540Y723820D01*
G03X-94880Y723070I661J-752D01*
G01Y700480D01*
G02X-95880Y699480I-1000J0D01*
G01X-134920D01*
G02X-135920Y700480I0J1000D01*
G01Y739520D01*
G02X-134920Y740520I1000J0D01*
G01X-112330D01*
G03X-111580Y740860I-2J1001D01*
G01X-110450Y742150D01*
X-110320Y742560D01*
X-110350Y742780D01*
G02X-110330Y748220I20350J2645D01*
G01X-110290Y748450D01*
X-110440Y748900D01*
G37*
G36*
G01X-375020Y868520D02*
X-339980D01*
G02X-338980Y867520I0J-1000D01*
G01Y832480D01*
G02X-339980Y831480I-1000J0D01*
G01X-375020D01*
G02X-376020Y832480I0J1000D01*
G01Y867520D01*
G02X-375020Y868520I1000J0D01*
G37*
G36*
G01X-325520Y1243920D02*
X-286480D01*
G02X-285480Y1242920I0J-1000D01*
G01Y1203880D01*
G02X-286480Y1202880I-1000J0D01*
G01X-325520D01*
G02X-326520Y1203880I0J1000D01*
G01Y1242920D01*
G02X-325520Y1243920I1000J0D01*
G37*
G54D33*
X-392500Y850000D03*
G54D31*
X-640000Y1012500D03*
G54D32*
X-420000Y980000D03*
%LPD*%
G75*
G54D10*
X-965400Y-400D03*
Y888600D03*
X0Y0D03*
Y889000D03*
Y1333500D03*
G54D20*
X-555000Y730000D03*
G54D11*
X-863800Y177400D03*
X-914600Y228200D03*
X-863800Y279000D03*
X-914600Y329800D03*
X-863800Y380600D03*
Y482200D03*
X-914600Y431400D03*
Y533000D03*
X-863800Y583800D03*
X-914600Y634600D03*
X-863800Y685400D03*
Y787000D03*
X-914600Y736200D03*
Y837800D03*
G54D30*
G01X-822000Y2200000D02*
Y2211520D01*
G01X-833520Y2200000D02*
X-822000D01*
G01D02*
X-810480D01*
G01X-722000D02*
Y2211520D01*
G01X-733520Y2200000D02*
X-722000D01*
G01D02*
X-710480D01*
G01X-640000Y999980D02*
Y1012500D01*
G01D02*
Y1025020D01*
G01X-652520Y1012500D02*
X-640000D01*
G01D02*
X-627480D01*
G01X-522000Y2200000D02*
Y2211520D01*
G01X-533520Y2200000D02*
X-522000D01*
G01D02*
X-510480D01*
G01X-404020Y850000D02*
X-392500D01*
G01X-422000Y2200000D02*
Y2211520D01*
G01X-433520Y2200000D02*
X-422000D01*
G01D02*
X-410480D01*
G01X-392500Y838480D02*
Y850000D01*
G01D02*
Y861520D01*
G01Y850000D02*
X-380980D01*
G01X-322520Y1015700D02*
X-309000D01*
G01Y1002180D02*
Y1015700D01*
G01D02*
Y1029220D01*
G01Y1015700D02*
X-295480D01*
G54D21*
X-555000Y830000D03*
G54D12*
X-914600Y126600D03*
G54D13*
X-855000Y1680000D03*
X-840000Y1012500D03*
X-755000Y757500D03*
Y832500D03*
X-705000Y1680000D03*
X-640000Y1012500D03*
X-555000Y1680000D03*
X-430000Y1360000D03*
Y1510000D03*
X-457500Y1590000D03*
X-405000Y1680000D03*
X-382500Y1590000D03*
G54D22*
X-575000Y1160000D03*
X-475000Y1290000D03*
G54D14*
X-840000Y1087500D03*
X-640000D03*
G54D23*
X-425000Y1240000D03*
X-297250Y1512200D03*
X-77550Y1770380D03*
G54D15*
G01X-345000Y1041100D02*
X-334400D01*
X-842500Y1762500D03*
Y2037500D03*
X-717500Y1762500D03*
Y2037500D03*
X-542500Y1762500D03*
Y2037500D03*
X-435000Y58000D03*
Y185000D03*
Y398000D03*
Y525000D03*
X-417500Y1762500D03*
Y2037500D03*
X-334400Y1041100D03*
X-309000Y1015700D03*
X-306000Y1172600D03*
X-105000Y248000D03*
Y588000D03*
X-115400Y770800D03*
X-90000Y745400D03*
G54D24*
G01X-460000Y1220000D02*
G03X-434400Y1230610I-7J36207D01*
G01X-425000Y1240000D01*
G01X-329640Y590000D02*
X-301680D01*
G01X-575000Y1160000D02*
G03X-538790Y1145000I36212J36210D01*
G01X-406210D01*
G02X-378540Y1133540I2J-39130D01*
G03X-345850Y1120000I32689J32690D01*
G01X-341100D01*
G01X-425000Y1290000D02*
X-475000D01*
G01X-341100Y1120000D02*
G03X-370000Y1091100I0J-28900D01*
G01Y1066100D01*
G03X-345000Y1041100I25000J0D01*
G01X-306000Y1172600D02*
Y1155100D01*
G02X-341100Y1120000I-35100J0D01*
G01X-297250Y1512200D02*
X-232200D01*
X-425000Y1290000D03*
X-297250Y1359800D03*
Y1410600D03*
Y1461400D03*
X-270000Y1767000D03*
Y1993000D03*
X-160000Y1907000D03*
Y2133000D03*
X-77550Y1821180D03*
Y1922780D03*
Y1871980D03*
Y1973580D03*
Y2024380D03*
G54D16*
X-838000Y2100000D03*
X-822000Y2200000D03*
X-745000Y100000D03*
Y540000D03*
X-738000Y2100000D03*
X-722000Y2200000D03*
X-538000Y2100000D03*
X-522000Y2200000D03*
X-438000Y2100000D03*
X-422000Y2200000D03*
X-392500Y850000D03*
X-315000Y-5000D03*
Y335000D03*
X-215000Y-5000D03*
Y335000D03*
G54D25*
X-314090Y2125910D03*
X-276970Y2056970D03*
G54D26*
X-309000Y1066500D03*
X-306000Y1223400D03*
X-105000Y58000D03*
Y398000D03*
X-115400Y720000D03*
G54D17*
G01X-728250Y397500D02*
Y442150D01*
G02X-725000Y450000I11100J2D01*
G01X-652500Y382500D02*
X-713250D01*
G02X-728250Y397500I0J15000D01*
G01D02*
Y370000D01*
X-715000Y15000D03*
X-728250Y370000D03*
X-652500Y382500D03*
X-672500Y432500D03*
X-520000Y975000D03*
X-405000Y1085000D03*
X-420000Y1090000D03*
X-410000Y1100000D03*
X-389250Y770000D03*
X-388250Y792500D03*
X-360000Y915000D03*
X-370000Y957500D03*
X-342500Y955000D03*
X-390000Y1005000D03*
Y1020000D03*
Y1035000D03*
X-385000Y1205000D03*
X-370000D03*
X-355000D03*
X-340000D03*
X-350000Y1280000D03*
X-325000Y1292500D03*
X-375000D03*
X-337500Y1280000D03*
X-375000D03*
Y1305000D03*
X-325000Y1280000D03*
X-362500D03*
X-325000Y1305000D03*
X-167500Y845000D03*
Y857500D03*
X-177500Y890000D03*
X-147500Y857500D03*
Y845000D03*
Y832500D03*
Y820000D03*
X-160000Y890000D03*
X-142500D03*
G54D27*
X-100000Y2222500D03*
X0D03*
G54D18*
X-705000Y242500D03*
X-420000Y980000D03*
X-385000Y742500D03*
G54D28*
G01X-160000Y915000D02*
Y890000D01*
G01X-177500D02*
X-160000D01*
G01D02*
X-142500D01*
G54D19*
X-695000Y100000D03*
Y540000D03*
X-357500Y850000D03*
G54D29*
G01X-838000Y228200D02*
X-914600D01*
G01X-863800Y279000D02*
Y254000D01*
G03X-838000Y228200I25800J0D01*
G01X-863800Y685400D02*
X-662670D01*
G03X-555000Y730000I-2J152270D01*
G01X-840000Y1012500D02*
Y844460D01*
G02X-863800Y787000I-81260J-1D01*
G01X-840000Y1087500D02*
X-842500D01*
G03X-920000Y1010000I0J-77500D01*
G01Y860000D01*
G03X-914600Y837800I48333J0D01*
G01X-695000Y100000D02*
Y134870D01*
G03X-788330Y228200I-93330J0D01*
G01X-838000D01*
G01X-670000Y1012500D02*
X-840000D01*
G01Y1087500D02*
X-750000D01*
G03X-705000Y1132500I0J45000D01*
G01Y1140000D01*
G01X-555000Y1680000D02*
G02X-620000Y1745000I0J65000D01*
G01Y1746720D01*
G03X-640000Y1795000I-68280J-3D01*
G01X-727500Y1882500D01*
G02X-780000Y2009250I126750J126748D01*
G01Y2050000D01*
G03X-830000Y2100000I-50000J0D01*
G01X-838000D01*
G01X-715000Y15000D02*
X-538810D01*
G03X-435000Y58000I-1J146810D01*
G01X-745000Y100000D02*
Y40000D01*
G03X-720000Y15000I25000J0D01*
G01X-715000D01*
G01X-745000Y540000D02*
Y498280D01*
G03X-725000Y450000I68280J3D01*
G01X-672500Y432500D02*
X-682750D01*
G02X-725000Y450000I-3J59745D01*
G01X-555000Y830000D02*
X-590740D01*
G02X-593740Y831240I-4J4240D01*
G03X-596780Y832500I-3037J-3030D01*
G01X-755000D01*
G01X-705000Y1140000D02*
Y1220000D01*
G02X-675000Y1250000I30000J0D01*
G01X-575000D01*
G02X-540860Y1235860I0J-48284D01*
G03X-502570Y1220000I38290J38290D01*
G01X-460000D01*
G01X-705000Y1140000D02*
G03X-652500Y1087500I52500J0D01*
G01X-640000D01*
G01X-405000Y1680000D02*
G02X-470000Y1745000I0J65000D01*
G01Y1775000D01*
G03X-491210Y1826220I-72433J7D01*
G01X-555000Y1890000D01*
X-612570Y1947580D01*
G02X-655000Y2050000I102417J102428D01*
G03X-705000Y2100000I-50000J0D01*
G01X-738000D01*
G01X-435000Y398000D02*
X-452680Y415680D01*
G03X-493290Y432500I-40606J-40605D01*
G01X-672500D01*
G01X-555000Y830000D02*
G02X-485000Y760000I0J-70000D01*
G01Y730000D01*
G03X-470860Y695860I48284J0D01*
G01X-390000Y615000D01*
G03X-329640Y590000I60357J60360D01*
G01X-301680D02*
X-140000D01*
G02X-105000Y588000I0J-307250D01*
G01X-475000Y1290000D02*
G02X-510000Y1325000I0J35000D01*
G01Y1385000D01*
G02X-499400Y1410600I36210J1D01*
G01X-450000Y1460000D01*
G03X-430000Y1508280I-48280J48283D01*
G01Y1510000D01*
G01X-276970Y2056970D02*
G03X-330020Y2035000I-2J-75030D01*
G01X-346740Y2018280D01*
G02X-415000Y1990000I-68267J68257D01*
G02X-466220Y2011220I2J72430D01*
G01X-470000Y2015000D01*
G02X-485000Y2051210I36210J36212D01*
G01Y2060000D01*
G03X-525000Y2100000I-40000J0D01*
G01X-538000D01*
G01X-315000Y-5000D02*
G02X-412300Y35310I8J137606D01*
G01X-435000Y58000D01*
G01X-315000Y335000D02*
G02X-412300Y375310I8J137606D01*
G01X-435000Y398000D01*
G01X-232200Y1512200D02*
G02X-160000Y1440000I0J-72200D01*
G01Y915000D01*
G01X-215000Y-5000D02*
G03X-134760Y28230I8J113473D01*
G01X-105000Y58000D01*
G01X-215000Y335000D02*
G03X-134760Y368230I8J113473D01*
G01X-105000Y398000D01*
G01Y248000D02*
X-69090Y283910D01*
G03X-50000Y330000I-46094J46090D01*
G01Y513260D01*
G03X-75980Y575980I-88700J-1D01*
G03X-105000Y588000I-29020J-29022D01*
M02*
