M48
METRIC,TZ
T01C.4
T02C.8
T03C1.
T04C1.2
T05C1.4
T06C1.6
T07C2.
T08C4.5
T09C2.8
;LEADER: 12 
;HEADER: 
;CODE  : ASCII 
;FILE  : BP2_02V6-1-2.drl for  ... layers TOP and BOTTOM
;DESIGN: BP2_02V6.brd
;T01 Holesize 1. = 0.400000 Tolerance = +0.000000/-0.000000 PLATED MM Quantity = 80
;T02 Holesize 2. = 0.800000 Tolerance = +0.000000/-0.000000 PLATED MM Quantity = 4
;T03 Holesize 3. = 1.000000 Tolerance = +0.000000/-0.000000 PLATED MM Quantity = 2
;T04 Holesize 4. = 1.200000 Tolerance = +0.000000/-0.000000 PLATED MM Quantity = 8
;T05 Holesize 5. = 1.400000 Tolerance = +0.000000/-0.000000 PLATED MM Quantity = 8
;T06 Holesize 6. = 1.600000 Tolerance = +0.000000/-0.000000 PLATED MM Quantity = 35
;T07 Holesize 7. = 2.000000 Tolerance = +0.000000/-0.000000 PLATED MM Quantity = 4
;T08 Holesize 8. = 4.500000 Tolerance = +0.000000/-0.000000 PLATED MM Quantity = 4
;T09 Holesize 9. = 2.800000 Tolerance = +0.100000/-0.100000 NON_PLATED MM Quantity = 6
%
G90
T01
X-622500Y2055000
X-715000Y1985000
X-687500
X-657500
R02X27500
X-570000
X-715000Y2020000
Y2055000
X-687500Y2020000
Y2055000
X-657500Y2020000
X-602500
X-630000
X-602500Y2055000
X-570000Y2020000
Y2047500
X-500000Y1985000
X-467500
X-440000
X-410000
X-382500
X-355000
X-500000Y2020000
Y2047500
X-467500Y2020000
Y2055000
X-440000
X-412500
X-382500
X-355000
X-500000Y2142500
X-467500Y2135000
X-412500
X-380000
X-355000
X-500000Y2170000
Y2205000
X-467500Y2170000
Y2205000
X-440000
X-412500
X-380000
X-355000
X-440000Y2135000
X-463550Y-12000
X-124500Y604250
X-75000Y580500
X-142500Y605750
X-463550Y25000
X-135000Y582500
X-62500Y637500
X-15000Y577500
X-105000Y601750
X-5500Y606150
X-145000Y244750
X-160000
X-16300Y787800
X-215900Y1372500
Y1395000
X-95000Y1047750
X-77500Y1047500
X-54950Y789050
X-570000Y2142500
Y2170000
Y2205000
X-602500
X-630000
X-660000
X-687500
X-715000
Y2170000
Y2135000
X-622500
X-602500Y2170000
X-630000
X-660000
X-687500
Y2135000
X-602500
T02
X-146450Y1295400
X-196450
X-50000Y212500
X-100000
T03
X-787400Y1117000
Y1042000
T04
X-598100Y1347100
X-408100
X-598100Y1677100
X-471100
X-405200Y672200
X-595200
X-405200Y342200
X-532200
T05
X-206500Y2032000
X-267500
X-367500
X-428500
X-206500Y2171700
X-267500
X-367500
X-428500
T06
X-342900Y1892100
R04X-101600
X-673100Y1232100
X-419100
X-660400Y127200
R04X101600
X-330200Y787200
X-584200
X-914600Y126600
X-863800Y177400
X-914600Y228200
X-863800Y279000
X-914600Y329800
X-863800Y380600
X-914600Y431400
X-863800Y482200
X-914600Y533000
X-863800Y583800
X-914600Y634600
X-863800Y685400
X-914600Y736200
X-863800Y787000
X-914600Y837800
X-77550Y1770380
R05Y50800
T07
X-584200Y1040600
Y940600
X-304800Y1040600
Y940600
T08
X-371100Y1562100
X-721100
X-632200Y457200
X-282200
T09
X-965400Y889000
Y0
X0Y889000
X0Y1333500
X0Y2222500
X0Y0
M30
