M48
METRIC,TZ
T01C.6
T02C.8
T03C1.
T04C1.2
T05C1.4
T06C1.6
T07C1.8
T08C2.
T09C2.7
T10C2.8
;LEADER: 12 
;HEADER: 
;CODE  : ASCII 
;FILE  : BP2_02V7-1-2.drl for  ... layers TOP and BOTTOM
;DESIGN: BP2_02V7.brd
;T01 Holesize 1. = 0.600000 Tolerance = +0.000000/-0.000000 PLATED MM Quantity = 38
;T02 Holesize 2. = 0.800000 Tolerance = +0.000000/-0.000000 PLATED MM Quantity = 21
;T03 Holesize 3. = 1.000000 Tolerance = +0.000000/-0.000000 PLATED MM Quantity = 14
;T04 Holesize 4. = 1.200000 Tolerance = +0.000000/-0.000000 PLATED MM Quantity = 24
;T05 Holesize 5. = 1.400000 Tolerance = +0.000000/-0.000000 PLATED MM Quantity = 2
;T06 Holesize 6. = 1.600000 Tolerance = +0.000000/-0.000000 PLATED MM Quantity = 31
;T07 Holesize 7. = 1.800000 Tolerance = +0.000000/-0.000000 PLATED MM Quantity = 2
;T08 Holesize 8. = 2.000000 Tolerance = +0.000000/-0.000000 PLATED MM Quantity = 2
;T09 Holesize 9. = 2.700000 Tolerance = +0.000000/-0.000000 PLATED MM Quantity = 2
;T10 Holesize 10. = 2.800000 Tolerance = +0.100000/-0.100000 NON_PLATED MM Quantity = 5
%
G90
T01
X-390000Y1005000
X-389250Y770000
X-388250Y792500
X-167500Y857500
X-147500Y820000
R03Y12500
X-167500Y845000
X-360000Y915000
X-520000Y975000
X-390000Y1035000
Y1020000
X-342500Y955000
X-370000Y957500
X-410000Y1100000
X-420000Y1090000
X-405000Y1085000
X-340000Y1205000
R03X-15000
X-325000Y1305000
X-362500Y1280000
X-325000
X-375000Y1305000
Y1280000
X-337500
X-375000Y1292500
X-325000
X-350000Y1280000
X-142500Y890000
X-177500
X-160000
X-715000Y15000
X-728250Y370000
X-652500Y382500
X-672500Y432500
T02
X-215000Y-5000
X-315000
X-695000Y540000
X-745000
X-538000Y2100000
X-522000Y2200000
X-438000Y2100000
X-422000Y2200000
X-838000Y2100000
X-822000Y2200000
X-738000Y2100000
X-722000Y2200000
X-357500Y850000
X-392500
X-215000Y335000
X-315000
X-695000Y100000
X-745000
X-420000Y980000
X-385000Y742500
X-705000Y242500
T03
X-405000Y1680000
R03X-150000
X-430000Y1510000
Y1360000
X-840000Y1087500
Y1012500
X-640000Y1087500
Y1012500
X-755000Y832500
Y757500
X-457500Y1590000
X-382500
T04
X-306000Y1223400
Y1172600
X-417500Y2037500
Y1762500
X-542500
Y2037500
X-717500
Y1762500
X-842500
Y2037500
X-309000Y1066500
X-334400Y1041100
X-309000Y1015700
X-105000Y398000
Y588000
X-435000Y398000
Y525000
X-105000Y58000
Y248000
X-435000Y58000
Y185000
X-115400Y720000
X-90000Y745400
X-115400Y770800
T05
X-314090Y2125910
X-276970Y2056970
T06
X-297250Y1512200
R03Y-50800
X-425000Y1240000
Y1290000
X-160000Y1907000
Y2133000
X-270000Y1993000
Y1767000
X-914600Y126600
X-863800Y177400
X-914600Y228200
X-863800Y279000
X-914600Y329800
X-863800Y380600
X-914600Y431400
X-863800Y482200
X-914600Y533000
X-863800Y583800
X-914600Y634600
X-863800Y685400
X-914600Y736200
X-863800Y787000
X-914600Y837800
X-77550Y1770380
R05Y50800
T07
X-475000Y1290000
X-575000Y1160000
T08
X-555000Y830000
Y730000
T09
X0Y2222500
X-100000
T10
X-965400Y888600
Y-400
X0Y889000
X0Y1333500
X0Y0
M30
