G04 ================== begin FILE IDENTIFICATION RECORD ==================*
G04 Layout Name:  D:/Project/Circuit/BP2/BP2_02v6/pcb/BP2_02V6.brd*
G04 Film Name:    PASTE_TOP*
G04 File Format:  Gerber RS274X*
G04 File Origin:  Cadence Allegro 16.6-2015-S073*
G04 Origin Date:  Wed Apr 05 13:53:42 2017*
G04 *
G04 Layer:  PIN/PASTEMASK_TOP*
G04 Layer:  PACKAGE GEOMETRY/PASTEMASK_TOP*
G04 *
G04 Offset:    (0.000 0.000)*
G04 Mirror:    No*
G04 Mode:      Positive*
G04 Rotation:  0*
G04 FullContactRelief:  No*
G04 UndefLineWidth:     0.000*
G04 ================== end FILE IDENTIFICATION RECORD ====================*
%FSLAX34Y34*MOMM*%
%IR0*IPPOS*OFA0.00000B0.00000*MIA0B0*SFA1.00000B1.00000*%
%ADD22O,.6X1.1*%
%ADD26O,.6X1.2*%
%ADD25O,.6X1.3*%
%ADD23R,.6X1.1*%
%ADD27R,.6X1.2*%
%ADD16O,1.6X.6*%
%ADD24R,1.6X.6*%
%ADD15R,1.4X.9*%
%ADD28R,.9X1.4*%
%ADD29O,.64X1.8*%
%ADD30R,.64X1.8*%
%ADD19R,2.7X1.2*%
%ADD12R,1.7X1.3*%
%ADD21R,1.45X1.2*%
%ADD18R,9.X4.*%
%ADD17R,1.2X2.7*%
%ADD14R,2.3X3.4*%
%ADD13R,1.2X2.8*%
%ADD10R,3.2X2.26*%
%ADD20R,.95X.8*%
%ADD11R,3.81X2.794*%
%LPD*%
G75*
G54D10*
X-755650Y879900D03*
Y948900D03*
G54D11*
X-655000Y2060250D03*
Y2129750D03*
G54D20*
X-162500Y616750D03*
Y633250D03*
X-142500D03*
Y616750D03*
X-45000Y611750D03*
Y628250D03*
G54D21*
X-105000Y588750D03*
Y571250D03*
X-77500Y631250D03*
Y613750D03*
X-69950Y792800D03*
Y775300D03*
G54D12*
X-579500Y2069500D03*
Y2120500D03*
X-490500Y2069500D03*
Y2120500D03*
G54D30*
X-41700Y705750D03*
G54D13*
X-484750Y1155000D03*
X-515250D03*
X-544750D03*
X-395250D03*
X-424750D03*
X-455250D03*
X-335250D03*
X-364750D03*
G54D22*
X-115000Y638250D03*
X-105500Y616750D03*
X-135000Y569250D03*
X-144500Y590750D03*
X-15000D03*
X-5500Y569250D03*
X-15000Y685750D03*
X-5500Y664250D03*
G54D14*
X-435900Y6350D03*
X-376900D03*
X-308900D03*
X-249900D03*
X-86650Y1079500D03*
Y1136650D03*
X-27650Y1079500D03*
Y1136650D03*
G54D23*
X-124500Y616750D03*
X-125500Y590750D03*
X-24500Y569250D03*
Y664250D03*
G54D15*
X-165000Y570250D03*
Y589750D03*
X-94950Y784300D03*
Y803800D03*
X-45000Y570250D03*
Y589750D03*
G54D24*
X-125350Y768750D03*
G54D16*
X-179350D03*
Y781450D03*
Y794150D03*
Y806850D03*
X-125350Y781450D03*
Y806850D03*
Y794150D03*
G54D25*
X-24500Y619650D03*
X-15000Y640350D03*
X-5500Y619650D03*
G54D17*
X-198900Y1384300D03*
X-169400D03*
G54D26*
X-65500Y566500D03*
X-75000D03*
X-84500D03*
Y593500D03*
X-75000D03*
G54D18*
X-165100Y1438600D03*
Y1622100D03*
X-88900Y327350D03*
Y510850D03*
G54D27*
X-65500Y593500D03*
G54D19*
X-152500Y257750D03*
Y287250D03*
G54D28*
X-42750Y655000D03*
X-62250D03*
X-42750Y680000D03*
X-62250D03*
X-47200Y806550D03*
X-27700D03*
G54D29*
X-16300Y705750D03*
X-41700Y768250D03*
X-29000D03*
X-16300D03*
M02*
