G04 ================== begin FILE IDENTIFICATION RECORD ==================*
G04 Layout Name:  D:/Project/Circuit/AVANT/BP2/BP2_02v7/pcb/BP2_02V7.brd*
G04 Film Name:    PASTE_TOP*
G04 File Format:  Gerber RS274X*
G04 File Origin:  Cadence Allegro 16.6-2015-S073*
G04 Origin Date:  Wed Dec 06 15:33:22 2017*
G04 *
G04 Layer:  PIN/PASTEMASK_TOP*
G04 Layer:  PACKAGE GEOMETRY/PASTEMASK_TOP*
G04 *
G04 Offset:    (0.000 0.000)*
G04 Mirror:    No*
G04 Mode:      Positive*
G04 Rotation:  0*
G04 FullContactRelief:  No*
G04 UndefLineWidth:     0.000*
G04 ================== end FILE IDENTIFICATION RECORD ====================*
%FSLAX34Y34*MOMM*%
%IR0*IPPOS*OFA0.00000B0.00000*MIA0B0*SFA1.00000B1.00000*%
%ADD38O,.6X1.2*%
%ADD15R,.6X1.1*%
%ADD36R,.6X1.2*%
%ADD26R,1.X.8*%
%ADD27O,.6X1.6*%
%ADD16R,.8X1.*%
%ADD11O,1.6X.6*%
%ADD28R,.6X1.6*%
%ADD33R,1.4X.9*%
%ADD18R,1.6X.6*%
%ADD34R,.9X1.4*%
%ADD20O,.64X1.8*%
%ADD30R,1.02X.88*%
%ADD21R,.64X1.8*%
%ADD35R,2.7X1.2*%
%ADD32R,3.4X2.3*%
%ADD24R,1.8X1.2*%
%ADD23R,9.X4.*%
%ADD19R,2.8X1.2*%
%ADD14R,1.2X2.7*%
%ADD10R,1.2X1.8*%
%ADD29R,1.6X1.6*%
%ADD13R,1.2X2.8*%
%ADD37R,1.7X2.5*%
%ADD40R,1.1X2.65*%
%ADD12R,2.26X3.2*%
%ADD31R,5.4X1.25*%
%ADD39R,1.25X5.4*%
%ADD25R,.8X.8*%
%ADD22R,.95X.8*%
%ADD17R,.8X.95*%
%LPD*%
G75*
G54D10*
X-782250Y15000D03*
X-787250Y457500D03*
X-752750Y15000D03*
X-757750Y457500D03*
X-169750Y750000D03*
X-140250D03*
G54D20*
X-657300Y303750D03*
X-682700Y366250D03*
X-670000D03*
X-657300D03*
G54D11*
X-779500Y390950D03*
Y403650D03*
Y416350D03*
Y429050D03*
X-725500Y403650D03*
Y429050D03*
Y416350D03*
G54D12*
X-774500Y665000D03*
X-705500D03*
G54D21*
X-682700Y303750D03*
G54D30*
X-360000Y1066950D03*
Y1103050D03*
G54D22*
X-665000Y408250D03*
Y391750D03*
X-685000D03*
Y408250D03*
X-450000Y1146750D03*
Y1163250D03*
X-470000Y1146750D03*
Y1163250D03*
X-390000Y936750D03*
Y953250D03*
X-385000Y1083250D03*
Y1066750D03*
Y1106750D03*
Y1123250D03*
G54D31*
X-362500Y1189500D03*
Y1245500D03*
G54D40*
X-129250Y890000D03*
X-80750D03*
G54D13*
X-784750Y910000D03*
X-724750D03*
X-755250D03*
X-664750D03*
X-635250D03*
X-695250D03*
G54D14*
X-699750Y15000D03*
X-702250Y455000D03*
X-670250Y15000D03*
X-672750Y455000D03*
G54D23*
X-565000Y48250D03*
Y231750D03*
Y388250D03*
Y571750D03*
G54D32*
X-350000Y1300500D03*
Y1359500D03*
G54D24*
X-545000Y1115250D03*
Y1144750D03*
X-510000D03*
Y1115250D03*
X-310000Y700250D03*
Y729750D03*
X-40000Y699750D03*
Y670250D03*
Y754750D03*
Y725250D03*
Y780250D03*
Y809750D03*
G54D33*
X-270000Y700250D03*
Y719750D03*
G54D15*
X-725000Y191750D03*
X-734500Y213250D03*
X-715500D03*
X-685000Y233250D03*
X-675500Y211750D03*
X-694500D03*
X-410500Y934250D03*
X-429500D03*
X-420000Y955750D03*
X-350500Y934250D03*
X-369500D03*
X-360000Y955750D03*
X-249500Y720750D03*
X-240000Y699250D03*
X-230500Y720750D03*
G54D25*
X-507750Y975000D03*
X-492250D03*
G54D34*
X-289750Y890000D03*
X-270250D03*
X-249750D03*
X-209750D03*
X-190250D03*
X-230250D03*
G54D16*
X-772250Y192500D03*
X-757750D03*
X-717250Y370000D03*
X-702750D03*
X-677750Y252500D03*
X-692250D03*
X-492750Y1060000D03*
X-507250D03*
X-405250Y1010000D03*
X-419750D03*
X-405250Y1030000D03*
X-419750D03*
X-467250D03*
X-452750D03*
X-377250Y792500D03*
X-362750D03*
X-372750Y915000D03*
X-387250D03*
G54D17*
X-716750Y252500D03*
X-733250D03*
Y232500D03*
X-716750D03*
X-756750Y212500D03*
X-773250D03*
X-756750Y232500D03*
X-773250D03*
X-756750Y252500D03*
X-773250D03*
X-733250Y272500D03*
X-716750D03*
X-693250Y192500D03*
X-676750D03*
Y272500D03*
X-693250D03*
X-508250Y1080000D03*
X-491750D03*
X-411750Y915000D03*
X-428250D03*
X-446750Y975000D03*
X-463250D03*
X-451750Y1010000D03*
X-468250D03*
X-361750Y770000D03*
X-378250D03*
X-329250Y915000D03*
X-345750D03*
X-355750Y975000D03*
X-339250D03*
G54D35*
X-200000Y695250D03*
Y724750D03*
G54D26*
X-490000Y1012750D03*
Y1027250D03*
X-430000Y1162250D03*
Y1147750D03*
X-410000Y1162250D03*
Y1147750D03*
X-330000Y937750D03*
Y952250D03*
G54D18*
X-725500Y390950D03*
G54D27*
X-410950Y1063000D03*
X-423650D03*
X-436350D03*
X-449050D03*
Y1117000D03*
X-436350D03*
X-423650D03*
G54D36*
X-169500Y696500D03*
G54D37*
X-165000Y785000D03*
Y825000D03*
G54D19*
X-695000Y864750D03*
Y835250D03*
G54D28*
X-410950Y1117000D03*
G54D29*
X-345000Y704570D03*
Y745430D03*
G54D38*
X-169500Y723500D03*
X-150500Y696500D03*
X-160000D03*
Y723500D03*
X-150500D03*
G54D39*
X-133000Y835000D03*
X-77000D03*
M02*
