G04 ================== begin FILE IDENTIFICATION RECORD ==================*
G04 Layout Name:  D:/Project/Circuit/AVANT/BP2/BP2_02v7/pcb/BP2_02V7.brd*
G04 Film Name:    SILK_TOP*
G04 File Format:  Gerber RS274X*
G04 File Origin:  Cadence Allegro 16.6-2015-S073*
G04 Origin Date:  Wed Dec 06 15:33:22 2017*
G04 *
G04 Layer:  MANUFACTURING/AUTOSILK_TOP*
G04 *
G04 Offset:    (0.000 0.000)*
G04 Mirror:    No*
G04 Mode:      Positive*
G04 Rotation:  0*
G04 FullContactRelief:  No*
G04 UndefLineWidth:     0.200*
G04 ================== end FILE IDENTIFICATION RECORD ====================*
%FSLAX34Y34*MOMM*%
%IR0*IPPOS*OFA0.00000B0.00000*MIA0B0*SFA1.00000B1.00000*%
%ADD10C,.05*%
%ADD11C,.2*%
%ADD12C,.4*%
%ADD13C,.15*%
G75*
%LPD*%
G75*
G54D10*
G01X-167680Y1695710D02*
X-168860Y1695820D01*
X-170030D01*
X-175800Y1669420D01*
X-176600Y1664390D01*
X-176550Y1663680D01*
X-176320Y1662800D01*
X-175800Y1661750D01*
X-175470Y1661280D01*
G02X-175670Y1660890I-205J-141D01*
G01X-189730D01*
G02X-189880Y1661340I1J250D01*
G01X-189870Y1661350D01*
X-188940Y1662340D01*
X-188200Y1663400D01*
X-187610Y1664520D01*
X-186790Y1666870D01*
X-186200Y1669320D01*
X-181260Y1691550D01*
X-180520Y1696580D01*
X-180640Y1697720D01*
X-180970Y1698750D01*
X-181500Y1699670D01*
X-181600Y1699790D01*
X-181460Y1700080D01*
X-165580D01*
X-163290Y1700030D01*
X-160930Y1699790D01*
X-159780Y1699570D01*
X-158660Y1699250D01*
X-157620Y1698840D01*
X-156640Y1698300D01*
X-155510Y1697400D01*
X-154410Y1696020D01*
X-153940Y1695120D01*
X-153570Y1694060D01*
X-153330Y1692810D01*
X-153240Y1691370D01*
X-153430Y1689050D01*
X-154000Y1686760D01*
X-154990Y1684580D01*
X-156410Y1682600D01*
X-158290Y1680900D01*
X-160650Y1679580D01*
X-163520Y1678720D01*
X-166940Y1678410D01*
X-168180Y1678450D01*
X-169570Y1678620D01*
X-170830Y1678910D01*
G02X-171010Y1679240I55J244D01*
G01X-170990Y1679290D01*
X-169530Y1679750D01*
X-168460Y1680360D01*
X-167720Y1680990D01*
X-166910Y1681910D01*
X-166210Y1682960D01*
X-165620Y1684120D01*
X-165140Y1685340D01*
X-164770Y1686630D01*
X-164510Y1687940D01*
X-164360Y1689270D01*
X-164310Y1690580D01*
X-164450Y1692220D01*
X-164850Y1693500D01*
X-165440Y1694440D01*
X-166170Y1695090D01*
X-167680Y1695710D01*
G01X-181500Y1700000D02*
X-163030D01*
G01X-181400Y1699500D02*
X-159540D01*
G01X-181120Y1699000D02*
X-158030D01*
G01X-180890Y1698500D02*
X-157000D01*
G01X-180730Y1698000D02*
X-156260D01*
G01X-180610Y1697500D02*
X-155630D01*
G01X-180560Y1697000D02*
X-155190D01*
G01X-180530Y1696500D02*
X-154790D01*
G01X-180600Y1696000D02*
X-154400D01*
G01X-180680Y1695500D02*
X-170100D01*
G01X-180750Y1695000D02*
X-170210D01*
G01X-180830Y1694500D02*
X-170320D01*
G01X-180900Y1694000D02*
X-170430D01*
G01X-180980Y1693500D02*
X-170540D01*
G01X-181050Y1693000D02*
X-170650D01*
G01X-181120Y1692500D02*
X-170760D01*
G01X-181200Y1692000D02*
X-170870D01*
G01X-181280Y1691500D02*
X-170980D01*
G01X-181390Y1691000D02*
X-171090D01*
G01X-181500Y1690500D02*
X-171200D01*
G01X-181610Y1690000D02*
X-171300D01*
G01X-181720Y1689500D02*
X-171410D01*
G01X-181830Y1689000D02*
X-171520D01*
G01X-181940Y1688500D02*
X-171630D01*
G01X-182050Y1688000D02*
X-171740D01*
G01X-182160Y1687500D02*
X-171850D01*
G01X-182270Y1687000D02*
X-171960D01*
G01X-182380Y1686500D02*
X-172070D01*
G01X-182500Y1686000D02*
X-172180D01*
G01X-182610Y1685500D02*
X-172290D01*
G01X-182720Y1685000D02*
X-172400D01*
G01X-182830Y1684500D02*
X-172510D01*
G01X-182940Y1684000D02*
X-172620D01*
G01X-183050Y1683500D02*
X-172720D01*
G01X-183160Y1683000D02*
X-172830D01*
G01X-183270Y1682500D02*
X-172940D01*
G01X-183380Y1682000D02*
X-173050D01*
G01X-183490Y1681500D02*
X-173160D01*
G01X-183600Y1681000D02*
X-173270D01*
G01X-183720Y1680500D02*
X-173380D01*
G01X-183830Y1680000D02*
X-173490D01*
G01X-183940Y1679500D02*
X-173600D01*
G01X-184050Y1679000D02*
X-173710D01*
G01X-184160Y1678500D02*
X-173820D01*
G01X-184270Y1678000D02*
X-173930D01*
G01X-184380Y1677500D02*
X-174040D01*
G01X-184490Y1677000D02*
X-174150D01*
G01X-184600Y1676500D02*
X-174260D01*
G01X-184710Y1676000D02*
X-174360D01*
G01X-184820Y1675500D02*
X-174470D01*
G01X-184940Y1675000D02*
X-174580D01*
G01X-185050Y1674500D02*
X-174690D01*
G01X-185160Y1674000D02*
X-174800D01*
G01X-185270Y1673500D02*
X-174910D01*
G01X-185380Y1673000D02*
X-175020D01*
G01X-185490Y1672500D02*
X-175130D01*
G01X-185600Y1672000D02*
X-175240D01*
G01X-185710Y1671500D02*
X-175350D01*
G01X-185820Y1671000D02*
X-175460D01*
G01X-185940Y1670500D02*
X-175570D01*
G01X-186050Y1670000D02*
X-175680D01*
G01X-186160Y1669500D02*
X-175790D01*
G01X-186270Y1669000D02*
X-175870D01*
G01X-186390Y1668500D02*
X-175950D01*
G01X-186510Y1668000D02*
X-176030D01*
G01X-186630Y1667500D02*
X-176110D01*
G01X-186750Y1667000D02*
X-176190D01*
G01X-186920Y1666500D02*
X-176270D01*
G01X-187090Y1666000D02*
X-176350D01*
G01X-187260Y1665500D02*
X-176420D01*
G01X-187440Y1665000D02*
X-176500D01*
G01X-187620Y1664500D02*
X-176580D01*
G01X-187880Y1664000D02*
X-176570D01*
G01X-188140Y1663500D02*
X-176500D01*
G01X-188480Y1663000D02*
X-176370D01*
G01X-188820Y1662500D02*
X-176170D01*
G01X-189260Y1662000D02*
X-175920D01*
G01X-189720Y1661500D02*
X-175620D01*
G01X-189940Y1661000D02*
X-175470D01*
G01X-139670Y1675540D02*
X-141520Y1675430D01*
X-139740Y1671700D01*
X-137680Y1667370D01*
X-136080Y1664250D01*
X-135350Y1663040D01*
X-134640Y1662020D01*
X-133900Y1661150D01*
X-133870Y1661130D01*
G02X-134010Y1660700I-173J-182D01*
G01X-137910Y1660230D01*
X-140020Y1660380D01*
X-141420Y1660780D01*
X-142340Y1661350D01*
X-143030Y1662020D01*
X-144040Y1663270D01*
X-144870Y1664660D01*
X-145670Y1666420D01*
X-146600Y1668790D01*
X-148830Y1674660D01*
X-149200Y1674630D01*
X-150910Y1667170D01*
X-151460Y1663520D01*
X-151390Y1662680D01*
X-151150Y1661880D01*
X-150740Y1661130D01*
X-150730Y1661110D01*
X-150870Y1660830D01*
X-161060D01*
X-161140Y1661060D01*
X-160430Y1661810D01*
X-159870Y1662620D01*
X-159430Y1663460D01*
X-158810Y1665230D01*
X-158370Y1667070D01*
X-155200Y1680770D01*
X-154200Y1681690D01*
X-153290Y1682830D01*
X-152530Y1684080D01*
X-151920Y1685390D01*
X-151110Y1688000D01*
X-150800Y1690090D01*
X-143900D01*
X-140980Y1690020D01*
X-138900Y1689800D01*
X-137470Y1689460D01*
X-136500Y1689020D01*
X-135930Y1688640D01*
X-135400Y1688160D01*
X-134910Y1687580D01*
X-134470Y1686910D01*
X-134110Y1686160D01*
X-133840Y1685330D01*
X-133660Y1684430D01*
X-133600Y1683460D01*
X-133770Y1681710D01*
X-134250Y1679980D01*
X-135020Y1678420D01*
X-136040Y1677180D01*
X-137060Y1676430D01*
X-138290Y1675870D01*
X-139670Y1675540D01*
G01X-145170Y1676660D02*
X-146350Y1676180D01*
X-147690Y1676020D01*
X-148880Y1676240D01*
X-146520Y1686770D01*
X-145930D01*
X-144740Y1686690D01*
X-143790Y1686460D01*
X-143050Y1686100D01*
X-142500Y1685640D01*
X-142140Y1685100D01*
X-141910Y1684520D01*
X-141810Y1683940D01*
X-141780Y1683370D01*
X-141880Y1682000D01*
X-142170Y1680680D01*
X-142650Y1679440D01*
X-143310Y1678330D01*
X-144160Y1677390D01*
X-145170Y1676660D01*
G01X-150810Y1690000D02*
X-140820D01*
G01X-150890Y1689500D02*
X-137640D01*
G01X-150960Y1689000D02*
X-136470D01*
G01X-151030Y1688500D02*
X-135780D01*
G01X-151110Y1688000D02*
X-135270D01*
G01X-151260Y1687500D02*
X-134860D01*
G01X-151420Y1687000D02*
X-134530D01*
G01X-143960Y1686500D02*
X-134280D01*
G01X-151580D02*
X-146580D01*
G01X-142930Y1686000D02*
X-134060D01*
G01X-151730D02*
X-146690D01*
G01X-142410Y1685500D02*
X-133900D01*
G01X-151890D02*
X-146810D01*
G01X-142100Y1685000D02*
X-133770D01*
G01X-152100D02*
X-146920D01*
G01X-141910Y1684500D02*
X-133680D01*
G01X-152340D02*
X-147030D01*
G01X-141820Y1684000D02*
X-133640D01*
G01X-152580D02*
X-147140D01*
G01X-141780Y1683500D02*
X-133610D01*
G01X-152880D02*
X-147250D01*
G01X-141800Y1683000D02*
X-133650D01*
G01X-153180D02*
X-147360D01*
G01X-141840Y1682500D02*
X-133700D01*
G01X-153550D02*
X-147480D01*
G01X-141880Y1682000D02*
X-133740D01*
G01X-153950D02*
X-147590D01*
G01X-141990Y1681500D02*
X-133830D01*
G01X-154400D02*
X-147700D01*
G01X-142100Y1681000D02*
X-133970D01*
G01X-154940D02*
X-147810D01*
G01X-142240Y1680500D02*
X-134110D01*
G01X-155260D02*
X-147920D01*
G01X-142430Y1680000D02*
X-134250D01*
G01X-155370D02*
X-148040D01*
G01X-142630Y1679500D02*
X-134490D01*
G01X-155490D02*
X-148150D01*
G01X-142910Y1679000D02*
X-134730D01*
G01X-155600D02*
X-148260D01*
G01X-143210Y1678500D02*
X-134980D01*
G01X-155720D02*
X-148370D01*
G01X-143610Y1678000D02*
X-135360D01*
G01X-155840D02*
X-148480D01*
G01X-144060Y1677500D02*
X-135770D01*
G01X-155950D02*
X-148600D01*
G01X-144690Y1677000D02*
X-136280D01*
G01X-156070D02*
X-148710D01*
G01X-145560Y1676500D02*
X-136970D01*
G01X-156180D02*
X-148820D01*
G01X-156300Y1676000D02*
X-138020D01*
G01X-156420Y1675500D02*
X-140310D01*
G01X-156530Y1675000D02*
X-141320D01*
G01X-148770Y1674500D02*
X-141080D01*
G01X-156650D02*
X-149230D01*
G01X-148580Y1674000D02*
X-140840D01*
G01X-156760D02*
X-149350D01*
G01X-148390Y1673500D02*
X-140600D01*
G01X-156880D02*
X-149460D01*
G01X-148200Y1673000D02*
X-140360D01*
G01X-157000D02*
X-149580D01*
G01X-148010Y1672500D02*
X-140130D01*
G01X-157110D02*
X-149690D01*
G01X-147820Y1672000D02*
X-139890D01*
G01X-157230D02*
X-149800D01*
G01X-147630Y1671500D02*
X-139650D01*
G01X-157340D02*
X-149920D01*
G01X-147440Y1671000D02*
X-139410D01*
G01X-157460D02*
X-150030D01*
G01X-147250Y1670500D02*
X-139170D01*
G01X-157570D02*
X-150150D01*
G01X-147060Y1670000D02*
X-138940D01*
G01X-157690D02*
X-150260D01*
G01X-146870Y1669500D02*
X-138700D01*
G01X-157800D02*
X-150380D01*
G01X-146680Y1669000D02*
X-138460D01*
G01X-157920D02*
X-150490D01*
G01X-146480Y1668500D02*
X-138220D01*
G01X-158040D02*
X-150600D01*
G01X-146290Y1668000D02*
X-137980D01*
G01X-158150D02*
X-150720D01*
G01X-146090Y1667500D02*
X-137740D01*
G01X-158270D02*
X-150830D01*
G01X-145890Y1667000D02*
X-137490D01*
G01X-158380D02*
X-150930D01*
G01X-145700Y1666500D02*
X-137230D01*
G01X-158500D02*
X-151010D01*
G01X-145480Y1666000D02*
X-136980D01*
G01X-158620D02*
X-151090D01*
G01X-145250Y1665500D02*
X-136720D01*
G01X-158740D02*
X-151160D01*
G01X-145020Y1665000D02*
X-136460D01*
G01X-158890D02*
X-151240D01*
G01X-144770Y1664500D02*
X-136200D01*
G01X-159060D02*
X-151320D01*
G01X-144480Y1664000D02*
X-135930D01*
G01X-159240D02*
X-151390D01*
G01X-144180Y1663500D02*
X-135630D01*
G01X-159420D02*
X-151460D01*
G01X-143830Y1663000D02*
X-135320D01*
G01X-159670D02*
X-151420D01*
G01X-143420Y1662500D02*
X-134970D01*
G01X-159960D02*
X-151330D01*
G01X-143010Y1662000D02*
X-134620D01*
G01X-160300D02*
X-151180D01*
G01X-142500Y1661500D02*
X-134190D01*
G01X-160730D02*
X-150940D01*
G01X-141780Y1661000D02*
X-133800D01*
G01X-161120D02*
X-150780D01*
G01X-140440Y1660500D02*
X-135650D01*
G01X-106060Y1672200D02*
X-106550Y1670820D01*
G02X-106920Y1670690I-236J79D01*
G01X-111440Y1673660D01*
X-110480Y1664660D01*
X-111530Y1663720D01*
X-112770Y1662820D01*
X-114090Y1662050D01*
X-115510Y1661400D01*
X-117010Y1660900D01*
X-118590Y1660530D01*
X-120250Y1660300D01*
X-121970Y1660230D01*
X-125760Y1660640D01*
X-128610Y1661750D01*
X-130670Y1663340D01*
X-132080Y1665240D01*
X-132970Y1667260D01*
X-133450Y1669190D01*
X-133650Y1670850D01*
X-133680Y1672020D01*
X-133610Y1673930D01*
X-133370Y1675820D01*
X-132980Y1677690D01*
X-132450Y1679500D01*
X-131760Y1681240D01*
X-130930Y1682880D01*
X-129960Y1684400D01*
X-128860Y1685800D01*
X-127680Y1686970D01*
X-126420Y1687970D01*
X-125060Y1688810D01*
X-123600Y1689500D01*
X-122040Y1690020D01*
X-120370Y1690390D01*
X-118600Y1690620D01*
X-116710Y1690690D01*
X-114850Y1690600D01*
X-112550Y1690180D01*
X-111340Y1689790D01*
X-110130Y1689230D01*
X-108960Y1688490D01*
X-107880Y1687530D01*
X-107120Y1686620D01*
X-106510Y1685640D01*
X-106030Y1684590D01*
X-105680Y1683500D01*
X-105260Y1681230D01*
X-105140Y1678950D01*
X-105250Y1676570D01*
X-105560Y1674320D01*
X-106060Y1672200D01*
G01X-113740Y1675170D02*
X-114330Y1672290D01*
X-115200Y1669510D01*
X-115830Y1668080D01*
X-116510Y1666880D01*
X-117240Y1665880D01*
X-117990Y1665080D01*
X-118780Y1664480D01*
X-119580Y1664060D01*
X-120380Y1663810D01*
X-121170Y1663730D01*
X-121760Y1663780D01*
X-122440Y1663970D01*
X-123170Y1664350D01*
X-123880Y1664970D01*
X-124520Y1665870D01*
X-125040Y1667100D01*
X-125380Y1668690D01*
X-125510Y1670700D01*
X-125350Y1673530D01*
X-124910Y1676490D01*
X-124240Y1679340D01*
X-123410Y1681800D01*
X-122670Y1683350D01*
X-121500Y1685110D01*
X-120740Y1685910D01*
X-119850Y1686580D01*
X-118830Y1687030D01*
X-117700Y1687190D01*
X-117080Y1687150D01*
X-116390Y1686980D01*
X-115650Y1686630D01*
X-114930Y1686040D01*
X-114290Y1685140D01*
X-113780Y1683910D01*
X-113440Y1682290D01*
X-113310Y1680230D01*
X-113420Y1677900D01*
X-113740Y1675170D01*
G01X-119520Y1690500D02*
X-114310D01*
G01X-122100Y1690000D02*
X-112000D01*
G01X-123590Y1689500D02*
X-110720D01*
G01X-124660Y1689000D02*
X-109770D01*
G01X-125560Y1688500D02*
X-108980D01*
G01X-126370Y1688000D02*
X-108410D01*
G01X-127010Y1687500D02*
X-107850D01*
G01X-116450Y1687000D02*
X-107430D01*
G01X-127640D02*
X-118900D01*
G01X-115490Y1686500D02*
X-107040D01*
G01X-128150D02*
X-119950D01*
G01X-114910Y1686000D02*
X-106730D01*
G01X-128650D02*
X-120620D01*
G01X-114550Y1685500D02*
X-106450D01*
G01X-129090D02*
X-121130D01*
G01X-114230Y1685000D02*
X-106220D01*
G01X-129490D02*
X-121580D01*
G01X-114020Y1684500D02*
X-106000D01*
G01X-129890D02*
X-121910D01*
G01X-113810Y1684000D02*
X-105840D01*
G01X-130220D02*
X-122240D01*
G01X-113690Y1683500D02*
X-105680D01*
G01X-130540D02*
X-122580D01*
G01X-113580Y1683000D02*
X-105580D01*
G01X-130860D02*
X-122840D01*
G01X-113480Y1682500D02*
X-105490D01*
G01X-131120D02*
X-123080D01*
G01X-113420Y1682000D02*
X-105400D01*
G01X-131380D02*
X-123320D01*
G01X-113390Y1681500D02*
X-105310D01*
G01X-131630D02*
X-123510D01*
G01X-113360Y1681000D02*
X-105240D01*
G01X-131860D02*
X-123680D01*
G01X-113330Y1680500D02*
X-105220D01*
G01X-132050D02*
X-123850D01*
G01X-113320Y1680000D02*
X-105200D01*
G01X-132250D02*
X-124020D01*
G01X-113340Y1679500D02*
X-105170D01*
G01X-132450D02*
X-124190D01*
G01X-113370Y1679000D02*
X-105140D01*
G01X-132600D02*
X-124320D01*
G01X-113390Y1678500D02*
X-105160D01*
G01X-132740D02*
X-124440D01*
G01X-113410Y1678000D02*
X-105180D01*
G01X-132890D02*
X-124560D01*
G01X-113460Y1677500D02*
X-105210D01*
G01X-133020D02*
X-124680D01*
G01X-113520Y1677000D02*
X-105230D01*
G01X-133130D02*
X-124790D01*
G01X-113580Y1676500D02*
X-105260D01*
G01X-133230D02*
X-124910D01*
G01X-113640Y1676000D02*
X-105330D01*
G01X-133340D02*
X-124980D01*
G01X-113700Y1675500D02*
X-105400D01*
G01X-133410D02*
X-125060D01*
G01X-113780Y1675000D02*
X-105460D01*
G01X-133470D02*
X-125130D01*
G01X-113880Y1674500D02*
X-105530D01*
G01X-133540D02*
X-125210D01*
G01X-113980Y1674000D02*
X-105630D01*
G01X-133600D02*
X-125280D01*
G01X-111200Y1673500D02*
X-105750D01*
G01X-114080D02*
X-111420D01*
G01X-133620D02*
X-125350D01*
G01X-110440Y1673000D02*
X-105870D01*
G01X-114180D02*
X-111370D01*
G01X-133640D02*
X-125380D01*
G01X-109680Y1672500D02*
X-105990D01*
G01X-114280D02*
X-111310D01*
G01X-133660D02*
X-125410D01*
G01X-108920Y1672000D02*
X-106130D01*
G01X-114420D02*
X-111260D01*
G01X-133680D02*
X-125440D01*
G01X-108160Y1671500D02*
X-106310D01*
G01X-114570D02*
X-111210D01*
G01X-133670D02*
X-125460D01*
G01X-107400Y1671000D02*
X-106480D01*
G01X-114730D02*
X-111150D01*
G01X-133650D02*
X-125490D01*
G01X-114890Y1670500D02*
X-111100D01*
G01X-133600D02*
X-125500D01*
G01X-115040Y1670000D02*
X-111050D01*
G01X-133540D02*
X-125470D01*
G01X-115200Y1669500D02*
X-111000D01*
G01X-133480D02*
X-125440D01*
G01X-115420Y1669000D02*
X-110940D01*
G01X-133400D02*
X-125400D01*
G01X-115640Y1668500D02*
X-110890D01*
G01X-133280D02*
X-125340D01*
G01X-115870Y1668000D02*
X-110840D01*
G01X-133150D02*
X-125240D01*
G01X-116160Y1667500D02*
X-110780D01*
G01X-133020D02*
X-125130D01*
G01X-116440Y1667000D02*
X-110730D01*
G01X-132850D02*
X-125000D01*
G01X-116780Y1666500D02*
X-110680D01*
G01X-132630D02*
X-124790D01*
G01X-117150Y1666000D02*
X-110620D01*
G01X-132410D02*
X-124580D01*
G01X-117600Y1665500D02*
X-110570D01*
G01X-132190D02*
X-124260D01*
G01X-118100Y1665000D02*
X-110520D01*
G01X-131900D02*
X-123900D01*
G01X-118750Y1664500D02*
X-110660D01*
G01X-131520D02*
X-123340D01*
G01X-119760Y1664000D02*
X-111220D01*
G01X-131150D02*
X-122500D01*
G01X-130780Y1663500D02*
X-111830D01*
G01X-130220Y1663000D02*
X-112520D01*
G01X-129580Y1662500D02*
X-113320D01*
G01X-128930Y1662000D02*
X-114200D01*
G01X-127970Y1661500D02*
X-115300D01*
G01X-126680Y1661000D02*
X-116700D01*
G01X-124470Y1660500D02*
X-118780D01*
G01X-167160Y1695500D02*
X-154140D01*
G01X-166070Y1695000D02*
X-153900D01*
G01X-165510Y1694500D02*
X-153730D01*
G01X-165170Y1694000D02*
X-153560D01*
G01X-164850Y1693500D02*
X-153460D01*
G01X-164690Y1693000D02*
X-153370D01*
G01X-164540Y1692500D02*
X-153310D01*
G01X-164430Y1692000D02*
X-153280D01*
G01X-164390Y1691500D02*
X-153250D01*
G01X-164340Y1691000D02*
X-153270D01*
G01X-164310Y1690500D02*
X-153310D01*
G01X-164330Y1690000D02*
X-153350D01*
G01X-164350Y1689500D02*
X-153390D01*
G01X-164390Y1689000D02*
X-153440D01*
G01X-164450Y1688500D02*
X-153570D01*
G01X-164510Y1688000D02*
X-153690D01*
G01X-164600Y1687500D02*
X-153820D01*
G01X-164700Y1687000D02*
X-153940D01*
G01X-164810Y1686500D02*
X-154120D01*
G01X-164950Y1686000D02*
X-154350D01*
G01X-165100Y1685500D02*
X-154570D01*
G01X-165280Y1685000D02*
X-154800D01*
G01X-165470Y1684500D02*
X-155040D01*
G01X-165680Y1684000D02*
X-155400D01*
G01X-165930Y1683500D02*
X-155760D01*
G01X-166190Y1683000D02*
X-156120D01*
G01X-166520Y1682500D02*
X-156520D01*
G01X-166850Y1682000D02*
X-157070D01*
G01X-167270Y1681500D02*
X-157620D01*
G01X-167710Y1681000D02*
X-158180D01*
G01X-168300Y1680500D02*
X-159000D01*
G01X-169100Y1680000D02*
X-159900D01*
G01X-170320Y1679500D02*
X-160910D01*
G01X-170970Y1679000D02*
X-162580D01*
G01X-168580Y1678500D02*
X-165950D01*
G01X-83060Y1700240D02*
X-80940Y1699650D01*
X-79320Y1699020D01*
X-79700Y1692300D01*
G02X-80110Y1692130I-249J21D01*
G01X-80970Y1692820D01*
X-82420Y1693860D01*
X-83740Y1694650D01*
X-84940Y1695220D01*
X-86050Y1695610D01*
X-87090Y1695840D01*
X-88080Y1695950D01*
X-89040Y1695980D01*
X-90510Y1695860D01*
X-92110Y1695360D01*
X-92850Y1694880D01*
X-93450Y1694220D01*
X-93850Y1693360D01*
X-93990Y1692280D01*
X-93880Y1691270D01*
X-93560Y1690350D01*
X-93020Y1689460D01*
X-92270Y1688590D01*
X-90150Y1686660D01*
X-87160Y1684200D01*
X-85890Y1683140D01*
X-84720Y1682080D01*
X-83650Y1681000D01*
X-82730Y1679860D01*
X-81970Y1678600D01*
X-81390Y1677190D01*
X-81020Y1675580D01*
X-80900Y1673740D01*
X-81140Y1671150D01*
X-81880Y1668660D01*
X-83110Y1666340D01*
X-84840Y1664280D01*
X-87070Y1662540D01*
X-89800Y1661190D01*
X-93040Y1660330D01*
X-96810Y1660020D01*
X-99050Y1660100D01*
X-101790Y1660410D01*
X-103300Y1660700D01*
X-104880Y1661100D01*
X-106500Y1661620D01*
X-108030Y1662230D01*
X-108920Y1669020D01*
G02X-108520Y1669240I246J26D01*
G01X-108360Y1669120D01*
X-107080Y1668210D01*
X-105670Y1667340D01*
X-104170Y1666550D01*
X-102580Y1665870D01*
X-100950Y1665340D01*
X-99280Y1664990D01*
X-97600Y1664860D01*
X-96280Y1664950D01*
X-95070Y1665200D01*
X-94000Y1665610D01*
X-93070Y1666180D01*
X-92320Y1666910D01*
X-91750Y1667780D01*
X-91400Y1668800D01*
X-91280Y1669930D01*
X-91360Y1670980D01*
X-91620Y1671920D01*
X-92060Y1672810D01*
X-92710Y1673700D01*
X-94640Y1675610D01*
X-97550Y1678120D01*
X-98900Y1679290D01*
X-100150Y1680450D01*
X-101260Y1681620D01*
X-102220Y1682830D01*
X-103010Y1684120D01*
X-103600Y1685510D01*
X-103960Y1687050D01*
X-104090Y1688760D01*
X-103790Y1691490D01*
X-102920Y1693890D01*
X-101520Y1695950D01*
X-99660Y1697660D01*
X-97380Y1699020D01*
X-94730Y1700010D01*
X-91760Y1700610D01*
X-88530Y1700810D01*
X-85570Y1700660D01*
X-83060Y1700240D01*
G01X-96100Y1699500D02*
X-80550D01*
G01X-97420Y1699000D02*
X-79320D01*
G01X-98260Y1698500D02*
X-79350D01*
G01X-99100Y1698000D02*
X-79380D01*
G01X-99840Y1697500D02*
X-79410D01*
G01X-100380Y1697000D02*
X-79440D01*
G01X-100930Y1696500D02*
X-79460D01*
G01X-101470Y1696000D02*
X-79490D01*
G01X-101830Y1695500D02*
X-91660D01*
G01X-102170Y1695000D02*
X-92670D01*
G01X-102500Y1694500D02*
X-93200D01*
G01X-102840Y1694000D02*
X-93550D01*
G01X-103060Y1693500D02*
X-93780D01*
G01X-103240Y1693000D02*
X-93900D01*
G01X-103420Y1692500D02*
X-93960D01*
G01X-103600Y1692000D02*
X-93960D01*
G01X-103790Y1691500D02*
X-93910D01*
G01X-103840Y1691000D02*
X-93790D01*
G01X-103900Y1690500D02*
X-93610D01*
G01X-103950Y1690000D02*
X-93350D01*
G01X-104010Y1689500D02*
X-93040D01*
G01X-104060Y1689000D02*
X-92620D01*
G01X-104070Y1688500D02*
X-92180D01*
G01X-104040Y1688000D02*
X-91620D01*
G01X-104000Y1687500D02*
X-91070D01*
G01X-103950Y1687000D02*
X-90520D01*
G01X-103830Y1686500D02*
X-89950D01*
G01X-103710Y1686000D02*
X-89340D01*
G01X-103590Y1685500D02*
X-88740D01*
G01X-103380Y1685000D02*
X-88130D01*
G01X-103170Y1684500D02*
X-87520D01*
G01X-102940Y1684000D02*
X-86920D01*
G01X-102630Y1683500D02*
X-86320D01*
G01X-102330Y1683000D02*
X-85740D01*
G01X-101960Y1682500D02*
X-85180D01*
G01X-101570Y1682000D02*
X-84640D01*
G01X-101160Y1681500D02*
X-84140D01*
G01X-100680Y1681000D02*
X-83650D01*
G01X-100200Y1680500D02*
X-83250D01*
G01X-99670Y1680000D02*
X-82840D01*
G01X-99130Y1679500D02*
X-82510D01*
G01X-98570Y1679000D02*
X-82210D01*
G01X-97990Y1678500D02*
X-81930D01*
G01X-97410Y1678000D02*
X-81720D01*
G01X-96830Y1677500D02*
X-81520D01*
G01X-96250Y1677000D02*
X-81350D01*
G01X-108920Y1669000D02*
X-108200D01*
G01X-108850Y1668500D02*
X-107490D01*
G01X-108790Y1668000D02*
X-106740D01*
G01X-108720Y1667500D02*
X-105930D01*
G01X-108660Y1667000D02*
X-105030D01*
G01X-108590Y1666500D02*
X-104060D01*
G01X-108520Y1666000D02*
X-102890D01*
G01X-108460Y1665500D02*
X-101450D01*
G01X-96030Y1665000D02*
X-84230D01*
G01X-108390D02*
X-99330D01*
G01X-108330Y1664500D02*
X-84650D01*
G01X-108260Y1664000D02*
X-85190D01*
G01X-108190Y1663500D02*
X-85830D01*
G01X-108130Y1663000D02*
X-86470D01*
G01X-108060Y1662500D02*
X-87140D01*
G01X-107450Y1662000D02*
X-88160D01*
G01X-106130Y1661500D02*
X-89180D01*
G01X-104490Y1661000D02*
X-90530D01*
G01X-102240Y1660500D02*
X-92410D01*
G01X-90900Y1639540D02*
X-89570Y1638640D01*
X-87350Y1638180D01*
X-84670Y1639070D01*
X-83560Y1641530D01*
X-84260Y1642980D01*
X-85990Y1643700D01*
X-87000Y1644000D01*
X-88910Y1645200D01*
X-89540Y1646980D01*
X-89420Y1648030D01*
X-89070Y1649020D01*
X-88480Y1649900D01*
X-87650Y1650630D01*
X-86820Y1651080D01*
X-85980Y1651340D01*
X-85160Y1651470D01*
X-84410Y1651500D01*
X-81840Y1650890D01*
X-81010Y1650220D01*
G02X-80990Y1649840I-155J-199D01*
G01X-81690Y1649150D01*
X-82680Y1649920D01*
X-84530Y1650380D01*
X-86660Y1649730D01*
X-87320Y1649080D01*
X-87680Y1648440D01*
X-87830Y1647870D01*
X-87860Y1647430D01*
X-87340Y1646080D01*
X-85660Y1645290D01*
X-84360Y1644910D01*
X-82540Y1643880D01*
X-81820Y1641910D01*
X-81970Y1640870D01*
X-82390Y1639870D01*
X-83040Y1638980D01*
X-83880Y1638240D01*
X-84600Y1637810D01*
X-85480Y1637460D01*
X-86540Y1637230D01*
X-87770Y1637140D01*
X-90650Y1637800D01*
X-91570Y1638420D01*
G02X-91620Y1638800I135J211D01*
G01X-90900Y1639540D01*
G01X-84480Y1651500D02*
X-84400D01*
G01X-86960Y1651000D02*
X-82300D01*
G01X-87800Y1650500D02*
X-81360D01*
G01X-83000Y1650000D02*
X-80920D01*
G01X-88370D02*
X-85770D01*
G01X-82140Y1649500D02*
X-81340D01*
G01X-88750D02*
X-86890D01*
G01X-89080Y1649000D02*
X-87360D01*
G01X-89260Y1648500D02*
X-87640D01*
G01X-89430Y1648000D02*
X-87790D01*
G01X-89480Y1647500D02*
X-87860D01*
G01X-89540Y1647000D02*
X-87700D01*
G01X-89370Y1646500D02*
X-87500D01*
G01X-89190Y1646000D02*
X-87170D01*
G01X-89020Y1645500D02*
X-86100D01*
G01X-88590Y1645000D02*
X-84670D01*
G01X-87790Y1644500D02*
X-83640D01*
G01X-87000Y1644000D02*
X-82750D01*
G01X-85510Y1643500D02*
X-82400D01*
G01X-84300Y1643000D02*
X-82220D01*
G01X-84030Y1642500D02*
X-82040D01*
G01X-83780Y1642000D02*
X-81860D01*
G01X-83570Y1641500D02*
X-81880D01*
G01X-83790Y1641000D02*
X-81950D01*
G01X-84020Y1640500D02*
X-82130D01*
G01X-84250Y1640000D02*
X-82340D01*
G01X-84470Y1639500D02*
X-82660D01*
G01X-90940D02*
X-90840D01*
G01X-84890Y1639000D02*
X-83020D01*
G01X-91420D02*
X-90100D01*
G01X-86390Y1638500D02*
X-83580D01*
G01X-91650D02*
X-88900D01*
G01X-90950Y1638000D02*
X-84280D01*
G01X-89350Y1637500D02*
X-85390D01*
G01X-46930Y1689670D02*
X-46950Y1689700D01*
G02X-46750Y1690090I203J142D01*
G01X-31360D01*
G02X-31120Y1689780I0J-248D01*
G01X-32200Y1685300D01*
G02X-32640Y1685190I-247J54D01*
G01X-32890Y1685480D01*
X-33350Y1685780D01*
X-33930Y1686010D01*
X-34630Y1686160D01*
X-35470Y1686220D01*
X-38610D01*
X-40510Y1677890D01*
X-37420D01*
X-34450Y1678200D01*
G02X-34180Y1677900I27J-247D01*
G01X-35290Y1673070D01*
X-35490Y1673060D01*
X-35850Y1673470D01*
X-36290Y1673760D01*
X-37200Y1673980D01*
X-38070Y1674010D01*
X-41380D01*
X-42870Y1667170D01*
X-43420Y1663390D01*
X-43370Y1662670D01*
X-43160Y1661980D01*
X-42780Y1661260D01*
X-42760Y1661220D01*
G02X-42960Y1660830I-202J-143D01*
G01X-53350D01*
X-53400Y1660980D01*
X-52750Y1661640D01*
X-52200Y1662370D01*
X-51750Y1663170D01*
X-51050Y1664960D01*
X-50500Y1667070D01*
X-46840Y1683750D01*
X-46280Y1687530D01*
X-46340Y1688250D01*
X-46540Y1688940D01*
X-46930Y1689670D01*
G01X-46940Y1690000D02*
X-31160D01*
G01X-46840Y1689500D02*
X-31190D01*
G01X-46580Y1689000D02*
X-31310D01*
G01X-46410Y1688500D02*
X-31430D01*
G01X-46320Y1688000D02*
X-31550D01*
G01X-46280Y1687500D02*
X-31670D01*
G01X-46360Y1687000D02*
X-31790D01*
G01X-46430Y1686500D02*
X-31910D01*
G01X-33910Y1686000D02*
X-32040D01*
G01X-46510D02*
X-38660D01*
G01X-32920Y1685500D02*
X-32160D01*
G01X-46580D02*
X-38780D01*
G01X-46660Y1685000D02*
X-38890D01*
G01X-46730Y1684500D02*
X-39000D01*
G01X-46800Y1684000D02*
X-39120D01*
G01X-46900Y1683500D02*
X-39230D01*
G01X-47000Y1683000D02*
X-39340D01*
G01X-47110Y1682500D02*
X-39460D01*
G01X-47220Y1682000D02*
X-39570D01*
G01X-47330Y1681500D02*
X-39690D01*
G01X-47440Y1681000D02*
X-39800D01*
G01X-47550Y1680500D02*
X-39920D01*
G01X-47660Y1680000D02*
X-40030D01*
G01X-47770Y1679500D02*
X-40140D01*
G01X-47880Y1679000D02*
X-40260D01*
G01X-47990Y1678500D02*
X-40370D01*
G01X-36370Y1678000D02*
X-34180D01*
G01X-48100D02*
X-40480D01*
G01X-48210Y1677500D02*
X-34270D01*
G01X-48320Y1677000D02*
X-34390D01*
G01X-48430Y1676500D02*
X-34500D01*
G01X-48540Y1676000D02*
X-34620D01*
G01X-48650Y1675500D02*
X-34730D01*
G01X-48760Y1675000D02*
X-34850D01*
G01X-48870Y1674500D02*
X-34960D01*
G01X-37720Y1674000D02*
X-35080D01*
G01X-48980D02*
X-41380D01*
G01X-35890Y1673500D02*
X-35200D01*
G01X-49090D02*
X-41490D01*
G01X-49200Y1673000D02*
X-41600D01*
G01X-49310Y1672500D02*
X-41710D01*
G01X-49420Y1672000D02*
X-41820D01*
G01X-49530Y1671500D02*
X-41920D01*
G01X-49640Y1671000D02*
X-42030D01*
G01X-49750Y1670500D02*
X-42140D01*
G01X-49860Y1670000D02*
X-42250D01*
G01X-49970Y1669500D02*
X-42360D01*
G01X-50080Y1669000D02*
X-42470D01*
G01X-50190Y1668500D02*
X-42580D01*
G01X-50300Y1668000D02*
X-42690D01*
G01X-50410Y1667500D02*
X-42800D01*
G01X-50520Y1667000D02*
X-42900D01*
G01X-50650Y1666500D02*
X-42970D01*
G01X-50780Y1666000D02*
X-43040D01*
G01X-50910Y1665500D02*
X-43120D01*
G01X-51040Y1665000D02*
X-43190D01*
G01X-51230Y1664500D02*
X-43260D01*
G01X-51420Y1664000D02*
X-43340D01*
G01X-51620Y1663500D02*
X-43410D01*
G01X-51840Y1663000D02*
X-43390D01*
G01X-52130Y1662500D02*
X-43320D01*
G01X-52480Y1662000D02*
X-43170D01*
G01X-52890Y1661500D02*
X-42910D01*
G01X-53380Y1661000D02*
X-42720D01*
G01X-55710Y1689230D02*
X-54540Y1688490D01*
X-53450Y1687530D01*
X-52700Y1686620D01*
X-52090Y1685640D01*
X-51610Y1684590D01*
X-51250Y1683500D01*
X-50830Y1681230D01*
X-50720Y1678950D01*
X-51030Y1674910D01*
X-51930Y1671280D01*
X-53390Y1668080D01*
X-55360Y1665370D01*
X-57790Y1663190D01*
X-60660Y1661570D01*
X-63930Y1660570D01*
X-67560Y1660230D01*
X-71340Y1660640D01*
X-74180Y1661750D01*
X-76240Y1663340D01*
X-77660Y1665240D01*
X-78540Y1667260D01*
X-79020Y1669190D01*
X-79220Y1670850D01*
X-79260Y1672020D01*
X-79180Y1673930D01*
X-78950Y1675820D01*
X-78560Y1677690D01*
X-78020Y1679500D01*
X-77340Y1681240D01*
X-76510Y1682880D01*
X-75540Y1684400D01*
X-74430Y1685800D01*
X-73260Y1686970D01*
X-71990Y1687970D01*
X-70630Y1688810D01*
X-69170Y1689500D01*
X-67610Y1690020D01*
X-65950Y1690390D01*
X-64170Y1690620D01*
X-62290Y1690690D01*
X-60430Y1690600D01*
X-58130Y1690180D01*
X-56920Y1689790D01*
X-55710Y1689230D01*
G01X-59320Y1675170D02*
X-59900Y1672290D01*
X-60780Y1669510D01*
X-61410Y1668080D01*
X-62090Y1666880D01*
X-62810Y1665880D01*
X-63570Y1665080D01*
X-64350Y1664480D01*
X-65150Y1664060D01*
X-65960Y1663810D01*
X-66750Y1663730D01*
X-67340Y1663780D01*
X-68020Y1663970D01*
X-68740Y1664350D01*
X-69460Y1664970D01*
X-70100Y1665870D01*
X-70610Y1667100D01*
X-70960Y1668690D01*
X-71080Y1670700D01*
X-70920Y1673530D01*
X-70480Y1676490D01*
X-69820Y1679340D01*
X-68980Y1681800D01*
X-68250Y1683350D01*
X-67080Y1685110D01*
X-66320Y1685910D01*
X-65430Y1686580D01*
X-64410Y1687030D01*
X-63280Y1687190D01*
X-62660Y1687150D01*
X-61960Y1686980D01*
X-61230Y1686630D01*
X-60510Y1686040D01*
X-59870Y1685140D01*
X-59350Y1683910D01*
X-59010Y1682290D01*
X-58890Y1680230D01*
X-58990Y1677900D01*
X-59320Y1675170D01*
G01X-65100Y1690500D02*
X-59890D01*
G01X-67680Y1690000D02*
X-57570D01*
G01X-69160Y1689500D02*
X-56300D01*
G01X-70230Y1689000D02*
X-55350D01*
G01X-71140Y1688500D02*
X-54560D01*
G01X-71950Y1688000D02*
X-53990D01*
G01X-72590Y1687500D02*
X-53430D01*
G01X-62020Y1687000D02*
X-53010D01*
G01X-73220D02*
X-64470D01*
G01X-61070Y1686500D02*
X-52620D01*
G01X-73730D02*
X-65530D01*
G01X-60480Y1686000D02*
X-52310D01*
G01X-74230D02*
X-66200D01*
G01X-60120Y1685500D02*
X-52020D01*
G01X-74670D02*
X-66710D01*
G01X-59810Y1685000D02*
X-51800D01*
G01X-75070D02*
X-67150D01*
G01X-59600Y1684500D02*
X-51580D01*
G01X-75460D02*
X-67480D01*
G01X-59390Y1684000D02*
X-51410D01*
G01X-75800D02*
X-67820D01*
G01X-59270Y1683500D02*
X-51250D01*
G01X-76110D02*
X-68150D01*
G01X-59160Y1683000D02*
X-51160D01*
G01X-76430D02*
X-68420D01*
G01X-59060Y1682500D02*
X-51070D01*
G01X-76700D02*
X-68650D01*
G01X-59000Y1682000D02*
X-50970D01*
G01X-76950D02*
X-68890D01*
G01X-58970Y1681500D02*
X-50880D01*
G01X-77210D02*
X-69090D01*
G01X-58940Y1681000D02*
X-50820D01*
G01X-77430D02*
X-69260D01*
G01X-58910Y1680500D02*
X-50790D01*
G01X-77630D02*
X-69430D01*
G01X-58900Y1680000D02*
X-50770D01*
G01X-77830D02*
X-69600D01*
G01X-58920Y1679500D02*
X-50740D01*
G01X-78020D02*
X-69760D01*
G01X-58940Y1679000D02*
X-50720D01*
G01X-78170D02*
X-69900D01*
G01X-58970Y1678500D02*
X-50750D01*
G01X-78320D02*
X-70020D01*
G01X-58990Y1678000D02*
X-50790D01*
G01X-78470D02*
X-70130D01*
G01X-59040Y1677500D02*
X-50830D01*
G01X-78600D02*
X-70250D01*
G01X-59100Y1677000D02*
X-50870D01*
G01X-78700D02*
X-70370D01*
G01X-59160Y1676500D02*
X-50900D01*
G01X-78810D02*
X-70480D01*
G01X-59220Y1676000D02*
X-50940D01*
G01X-78910D02*
X-70560D01*
G01X-59280Y1675500D02*
X-50980D01*
G01X-78990D02*
X-70630D01*
G01X-59350Y1675000D02*
X-51020D01*
G01X-79050D02*
X-70710D01*
G01X-59460Y1674500D02*
X-51130D01*
G01X-79110D02*
X-70780D01*
G01X-59560Y1674000D02*
X-51260D01*
G01X-79170D02*
X-70860D01*
G01X-59660Y1673500D02*
X-51380D01*
G01X-79200D02*
X-70930D01*
G01X-59760Y1673000D02*
X-51500D01*
G01X-79220D02*
X-70960D01*
G01X-59860Y1672500D02*
X-51630D01*
G01X-79240D02*
X-70980D01*
G01X-59990Y1672000D02*
X-51750D01*
G01X-79260D02*
X-71010D01*
G01X-60150Y1671500D02*
X-51880D01*
G01X-79240D02*
X-71040D01*
G01X-60310Y1671000D02*
X-52060D01*
G01X-79230D02*
X-71070D01*
G01X-60460Y1670500D02*
X-52290D01*
G01X-79180D02*
X-71070D01*
G01X-60620Y1670000D02*
X-52520D01*
G01X-79120D02*
X-71040D01*
G01X-60780Y1669500D02*
X-52740D01*
G01X-79060D02*
X-71010D01*
G01X-61000Y1669000D02*
X-52970D01*
G01X-78980D02*
X-70980D01*
G01X-61220Y1668500D02*
X-53200D01*
G01X-78850D02*
X-70920D01*
G01X-61450Y1668000D02*
X-53450D01*
G01X-78730D02*
X-70810D01*
G01X-61730Y1667500D02*
X-53810D01*
G01X-78600D02*
X-70700D01*
G01X-62020Y1667000D02*
X-54180D01*
G01X-78430D02*
X-70570D01*
G01X-62360Y1666500D02*
X-54540D01*
G01X-78210D02*
X-70360D01*
G01X-62720Y1666000D02*
X-54900D01*
G01X-77990D02*
X-70150D01*
G01X-63170Y1665500D02*
X-55260D01*
G01X-77770D02*
X-69840D01*
G01X-63680Y1665000D02*
X-55770D01*
G01X-77470D02*
X-69480D01*
G01X-64330Y1664500D02*
X-56330D01*
G01X-77100D02*
X-68920D01*
G01X-65340Y1664000D02*
X-56890D01*
G01X-76730D02*
X-68080D01*
G01X-76360Y1663500D02*
X-57450D01*
G01X-75800Y1663000D02*
X-58130D01*
G01X-75150Y1662500D02*
X-59020D01*
G01X-74510Y1662000D02*
X-59910D01*
G01X-73540Y1661500D02*
X-60910D01*
G01X-72260Y1661000D02*
X-62540D01*
G01X-70050Y1660500D02*
X-64680D01*
G01X-34020Y1637380D02*
X-43780D01*
G02X-44020Y1637690I5J252D01*
G01X-41150Y1651210D01*
X-31530D01*
G02X-31280Y1650910I6J-249D01*
G01X-31470Y1650000D01*
X-39980D01*
X-40990Y1645290D01*
X-33460D01*
G02X-33220Y1644990I-3J-248D01*
G01X-33410Y1644080D01*
X-41240D01*
X-42410Y1638600D01*
X-34070D01*
G02X-33830Y1638300I-4J-249D01*
G01X-34020Y1637380D01*
G01X-41200Y1651000D02*
X-31280D01*
G01X-41300Y1650500D02*
X-31370D01*
G01X-41410Y1650000D02*
X-31470D01*
G01X-41510Y1649500D02*
X-40080D01*
G01X-41620Y1649000D02*
X-40190D01*
G01X-41720Y1648500D02*
X-40300D01*
G01X-41830Y1648000D02*
X-40410D01*
G01X-41940Y1647500D02*
X-40520D01*
G01X-42040Y1647000D02*
X-40620D01*
G01X-42150Y1646500D02*
X-40730D01*
G01X-42260Y1646000D02*
X-40840D01*
G01X-42360Y1645500D02*
X-40950D01*
G01X-42470Y1645000D02*
X-33220D01*
G01X-42570Y1644500D02*
X-33320D01*
G01X-42680Y1644000D02*
X-41260D01*
G01X-42790Y1643500D02*
X-41360D01*
G01X-42890Y1643000D02*
X-41470D01*
G01X-43000Y1642500D02*
X-41580D01*
G01X-43100Y1642000D02*
X-41680D01*
G01X-43210Y1641500D02*
X-41790D01*
G01X-43320Y1641000D02*
X-41900D01*
G01X-43420Y1640500D02*
X-42010D01*
G01X-43530Y1640000D02*
X-42110D01*
G01X-43640Y1639500D02*
X-42220D01*
G01X-43740Y1639000D02*
X-42330D01*
G01X-43850Y1638500D02*
X-33870D01*
G01X-43950Y1638000D02*
X-33890D01*
G01X-43980Y1637500D02*
X-34000D01*
G01X-51520Y1637380D02*
X-52640D01*
G02X-52880Y1637690I4J251D01*
G01X-50260Y1650000D01*
X-54810D01*
G02X-55060Y1650300I-5J250D01*
G01X-54870Y1651210D01*
X-44040D01*
G02X-43800Y1650910I-2J-247D01*
G01X-43980Y1650000D01*
X-48840D01*
X-51520Y1637380D01*
G01X-54910Y1651000D02*
X-43790D01*
G01X-55020Y1650500D02*
X-43880D01*
G01X-54850Y1650000D02*
X-43980D01*
G01X-50370Y1649500D02*
X-48940D01*
G01X-50480Y1649000D02*
X-49050D01*
G01X-50580Y1648500D02*
X-49160D01*
G01X-50690Y1648000D02*
X-49260D01*
G01X-50790Y1647500D02*
X-49370D01*
G01X-50900Y1647000D02*
X-49480D01*
G01X-51010Y1646500D02*
X-49580D01*
G01X-51110Y1646000D02*
X-49690D01*
G01X-51220Y1645500D02*
X-49800D01*
G01X-51330Y1645000D02*
X-49900D01*
G01X-51430Y1644500D02*
X-50010D01*
G01X-51540Y1644000D02*
X-50120D01*
G01X-51640Y1643500D02*
X-50220D01*
G01X-51750Y1643000D02*
X-50330D01*
G01X-51860Y1642500D02*
X-50440D01*
G01X-51960Y1642000D02*
X-50540D01*
G01X-52070Y1641500D02*
X-50650D01*
G01X-52180Y1641000D02*
X-50760D01*
G01X-52280Y1640500D02*
X-50860D01*
G01X-52390Y1640000D02*
X-50970D01*
G01X-52500Y1639500D02*
X-51070D01*
G01X-52600Y1639000D02*
X-51180D01*
G01X-52710Y1638500D02*
X-51290D01*
G01X-52820Y1638000D02*
X-51390D01*
G01X-52850Y1637500D02*
X-51500D01*
G01X-67030Y1639540D02*
X-65690Y1638640D01*
X-63470Y1638180D01*
X-60800Y1639070D01*
X-59680Y1641530D01*
X-60390Y1642980D01*
X-62120Y1643700D01*
X-63120Y1644000D01*
X-65040Y1645200D01*
X-65660Y1646980D01*
X-65550Y1648030D01*
X-65200Y1649020D01*
X-64610Y1649900D01*
X-63780Y1650630D01*
X-62950Y1651080D01*
X-62110Y1651340D01*
X-61290Y1651470D01*
X-60530Y1651500D01*
X-57970Y1650890D01*
X-57140Y1650220D01*
G02X-57120Y1649840I-152J-199D01*
G01X-57810Y1649150D01*
X-58800Y1649920D01*
X-60660Y1650380D01*
X-62780Y1649730D01*
X-63440Y1649080D01*
X-63800Y1648440D01*
X-63950Y1647870D01*
X-63990Y1647430D01*
X-63460Y1646080D01*
X-61780Y1645290D01*
X-60480Y1644910D01*
X-58670Y1643880D01*
X-57950Y1641910D01*
X-58090Y1640870D01*
X-58520Y1639870D01*
X-59170Y1638980D01*
X-60000Y1638240D01*
X-60720Y1637810D01*
X-61610Y1637460D01*
X-62670Y1637230D01*
X-63900Y1637140D01*
X-66780Y1637800D01*
X-67700Y1638420D01*
G02X-67740Y1638800I141J207D01*
G01X-67030Y1639540D01*
G01X-60600Y1651500D02*
X-60520D01*
G01X-63090Y1651000D02*
X-58420D01*
G01X-63920Y1650500D02*
X-57490D01*
G01X-59120Y1650000D02*
X-57040D01*
G01X-64490D02*
X-61900D01*
G01X-58260Y1649500D02*
X-57460D01*
G01X-64880D02*
X-63020D01*
G01X-65210Y1649000D02*
X-63490D01*
G01X-65380Y1648500D02*
X-63770D01*
G01X-65550Y1648000D02*
X-63920D01*
G01X-65610Y1647500D02*
X-63980D01*
G01X-65660Y1647000D02*
X-63820D01*
G01X-65490Y1646500D02*
X-63630D01*
G01X-65320Y1646000D02*
X-63300D01*
G01X-65140Y1645500D02*
X-62220D01*
G01X-64720Y1645000D02*
X-60800D01*
G01X-63920Y1644500D02*
X-59760D01*
G01X-63120Y1644000D02*
X-58870D01*
G01X-61630Y1643500D02*
X-58530D01*
G01X-60420Y1643000D02*
X-58350D01*
G01X-60150Y1642500D02*
X-58160D01*
G01X-59910Y1642000D02*
X-57980D01*
G01X-59690Y1641500D02*
X-58000D01*
G01X-59920Y1641000D02*
X-58080D01*
G01X-60150Y1640500D02*
X-58250D01*
G01X-60370Y1640000D02*
X-58460D01*
G01X-60600Y1639500D02*
X-58790D01*
G01X-67070D02*
X-66960D01*
G01X-61020Y1639000D02*
X-59150D01*
G01X-67550D02*
X-66230D01*
G01X-62520Y1638500D02*
X-59700D01*
G01X-67770D02*
X-65030D01*
G01X-67080Y1638000D02*
X-60400D01*
G01X-65480Y1637500D02*
X-61520D01*
G01X-76850Y1651210D02*
X-74090Y1644080D01*
X-68330Y1651210D01*
X-67250D01*
G02X-67060Y1650800I0J-249D01*
G01X-73630Y1643010D01*
X-74820Y1637380D01*
X-75940D01*
G02X-76180Y1637690I4J251D01*
G01X-75070Y1642920D01*
X-78400Y1650870D01*
G02X-78170Y1651210I229J93D01*
G01X-76850D01*
G01X-68500Y1651000D02*
X-67000D01*
G01X-78420D02*
X-76760D01*
G01X-68900Y1650500D02*
X-67320D01*
G01X-78250D02*
X-76570D01*
G01X-69310Y1650000D02*
X-67740D01*
G01X-78040D02*
X-76380D01*
G01X-69710Y1649500D02*
X-68160D01*
G01X-77830D02*
X-76180D01*
G01X-70110Y1649000D02*
X-68580D01*
G01X-77620D02*
X-75990D01*
G01X-70520Y1648500D02*
X-69000D01*
G01X-77410D02*
X-75800D01*
G01X-70920Y1648000D02*
X-69420D01*
G01X-77200D02*
X-75600D01*
G01X-71330Y1647500D02*
X-69850D01*
G01X-76990D02*
X-75410D01*
G01X-71730Y1647000D02*
X-70270D01*
G01X-76780D02*
X-75220D01*
G01X-72130Y1646500D02*
X-70690D01*
G01X-76570D02*
X-75020D01*
G01X-72540Y1646000D02*
X-71110D01*
G01X-76360D02*
X-74830D01*
G01X-72940Y1645500D02*
X-71530D01*
G01X-76150D02*
X-74640D01*
G01X-73350Y1645000D02*
X-71960D01*
G01X-75940D02*
X-74440D01*
G01X-73750Y1644500D02*
X-72380D01*
G01X-75730D02*
X-74250D01*
G01X-75520Y1644000D02*
X-72800D01*
G01X-75310Y1643500D02*
X-73220D01*
G01X-75100Y1643000D02*
X-73640D01*
G01X-75160Y1642500D02*
X-73740D01*
G01X-75270Y1642000D02*
X-73850D01*
G01X-75370Y1641500D02*
X-73950D01*
G01X-75480Y1641000D02*
X-74060D01*
G01X-75590Y1640500D02*
X-74160D01*
G01X-75690Y1640000D02*
X-74270D01*
G01X-75800Y1639500D02*
X-74380D01*
G01X-75900Y1639000D02*
X-74480D01*
G01X-76010Y1638500D02*
X-74590D01*
G01X-76120Y1638000D02*
X-74700D01*
G01X-76150Y1637500D02*
X-74800D01*
G01X-92300Y1700500D02*
X-84610D01*
G01X-94750Y1700000D02*
X-82180D01*
G01X-85750Y1695500D02*
X-79520D01*
G01X-84480Y1695000D02*
X-79550D01*
G01X-83490Y1694500D02*
X-79580D01*
G01X-82660Y1694000D02*
X-79610D01*
G01X-81920Y1693500D02*
X-79640D01*
G01X-81210Y1693000D02*
X-79660D01*
G01X-80570Y1692500D02*
X-79690D01*
G01X-95670Y1676500D02*
X-81230D01*
G01X-95090Y1676000D02*
X-81120D01*
G01X-94520Y1675500D02*
X-81020D01*
G01X-94020Y1675000D02*
X-80980D01*
G01X-93520Y1674500D02*
X-80950D01*
G01X-93020Y1674000D02*
X-80910D01*
G01X-92570Y1673500D02*
X-80920D01*
G01X-92200Y1673000D02*
X-80960D01*
G01X-91900Y1672500D02*
X-81010D01*
G01X-91660Y1672000D02*
X-81060D01*
G01X-91500Y1671500D02*
X-81110D01*
G01X-91370Y1671000D02*
X-81180D01*
G01X-91320Y1670500D02*
X-81330D01*
G01X-91280Y1670000D02*
X-81480D01*
G01X-91320Y1669500D02*
X-81630D01*
G01X-91380Y1669000D02*
X-81780D01*
G01X-91500Y1668500D02*
X-81960D01*
G01X-91680Y1668000D02*
X-82230D01*
G01X-91930Y1667500D02*
X-82500D01*
G01X-92260Y1667000D02*
X-82760D01*
G01X-92740Y1666500D02*
X-83030D01*
G01X-93360Y1666000D02*
X-83400D01*
G01X-94280Y1665500D02*
X-83820D01*
G01X-8090Y1689740D02*
X-10340Y1684870D01*
G02X-10750Y1684810I-225J109D01*
G01X-10800Y1684860D01*
X-11680Y1685500D01*
X-12910Y1686010D01*
X-14530Y1686220D01*
X-15930D01*
X-20140Y1667170D01*
X-20700Y1663390D01*
X-20580Y1662470D01*
X-20290Y1661670D01*
X-19890Y1660980D01*
X-19960Y1660830D01*
X-30580D01*
X-30650Y1661020D01*
X-30000Y1661680D01*
X-29460Y1662360D01*
X-29020Y1663100D01*
X-28340Y1664830D01*
X-27770Y1667070D01*
X-23540Y1686220D01*
X-26280D01*
X-27900Y1686010D01*
X-29140Y1685500D01*
X-29400Y1685310D01*
G02X-29800Y1685570I-156J198D01*
G01X-28760Y1690090D01*
X-8320D01*
G02X-8090Y1689740I1J-250D01*
G01X-28780Y1690000D02*
X-8130D01*
G01X-28900Y1689500D02*
X-8200D01*
G01X-29010Y1689000D02*
X-8440D01*
G01X-29130Y1688500D02*
X-8670D01*
G01X-29240Y1688000D02*
X-8900D01*
G01X-29350Y1687500D02*
X-9130D01*
G01X-29470Y1687000D02*
X-9360D01*
G01X-29580Y1686500D02*
X-9590D01*
G01X-23590Y1686000D02*
X-15980D01*
G01X-29700D02*
X-27930D01*
G01X-23700Y1685500D02*
X-16090D01*
G01X-29800D02*
X-29140D01*
G01X-23810Y1685000D02*
X-16200D01*
G01X-23920Y1684500D02*
X-16310D01*
G01X-24030Y1684000D02*
X-16420D01*
G01X-24140Y1683500D02*
X-16530D01*
G01X-24250Y1683000D02*
X-16640D01*
G01X-24360Y1682500D02*
X-16750D01*
G01X-24480Y1682000D02*
X-16860D01*
G01X-24580Y1681500D02*
X-16970D01*
G01X-24700Y1681000D02*
X-17080D01*
G01X-24810Y1680500D02*
X-17190D01*
G01X-24920Y1680000D02*
X-17300D01*
G01X-25030Y1679500D02*
X-17420D01*
G01X-25140Y1679000D02*
X-17520D01*
G01X-25250Y1678500D02*
X-17640D01*
G01X-25360Y1678000D02*
X-17750D01*
G01X-25470Y1677500D02*
X-17860D01*
G01X-25580Y1677000D02*
X-17970D01*
G01X-25690Y1676500D02*
X-18080D01*
G01X-25800Y1676000D02*
X-18190D01*
G01X-25910Y1675500D02*
X-18300D01*
G01X-26020Y1675000D02*
X-18410D01*
G01X-26130Y1674500D02*
X-18520D01*
G01X-26240Y1674000D02*
X-18630D01*
G01X-26350Y1673500D02*
X-18740D01*
G01X-26460Y1673000D02*
X-18850D01*
G01X-26570Y1672500D02*
X-18960D01*
G01X-26680Y1672000D02*
X-19080D01*
G01X-26800Y1671500D02*
X-19180D01*
G01X-26900Y1671000D02*
X-19300D01*
G01X-27020Y1670500D02*
X-19410D01*
G01X-27130Y1670000D02*
X-19520D01*
G01X-27240Y1669500D02*
X-19630D01*
G01X-27350Y1669000D02*
X-19740D01*
G01X-27460Y1668500D02*
X-19850D01*
G01X-27570Y1668000D02*
X-19960D01*
G01X-27680Y1667500D02*
X-20070D01*
G01X-27790Y1667000D02*
X-20170D01*
G01X-27920Y1666500D02*
X-20240D01*
G01X-28040Y1666000D02*
X-20320D01*
G01X-28170Y1665500D02*
X-20390D01*
G01X-28290Y1665000D02*
X-20460D01*
G01X-28470Y1664500D02*
X-20540D01*
G01X-28660Y1664000D02*
X-20610D01*
G01X-28860Y1663500D02*
X-20680D01*
G01X-29080Y1663000D02*
X-20650D01*
G01X-29380Y1662500D02*
X-20590D01*
G01X-29740Y1662000D02*
X-20410D01*
G01X-30170Y1661500D02*
X-20190D01*
G01X-30640Y1661000D02*
X-19900D01*
G01X-23890Y1639100D02*
X-23480D01*
X-16830Y1651210D01*
X-14850D01*
G02X-14610Y1650910I-2J-248D01*
G01X-17480Y1637380D01*
X-18530D01*
G02X-18780Y1637690I-3J253D01*
G01X-17110Y1645550D01*
X-16210Y1649420D01*
X-16690D01*
X-23300Y1637380D01*
X-24850D01*
X-26310Y1649420D01*
X-26790D01*
X-27550Y1645650D01*
X-29300Y1637380D01*
X-30360D01*
G02X-30600Y1637690I5J252D01*
G01X-27730Y1651210D01*
X-25390D01*
X-23890Y1639100D01*
G01X-27770Y1651000D02*
X-25360D01*
G01X-27880Y1650500D02*
X-25300D01*
G01X-27990Y1650000D02*
X-25240D01*
G01X-28090Y1649500D02*
X-25180D01*
G01X-26260Y1649000D02*
X-25120D01*
G01X-28200D02*
X-26880D01*
G01X-26200Y1648500D02*
X-25050D01*
G01X-28300D02*
X-26980D01*
G01X-26140Y1648000D02*
X-24990D01*
G01X-28410D02*
X-27080D01*
G01X-26070Y1647500D02*
X-24930D01*
G01X-28520D02*
X-27180D01*
G01X-26010Y1647000D02*
X-24870D01*
G01X-28620D02*
X-27280D01*
G01X-25950Y1646500D02*
X-24810D01*
G01X-28730D02*
X-27380D01*
G01X-25890Y1646000D02*
X-24740D01*
G01X-28840D02*
X-27480D01*
G01X-19960Y1645500D02*
X-18850D01*
G01X-25830D02*
X-24680D01*
G01X-28940D02*
X-27580D01*
G01X-20240Y1645000D02*
X-19120D01*
G01X-25770D02*
X-24620D01*
G01X-29050D02*
X-27690D01*
G01X-20510Y1644500D02*
X-19400D01*
G01X-25710D02*
X-24560D01*
G01X-29150D02*
X-27790D01*
G01X-20790Y1644000D02*
X-19670D01*
G01X-25650D02*
X-24500D01*
G01X-29260D02*
X-27900D01*
G01X-21060Y1643500D02*
X-19950D01*
G01X-25590D02*
X-24440D01*
G01X-29360D02*
X-28000D01*
G01X-21340Y1643000D02*
X-20220D01*
G01X-25530D02*
X-24370D01*
G01X-29470D02*
X-28110D01*
G01X-21610Y1642500D02*
X-20500D01*
G01X-25470D02*
X-24310D01*
G01X-29580D02*
X-28220D01*
G01X-21890Y1642000D02*
X-20770D01*
G01X-25410D02*
X-24250D01*
G01X-29680D02*
X-28320D01*
G01X-22160Y1641500D02*
X-21040D01*
G01X-25350D02*
X-24190D01*
G01X-29790D02*
X-28430D01*
G01X-22440Y1641000D02*
X-21320D01*
G01X-25290D02*
X-24120D01*
G01X-29900D02*
X-28530D01*
G01X-22710Y1640500D02*
X-21590D01*
G01X-25220D02*
X-24060D01*
G01X-30000D02*
X-28640D01*
G01X-22980Y1640000D02*
X-21870D01*
G01X-25160D02*
X-24000D01*
G01X-30110D02*
X-28740D01*
G01X-23260Y1639500D02*
X-22140D01*
G01X-25100D02*
X-23940D01*
G01X-30210D02*
X-28850D01*
G01X-25040Y1639000D02*
X-22420D01*
G01X-30320D02*
X-28960D01*
G01X-24980Y1638500D02*
X-22690D01*
G01X-30430D02*
X-29060D01*
G01X-24920Y1638000D02*
X-22970D01*
G01X-30530D02*
X-29170D01*
G01X-24860Y1637500D02*
X-23240D01*
G01X-30560D02*
X-29270D01*
G01X-1390Y1692500D02*
Y1698370D01*
X-260D01*
X1890Y1698360D01*
X3470Y1697570D01*
X3660Y1696850D01*
X3210Y1695790D01*
X1580Y1695110D01*
X2830Y1694140D01*
X3310Y1693400D01*
X3640Y1692880D01*
G02X3420Y1692500I-215J-129D01*
G01X2750D01*
X2250Y1693420D01*
X1480Y1694590D01*
X150Y1695130D01*
X-510D01*
Y1692500D01*
X-1390D01*
G01X2740Y1696800D02*
X2490Y1696080D01*
X1420Y1695630D01*
X310Y1695620D01*
X-510D01*
Y1697870D01*
X320D01*
X1940Y1697770D01*
X2740Y1696800D01*
G01X-1390Y1698000D02*
X2610D01*
G01X2170Y1697500D02*
X3490D01*
G01X-1390D02*
X-510D01*
G01X2580Y1697000D02*
X3620D01*
G01X-1390D02*
X-510D01*
G01X2640Y1696500D02*
X3510D01*
G01X-1390D02*
X-510D01*
G01X2310Y1696000D02*
X3300D01*
G01X-1390D02*
X-510D01*
G01X-1390Y1695500D02*
X2510D01*
G01X470Y1695000D02*
X1720D01*
G01X-1390D02*
X-510D01*
G01X1540Y1694500D02*
X2360D01*
G01X-1390D02*
X-510D01*
G01X1870Y1694000D02*
X2920D01*
G01X-1390D02*
X-510D01*
G01X2190Y1693500D02*
X3240D01*
G01X-1390D02*
X-510D01*
G01X2480Y1693000D02*
X3560D01*
G01X-1390D02*
X-510D01*
G01X2750Y1692500D02*
X3450D01*
G01X-1390D02*
X-510D01*
G01X1290Y1701200D02*
X4400Y1700440D01*
X6650Y1698340D01*
X7480Y1695450D01*
X6650Y1692570D01*
X4380Y1690480D01*
X1290Y1689710D01*
X-1830Y1690490D01*
X-4080Y1692600D01*
X-4900Y1695450D01*
X-4060Y1698360D01*
X-1760Y1700460D01*
X1290Y1701200D01*
G01X-3420Y1692880D02*
X-4160Y1695450D01*
X-3400Y1698010D01*
X-1430Y1699860D01*
X1300Y1700530D01*
X3990Y1699890D01*
X6000Y1698030D01*
X6760Y1695450D01*
X6030Y1692910D01*
X4040Y1691030D01*
X1300Y1690350D01*
X-1400Y1691010D01*
X-3420Y1692880D01*
G01X1430Y1700500D02*
X4140D01*
G01X-1610D02*
X1160D01*
G01X3510Y1700000D02*
X4870D01*
G01X-2270D02*
X-880D01*
G01X4410Y1699500D02*
X5410D01*
G01X-2810D02*
X-1820D01*
G01X4950Y1699000D02*
X5940D01*
G01X-3360D02*
X-2350D01*
G01X5490Y1698500D02*
X6480D01*
G01X-3900D02*
X-2880D01*
G01X6010Y1698000D02*
X6750D01*
G01X-4160D02*
X-3410D01*
G01X6160Y1697500D02*
X6890D01*
G01X-4310D02*
X-3560D01*
G01X6300Y1697000D02*
X7040D01*
G01X-4450D02*
X-3700D01*
G01X6450Y1696500D02*
X7180D01*
G01X-4600D02*
X-3850D01*
G01X6600Y1696000D02*
X7320D01*
G01X-4740D02*
X-3990D01*
G01X6740Y1695500D02*
X7460D01*
G01X-4890D02*
X-4140D01*
G01X6630Y1695000D02*
X7350D01*
G01X-4770D02*
X-4030D01*
G01X6490Y1694500D02*
X7200D01*
G01X-4630D02*
X-3880D01*
G01X6340Y1694000D02*
X7060D01*
G01X-4490D02*
X-3740D01*
G01X6200Y1693500D02*
X6910D01*
G01X-4340D02*
X-3600D01*
G01X6060Y1693000D02*
X6770D01*
G01X-4200D02*
X-3450D01*
G01X5600Y1692500D02*
X6570D01*
G01X-3980D02*
X-3010D01*
G01X5060Y1692000D02*
X6030D01*
G01X-3440D02*
X-2470D01*
G01X4530Y1691500D02*
X5490D01*
G01X-2910D02*
X-1920D01*
G01X3900Y1691000D02*
X4950D01*
G01X-2380D02*
X-1350D01*
G01X1910Y1690500D02*
X4410D01*
G01X-1840D02*
X680D01*
G01X120Y1690000D02*
X2470D01*
G01X-12840Y1639540D02*
X-11500Y1638640D01*
X-9280Y1638180D01*
X-6600Y1639070D01*
X-5490Y1641530D01*
X-6190Y1642980D01*
X-7930Y1643700D01*
X-8930Y1644000D01*
X-10850Y1645200D01*
X-11470Y1646980D01*
X-11360Y1648030D01*
X-11010Y1649020D01*
X-10420Y1649900D01*
X-9580Y1650630D01*
X-8760Y1651080D01*
X-7920Y1651340D01*
X-7090Y1651470D01*
X-6340Y1651500D01*
X-3780Y1650890D01*
X-2940Y1650220D01*
G02X-2920Y1649840I-159J-199D01*
G01X-3620Y1649150D01*
X-4610Y1649920D01*
X-6470Y1650380D01*
X-8590Y1649730D01*
X-9250Y1649080D01*
X-9610Y1648440D01*
X-9760Y1647870D01*
X-9800Y1647430D01*
X-9270Y1646080D01*
X-7590Y1645290D01*
X-6290Y1644910D01*
X-4480Y1643880D01*
X-3750Y1641910D01*
X-3900Y1640870D01*
X-4320Y1639870D01*
X-4980Y1638980D01*
X-5810Y1638240D01*
X-6530Y1637810D01*
X-7420Y1637460D01*
X-8480Y1637230D01*
X-9710Y1637140D01*
X-12590Y1637800D01*
X-13510Y1638420D01*
G02X-13550Y1638800I143J207D01*
G01X-12840Y1639540D01*
G01X-6410Y1651500D02*
X-6330D01*
G01X-8900Y1651000D02*
X-4230D01*
G01X-9730Y1650500D02*
X-3300D01*
G01X-4930Y1650000D02*
X-2850D01*
G01X-10300D02*
X-7710D01*
G01X-4070Y1649500D02*
X-3270D01*
G01X-10680D02*
X-8830D01*
G01X-11010Y1649000D02*
X-9300D01*
G01X-11190Y1648500D02*
X-9580D01*
G01X-11360Y1648000D02*
X-9730D01*
G01X-11420Y1647500D02*
X-9790D01*
G01X-11470Y1647000D02*
X-9630D01*
G01X-11300Y1646500D02*
X-9440D01*
G01X-11130Y1646000D02*
X-9100D01*
G01X-10950Y1645500D02*
X-8030D01*
G01X-10520Y1645000D02*
X-6610D01*
G01X-9730Y1644500D02*
X-5570D01*
G01X-8930Y1644000D02*
X-4680D01*
G01X-7440Y1643500D02*
X-4340D01*
G01X-6230Y1643000D02*
X-4150D01*
G01X-5960Y1642500D02*
X-3970D01*
G01X-5720Y1642000D02*
X-3790D01*
G01X-5500Y1641500D02*
X-3810D01*
G01X-5730Y1641000D02*
X-3880D01*
G01X-5960Y1640500D02*
X-4060D01*
G01X-6180Y1640000D02*
X-4270D01*
G01X-6410Y1639500D02*
X-4600D01*
G01X-12880D02*
X-12770D01*
G01X-6830Y1639000D02*
X-4960D01*
G01X-13350D02*
X-12040D01*
G01X-8330Y1638500D02*
X-5510D01*
G01X-13580D02*
X-10840D01*
G01X-12890Y1638000D02*
X-6210D01*
G01X-11280Y1637500D02*
X-7320D01*
G01X-12880Y1686000D02*
X-9820D01*
G01X-11670Y1685500D02*
X-10050D01*
G01X-10990Y1685000D02*
X-10280D01*
G01X-16950Y1651000D02*
X-14600D01*
G01X-17220Y1650500D02*
X-14700D01*
G01X-17500Y1650000D02*
X-14800D01*
G01X-17770Y1649500D02*
X-14910D01*
G01X-16310Y1649000D02*
X-15010D01*
G01X-18040D02*
X-16920D01*
G01X-16420Y1648500D02*
X-15120D01*
G01X-18320D02*
X-17200D01*
G01X-16540Y1648000D02*
X-15220D01*
G01X-18590D02*
X-17470D01*
G01X-16660Y1647500D02*
X-15330D01*
G01X-18870D02*
X-17750D01*
G01X-16770Y1647000D02*
X-15440D01*
G01X-19140D02*
X-18020D01*
G01X-16890Y1646500D02*
X-15540D01*
G01X-19420D02*
X-18300D01*
G01X-17000Y1646000D02*
X-15650D01*
G01X-19690D02*
X-18570D01*
G01X-17120Y1645500D02*
X-15760D01*
G01X-17220Y1645000D02*
X-15860D01*
G01X-17330Y1644500D02*
X-15970D01*
G01X-17440Y1644000D02*
X-16070D01*
G01X-17540Y1643500D02*
X-16180D01*
G01X-17650Y1643000D02*
X-16290D01*
G01X-17750Y1642500D02*
X-16390D01*
G01X-17860Y1642000D02*
X-16500D01*
G01X-17970Y1641500D02*
X-16600D01*
G01X-18070Y1641000D02*
X-16710D01*
G01X-18180Y1640500D02*
X-16820D01*
G01X-18280Y1640000D02*
X-16920D01*
G01X-18390Y1639500D02*
X-17030D01*
G01X-18500Y1639000D02*
X-17130D01*
G01X-18600Y1638500D02*
X-17240D01*
G01X-18710Y1638000D02*
X-17350D01*
G01X-18740Y1637500D02*
X-17450D01*
G01X450Y1701000D02*
X2110D01*
G54D11*
G01X-806600Y-17400D02*
X-982600D01*
Y922600D01*
G01D02*
X-806600D01*
G01X-720000Y1600000D02*
G03X-940000Y1380000I0J-220000D01*
G01D02*
G03X-720000Y1160000I220000J0D01*
G01X-852520Y1139120D02*
G03X-854080Y961110I12527J-89122D01*
G01X-690000Y1650000D02*
Y1635000D01*
X-870000D01*
Y1650000D01*
G01X-640000Y2030000D02*
Y1770000D01*
X-711000Y1737000D01*
X-849000D01*
X-920000Y1770000D01*
Y2030000D01*
X-849000Y2063000D01*
X-713000D01*
X-640000Y2030000D01*
G01X-690000Y1710000D02*
Y1725000D01*
X-870000D01*
Y1710000D01*
G01X-806600Y174000D02*
Y-17400D01*
G01X-743500Y27000D02*
X-791500D01*
Y3000D01*
X-743500D01*
Y27000D01*
G01X-781350Y88080D02*
G03X-658870Y87000I61350J11923D01*
G01X-658650Y111920D02*
G03X-781130Y113000I-61350J-11923D01*
G01X-781510Y201390D02*
Y183610D01*
X-748490D01*
Y201390D01*
X-781510D01*
G01X-806600Y272000D02*
Y922600D01*
G01X-748500Y469500D02*
X-796500D01*
Y445500D01*
X-748500D01*
Y469500D01*
G01X-781350Y528080D02*
G03X-658870Y527000I61350J11923D01*
G01X-658650Y551920D02*
G03X-781130Y553000I-61350J-11923D01*
G01X-691000Y635000D02*
X-789000D01*
Y695000D01*
X-691000D01*
Y635000D01*
G01X-797000Y638000D02*
Y648000D01*
G01X-792000Y643000D02*
X-802000D01*
G01X-766500Y876840D02*
G03X-767750Y714510I150868J-82332D01*
G01X-746000Y893000D02*
X-794000D01*
Y927000D01*
X-746000D01*
Y893000D01*
G01X-827480Y960880D02*
G03X-825920Y1138890I-12527J89122D01*
G01X-630000Y1380000D02*
G03I-90000J0D01*
G01X-855000Y2100000D02*
G03X-805000I25000J0D01*
G01X-855000D02*
Y2200000D01*
G01X-805000D02*
Y2100000D01*
G01Y2200000D02*
G03X-855000I-25000J0D01*
G01X-660870Y-1510D02*
X-709130D01*
G01D02*
Y31510D01*
G01X-660870D02*
X-709130D01*
G01X-706000Y251940D02*
Y280000D01*
G02X-698000Y288000I8000J0D01*
G01X-710000Y204500D02*
Y195500D01*
X-718000D01*
G01X-732000D02*
X-740000D01*
Y204500D01*
G01X-728000Y209500D02*
X-722000D01*
G01X-709000Y260500D02*
X-741000D01*
Y244500D01*
X-714280D01*
G01X-709000Y251110D02*
Y260500D01*
G01X-741000Y224500D02*
X-709000D01*
Y233890D01*
G01X-714280Y240500D02*
X-741000D01*
Y224500D01*
G01X-749000Y220500D02*
X-781000D01*
Y204500D01*
X-749000D01*
Y220500D01*
G01Y240500D02*
X-781000D01*
Y224500D01*
X-749000D01*
Y240500D01*
G01Y260500D02*
X-781000D01*
Y244500D01*
X-749000D01*
Y260500D01*
G01X-741000Y264500D02*
X-709000D01*
Y280500D01*
X-741000D01*
Y264500D01*
G01X-726510Y378890D02*
Y361110D01*
X-693490D01*
Y378890D01*
X-726510D01*
G01X-741180Y434500D02*
Y385500D01*
X-763820D01*
Y434500D01*
X-741180D01*
G01X-711630Y471510D02*
X-663370D01*
G01X-711630Y438490D02*
X-663370D01*
G01X-711630Y471510D02*
Y438490D01*
G01X-743500Y713160D02*
G03X-742250Y875490I-150870J82332D01*
G01X-712000Y826000D02*
Y874000D01*
X-678000D01*
Y826000D01*
X-712000D01*
G01X-686000Y893000D02*
X-734000D01*
Y927000D01*
X-686000D01*
Y893000D01*
G01X-652520Y1139120D02*
G03X-654080Y961110I12527J-89122D01*
G01X-720000Y1160000D02*
G03X-500000Y1380000I0J220000D01*
G01X-769000Y1130000D02*
X-779000D01*
G01X-774000Y1135000D02*
Y1125000D01*
G01X-500000Y1380000D02*
G03X-720000Y1600000I-220000J0D01*
G01X-755000Y2100000D02*
G03X-705000I25000J0D01*
G01X-755000D02*
Y2200000D01*
G01X-705000D02*
Y2100000D01*
G01Y2200000D02*
G03X-755000I-25000J0D01*
G01X-660870Y-1510D02*
Y31510D01*
G01X-613260Y211120D02*
X-641200Y180640D01*
Y106980D01*
X-613260Y68880D01*
G01X-646000Y57000D02*
X-666000D01*
G01X-656000Y67000D02*
Y47000D01*
G01X-700000Y220500D02*
Y229500D01*
X-692000D01*
G01X-678000D02*
X-670000D01*
Y220500D01*
G01X-682000Y215500D02*
X-688000D01*
G01X-668490Y243610D02*
Y261390D01*
X-701510D01*
Y251330D01*
G01X-695570Y243610D02*
X-668490D01*
G01X-701000Y184500D02*
X-669000D01*
Y200500D01*
X-701000D01*
Y184500D01*
G01X-698000Y288000D02*
X-640000D01*
G01X-652000Y316750D02*
X-688000D01*
Y353250D01*
X-652000D01*
Y316750D01*
G01X-669000Y280500D02*
X-701000D01*
Y264500D01*
X-669000D01*
Y280500D01*
G01X-673000Y416000D02*
Y384000D01*
X-657000D01*
Y416000D01*
X-673000D01*
G01X-677000Y384000D02*
Y416000D01*
X-693000D01*
Y384000D01*
X-677000D01*
G01X-663370Y471510D02*
Y438490D01*
G01X-613260Y551120D02*
X-641200Y520640D01*
Y446980D01*
X-613260Y408880D01*
G01X-652000Y493000D02*
X-672000D01*
G01X-662000Y503000D02*
Y483000D01*
G01X-565890Y904520D02*
G03X-568070Y655680I10889J-124525D01*
G01X-626000Y893000D02*
X-674000D01*
Y927000D01*
X-626000D01*
Y893000D01*
G01X-627480Y960880D02*
G03X-625920Y1138890I-12527J89122D01*
G01X-557000Y1154000D02*
Y1106000D01*
X-533000D01*
Y1154000D01*
X-557000D01*
G01X-569000Y1130000D02*
X-579000D01*
G01X-574000Y1135000D02*
Y1125000D01*
G01X-390000Y1650000D02*
Y1635000D01*
X-570000D01*
Y1650000D01*
G01X-340000Y2030000D02*
Y1770000D01*
X-411000Y1737000D01*
X-549000D01*
X-620000Y1770000D01*
Y2030000D01*
X-549000Y2063000D01*
X-413000D01*
X-340000Y2030000D01*
G01X-390000Y1710000D02*
Y1725000D01*
X-570000D01*
Y1710000D01*
G01X-555000Y2100000D02*
G03X-505000I25000J0D01*
G01X-555000D02*
Y2200000D01*
G01X-505000D02*
G03X-555000I-25000J0D01*
G01X-516740Y68880D02*
X-486260Y106980D01*
G01D02*
Y180640D01*
X-516740Y211120D01*
G01X-486260Y446980D02*
Y520640D01*
X-516740Y551120D01*
G01Y408880D02*
X-486260Y446980D01*
G01X-544110Y655480D02*
G03X-541930Y904320I-10889J124525D01*
G01X-483000Y893000D02*
X-463000D01*
G01X-485000Y982000D02*
Y968000D01*
X-515000D01*
Y982000D01*
X-485000D01*
G01X-479000Y972000D02*
Y978000D01*
G01X-476000Y975000D02*
X-482000D01*
G01X-481110Y1036510D02*
X-498890D01*
Y1003490D01*
X-481110D01*
Y1036510D01*
G01X-476510Y1038890D02*
Y1021110D01*
X-443490D01*
Y1038890D01*
X-476510D01*
G01X-483490Y1051110D02*
Y1068890D01*
X-516510D01*
Y1051110D01*
X-483490D01*
G01X-516000Y1072000D02*
X-484000D01*
Y1088000D01*
X-516000D01*
Y1072000D01*
G01X-545000Y1155000D02*
Y1167930D01*
G02X-540000Y1180000I17070J-1D01*
G01X-498000Y1106000D02*
Y1154000D01*
X-522000D01*
Y1106000D01*
X-498000D01*
G01X-462000Y1139000D02*
Y1171000D01*
X-478000D01*
Y1139000D01*
X-462000D01*
G01X-338160Y1601500D02*
G03X-500490Y1602750I-82332J-150870D01*
G01X-501840Y1578500D02*
G03X-339510Y1577250I82332J150868D01*
G01X-505000Y2200000D02*
Y2100000D01*
G01X-64000Y296000D02*
Y24000D01*
X-476000D01*
Y296000D01*
X-64000D01*
G01Y636000D02*
Y364000D01*
X-476000D01*
Y636000D01*
X-64000D01*
G01X-413250Y838310D02*
G03X-336960Y837640I38251J11693D01*
G01X-336750Y861690D02*
G03X-413040Y862360I-38251J-11693D01*
G01X-417000Y938000D02*
X-423000D01*
G01X-404000Y923000D02*
X-436000D01*
Y907000D01*
X-404000D01*
Y923000D01*
G01X-473000Y903000D02*
Y883000D01*
G01X-435000Y943000D02*
Y952000D01*
X-427000D01*
G01X-413000D02*
X-405000D01*
Y943000D01*
G01X-395990Y1001110D02*
Y1018890D01*
X-429010D01*
Y1001110D01*
X-395990D01*
G01X-439000Y983000D02*
X-471000D01*
Y967000D01*
X-439000D01*
Y983000D01*
G01X-444000Y1018000D02*
X-476000D01*
Y1002000D01*
X-444000D01*
Y1018000D01*
G01X-395990Y1021110D02*
Y1038890D01*
X-429010D01*
Y1021110D01*
X-395990D01*
G01X-454500Y1101320D02*
X-405500D01*
Y1078680D01*
X-454500D01*
Y1101320D01*
G01X-421110Y1171510D02*
X-438890D01*
Y1138490D01*
X-421110D01*
Y1171510D01*
G01X-401110D02*
X-418890D01*
Y1138490D01*
X-401110D01*
Y1171510D01*
G01X-442000Y1139000D02*
Y1171000D01*
X-458000D01*
Y1139000D01*
X-442000D01*
G01X-455000Y1172500D02*
Y1190000D01*
G01D02*
G03X-460000Y1195000I-5000J0D01*
G01X-438250Y1267050D02*
X-442030Y1269700D01*
X-445300Y1272970D01*
X-447950Y1276750D01*
X-449900Y1280940D01*
X-451100Y1285400D01*
X-451500Y1290000D01*
X-451100Y1294600D01*
X-449900Y1299060D01*
X-447950Y1303250D01*
X-445300Y1307030D01*
X-442030Y1310300D01*
X-438250Y1312950D01*
X-434060Y1314900D01*
X-429600Y1316100D01*
X-425000Y1316500D01*
X-420400Y1316100D01*
X-415930Y1314900D01*
X-411750Y1312950D01*
X-407970Y1310300D01*
X-404700Y1307030D01*
X-402050Y1303250D01*
X-400100Y1299060D01*
X-398900Y1294600D01*
X-398500Y1290000D01*
X-398900Y1285400D01*
X-400100Y1280940D01*
X-402050Y1276750D01*
X-404700Y1272970D01*
X-407970Y1269700D01*
X-411750Y1267050D01*
G01X-425000Y1321000D02*
Y1331000D01*
G01X-430000Y1326000D02*
X-420000D01*
G01X-460000Y1525000D02*
X-475000D01*
Y1345000D01*
X-460000D01*
G01X-455000Y2100000D02*
G03X-405000I25000J0D01*
G01X-455000D02*
Y2200000D01*
G01X-405000D02*
Y2100000D01*
G01Y2200000D02*
G03X-455000I-25000J0D01*
G01X-356000Y703000D02*
X-359000D01*
Y747000D01*
X-356000D01*
G01X-334000Y703000D02*
X-331000D01*
Y747000D01*
X-334000D01*
G01X-345000Y757000D02*
Y767000D01*
G01X-340000Y762000D02*
X-350000D01*
G01X-386510Y801390D02*
Y783610D01*
X-353490D01*
Y801390D01*
X-386510D01*
G01X-354000Y778000D02*
X-386000D01*
Y762000D01*
X-354000D01*
Y778000D01*
G01X-335000Y820000D02*
X-345000D01*
G01X-340000Y825000D02*
Y815000D01*
G01X-357000Y938000D02*
X-363000D01*
G01X-321110Y961510D02*
X-338890D01*
Y928490D01*
X-321110D01*
Y961510D01*
G01X-363490Y906110D02*
Y923890D01*
X-396510D01*
Y906110D01*
X-363490D01*
G01X-321500Y923000D02*
X-353500D01*
Y907000D01*
X-321500D01*
Y923000D01*
G01X-398000Y961000D02*
Y929000D01*
X-382000D01*
Y961000D01*
X-398000D01*
G01X-325500Y1092900D02*
X-279800D01*
Y989300D01*
X-325500D01*
Y1032330D01*
G01X-375000Y943000D02*
Y952000D01*
X-367000D01*
G01X-353000D02*
X-345000D01*
Y943000D01*
G01X-363500Y967000D02*
X-331500D01*
Y983000D01*
X-363500D01*
Y967000D01*
G01X-325500Y1049870D02*
Y1092900D01*
G01X-393000Y1091000D02*
Y1059000D01*
X-377000D01*
Y1091000D01*
X-393000D01*
G01X-366000Y1111000D02*
X-369000D01*
Y1059000D01*
X-366000D01*
G01X-354000D02*
X-351000D01*
Y1111000D01*
X-354000D01*
G01X-324500Y1248250D02*
X-280000D01*
Y1147750D01*
X-324500D01*
Y1248250D01*
G01X-377000Y1099000D02*
Y1131000D01*
X-393000D01*
Y1099000D01*
X-377000D01*
G01X-369000Y1121000D02*
X-351000D01*
G01X-360000Y1130000D02*
Y1112000D01*
G01X-337500Y1235750D02*
Y1199250D01*
G01X-387500Y1235750D02*
Y1199250D01*
G01X-330000Y1286000D02*
Y1374000D01*
X-370000D01*
Y1286000D01*
X-330000D01*
G01X-400000Y1525000D02*
X-385000D01*
Y1345000D01*
X-400000D01*
G01X-325000Y1622000D02*
X-323000Y1620000D01*
X-325000Y1618000D01*
Y1622000D01*
G01Y1656000D02*
X-323000Y1654000D01*
X-325000Y1652000D01*
Y1656000D01*
G01Y1688000D02*
X-323000Y1686000D01*
X-325000Y1684000D01*
Y1688000D01*
G01X-347680Y2099390D02*
X-285810Y2037520D01*
G01X-347680Y2141820D02*
G03Y2099390I20861J-21215D01*
G01X-305250Y2141820D02*
G03X-347680I-21215J-20859D01*
G01X-303540Y-15330D02*
G03X-227190Y-15840I38661J72441D01*
G01X-226460Y5330D02*
G03X-302810Y5840I-38661J-72441D01*
G01X-303540Y324670D02*
G03X-227190Y324160I38661J72441D01*
G01X-226460Y345330D02*
G03X-302810Y345840I-38661J-72441D01*
G01X-270000Y690000D02*
Y672000D01*
G01X-280000Y727500D02*
Y692500D01*
X-260000D01*
Y727500D01*
X-280000D01*
G01X-247000Y703000D02*
X-255000D01*
Y712000D01*
G01X-322000Y739000D02*
Y691000D01*
X-298000D01*
Y739000D01*
X-322000D01*
G01X-195000Y773000D02*
Y745000D01*
X-315000D01*
Y773000D01*
G01X-195000Y837000D02*
Y865000D01*
X-315000D01*
Y837000D01*
G01X-80000Y1605000D02*
X-280000D01*
Y915000D01*
X-80000D01*
Y1605000D01*
G01X-250000D02*
Y915000D01*
G01X-297500Y880000D02*
X-262500D01*
Y900000D01*
X-297500D01*
Y880000D01*
G01X-257500D02*
X-222500D01*
Y900000D01*
X-257500D01*
Y880000D01*
G01X-288940Y1092900D02*
Y989300D01*
G01X-250000Y1051000D02*
X-280000D01*
G01X-250000Y1031000D02*
X-280000D01*
G01X-288900Y1248250D02*
Y1147750D01*
G01X-250000Y1208000D02*
X-280000D01*
G01X-250000Y1188000D02*
X-280000D01*
G01Y1325750D02*
X-314500D01*
Y1546250D01*
X-280000D01*
G01Y1325750D02*
Y1546250D01*
G01X-250000Y1442000D02*
X-280000D01*
G01X-250000Y1422000D02*
X-280000D01*
G01X-301330Y2002000D02*
X-317000D01*
Y1758000D01*
X-301330D01*
G01X-285810Y2037520D02*
G03X-245150Y2039290I19242J25886D01*
G01X-243380Y2079950D02*
X-305250Y2141820D01*
G01X-274000Y2234000D02*
Y2176000D01*
X-216000D01*
Y2234000D01*
X-274000D01*
G01X-216000Y2232000D02*
X-274000D01*
G01X-216000Y2230000D02*
X-274000D01*
G01X-216000Y2228000D02*
X-274000D01*
G01X-216000Y2226000D02*
X-274000D01*
G01X-216000Y2224000D02*
X-274000D01*
G01X-216000Y2222000D02*
X-274000D01*
G01X-216000Y2220000D02*
X-274000D01*
G01X-216000Y2218000D02*
X-274000D01*
G01X-216000Y2216000D02*
X-274000D01*
G01X-216000Y2214000D02*
X-274000D01*
G01X-216000Y2212000D02*
X-274000D01*
G01X-216000Y2210000D02*
X-274000D01*
G01X-216000Y2208000D02*
X-274000D01*
G01X-216000Y2206000D02*
X-274000D01*
G01X-216000Y2204000D02*
X-274000D01*
G01X-216000Y2202000D02*
X-274000D01*
G01X-216000Y2200000D02*
X-274000D01*
G01X-216000Y2198000D02*
X-274000D01*
G01X-216000Y2196000D02*
X-274000D01*
G01X-216000Y2194000D02*
X-274000D01*
G01X-216000Y2192000D02*
X-274000D01*
G01X-216000Y2190000D02*
X-274000D01*
G01X-216000Y2188000D02*
X-274000D01*
G01X-216000Y2186000D02*
X-274000D01*
G01X-216000Y2184000D02*
X-274000D01*
G01X-216000Y2182000D02*
X-274000D01*
G01X-216000Y2180000D02*
X-274000D01*
G01X-216000Y2178000D02*
X-274000D01*
G01X-216510Y685870D02*
Y734130D01*
G01X-183490Y685870D02*
Y734130D01*
G01X-216510Y685870D02*
X-183490D01*
G01X-175240Y713810D02*
X-144760D01*
Y706190D01*
X-175240D01*
Y713810D01*
G01X-225000Y712000D02*
Y703000D01*
X-233000D01*
G01X-216510Y734130D02*
X-183490D01*
G01X-177000Y783000D02*
X-179000D01*
Y827000D01*
X-177000D01*
G01X-243000Y717000D02*
X-237000D01*
G01X-131000Y762000D02*
X-179000D01*
Y738000D01*
X-131000D01*
Y762000D01*
G01X-217500Y880000D02*
X-182500D01*
Y900000D01*
X-217500D01*
Y880000D01*
G01X-238670Y2002000D02*
X-223000D01*
Y1758000D01*
X-238670D01*
G01X-191330Y1898000D02*
X-207000D01*
Y2142000D01*
X-191330D01*
G01X-245150Y2039290D02*
G03X-243380Y2079950I-21007J21283D01*
G01X-73500Y693600D02*
X-119200D01*
Y707500D01*
G01X-110060Y693600D02*
Y707500D01*
G01X-119200Y732500D02*
Y758900D01*
G01Y782700D02*
Y797200D01*
X-73500D01*
Y693600D01*
G01X-110060Y732500D02*
Y759500D01*
G01Y782100D02*
Y797200D01*
G01X-153500Y783000D02*
X-152000D01*
Y827000D01*
X-153500D01*
G01X-165000Y840500D02*
Y850000D01*
G01X-170000Y845000D02*
X-160000D01*
G01X-86750Y810000D02*
X-123250D01*
G01X-86750Y860000D02*
X-123250D01*
G01X-144000Y868000D02*
X-140830D01*
G02X-136000Y866000I1J-6830D01*
G01X-138000Y874000D02*
X-137740D01*
G01X-120760D02*
X-89240D01*
G01Y906000D02*
X-120760D01*
G01X-137740D02*
X-138000D01*
Y874000D01*
G01X-145000Y885000D02*
Y895000D01*
G01X-140000Y890000D02*
X-150000D01*
G01X22450Y1728980D02*
X-97550D01*
Y2065780D01*
X22450D01*
Y1728980D01*
G01X-128670Y1898000D02*
X-113000D01*
Y2142000D01*
X-128670D01*
G01X-28000Y661000D02*
Y709000D01*
X-52000D01*
Y661000D01*
X-28000D01*
G01Y716000D02*
Y764000D01*
X-52000D01*
Y716000D01*
X-28000D01*
G01Y771000D02*
Y819000D01*
X-52000D01*
Y771000D01*
X-28000D01*
G01X-72260Y874000D02*
X-72000D01*
Y906000D01*
X-72260D01*
G54D12*
G01X-725160Y381450D02*
G03X-727180Y383460I-2010J0D01*
G01D02*
G03X-729190Y381450I0J-2010D01*
G01D02*
G03X-727180Y379440I2010J0D01*
G01D02*
G03X-725160Y381450I10J2010D01*
G01X-690050Y303450D02*
G03X-692050Y305450I-2000J0D01*
G01D02*
G03X-694050Y303450I0J-2000D01*
G01D02*
G03X-692050Y301450I2000J0D01*
G01D02*
G03X-690050Y303450I0J2000D01*
G01X-681500Y1680000D02*
G03I-2000J0D01*
G01X-694000Y2065500D02*
G03I-3000J0D01*
G01X-399440Y1115320D02*
G03X-401450Y1117340I-2010J10D01*
G01D02*
G03X-403460Y1115320I0J-2010D01*
G01D02*
G03X-401450Y1113310I2010J0D01*
G01D02*
G03X-399440Y1115320I0J2010D01*
G01X-428000Y1531500D02*
G03I-2000J0D01*
G01X-394000Y2065500D02*
G03I-3000J0D01*
G01X-381500Y1680000D02*
G03I-2000J0D01*
G01X-213500Y-20000D02*
G03I-2000J0D01*
G01Y320000D02*
G03I-2000J0D01*
G01X-171320Y686500D02*
G03X-172000Y685000I1314J-1500D01*
G01D02*
G03X-170000Y683000I2000J0D01*
G01X-180250Y805500D02*
G03I-1500J0D01*
G01X-168000Y685000D02*
G03X-168680Y686500I-1994J0D01*
G01X-170000Y683000D02*
G03X-168000Y685000I0J2000D01*
G01X-103550Y1769380D02*
G03I-2000J0D01*
G01X-48000Y61000D02*
G03I-4000J0D01*
G01Y401000D02*
G03I-4000J0D01*
G54D13*
G01X-903850Y930000D02*
X-897100Y942700D01*
G01X-903850D02*
X-897100Y930000D01*
G01X-887530D02*
Y942700D01*
X-889460Y940160D01*
G01Y930000D02*
X-885600D01*
G01X-781690Y-16000D02*
Y-3300D01*
X-777670D01*
X-776380Y-3940D01*
X-775580Y-4780D01*
X-775260Y-6480D01*
X-775580Y-8170D01*
X-776540Y-9230D01*
X-777670Y-9860D01*
X-781690D01*
G01X-777670D02*
X-775260Y-16000D01*
G01X-768580Y-10710D02*
X-767460Y-9230D01*
X-766490Y-8380D01*
X-765200Y-7960D01*
X-764080Y-8380D01*
X-763270Y-9230D01*
X-762630Y-10500D01*
X-762470Y-11980D01*
X-762630Y-13250D01*
X-763270Y-14520D01*
X-764240Y-15580D01*
X-765360Y-16000D01*
X-766650Y-15580D01*
X-767780Y-14310D01*
X-768420Y-12400D01*
X-768580Y-10290D01*
X-768260Y-7530D01*
X-767780Y-6050D01*
X-766970Y-4570D01*
X-765850Y-3510D01*
X-764720Y-3300D01*
X-763590Y-3720D01*
X-762790Y-4780D01*
G01X-775430Y177640D02*
X-776390Y178280D01*
X-777520Y178700D01*
X-778800D01*
X-780250Y178060D01*
X-781380Y177010D01*
X-782180Y175740D01*
X-782830Y173620D01*
X-782990Y171710D01*
X-782660Y169810D01*
X-782180Y168540D01*
X-781220Y167270D01*
X-780090Y166420D01*
X-778970Y166000D01*
X-777840D01*
X-776710Y166420D01*
X-775750Y167060D01*
X-774940Y167900D01*
G01X-769550Y168540D02*
X-768590Y167060D01*
X-767300Y166210D01*
X-765850Y166000D01*
X-764570Y166210D01*
X-763280Y167270D01*
X-762480Y168540D01*
X-762320Y169810D01*
X-762640Y171290D01*
X-763760Y172350D01*
X-764890Y172770D01*
X-766340D01*
G01X-764890D02*
X-763920Y173410D01*
X-763120Y174470D01*
X-762800Y175740D01*
X-763120Y177010D01*
X-763920Y178060D01*
X-765370Y178700D01*
X-766820Y178490D01*
X-768270Y177640D01*
G01X-751130Y166000D02*
Y178700D01*
X-757090Y169600D01*
X-749040D01*
G01X-788940Y145640D02*
X-789900Y146280D01*
X-791030Y146700D01*
X-792310D01*
X-793760Y146060D01*
X-794890Y145010D01*
X-795690Y143740D01*
X-796340Y141620D01*
X-796500Y139710D01*
X-796170Y137810D01*
X-795690Y136540D01*
X-794730Y135270D01*
X-793600Y134420D01*
X-792480Y134000D01*
X-791350D01*
X-790220Y134420D01*
X-789260Y135060D01*
X-788450Y135900D01*
G01X-782580Y139290D02*
X-781460Y140770D01*
X-780490Y141620D01*
X-779200Y142040D01*
X-778080Y141620D01*
X-777270Y140770D01*
X-776630Y139500D01*
X-776470Y138020D01*
X-776630Y136750D01*
X-777270Y135480D01*
X-778240Y134420D01*
X-779360Y134000D01*
X-780650Y134420D01*
X-781780Y135690D01*
X-782420Y137600D01*
X-782580Y139710D01*
X-782260Y142470D01*
X-781780Y143950D01*
X-780970Y145430D01*
X-779850Y146490D01*
X-778720Y146700D01*
X-777590Y146280D01*
X-776790Y145220D01*
G01X-818170Y206000D02*
Y218700D01*
X-814150D01*
X-812860Y218060D01*
X-812060Y217220D01*
X-811740Y215520D01*
X-812060Y213830D01*
X-813020Y212770D01*
X-814150Y212140D01*
X-818170D01*
G01X-814150D02*
X-811740Y206000D01*
G01X-800070D02*
Y218700D01*
X-806030Y209600D01*
X-797980D01*
G01X-789060Y218700D02*
X-790340Y218280D01*
X-791310Y217220D01*
X-791950Y215950D01*
X-792430Y214250D01*
X-792590Y212350D01*
X-792430Y210440D01*
X-791950Y208750D01*
X-791310Y207480D01*
X-790340Y206420D01*
X-789060Y206000D01*
X-787770Y206420D01*
X-786800Y207480D01*
X-786160Y208750D01*
X-785680Y210440D01*
X-785520Y212350D01*
X-785680Y214250D01*
X-786160Y215950D01*
X-786800Y217220D01*
X-787770Y218280D01*
X-789060Y218700D01*
G01X-818170Y226000D02*
Y238700D01*
X-814150D01*
X-812860Y238060D01*
X-812060Y237220D01*
X-811740Y235520D01*
X-812060Y233830D01*
X-813020Y232770D01*
X-814150Y232140D01*
X-818170D01*
G01X-814150D02*
X-811740Y226000D01*
G01X-805540Y228540D02*
X-804580Y227060D01*
X-803290Y226210D01*
X-801840Y226000D01*
X-800560Y226210D01*
X-799270Y227270D01*
X-798470Y228540D01*
X-798310Y229810D01*
X-798630Y231290D01*
X-799750Y232350D01*
X-800880Y232770D01*
X-802330D01*
G01X-800880D02*
X-799910Y233410D01*
X-799110Y234470D01*
X-798790Y235740D01*
X-799110Y237010D01*
X-799910Y238060D01*
X-801360Y238700D01*
X-802810Y238490D01*
X-804260Y237640D01*
G01X-789060Y226000D02*
X-787930Y226210D01*
X-786640Y226850D01*
X-785840Y227900D01*
X-785520Y229390D01*
X-785840Y230870D01*
X-786800Y232140D01*
X-788250Y232770D01*
X-789860D01*
X-790820Y233200D01*
X-791630Y234250D01*
X-791950Y235740D01*
X-791470Y237220D01*
X-790340Y238280D01*
X-789060Y238700D01*
X-787770Y238280D01*
X-786640Y237220D01*
X-786160Y235740D01*
X-786480Y234250D01*
X-787290Y233200D01*
X-788250Y232770D01*
X-789860D01*
X-791310Y232140D01*
X-792270Y230870D01*
X-792590Y229390D01*
X-792270Y227900D01*
X-791470Y226850D01*
X-790180Y226210D01*
X-789060Y226000D01*
G01X-780180Y266000D02*
Y278700D01*
X-776160D01*
X-774870Y278060D01*
X-774070Y277220D01*
X-773750Y275520D01*
X-774070Y273830D01*
X-775030Y272770D01*
X-776160Y272140D01*
X-780180D01*
G01X-776160D02*
X-773750Y266000D01*
G01X-767550Y268540D02*
X-766590Y267060D01*
X-765300Y266210D01*
X-763850Y266000D01*
X-762570Y266210D01*
X-761280Y267270D01*
X-760480Y268540D01*
X-760320Y269810D01*
X-760640Y271290D01*
X-761760Y272350D01*
X-762890Y272770D01*
X-764340D01*
G01X-762890D02*
X-761920Y273410D01*
X-761120Y274470D01*
X-760800Y275740D01*
X-761120Y277010D01*
X-761920Y278060D01*
X-763370Y278700D01*
X-764820Y278490D01*
X-766270Y277640D01*
G01X-754600Y267900D02*
X-753640Y266850D01*
X-752510Y266210D01*
X-751070Y266000D01*
X-749620Y266420D01*
X-748490Y267270D01*
X-747690Y268750D01*
X-747530Y270440D01*
X-747850Y272140D01*
X-748650Y273200D01*
X-749780Y274040D01*
X-750900Y274250D01*
X-752030Y274040D01*
X-753480Y273200D01*
X-753000Y278700D01*
X-748650D01*
G01X-782480Y368000D02*
X-783760Y368210D01*
X-784890Y369060D01*
X-785850Y370330D01*
X-786500Y371810D01*
X-786820Y373500D01*
Y375200D01*
X-786500Y376890D01*
X-785850Y378370D01*
X-784890Y379640D01*
X-783760Y380490D01*
X-782480Y380700D01*
X-781190Y380490D01*
X-780060Y379640D01*
X-779100Y378370D01*
X-778450Y376890D01*
X-778130Y375200D01*
Y373500D01*
X-778450Y371810D01*
X-779100Y370330D01*
X-780060Y369060D01*
X-781190Y368210D01*
X-782480Y368000D01*
G01X-781190Y371390D02*
X-779260Y368000D01*
G01X-767590D02*
Y380700D01*
X-773550Y371600D01*
X-765500D01*
G01X-793690Y476000D02*
Y488700D01*
X-789670D01*
X-788380Y488060D01*
X-787580Y487220D01*
X-787260Y485520D01*
X-787580Y483830D01*
X-788540Y482770D01*
X-789670Y482140D01*
X-793690D01*
G01X-789670D02*
X-787260Y476000D01*
G01X-780580Y486580D02*
X-779620Y487850D01*
X-778490Y488490D01*
X-777200Y488700D01*
X-775590Y488280D01*
X-774470Y487220D01*
X-774150Y485950D01*
X-774310Y484680D01*
X-774950Y483620D01*
X-778170Y481500D01*
X-779620Y480020D01*
X-780580Y477900D01*
X-780900Y476000D01*
X-774150D01*
G01X-799430Y2231640D02*
X-800390Y2232280D01*
X-801520Y2232700D01*
X-802800D01*
X-804250Y2232060D01*
X-805380Y2231010D01*
X-806180Y2229740D01*
X-806830Y2227620D01*
X-806990Y2225710D01*
X-806660Y2223810D01*
X-806180Y2222540D01*
X-805220Y2221270D01*
X-804090Y2220420D01*
X-802970Y2220000D01*
X-801840D01*
X-800710Y2220420D01*
X-799750Y2221060D01*
X-798940Y2221900D01*
G01X-790020Y2220000D02*
Y2232700D01*
X-791950Y2230160D01*
G01Y2220000D02*
X-788090D01*
G01X-775130D02*
Y2232700D01*
X-781090Y2223600D01*
X-773040D01*
G01X-732480Y170000D02*
X-733760Y170210D01*
X-734890Y171060D01*
X-735850Y172330D01*
X-736500Y173810D01*
X-736820Y175500D01*
Y177200D01*
X-736500Y178890D01*
X-735850Y180370D01*
X-734890Y181640D01*
X-733760Y182490D01*
X-732480Y182700D01*
X-731190Y182490D01*
X-730060Y181640D01*
X-729100Y180370D01*
X-728450Y178890D01*
X-728130Y177200D01*
Y175500D01*
X-728450Y173810D01*
X-729100Y172330D01*
X-730060Y171060D01*
X-731190Y170210D01*
X-732480Y170000D01*
G01X-731190Y173390D02*
X-729260Y170000D01*
G01X-723060Y171900D02*
X-722100Y170850D01*
X-720970Y170210D01*
X-719530Y170000D01*
X-718080Y170420D01*
X-716950Y171270D01*
X-716150Y172750D01*
X-715990Y174440D01*
X-716310Y176140D01*
X-717110Y177200D01*
X-718240Y178040D01*
X-719360Y178250D01*
X-720490Y178040D01*
X-721940Y177200D01*
X-721460Y182700D01*
X-717110D01*
G01X-746180Y302000D02*
Y314700D01*
X-742160D01*
X-740870Y314060D01*
X-740070Y313220D01*
X-739750Y311520D01*
X-740070Y309830D01*
X-741030Y308770D01*
X-742160Y308140D01*
X-746180D01*
G01X-742160D02*
X-739750Y302000D01*
G01X-733550Y304540D02*
X-732590Y303060D01*
X-731300Y302210D01*
X-729850Y302000D01*
X-728570Y302210D01*
X-727280Y303270D01*
X-726480Y304540D01*
X-726320Y305810D01*
X-726640Y307290D01*
X-727760Y308350D01*
X-728890Y308770D01*
X-730340D01*
G01X-728890D02*
X-727920Y309410D01*
X-727120Y310470D01*
X-726800Y311740D01*
X-727120Y313010D01*
X-727920Y314060D01*
X-729370Y314700D01*
X-730820Y314490D01*
X-732270Y313640D01*
G01X-720120Y307290D02*
X-719000Y308770D01*
X-718030Y309620D01*
X-716740Y310040D01*
X-715620Y309620D01*
X-714810Y308770D01*
X-714170Y307500D01*
X-714010Y306020D01*
X-714170Y304750D01*
X-714810Y303480D01*
X-715780Y302420D01*
X-716900Y302000D01*
X-718190Y302420D01*
X-719320Y303690D01*
X-719960Y305600D01*
X-720120Y307710D01*
X-719800Y310470D01*
X-719320Y311950D01*
X-718510Y313430D01*
X-717390Y314490D01*
X-716260Y314700D01*
X-715130Y314280D01*
X-714330Y313220D01*
G01X-746180Y286000D02*
Y298700D01*
X-742160D01*
X-740870Y298060D01*
X-740070Y297220D01*
X-739750Y295520D01*
X-740070Y293830D01*
X-741030Y292770D01*
X-742160Y292140D01*
X-746180D01*
G01X-742160D02*
X-739750Y286000D01*
G01X-733550Y288540D02*
X-732590Y287060D01*
X-731300Y286210D01*
X-729850Y286000D01*
X-728570Y286210D01*
X-727280Y287270D01*
X-726480Y288540D01*
X-726320Y289810D01*
X-726640Y291290D01*
X-727760Y292350D01*
X-728890Y292770D01*
X-730340D01*
G01X-728890D02*
X-727920Y293410D01*
X-727120Y294470D01*
X-726800Y295740D01*
X-727120Y297010D01*
X-727920Y298060D01*
X-729370Y298700D01*
X-730820Y298490D01*
X-732270Y297640D01*
G01X-720120Y296580D02*
X-719160Y297850D01*
X-718030Y298490D01*
X-716740Y298700D01*
X-715130Y298280D01*
X-714010Y297220D01*
X-713690Y295950D01*
X-713850Y294680D01*
X-714490Y293620D01*
X-717710Y291500D01*
X-719160Y290020D01*
X-720120Y287900D01*
X-720440Y286000D01*
X-713690D01*
G01X-746180Y318000D02*
Y330700D01*
X-742160D01*
X-740870Y330060D01*
X-740070Y329220D01*
X-739750Y327520D01*
X-740070Y325830D01*
X-741030Y324770D01*
X-742160Y324140D01*
X-746180D01*
G01X-742160D02*
X-739750Y318000D01*
G01X-733550Y320540D02*
X-732590Y319060D01*
X-731300Y318210D01*
X-729850Y318000D01*
X-728570Y318210D01*
X-727280Y319270D01*
X-726480Y320540D01*
X-726320Y321810D01*
X-726640Y323290D01*
X-727760Y324350D01*
X-728890Y324770D01*
X-730340D01*
G01X-728890D02*
X-727920Y325410D01*
X-727120Y326470D01*
X-726800Y327740D01*
X-727120Y329010D01*
X-727920Y330060D01*
X-729370Y330700D01*
X-730820Y330490D01*
X-732270Y329640D01*
G01X-720600Y320540D02*
X-719640Y319060D01*
X-718350Y318210D01*
X-716900Y318000D01*
X-715620Y318210D01*
X-714330Y319270D01*
X-713530Y320540D01*
X-713370Y321810D01*
X-713690Y323290D01*
X-714810Y324350D01*
X-715940Y324770D01*
X-717390D01*
G01X-715940D02*
X-714970Y325410D01*
X-714170Y326470D01*
X-713850Y327740D01*
X-714170Y329010D01*
X-714970Y330060D01*
X-716420Y330700D01*
X-717870Y330490D01*
X-719320Y329640D01*
G01X-741430Y353640D02*
X-742390Y354280D01*
X-743520Y354700D01*
X-744800D01*
X-746250Y354060D01*
X-747380Y353010D01*
X-748180Y351740D01*
X-748830Y349620D01*
X-748990Y347710D01*
X-748660Y345810D01*
X-748180Y344540D01*
X-747220Y343270D01*
X-746090Y342420D01*
X-744970Y342000D01*
X-743840D01*
X-742710Y342420D01*
X-741750Y343060D01*
X-740940Y343900D01*
G01X-735550Y344540D02*
X-734590Y343060D01*
X-733300Y342210D01*
X-731850Y342000D01*
X-730570Y342210D01*
X-729280Y343270D01*
X-728480Y344540D01*
X-728320Y345810D01*
X-728640Y347290D01*
X-729760Y348350D01*
X-730890Y348770D01*
X-732340D01*
G01X-730890D02*
X-729920Y349410D01*
X-729120Y350470D01*
X-728800Y351740D01*
X-729120Y353010D01*
X-729920Y354060D01*
X-731370Y354700D01*
X-732820Y354490D01*
X-734270Y353640D01*
G01X-722600Y344540D02*
X-721640Y343060D01*
X-720350Y342210D01*
X-718900Y342000D01*
X-717620Y342210D01*
X-716330Y343270D01*
X-715530Y344540D01*
X-715370Y345810D01*
X-715690Y347290D01*
X-716810Y348350D01*
X-717940Y348770D01*
X-719390D01*
G01X-717940D02*
X-716970Y349410D01*
X-716170Y350470D01*
X-715850Y351740D01*
X-716170Y353010D01*
X-716970Y354060D01*
X-718420Y354700D01*
X-719870Y354490D01*
X-721320Y353640D01*
G01X-728940Y461640D02*
X-729900Y462280D01*
X-731030Y462700D01*
X-732310D01*
X-733760Y462060D01*
X-734890Y461010D01*
X-735690Y459740D01*
X-736340Y457620D01*
X-736500Y455710D01*
X-736170Y453810D01*
X-735690Y452540D01*
X-734730Y451270D01*
X-733600Y450420D01*
X-732480Y450000D01*
X-731350D01*
X-730220Y450420D01*
X-729260Y451060D01*
X-728450Y451900D01*
G01X-722580Y460580D02*
X-721620Y461850D01*
X-720490Y462490D01*
X-719200Y462700D01*
X-717590Y462280D01*
X-716470Y461220D01*
X-716150Y459950D01*
X-716310Y458680D01*
X-716950Y457620D01*
X-720170Y455500D01*
X-721620Y454020D01*
X-722580Y451900D01*
X-722900Y450000D01*
X-716150D01*
G01X-711180Y420000D02*
Y432700D01*
X-707160D01*
X-705870Y432060D01*
X-705070Y431220D01*
X-704750Y429520D01*
X-705070Y427830D01*
X-706030Y426770D01*
X-707160Y426140D01*
X-711180D01*
G01X-707160D02*
X-704750Y420000D01*
G01X-698550Y422540D02*
X-697590Y421060D01*
X-696300Y420210D01*
X-694850Y420000D01*
X-693570Y420210D01*
X-692280Y421270D01*
X-691480Y422540D01*
X-691320Y423810D01*
X-691640Y425290D01*
X-692760Y426350D01*
X-693890Y426770D01*
X-695340D01*
G01X-693890D02*
X-692920Y427410D01*
X-692120Y428470D01*
X-691800Y429740D01*
X-692120Y431010D01*
X-692920Y432060D01*
X-694370Y432700D01*
X-695820Y432490D01*
X-697270Y431640D01*
G01X-682070Y420000D02*
Y432700D01*
X-684000Y430160D01*
G01Y420000D02*
X-680140D01*
G01X-722970Y736700D02*
Y724000D01*
G01X-726660Y736700D02*
X-719270D01*
G01X-713390Y724000D02*
Y736700D01*
G01X-706640D02*
Y724000D01*
G01Y730350D02*
X-713390D01*
G01X-697070Y724000D02*
Y736700D01*
X-699000Y734160D01*
G01Y724000D02*
X-695140D01*
G01X-705690Y808000D02*
Y820700D01*
X-701670D01*
X-700380Y820060D01*
X-699580Y819220D01*
X-699260Y817520D01*
X-699580Y815830D01*
X-700540Y814770D01*
X-701670Y814140D01*
X-705690D01*
G01X-701670D02*
X-699260Y808000D01*
G01X-693060Y809900D02*
X-692100Y808850D01*
X-690970Y808210D01*
X-689530Y808000D01*
X-688080Y808420D01*
X-686950Y809270D01*
X-686150Y810750D01*
X-685990Y812440D01*
X-686310Y814140D01*
X-687110Y815200D01*
X-688240Y816040D01*
X-689360Y816250D01*
X-690490Y816040D01*
X-691940Y815200D01*
X-691460Y820700D01*
X-687110D01*
G01X-719690Y932000D02*
Y944700D01*
X-715670D01*
X-714380Y944060D01*
X-713580Y943220D01*
X-713260Y941520D01*
X-713580Y939830D01*
X-714540Y938770D01*
X-715670Y938140D01*
X-719690D01*
G01X-715670D02*
X-713260Y932000D01*
G01X-707060Y934540D02*
X-706100Y933060D01*
X-704810Y932210D01*
X-703360Y932000D01*
X-702080Y932210D01*
X-700790Y933270D01*
X-699990Y934540D01*
X-699830Y935810D01*
X-700150Y937290D01*
X-701270Y938350D01*
X-702400Y938770D01*
X-703850D01*
G01X-702400D02*
X-701430Y939410D01*
X-700630Y940470D01*
X-700310Y941740D01*
X-700630Y943010D01*
X-701430Y944060D01*
X-702880Y944700D01*
X-704330Y944490D01*
X-705780Y943640D01*
G01X-779690Y932000D02*
Y944700D01*
X-775670D01*
X-774380Y944060D01*
X-773580Y943220D01*
X-773260Y941520D01*
X-773580Y939830D01*
X-774540Y938770D01*
X-775670Y938140D01*
X-779690D01*
G01X-775670D02*
X-773260Y932000D01*
G01X-763530D02*
Y944700D01*
X-765460Y942160D01*
G01Y932000D02*
X-761600D01*
G01X-726930Y1134140D02*
X-727890Y1134780D01*
X-729020Y1135200D01*
X-730300D01*
X-731750Y1134560D01*
X-732880Y1133510D01*
X-733680Y1132240D01*
X-734330Y1130120D01*
X-734490Y1128210D01*
X-734160Y1126310D01*
X-733680Y1125040D01*
X-732720Y1123770D01*
X-731590Y1122920D01*
X-730470Y1122500D01*
X-729340D01*
X-728210Y1122920D01*
X-727250Y1123560D01*
X-726440Y1124400D01*
G01X-720570Y1133080D02*
X-719610Y1134350D01*
X-718480Y1134990D01*
X-717190Y1135200D01*
X-715580Y1134780D01*
X-714460Y1133720D01*
X-714140Y1132450D01*
X-714300Y1131180D01*
X-714940Y1130120D01*
X-718160Y1128000D01*
X-719610Y1126520D01*
X-720570Y1124400D01*
X-720890Y1122500D01*
X-714140D01*
G01X-707620Y1133080D02*
X-706660Y1134350D01*
X-705530Y1134990D01*
X-704240Y1135200D01*
X-702630Y1134780D01*
X-701510Y1133720D01*
X-701190Y1132450D01*
X-701350Y1131180D01*
X-701990Y1130120D01*
X-705210Y1128000D01*
X-706660Y1126520D01*
X-707620Y1124400D01*
X-707940Y1122500D01*
X-701190D01*
G01X-751930Y1111640D02*
X-752890Y1112280D01*
X-754020Y1112700D01*
X-755300D01*
X-756750Y1112060D01*
X-757880Y1111010D01*
X-758680Y1109740D01*
X-759330Y1107620D01*
X-759490Y1105710D01*
X-759160Y1103810D01*
X-758680Y1102540D01*
X-757720Y1101270D01*
X-756590Y1100420D01*
X-755470Y1100000D01*
X-754340D01*
X-753210Y1100420D01*
X-752250Y1101060D01*
X-751440Y1101900D01*
G01X-745570Y1110580D02*
X-744610Y1111850D01*
X-743480Y1112490D01*
X-742190Y1112700D01*
X-740580Y1112280D01*
X-739460Y1111220D01*
X-739140Y1109950D01*
X-739300Y1108680D01*
X-739940Y1107620D01*
X-743160Y1105500D01*
X-744610Y1104020D01*
X-745570Y1101900D01*
X-745890Y1100000D01*
X-739140D01*
G01X-729570D02*
Y1112700D01*
X-731500Y1110160D01*
G01Y1100000D02*
X-727640D01*
G01X-699430Y2231640D02*
X-700390Y2232280D01*
X-701520Y2232700D01*
X-702800D01*
X-704250Y2232060D01*
X-705380Y2231010D01*
X-706180Y2229740D01*
X-706830Y2227620D01*
X-706990Y2225710D01*
X-706660Y2223810D01*
X-706180Y2222540D01*
X-705220Y2221270D01*
X-704090Y2220420D01*
X-702970Y2220000D01*
X-701840D01*
X-700710Y2220420D01*
X-699750Y2221060D01*
X-698940Y2221900D01*
G01X-690020Y2220000D02*
Y2232700D01*
X-691950Y2230160D01*
G01Y2220000D02*
X-688090D01*
G01X-680600Y2221900D02*
X-679640Y2220850D01*
X-678510Y2220210D01*
X-677070Y2220000D01*
X-675620Y2220420D01*
X-674490Y2221270D01*
X-673690Y2222750D01*
X-673530Y2224440D01*
X-673850Y2226140D01*
X-674650Y2227200D01*
X-675780Y2228040D01*
X-676900Y2228250D01*
X-678030Y2228040D01*
X-679480Y2227200D01*
X-679000Y2232700D01*
X-674650D01*
G01X-690940Y-8360D02*
X-691900Y-7720D01*
X-693030Y-7300D01*
X-694310D01*
X-695760Y-7940D01*
X-696890Y-8990D01*
X-697690Y-10260D01*
X-698340Y-12380D01*
X-698500Y-14290D01*
X-698170Y-16190D01*
X-697690Y-17460D01*
X-696730Y-18730D01*
X-695600Y-19580D01*
X-694480Y-20000D01*
X-693350D01*
X-692220Y-19580D01*
X-691260Y-18940D01*
X-690450Y-18100D01*
G01X-681850Y-20000D02*
X-681530Y-17250D01*
X-681040Y-14920D01*
X-680400Y-12800D01*
X-679590Y-10480D01*
X-678310Y-7300D01*
X-684740D01*
G01X-698180Y166000D02*
Y178700D01*
X-694160D01*
X-692870Y178060D01*
X-692070Y177220D01*
X-691750Y175520D01*
X-692070Y173830D01*
X-693030Y172770D01*
X-694160Y172140D01*
X-698180D01*
G01X-694160D02*
X-691750Y166000D01*
G01X-685550Y168540D02*
X-684590Y167060D01*
X-683300Y166210D01*
X-681850Y166000D01*
X-680570Y166210D01*
X-679280Y167270D01*
X-678480Y168540D01*
X-678320Y169810D01*
X-678640Y171290D01*
X-679760Y172350D01*
X-680890Y172770D01*
X-682340D01*
G01X-680890D02*
X-679920Y173410D01*
X-679120Y174470D01*
X-678800Y175740D01*
X-679120Y177010D01*
X-679920Y178060D01*
X-681370Y178700D01*
X-682820Y178490D01*
X-684270Y177640D01*
G01X-671800Y167480D02*
X-670670Y166420D01*
X-669390Y166000D01*
X-668100Y166420D01*
X-666970Y167690D01*
X-666170Y169600D01*
X-665850Y171500D01*
Y173830D01*
X-666170Y175740D01*
X-666970Y177430D01*
X-667940Y178280D01*
X-669070Y178700D01*
X-670350Y178280D01*
X-671320Y177430D01*
X-671960Y176160D01*
X-672280Y174470D01*
X-671960Y172990D01*
X-671160Y171500D01*
X-670190Y170660D01*
X-669070Y170440D01*
X-667780Y170870D01*
X-666810Y171930D01*
X-665850Y173830D01*
G01X-662010Y228700D02*
Y219600D01*
X-661370Y217690D01*
X-660080Y216420D01*
X-658480Y216000D01*
X-656870Y216420D01*
X-655580Y217690D01*
X-654940Y219600D01*
Y228700D01*
G01X-649060Y217900D02*
X-648100Y216850D01*
X-646970Y216210D01*
X-645530Y216000D01*
X-644080Y216420D01*
X-642950Y217270D01*
X-642150Y218750D01*
X-641990Y220440D01*
X-642310Y222140D01*
X-643110Y223200D01*
X-644240Y224040D01*
X-645360Y224250D01*
X-646490Y224040D01*
X-647940Y223200D01*
X-647460Y228700D01*
X-643110D01*
G01X-655430Y259640D02*
X-656390Y260280D01*
X-657520Y260700D01*
X-658800D01*
X-660250Y260060D01*
X-661380Y259010D01*
X-662180Y257740D01*
X-662830Y255620D01*
X-662990Y253710D01*
X-662660Y251810D01*
X-662180Y250540D01*
X-661220Y249270D01*
X-660090Y248420D01*
X-658970Y248000D01*
X-657840D01*
X-656710Y248420D01*
X-655750Y249060D01*
X-654940Y249900D01*
G01X-649550Y250540D02*
X-648590Y249060D01*
X-647300Y248210D01*
X-645850Y248000D01*
X-644570Y248210D01*
X-643280Y249270D01*
X-642480Y250540D01*
X-642320Y251810D01*
X-642640Y253290D01*
X-643760Y254350D01*
X-644890Y254770D01*
X-646340D01*
G01X-644890D02*
X-643920Y255410D01*
X-643120Y256470D01*
X-642800Y257740D01*
X-643120Y259010D01*
X-643920Y260060D01*
X-645370Y260700D01*
X-646820Y260490D01*
X-648270Y259640D01*
G01X-636600Y249900D02*
X-635640Y248850D01*
X-634510Y248210D01*
X-633070Y248000D01*
X-631620Y248420D01*
X-630490Y249270D01*
X-629690Y250750D01*
X-629530Y252440D01*
X-629850Y254140D01*
X-630650Y255200D01*
X-631780Y256040D01*
X-632900Y256250D01*
X-634030Y256040D01*
X-635480Y255200D01*
X-635000Y260700D01*
X-630650D01*
G01X-662180Y268000D02*
Y280700D01*
X-658160D01*
X-656870Y280060D01*
X-656070Y279220D01*
X-655750Y277520D01*
X-656070Y275830D01*
X-657030Y274770D01*
X-658160Y274140D01*
X-662180D01*
G01X-658160D02*
X-655750Y268000D01*
G01X-649550Y270540D02*
X-648590Y269060D01*
X-647300Y268210D01*
X-645850Y268000D01*
X-644570Y268210D01*
X-643280Y269270D01*
X-642480Y270540D01*
X-642320Y271810D01*
X-642640Y273290D01*
X-643760Y274350D01*
X-644890Y274770D01*
X-646340D01*
G01X-644890D02*
X-643920Y275410D01*
X-643120Y276470D01*
X-642800Y277740D01*
X-643120Y279010D01*
X-643920Y280060D01*
X-645370Y280700D01*
X-646820Y280490D01*
X-648270Y279640D01*
G01X-633390Y268000D02*
X-633070Y270750D01*
X-632580Y273080D01*
X-631940Y275200D01*
X-631130Y277520D01*
X-629850Y280700D01*
X-636280D01*
G01X-636940Y292230D02*
X-633080D01*
G01X-635180Y294990D02*
Y289480D01*
G01X-625280Y298580D02*
X-624320Y299850D01*
X-623190Y300490D01*
X-621900Y300700D01*
X-620290Y300280D01*
X-619170Y299220D01*
X-618850Y297950D01*
X-619010Y296680D01*
X-619650Y295620D01*
X-622870Y293500D01*
X-624320Y292020D01*
X-625280Y289900D01*
X-625600Y288000D01*
X-618850D01*
G01X-607340D02*
Y300700D01*
X-613300Y291600D01*
X-605250D01*
G01X-600350Y300700D02*
X-596330Y288000D01*
X-592300Y300700D01*
G01X-588200Y283770D02*
X-578550D01*
G01X-570430Y300700D02*
Y288000D01*
G01X-574120Y300700D02*
X-566730D01*
G01X-560850Y288000D02*
Y300700D01*
G01X-554100D02*
Y288000D01*
G01Y294350D02*
X-560850D01*
G01X-646010Y360700D02*
Y351600D01*
X-645370Y349690D01*
X-644080Y348420D01*
X-642480Y348000D01*
X-640870Y348420D01*
X-639580Y349690D01*
X-638940Y351600D01*
Y360700D01*
G01X-627590Y348000D02*
Y360700D01*
X-633550Y351600D01*
X-625500D01*
G01X-653680Y390000D02*
Y402700D01*
X-649660D01*
X-648370Y402060D01*
X-647570Y401220D01*
X-647250Y399520D01*
X-647570Y397830D01*
X-648530Y396770D01*
X-649660Y396140D01*
X-653680D01*
G01X-649660D02*
X-647250Y390000D01*
G01X-641050Y392540D02*
X-640090Y391060D01*
X-638800Y390210D01*
X-637350Y390000D01*
X-636070Y390210D01*
X-634780Y391270D01*
X-633980Y392540D01*
X-633820Y393810D01*
X-634140Y395290D01*
X-635260Y396350D01*
X-636390Y396770D01*
X-637840D01*
G01X-636390D02*
X-635420Y397410D01*
X-634620Y398470D01*
X-634300Y399740D01*
X-634620Y401010D01*
X-635420Y402060D01*
X-636870Y402700D01*
X-638320Y402490D01*
X-639770Y401640D01*
G01X-622630Y390000D02*
Y402700D01*
X-628590Y393600D01*
X-620540D01*
G01X-678940Y609640D02*
X-679900Y610280D01*
X-681030Y610700D01*
X-682310D01*
X-683760Y610060D01*
X-684890Y609010D01*
X-685690Y607740D01*
X-686340Y605620D01*
X-686500Y603710D01*
X-686170Y601810D01*
X-685690Y600540D01*
X-684730Y599270D01*
X-683600Y598420D01*
X-682480Y598000D01*
X-681350D01*
X-680220Y598420D01*
X-679260Y599060D01*
X-678450Y599900D01*
G01X-669530Y598000D02*
Y610700D01*
X-671460Y608160D01*
G01Y598000D02*
X-667600D01*
G01X-684010Y660000D02*
Y672700D01*
X-680800D01*
X-679510Y672060D01*
X-678540Y671220D01*
X-677740Y669950D01*
X-677100Y668470D01*
X-676940Y666350D01*
X-677100Y664230D01*
X-677740Y662750D01*
X-678540Y661480D01*
X-679510Y660630D01*
X-680800Y660000D01*
X-684010D01*
G01X-667530D02*
Y672700D01*
X-669460Y670160D01*
G01Y660000D02*
X-665600D01*
G01X-659690Y932000D02*
Y944700D01*
X-655670D01*
X-654380Y944060D01*
X-653580Y943220D01*
X-653260Y941520D01*
X-653580Y939830D01*
X-654540Y938770D01*
X-655670Y938140D01*
X-659690D01*
G01X-655670D02*
X-653260Y932000D01*
G01X-641590D02*
Y944700D01*
X-647550Y935600D01*
X-639500D01*
G01X-674430Y1726640D02*
X-675390Y1727280D01*
X-676520Y1727700D01*
X-677800D01*
X-679250Y1727060D01*
X-680380Y1726010D01*
X-681180Y1724740D01*
X-681830Y1722620D01*
X-681990Y1720710D01*
X-681660Y1718810D01*
X-681180Y1717540D01*
X-680220Y1716270D01*
X-679090Y1715420D01*
X-677970Y1715000D01*
X-676840D01*
X-675710Y1715420D01*
X-674750Y1716060D01*
X-673940Y1716900D01*
G01X-665020Y1715000D02*
Y1727700D01*
X-666950Y1725160D01*
G01Y1715000D02*
X-663090D01*
G01X-652070D02*
Y1727700D01*
X-654000Y1725160D01*
G01Y1715000D02*
X-650140D01*
G01X-669690Y2067700D02*
Y2055000D01*
X-663260D01*
G01X-651590D02*
Y2067700D01*
X-657550Y2058600D01*
X-649500D01*
G01X-551180Y1185000D02*
Y1197700D01*
X-547160D01*
X-545870Y1197060D01*
X-545070Y1196220D01*
X-544750Y1194520D01*
X-545070Y1192830D01*
X-546030Y1191770D01*
X-547160Y1191140D01*
X-551180D01*
G01X-547160D02*
X-544750Y1185000D01*
G01X-535020D02*
Y1197700D01*
X-536950Y1195160D01*
G01Y1185000D02*
X-533090D01*
G01X-525600Y1186900D02*
X-524640Y1185850D01*
X-523510Y1185210D01*
X-522070Y1185000D01*
X-520620Y1185420D01*
X-519490Y1186270D01*
X-518690Y1187750D01*
X-518530Y1189440D01*
X-518850Y1191140D01*
X-519650Y1192200D01*
X-520780Y1193040D01*
X-521900Y1193250D01*
X-523030Y1193040D01*
X-524480Y1192200D01*
X-524000Y1197700D01*
X-519650D01*
G01X-598390Y1592700D02*
Y1580000D01*
X-591960D01*
G01X-585280Y1585290D02*
X-584160Y1586770D01*
X-583190Y1587620D01*
X-581900Y1588040D01*
X-580780Y1587620D01*
X-579970Y1586770D01*
X-579330Y1585500D01*
X-579170Y1584020D01*
X-579330Y1582750D01*
X-579970Y1581480D01*
X-580940Y1580420D01*
X-582060Y1580000D01*
X-583350Y1580420D01*
X-584480Y1581690D01*
X-585120Y1583600D01*
X-585280Y1585710D01*
X-584960Y1588470D01*
X-584480Y1589950D01*
X-583670Y1591430D01*
X-582550Y1592490D01*
X-581420Y1592700D01*
X-580290Y1592280D01*
X-579490Y1591220D01*
G01X-604430Y1726640D02*
X-605390Y1727280D01*
X-606520Y1727700D01*
X-607800D01*
X-609250Y1727060D01*
X-610380Y1726010D01*
X-611180Y1724740D01*
X-611830Y1722620D01*
X-611990Y1720710D01*
X-611660Y1718810D01*
X-611180Y1717540D01*
X-610220Y1716270D01*
X-609090Y1715420D01*
X-607970Y1715000D01*
X-606840D01*
X-605710Y1715420D01*
X-604750Y1716060D01*
X-603940Y1716900D01*
G01X-595020Y1715000D02*
Y1727700D01*
X-596950Y1725160D01*
G01Y1715000D02*
X-593090D01*
G01X-582070Y1727700D02*
X-583350Y1727280D01*
X-584320Y1726220D01*
X-584960Y1724950D01*
X-585440Y1723250D01*
X-585600Y1721350D01*
X-585440Y1719440D01*
X-584960Y1717750D01*
X-584320Y1716480D01*
X-583350Y1715420D01*
X-582070Y1715000D01*
X-580780Y1715420D01*
X-579810Y1716480D01*
X-579170Y1717750D01*
X-578690Y1719440D01*
X-578530Y1721350D01*
X-578690Y1723250D01*
X-579170Y1724950D01*
X-579810Y1726220D01*
X-580780Y1727280D01*
X-582070Y1727700D01*
G01X-604690Y2067700D02*
Y2055000D01*
X-598260D01*
G01X-592060Y2057540D02*
X-591100Y2056060D01*
X-589810Y2055210D01*
X-588360Y2055000D01*
X-587080Y2055210D01*
X-585790Y2056270D01*
X-584990Y2057540D01*
X-584830Y2058810D01*
X-585150Y2060290D01*
X-586270Y2061350D01*
X-587400Y2061770D01*
X-588850D01*
G01X-587400D02*
X-586430Y2062410D01*
X-585630Y2063470D01*
X-585310Y2064740D01*
X-585630Y2066010D01*
X-586430Y2067060D01*
X-587880Y2067700D01*
X-589330Y2067490D01*
X-590780Y2066640D01*
G01X-579430Y2231640D02*
X-580390Y2232280D01*
X-581520Y2232700D01*
X-582800D01*
X-584250Y2232060D01*
X-585380Y2231010D01*
X-586180Y2229740D01*
X-586830Y2227620D01*
X-586990Y2225710D01*
X-586660Y2223810D01*
X-586180Y2222540D01*
X-585220Y2221270D01*
X-584090Y2220420D01*
X-582970Y2220000D01*
X-581840D01*
X-580710Y2220420D01*
X-579750Y2221060D01*
X-578940Y2221900D01*
G01X-570020Y2220000D02*
Y2232700D01*
X-571950Y2230160D01*
G01Y2220000D02*
X-568090D01*
G01X-560120Y2230580D02*
X-559160Y2231850D01*
X-558030Y2232490D01*
X-556740Y2232700D01*
X-555130Y2232280D01*
X-554010Y2231220D01*
X-553690Y2229950D01*
X-553850Y2228680D01*
X-554490Y2227620D01*
X-557710Y2225500D01*
X-559160Y2224020D01*
X-560120Y2221900D01*
X-560440Y2220000D01*
X-553690D01*
G01X-505790Y229600D02*
Y216900D01*
X-499360D01*
G01X-492680Y227480D02*
X-491720Y228750D01*
X-490590Y229390D01*
X-489300Y229600D01*
X-487690Y229180D01*
X-486570Y228120D01*
X-486250Y226850D01*
X-486410Y225580D01*
X-487050Y224520D01*
X-490270Y222400D01*
X-491720Y220920D01*
X-492680Y218800D01*
X-493000Y216900D01*
X-486250D01*
G01X-496140Y552200D02*
Y539500D01*
X-489710D01*
G01X-479980D02*
Y552200D01*
X-481910Y549660D01*
G01Y539500D02*
X-478050D01*
G01X-498940Y913640D02*
X-499900Y914280D01*
X-501030Y914700D01*
X-502310D01*
X-503760Y914060D01*
X-504890Y913010D01*
X-505690Y911740D01*
X-506340Y909620D01*
X-506500Y907710D01*
X-506170Y905810D01*
X-505690Y904540D01*
X-504730Y903270D01*
X-503600Y902420D01*
X-502480Y902000D01*
X-501350D01*
X-500220Y902420D01*
X-499260Y903060D01*
X-498450Y903900D01*
G01X-493060D02*
X-492100Y902850D01*
X-490970Y902210D01*
X-489530Y902000D01*
X-488080Y902420D01*
X-486950Y903270D01*
X-486150Y904750D01*
X-485990Y906440D01*
X-486310Y908140D01*
X-487110Y909200D01*
X-488240Y910040D01*
X-489360Y910250D01*
X-490490Y910040D01*
X-491940Y909200D01*
X-491460Y914700D01*
X-487110D01*
G01X-516500Y950000D02*
Y962700D01*
X-513290D01*
X-512000Y962060D01*
X-511030Y961220D01*
X-510230Y959950D01*
X-509590Y958470D01*
X-509430Y956350D01*
X-509590Y954230D01*
X-510230Y952750D01*
X-511030Y951480D01*
X-512000Y950630D01*
X-513290Y950000D01*
X-516500D01*
G01X-500020D02*
Y962700D01*
X-501950Y960160D01*
G01Y950000D02*
X-498090D01*
G01X-487070Y962700D02*
X-488350Y962280D01*
X-489320Y961220D01*
X-489960Y959950D01*
X-490440Y958250D01*
X-490600Y956350D01*
X-490440Y954440D01*
X-489960Y952750D01*
X-489320Y951480D01*
X-488350Y950420D01*
X-487070Y950000D01*
X-485780Y950420D01*
X-484810Y951480D01*
X-484170Y952750D01*
X-483690Y954440D01*
X-483530Y956350D01*
X-483690Y958250D01*
X-484170Y959950D01*
X-484810Y961220D01*
X-485780Y962280D01*
X-487070Y962700D01*
G01X-529430Y1019140D02*
X-530390Y1019780D01*
X-531520Y1020200D01*
X-532800D01*
X-534250Y1019560D01*
X-535380Y1018510D01*
X-536180Y1017240D01*
X-536830Y1015120D01*
X-536990Y1013210D01*
X-536660Y1011310D01*
X-536180Y1010040D01*
X-535220Y1008770D01*
X-534090Y1007920D01*
X-532970Y1007500D01*
X-531840D01*
X-530710Y1007920D01*
X-529750Y1008560D01*
X-528940Y1009400D01*
G01X-523070Y1018080D02*
X-522110Y1019350D01*
X-520980Y1019990D01*
X-519690Y1020200D01*
X-518080Y1019780D01*
X-516960Y1018720D01*
X-516640Y1017450D01*
X-516800Y1016180D01*
X-517440Y1015120D01*
X-520660Y1013000D01*
X-522110Y1011520D01*
X-523070Y1009400D01*
X-523390Y1007500D01*
X-516640D01*
G01X-510120Y1012790D02*
X-509000Y1014270D01*
X-508030Y1015120D01*
X-506740Y1015540D01*
X-505620Y1015120D01*
X-504810Y1014270D01*
X-504170Y1013000D01*
X-504010Y1011520D01*
X-504170Y1010250D01*
X-504810Y1008980D01*
X-505780Y1007920D01*
X-506900Y1007500D01*
X-508190Y1007920D01*
X-509320Y1009190D01*
X-509960Y1011100D01*
X-510120Y1013210D01*
X-509800Y1015970D01*
X-509320Y1017450D01*
X-508510Y1018930D01*
X-507390Y1019990D01*
X-506260Y1020200D01*
X-505130Y1019780D01*
X-504330Y1018720D01*
G01X-476180Y986000D02*
Y998700D01*
X-472160D01*
X-470870Y998060D01*
X-470070Y997220D01*
X-469750Y995520D01*
X-470070Y993830D01*
X-471030Y992770D01*
X-472160Y992140D01*
X-476180D01*
G01X-472160D02*
X-469750Y986000D01*
G01X-463070Y996580D02*
X-462110Y997850D01*
X-460980Y998490D01*
X-459690Y998700D01*
X-458080Y998280D01*
X-456960Y997220D01*
X-456640Y995950D01*
X-456800Y994680D01*
X-457440Y993620D01*
X-460660Y991500D01*
X-462110Y990020D01*
X-463070Y987900D01*
X-463390Y986000D01*
X-456640D01*
G01X-447070Y998700D02*
X-448350Y998280D01*
X-449320Y997220D01*
X-449960Y995950D01*
X-450440Y994250D01*
X-450600Y992350D01*
X-450440Y990440D01*
X-449960Y988750D01*
X-449320Y987480D01*
X-448350Y986420D01*
X-447070Y986000D01*
X-445780Y986420D01*
X-444810Y987480D01*
X-444170Y988750D01*
X-443690Y990440D01*
X-443530Y992350D01*
X-443690Y994250D01*
X-444170Y995950D01*
X-444810Y997220D01*
X-445780Y998280D01*
X-447070Y998700D01*
G01X-534430Y1046640D02*
X-535390Y1047280D01*
X-536520Y1047700D01*
X-537800D01*
X-539250Y1047060D01*
X-540380Y1046010D01*
X-541180Y1044740D01*
X-541830Y1042620D01*
X-541990Y1040710D01*
X-541660Y1038810D01*
X-541180Y1037540D01*
X-540220Y1036270D01*
X-539090Y1035420D01*
X-537970Y1035000D01*
X-536840D01*
X-535710Y1035420D01*
X-534750Y1036060D01*
X-533940Y1036900D01*
G01X-528070Y1045580D02*
X-527110Y1046850D01*
X-525980Y1047490D01*
X-524690Y1047700D01*
X-523080Y1047280D01*
X-521960Y1046220D01*
X-521640Y1044950D01*
X-521800Y1043680D01*
X-522440Y1042620D01*
X-525660Y1040500D01*
X-527110Y1039020D01*
X-528070Y1036900D01*
X-528390Y1035000D01*
X-521640D01*
G01X-512070D02*
X-510940Y1035210D01*
X-509650Y1035850D01*
X-508850Y1036900D01*
X-508530Y1038390D01*
X-508850Y1039870D01*
X-509810Y1041140D01*
X-511260Y1041770D01*
X-512870D01*
X-513830Y1042200D01*
X-514640Y1043250D01*
X-514960Y1044740D01*
X-514480Y1046220D01*
X-513350Y1047280D01*
X-512070Y1047700D01*
X-510780Y1047280D01*
X-509650Y1046220D01*
X-509170Y1044740D01*
X-509490Y1043250D01*
X-510300Y1042200D01*
X-511260Y1041770D01*
X-512870D01*
X-514320Y1041140D01*
X-515280Y1039870D01*
X-515600Y1038390D01*
X-515280Y1036900D01*
X-514480Y1035850D01*
X-513190Y1035210D01*
X-512070Y1035000D01*
G01X-493680Y1092500D02*
Y1105200D01*
X-489660D01*
X-488370Y1104560D01*
X-487570Y1103720D01*
X-487250Y1102020D01*
X-487570Y1100330D01*
X-488530Y1099270D01*
X-489660Y1098640D01*
X-493680D01*
G01X-489660D02*
X-487250Y1092500D01*
G01X-480570Y1103080D02*
X-479610Y1104350D01*
X-478480Y1104990D01*
X-477190Y1105200D01*
X-475580Y1104780D01*
X-474460Y1103720D01*
X-474140Y1102450D01*
X-474300Y1101180D01*
X-474940Y1100120D01*
X-478160Y1098000D01*
X-479610Y1096520D01*
X-480570Y1094400D01*
X-480890Y1092500D01*
X-474140D01*
G01X-467620Y1103080D02*
X-466660Y1104350D01*
X-465530Y1104990D01*
X-464240Y1105200D01*
X-462630Y1104780D01*
X-461510Y1103720D01*
X-461190Y1102450D01*
X-461350Y1101180D01*
X-461990Y1100120D01*
X-465210Y1098000D01*
X-466660Y1096520D01*
X-467620Y1094400D01*
X-467940Y1092500D01*
X-461190D01*
G01X-526180Y1160000D02*
Y1172700D01*
X-522160D01*
X-520870Y1172060D01*
X-520070Y1171220D01*
X-519750Y1169520D01*
X-520070Y1167830D01*
X-521030Y1166770D01*
X-522160Y1166140D01*
X-526180D01*
G01X-522160D02*
X-519750Y1160000D01*
G01X-510020D02*
Y1172700D01*
X-511950Y1170160D01*
G01Y1160000D02*
X-508090D01*
G01X-499800Y1161480D02*
X-498670Y1160420D01*
X-497390Y1160000D01*
X-496100Y1160420D01*
X-494970Y1161690D01*
X-494170Y1163600D01*
X-493850Y1165500D01*
Y1167830D01*
X-494170Y1169740D01*
X-494970Y1171430D01*
X-495940Y1172280D01*
X-497070Y1172700D01*
X-498350Y1172280D01*
X-499320Y1171430D01*
X-499960Y1170160D01*
X-500280Y1168470D01*
X-499960Y1166990D01*
X-499160Y1165500D01*
X-498190Y1164660D01*
X-497070Y1164440D01*
X-495780Y1164870D01*
X-494810Y1165930D01*
X-493850Y1167830D01*
G01X-480010Y1125200D02*
Y1116100D01*
X-479370Y1114190D01*
X-478080Y1112920D01*
X-476480Y1112500D01*
X-474870Y1112920D01*
X-473580Y1114190D01*
X-472940Y1116100D01*
Y1125200D01*
G01X-466580Y1123080D02*
X-465620Y1124350D01*
X-464490Y1124990D01*
X-463200Y1125200D01*
X-461590Y1124780D01*
X-460470Y1123720D01*
X-460150Y1122450D01*
X-460310Y1121180D01*
X-460950Y1120120D01*
X-464170Y1118000D01*
X-465620Y1116520D01*
X-466580Y1114400D01*
X-466900Y1112500D01*
X-460150D01*
G01X-491180Y1197500D02*
Y1210200D01*
X-487160D01*
X-485870Y1209560D01*
X-485070Y1208720D01*
X-484750Y1207020D01*
X-485070Y1205330D01*
X-486030Y1204270D01*
X-487160Y1203640D01*
X-491180D01*
G01X-487160D02*
X-484750Y1197500D01*
G01X-475020D02*
Y1210200D01*
X-476950Y1207660D01*
G01Y1197500D02*
X-473090D01*
G01X-462070D02*
X-460940Y1197710D01*
X-459650Y1198350D01*
X-458850Y1199400D01*
X-458530Y1200890D01*
X-458850Y1202370D01*
X-459810Y1203640D01*
X-461260Y1204270D01*
X-462870D01*
X-463830Y1204700D01*
X-464640Y1205750D01*
X-464960Y1207240D01*
X-464480Y1208720D01*
X-463350Y1209780D01*
X-462070Y1210200D01*
X-460780Y1209780D01*
X-459650Y1208720D01*
X-459170Y1207240D01*
X-459490Y1205750D01*
X-460300Y1204700D01*
X-461260Y1204270D01*
X-462870D01*
X-464320Y1203640D01*
X-465280Y1202370D01*
X-465600Y1200890D01*
X-465280Y1199400D01*
X-464480Y1198350D01*
X-463190Y1197710D01*
X-462070Y1197500D01*
G01X-491180Y1177500D02*
Y1190200D01*
X-487160D01*
X-485870Y1189560D01*
X-485070Y1188720D01*
X-484750Y1187020D01*
X-485070Y1185330D01*
X-486030Y1184270D01*
X-487160Y1183640D01*
X-491180D01*
G01X-487160D02*
X-484750Y1177500D01*
G01X-478070Y1188080D02*
X-477110Y1189350D01*
X-475980Y1189990D01*
X-474690Y1190200D01*
X-473080Y1189780D01*
X-471960Y1188720D01*
X-471640Y1187450D01*
X-471800Y1186180D01*
X-472440Y1185120D01*
X-475660Y1183000D01*
X-477110Y1181520D01*
X-478070Y1179400D01*
X-478390Y1177500D01*
X-471640D01*
G01X-462070D02*
Y1190200D01*
X-464000Y1187660D01*
G01Y1177500D02*
X-460140D01*
G01X-517970Y1562700D02*
Y1550000D01*
G01X-521660Y1562700D02*
X-514270D01*
G01X-508390Y1550000D02*
Y1562700D01*
G01X-501640D02*
Y1550000D01*
G01Y1556350D02*
X-508390D01*
G01X-495120Y1560580D02*
X-494160Y1561850D01*
X-493030Y1562490D01*
X-491740Y1562700D01*
X-490130Y1562280D01*
X-489010Y1561220D01*
X-488690Y1559950D01*
X-488850Y1558680D01*
X-489490Y1557620D01*
X-492710Y1555500D01*
X-494160Y1554020D01*
X-495120Y1551900D01*
X-495440Y1550000D01*
X-488690D01*
G01X-479430Y2231640D02*
X-480390Y2232280D01*
X-481520Y2232700D01*
X-482800D01*
X-484250Y2232060D01*
X-485380Y2231010D01*
X-486180Y2229740D01*
X-486830Y2227620D01*
X-486990Y2225710D01*
X-486660Y2223810D01*
X-486180Y2222540D01*
X-485220Y2221270D01*
X-484090Y2220420D01*
X-482970Y2220000D01*
X-481840D01*
X-480710Y2220420D01*
X-479750Y2221060D01*
X-478940Y2221900D01*
G01X-470020Y2220000D02*
Y2232700D01*
X-471950Y2230160D01*
G01Y2220000D02*
X-468090D01*
G01X-460600Y2222540D02*
X-459640Y2221060D01*
X-458350Y2220210D01*
X-456900Y2220000D01*
X-455620Y2220210D01*
X-454330Y2221270D01*
X-453530Y2222540D01*
X-453370Y2223810D01*
X-453690Y2225290D01*
X-454810Y2226350D01*
X-455940Y2226770D01*
X-457390D01*
G01X-455940D02*
X-454970Y2227410D01*
X-454170Y2228470D01*
X-453850Y2229740D01*
X-454170Y2231010D01*
X-454970Y2232060D01*
X-456420Y2232700D01*
X-457870Y2232490D01*
X-459320Y2231640D01*
G01X-450500Y318700D02*
Y309600D01*
X-449860Y307690D01*
X-448570Y306420D01*
X-446970Y306000D01*
X-445360Y306420D01*
X-444070Y307690D01*
X-443430Y309600D01*
Y318700D01*
G01X-433050Y312350D02*
X-429830D01*
Y308540D01*
X-430800Y307270D01*
X-431920Y306420D01*
X-433530Y306000D01*
X-435140Y306420D01*
X-436270Y307270D01*
X-437230Y308540D01*
X-437880Y310020D01*
X-438200Y311710D01*
Y313200D01*
X-437880Y314470D01*
X-437230Y315950D01*
X-436270Y317220D01*
X-435300Y318060D01*
X-434020Y318700D01*
X-432890D01*
X-431600Y318280D01*
X-430640Y317430D01*
G01X-424120Y316580D02*
X-423160Y317850D01*
X-422030Y318490D01*
X-420740Y318700D01*
X-419130Y318280D01*
X-418010Y317220D01*
X-417690Y315950D01*
X-417850Y314680D01*
X-418490Y313620D01*
X-421710Y311500D01*
X-423160Y310020D01*
X-424120Y307900D01*
X-424440Y306000D01*
X-417690D01*
G01X-454500Y658700D02*
Y649600D01*
X-453860Y647690D01*
X-452570Y646420D01*
X-450970Y646000D01*
X-449360Y646420D01*
X-448070Y647690D01*
X-447430Y649600D01*
Y658700D01*
G01X-437050Y652350D02*
X-433830D01*
Y648540D01*
X-434800Y647270D01*
X-435920Y646420D01*
X-437530Y646000D01*
X-439140Y646420D01*
X-440270Y647270D01*
X-441230Y648540D01*
X-441880Y650020D01*
X-442200Y651710D01*
Y653200D01*
X-441880Y654470D01*
X-441230Y655950D01*
X-440270Y657220D01*
X-439300Y658060D01*
X-438020Y658700D01*
X-436890D01*
X-435600Y658280D01*
X-434640Y657430D01*
G01X-425070Y646000D02*
Y658700D01*
X-427000Y656160D01*
G01Y646000D02*
X-423140D01*
G01X-415690Y764000D02*
Y776700D01*
X-411670D01*
X-410380Y776060D01*
X-409580Y775220D01*
X-409260Y773520D01*
X-409580Y771830D01*
X-410540Y770770D01*
X-411670Y770140D01*
X-415690D01*
G01X-411670D02*
X-409260Y764000D01*
G01X-402260Y765480D02*
X-401130Y764420D01*
X-399850Y764000D01*
X-398560Y764420D01*
X-397430Y765690D01*
X-396630Y767600D01*
X-396310Y769500D01*
Y771830D01*
X-396630Y773740D01*
X-397430Y775430D01*
X-398400Y776280D01*
X-399530Y776700D01*
X-400810Y776280D01*
X-401780Y775430D01*
X-402420Y774160D01*
X-402740Y772470D01*
X-402420Y770990D01*
X-401620Y769500D01*
X-400650Y768660D01*
X-399530Y768440D01*
X-398240Y768870D01*
X-397270Y769930D01*
X-396310Y771830D01*
G01X-420940Y724230D02*
X-417080D01*
G01X-419180Y726990D02*
Y721480D01*
G01X-406230Y720000D02*
Y732700D01*
X-408160Y730160D01*
G01Y720000D02*
X-404300D01*
G01X-396810Y721900D02*
X-395850Y720850D01*
X-394720Y720210D01*
X-393280Y720000D01*
X-391830Y720420D01*
X-390700Y721270D01*
X-389900Y722750D01*
X-389740Y724440D01*
X-390060Y726140D01*
X-390860Y727200D01*
X-391990Y728040D01*
X-393110Y728250D01*
X-394240Y728040D01*
X-395690Y727200D01*
X-395210Y732700D01*
X-390860D01*
G01X-384350D02*
X-380330Y720000D01*
X-376300Y732700D01*
G01X-443430Y877640D02*
X-444390Y878280D01*
X-445520Y878700D01*
X-446800D01*
X-448250Y878060D01*
X-449380Y877010D01*
X-450180Y875740D01*
X-450830Y873620D01*
X-450990Y871710D01*
X-450660Y869810D01*
X-450180Y868540D01*
X-449220Y867270D01*
X-448090Y866420D01*
X-446970Y866000D01*
X-445840D01*
X-444710Y866420D01*
X-443750Y867060D01*
X-442940Y867900D01*
G01X-434020Y866000D02*
Y878700D01*
X-435950Y876160D01*
G01Y866000D02*
X-432090D01*
G01X-421390D02*
X-421070Y868750D01*
X-420580Y871080D01*
X-419940Y873200D01*
X-419130Y875520D01*
X-417850Y878700D01*
X-424280D01*
G01X-417430Y805640D02*
X-418390Y806280D01*
X-419520Y806700D01*
X-420800D01*
X-422250Y806060D01*
X-423380Y805010D01*
X-424180Y803740D01*
X-424830Y801620D01*
X-424990Y799710D01*
X-424660Y797810D01*
X-424180Y796540D01*
X-423220Y795270D01*
X-422090Y794420D01*
X-420970Y794000D01*
X-419840D01*
X-418710Y794420D01*
X-417750Y795060D01*
X-416940Y795900D01*
G01X-408020Y794000D02*
Y806700D01*
X-409950Y804160D01*
G01Y794000D02*
X-406090D01*
G01X-395070D02*
X-393940Y794210D01*
X-392650Y794850D01*
X-391850Y795900D01*
X-391530Y797390D01*
X-391850Y798870D01*
X-392810Y800140D01*
X-394260Y800770D01*
X-395870D01*
X-396830Y801200D01*
X-397640Y802250D01*
X-397960Y803740D01*
X-397480Y805220D01*
X-396350Y806280D01*
X-395070Y806700D01*
X-393780Y806280D01*
X-392650Y805220D01*
X-392170Y803740D01*
X-392490Y802250D01*
X-393300Y801200D01*
X-394260Y800770D01*
X-395870D01*
X-397320Y800140D01*
X-398280Y798870D01*
X-398600Y797390D01*
X-398280Y795900D01*
X-397480Y794850D01*
X-396190Y794210D01*
X-395070Y794000D01*
G01X-456480Y928000D02*
X-457760Y928210D01*
X-458890Y929060D01*
X-459850Y930330D01*
X-460500Y931810D01*
X-460820Y933500D01*
Y935200D01*
X-460500Y936890D01*
X-459850Y938370D01*
X-458890Y939640D01*
X-457760Y940490D01*
X-456480Y940700D01*
X-455190Y940490D01*
X-454060Y939640D01*
X-453100Y938370D01*
X-452450Y936890D01*
X-452130Y935200D01*
Y933500D01*
X-452450Y931810D01*
X-453100Y930330D01*
X-454060Y929060D01*
X-455190Y928210D01*
X-456480Y928000D01*
G01X-455190Y931390D02*
X-453260Y928000D01*
G01X-447060Y930540D02*
X-446100Y929060D01*
X-444810Y928210D01*
X-443360Y928000D01*
X-442080Y928210D01*
X-440790Y929270D01*
X-439990Y930540D01*
X-439830Y931810D01*
X-440150Y933290D01*
X-441270Y934350D01*
X-442400Y934770D01*
X-443850D01*
G01X-442400D02*
X-441430Y935410D01*
X-440630Y936470D01*
X-440310Y937740D01*
X-440630Y939010D01*
X-441430Y940060D01*
X-442880Y940700D01*
X-444330Y940490D01*
X-445780Y939640D01*
G01X-436180Y890000D02*
Y902700D01*
X-432160D01*
X-430870Y902060D01*
X-430070Y901220D01*
X-429750Y899520D01*
X-430070Y897830D01*
X-431030Y896770D01*
X-432160Y896140D01*
X-436180D01*
G01X-432160D02*
X-429750Y890000D01*
G01X-423070Y900580D02*
X-422110Y901850D01*
X-420980Y902490D01*
X-419690Y902700D01*
X-418080Y902280D01*
X-416960Y901220D01*
X-416640Y899950D01*
X-416800Y898680D01*
X-417440Y897620D01*
X-420660Y895500D01*
X-422110Y894020D01*
X-423070Y891900D01*
X-423390Y890000D01*
X-416640D01*
G01X-410600Y892540D02*
X-409640Y891060D01*
X-408350Y890210D01*
X-406900Y890000D01*
X-405620Y890210D01*
X-404330Y891270D01*
X-403530Y892540D01*
X-403370Y893810D01*
X-403690Y895290D01*
X-404810Y896350D01*
X-405940Y896770D01*
X-407390D01*
G01X-405940D02*
X-404970Y897410D01*
X-404170Y898470D01*
X-403850Y899740D01*
X-404170Y901010D01*
X-404970Y902060D01*
X-406420Y902700D01*
X-407870Y902490D01*
X-409320Y901640D01*
G01X-407820Y966000D02*
Y973870D01*
X-405380D01*
X-404600Y973480D01*
X-404120Y972950D01*
X-403920Y971900D01*
X-404120Y970850D01*
X-404700Y970200D01*
X-405380Y969800D01*
X-407820D01*
G01X-405380D02*
X-403920Y966000D01*
G01X-399850Y972560D02*
X-399270Y973350D01*
X-398580Y973740D01*
X-397810Y973870D01*
X-396830Y973610D01*
X-396150Y972950D01*
X-395960Y972160D01*
X-396050Y971380D01*
X-396440Y970720D01*
X-398390Y969410D01*
X-399270Y968490D01*
X-399850Y967180D01*
X-400040Y966000D01*
X-395960D01*
G01X-391980Y969280D02*
X-391300Y970200D01*
X-390710Y970720D01*
X-389940Y970980D01*
X-389250Y970720D01*
X-388770Y970200D01*
X-388380Y969410D01*
X-388280Y968490D01*
X-388380Y967710D01*
X-388770Y966920D01*
X-389350Y966260D01*
X-390030Y966000D01*
X-390810Y966260D01*
X-391490Y967050D01*
X-391880Y968230D01*
X-391980Y969540D01*
X-391780Y971250D01*
X-391490Y972160D01*
X-391010Y973080D01*
X-390320Y973740D01*
X-389640Y973870D01*
X-388960Y973610D01*
X-388480Y972950D01*
G01X-471180Y950000D02*
Y962700D01*
X-467160D01*
X-465870Y962060D01*
X-465070Y961220D01*
X-464750Y959520D01*
X-465070Y957830D01*
X-466030Y956770D01*
X-467160Y956140D01*
X-471180D01*
G01X-467160D02*
X-464750Y950000D01*
G01X-458070Y960580D02*
X-457110Y961850D01*
X-455980Y962490D01*
X-454690Y962700D01*
X-453080Y962280D01*
X-451960Y961220D01*
X-451640Y959950D01*
X-451800Y958680D01*
X-452440Y957620D01*
X-455660Y955500D01*
X-457110Y954020D01*
X-458070Y951900D01*
X-458390Y950000D01*
X-451640D01*
G01X-440130D02*
Y962700D01*
X-446090Y953600D01*
X-438040D01*
G01X-414500Y993000D02*
X-412000Y985000D01*
X-409500Y993000D01*
G01X-401800Y992330D02*
X-402400Y992730D01*
X-403100Y993000D01*
X-403900D01*
X-404800Y992600D01*
X-405500Y991930D01*
X-406000Y991130D01*
X-406400Y989800D01*
X-406500Y988600D01*
X-406300Y987400D01*
X-406000Y986600D01*
X-405400Y985800D01*
X-404700Y985270D01*
X-404000Y985000D01*
X-403300D01*
X-402600Y985270D01*
X-402000Y985670D01*
X-401500Y986200D01*
G01X-393800Y992330D02*
X-394400Y992730D01*
X-395100Y993000D01*
X-395900D01*
X-396800Y992600D01*
X-397500Y991930D01*
X-398000Y991130D01*
X-398400Y989800D01*
X-398500Y988600D01*
X-398300Y987400D01*
X-398000Y986600D01*
X-397400Y985800D01*
X-396700Y985270D01*
X-396000Y985000D01*
X-395300D01*
X-394600Y985270D01*
X-394000Y985670D01*
X-393500Y986200D01*
G01X-391000Y982330D02*
X-385000D01*
G01X-382000Y985000D02*
Y993000D01*
X-379600D01*
X-378800Y992600D01*
X-378200Y991670D01*
X-378000Y990600D01*
X-378200Y989530D01*
X-378700Y988730D01*
X-379600Y988330D01*
X-382000D01*
G01X-373900Y985000D02*
Y993000D01*
X-370100D01*
G01X-371500Y989130D02*
X-373900D01*
G01X-361800Y992330D02*
X-362400Y992730D01*
X-363100Y993000D01*
X-363900D01*
X-364800Y992600D01*
X-365500Y991930D01*
X-366000Y991130D01*
X-366400Y989800D01*
X-366500Y988600D01*
X-366300Y987400D01*
X-366000Y986600D01*
X-365400Y985800D01*
X-364700Y985270D01*
X-364000Y985000D01*
X-363300D01*
X-362600Y985270D01*
X-362000Y985670D01*
X-361500Y986200D01*
G01X-465730Y1049210D02*
X-466310Y1049610D01*
X-466990Y1049870D01*
X-467770D01*
X-468650Y1049480D01*
X-469330Y1048820D01*
X-469820Y1048030D01*
X-470210Y1046720D01*
X-470300Y1045540D01*
X-470110Y1044360D01*
X-469820Y1043570D01*
X-469230Y1042790D01*
X-468550Y1042260D01*
X-467870Y1042000D01*
X-467190D01*
X-466510Y1042260D01*
X-465920Y1042660D01*
X-465440Y1043180D01*
G01X-461850Y1048560D02*
X-461270Y1049350D01*
X-460580Y1049740D01*
X-459810Y1049870D01*
X-458830Y1049610D01*
X-458150Y1048950D01*
X-457960Y1048160D01*
X-458050Y1047380D01*
X-458440Y1046720D01*
X-460390Y1045410D01*
X-461270Y1044490D01*
X-461850Y1043180D01*
X-462040Y1042000D01*
X-457960D01*
G01X-452320D02*
X-452130Y1043710D01*
X-451840Y1045150D01*
X-451450Y1046460D01*
X-450960Y1047900D01*
X-450180Y1049870D01*
X-454080D01*
G01X-419430Y1216640D02*
X-420390Y1217280D01*
X-421520Y1217700D01*
X-422800D01*
X-424250Y1217060D01*
X-425380Y1216010D01*
X-426180Y1214740D01*
X-426830Y1212620D01*
X-426990Y1210710D01*
X-426660Y1208810D01*
X-426180Y1207540D01*
X-425220Y1206270D01*
X-424090Y1205420D01*
X-422970Y1205000D01*
X-421840D01*
X-420710Y1205420D01*
X-419750Y1206060D01*
X-418940Y1206900D01*
G01X-413070Y1215580D02*
X-412110Y1216850D01*
X-410980Y1217490D01*
X-409690Y1217700D01*
X-408080Y1217280D01*
X-406960Y1216220D01*
X-406640Y1214950D01*
X-406800Y1213680D01*
X-407440Y1212620D01*
X-410660Y1210500D01*
X-412110Y1209020D01*
X-413070Y1206900D01*
X-413390Y1205000D01*
X-406640D01*
G01X-400600Y1207540D02*
X-399640Y1206060D01*
X-398350Y1205210D01*
X-396900Y1205000D01*
X-395620Y1205210D01*
X-394330Y1206270D01*
X-393530Y1207540D01*
X-393370Y1208810D01*
X-393690Y1210290D01*
X-394810Y1211350D01*
X-395940Y1211770D01*
X-397390D01*
G01X-395940D02*
X-394970Y1212410D01*
X-394170Y1213470D01*
X-393850Y1214740D01*
X-394170Y1216010D01*
X-394970Y1217060D01*
X-396420Y1217700D01*
X-397870Y1217490D01*
X-399320Y1216640D01*
G01X-439430Y1189140D02*
X-440390Y1189780D01*
X-441520Y1190200D01*
X-442800D01*
X-444250Y1189560D01*
X-445380Y1188510D01*
X-446180Y1187240D01*
X-446830Y1185120D01*
X-446990Y1183210D01*
X-446660Y1181310D01*
X-446180Y1180040D01*
X-445220Y1178770D01*
X-444090Y1177920D01*
X-442970Y1177500D01*
X-441840D01*
X-440710Y1177920D01*
X-439750Y1178560D01*
X-438940Y1179400D01*
G01X-433070Y1188080D02*
X-432110Y1189350D01*
X-430980Y1189990D01*
X-429690Y1190200D01*
X-428080Y1189780D01*
X-426960Y1188720D01*
X-426640Y1187450D01*
X-426800Y1186180D01*
X-427440Y1185120D01*
X-430660Y1183000D01*
X-432110Y1181520D01*
X-433070Y1179400D01*
X-433390Y1177500D01*
X-426640D01*
G01X-415130D02*
Y1190200D01*
X-421090Y1181100D01*
X-413040D01*
G01X-470010Y1245000D02*
Y1257700D01*
X-466800D01*
X-465510Y1257060D01*
X-464540Y1256220D01*
X-463740Y1254950D01*
X-463100Y1253470D01*
X-462940Y1251350D01*
X-463100Y1249230D01*
X-463740Y1247750D01*
X-464540Y1246480D01*
X-465510Y1245630D01*
X-466800Y1245000D01*
X-470010D01*
G01X-453850D02*
X-453530Y1247750D01*
X-453040Y1250080D01*
X-452400Y1252200D01*
X-451590Y1254520D01*
X-450310Y1257700D01*
X-456740D01*
G01X-342940Y1640D02*
X-343900Y2280D01*
X-345030Y2700D01*
X-346310D01*
X-347760Y2060D01*
X-348890Y1010D01*
X-349690Y-260D01*
X-350340Y-2380D01*
X-350500Y-4290D01*
X-350170Y-6190D01*
X-349690Y-7460D01*
X-348730Y-8730D01*
X-347600Y-9580D01*
X-346480Y-10000D01*
X-345350D01*
X-344220Y-9580D01*
X-343260Y-8940D01*
X-342450Y-8100D01*
G01X-331590Y-10000D02*
Y2700D01*
X-337550Y-6400D01*
X-329500D01*
G01X-342940Y337640D02*
X-343900Y338280D01*
X-345030Y338700D01*
X-346310D01*
X-347760Y338060D01*
X-348890Y337010D01*
X-349690Y335740D01*
X-350340Y333620D01*
X-350500Y331710D01*
X-350170Y329810D01*
X-349690Y328540D01*
X-348730Y327270D01*
X-347600Y326420D01*
X-346480Y326000D01*
X-345350D01*
X-344220Y326420D01*
X-343260Y327060D01*
X-342450Y327900D01*
G01X-337060Y328540D02*
X-336100Y327060D01*
X-334810Y326210D01*
X-333360Y326000D01*
X-332080Y326210D01*
X-330790Y327270D01*
X-329990Y328540D01*
X-329830Y329810D01*
X-330150Y331290D01*
X-331270Y332350D01*
X-332400Y332770D01*
X-333850D01*
G01X-332400D02*
X-331430Y333410D01*
X-330630Y334470D01*
X-330310Y335740D01*
X-330630Y337010D01*
X-331430Y338060D01*
X-332880Y338700D01*
X-334330Y338490D01*
X-335780Y337640D01*
G01X-382010Y684000D02*
Y696700D01*
X-378800D01*
X-377510Y696060D01*
X-376540Y695220D01*
X-375740Y693950D01*
X-375100Y692470D01*
X-374940Y690350D01*
X-375100Y688230D01*
X-375740Y686750D01*
X-376540Y685480D01*
X-377510Y684630D01*
X-378800Y684000D01*
X-382010D01*
G01X-369060Y685900D02*
X-368100Y684850D01*
X-366970Y684210D01*
X-365530Y684000D01*
X-364080Y684420D01*
X-362950Y685270D01*
X-362150Y686750D01*
X-361990Y688440D01*
X-362310Y690140D01*
X-363110Y691200D01*
X-364240Y692040D01*
X-365360Y692250D01*
X-366490Y692040D01*
X-367940Y691200D01*
X-367460Y696700D01*
X-363110D01*
G01X-326180Y672000D02*
Y684700D01*
X-322160D01*
X-320870Y684060D01*
X-320070Y683220D01*
X-319750Y681520D01*
X-320070Y679830D01*
X-321030Y678770D01*
X-322160Y678140D01*
X-326180D01*
G01X-322160D02*
X-319750Y672000D01*
G01X-310020D02*
Y684700D01*
X-311950Y682160D01*
G01Y672000D02*
X-308090D01*
G01X-300120Y682580D02*
X-299160Y683850D01*
X-298030Y684490D01*
X-296740Y684700D01*
X-295130Y684280D01*
X-294010Y683220D01*
X-293690Y681950D01*
X-293850Y680680D01*
X-294490Y679620D01*
X-297710Y677500D01*
X-299160Y676020D01*
X-300120Y673900D01*
X-300440Y672000D01*
X-293690D01*
G01X-323690Y882700D02*
Y870000D01*
X-317260D01*
G01X-311060Y871900D02*
X-310100Y870850D01*
X-308970Y870210D01*
X-307530Y870000D01*
X-306080Y870420D01*
X-304950Y871270D01*
X-304150Y872750D01*
X-303990Y874440D01*
X-304310Y876140D01*
X-305110Y877200D01*
X-306240Y878040D01*
X-307360Y878250D01*
X-308490Y878040D01*
X-309940Y877200D01*
X-309460Y882700D01*
X-305110D01*
G01X-385730Y901210D02*
X-386310Y901610D01*
X-386990Y901870D01*
X-387770D01*
X-388650Y901480D01*
X-389330Y900820D01*
X-389820Y900030D01*
X-390210Y898720D01*
X-390300Y897540D01*
X-390110Y896360D01*
X-389820Y895570D01*
X-389230Y894790D01*
X-388550Y894260D01*
X-387870Y894000D01*
X-387190D01*
X-386510Y894260D01*
X-385920Y894660D01*
X-385440Y895180D01*
G01X-382140Y895570D02*
X-381560Y894660D01*
X-380780Y894130D01*
X-379900Y894000D01*
X-379120Y894130D01*
X-378350Y894790D01*
X-377860Y895570D01*
X-377760Y896360D01*
X-377960Y897280D01*
X-378640Y897930D01*
X-379320Y898200D01*
X-380190D01*
G01X-379320D02*
X-378730Y898590D01*
X-378250Y899250D01*
X-378050Y900030D01*
X-378250Y900820D01*
X-378730Y901480D01*
X-379610Y901870D01*
X-380490Y901740D01*
X-381360Y901210D01*
G01X-372130Y894000D02*
Y901870D01*
X-373300Y900300D01*
G01Y894000D02*
X-370960D01*
G01X-354180Y890000D02*
Y902700D01*
X-350160D01*
X-348870Y902060D01*
X-348070Y901220D01*
X-347750Y899520D01*
X-348070Y897830D01*
X-349030Y896770D01*
X-350160Y896140D01*
X-354180D01*
G01X-350160D02*
X-347750Y890000D01*
G01X-341550Y892540D02*
X-340590Y891060D01*
X-339300Y890210D01*
X-337850Y890000D01*
X-336570Y890210D01*
X-335280Y891270D01*
X-334480Y892540D01*
X-334320Y893810D01*
X-334640Y895290D01*
X-335760Y896350D01*
X-336890Y896770D01*
X-338340D01*
G01X-336890D02*
X-335920Y897410D01*
X-335120Y898470D01*
X-334800Y899740D01*
X-335120Y901010D01*
X-335920Y902060D01*
X-337370Y902700D01*
X-338820Y902490D01*
X-340270Y901640D01*
G01X-325070Y902700D02*
X-326350Y902280D01*
X-327320Y901220D01*
X-327960Y899950D01*
X-328440Y898250D01*
X-328600Y896350D01*
X-328440Y894440D01*
X-327960Y892750D01*
X-327320Y891480D01*
X-326350Y890420D01*
X-325070Y890000D01*
X-323780Y890420D01*
X-322810Y891480D01*
X-322170Y892750D01*
X-321690Y894440D01*
X-321530Y896350D01*
X-321690Y898250D01*
X-322170Y899950D01*
X-322810Y901220D01*
X-323780Y902280D01*
X-325070Y902700D01*
G01X-380090Y973870D02*
Y968230D01*
X-379700Y967050D01*
X-378920Y966260D01*
X-377950Y966000D01*
X-376980Y966260D01*
X-376200Y967050D01*
X-375810Y968230D01*
Y973870D01*
G01X-372220Y967570D02*
X-371640Y966660D01*
X-370860Y966130D01*
X-369980Y966000D01*
X-369200Y966130D01*
X-368430Y966790D01*
X-367940Y967570D01*
X-367840Y968360D01*
X-368040Y969280D01*
X-368720Y969930D01*
X-369400Y970200D01*
X-370270D01*
G01X-369400D02*
X-368810Y970590D01*
X-368330Y971250D01*
X-368130Y972030D01*
X-368330Y972820D01*
X-368810Y973480D01*
X-369690Y973870D01*
X-370570Y973740D01*
X-371440Y973210D01*
G01X-376930Y1016640D02*
X-377890Y1017280D01*
X-379020Y1017700D01*
X-380300D01*
X-381750Y1017060D01*
X-382880Y1016010D01*
X-383680Y1014740D01*
X-384330Y1012620D01*
X-384490Y1010710D01*
X-384160Y1008810D01*
X-383680Y1007540D01*
X-382720Y1006270D01*
X-381590Y1005420D01*
X-380470Y1005000D01*
X-379340D01*
X-378210Y1005420D01*
X-377250Y1006060D01*
X-376440Y1006900D01*
G01X-371050Y1007540D02*
X-370090Y1006060D01*
X-368800Y1005210D01*
X-367350Y1005000D01*
X-366070Y1005210D01*
X-364780Y1006270D01*
X-363980Y1007540D01*
X-363820Y1008810D01*
X-364140Y1010290D01*
X-365260Y1011350D01*
X-366390Y1011770D01*
X-367840D01*
G01X-366390D02*
X-365420Y1012410D01*
X-364620Y1013470D01*
X-364300Y1014740D01*
X-364620Y1016010D01*
X-365420Y1017060D01*
X-366870Y1017700D01*
X-368320Y1017490D01*
X-369770Y1016640D01*
G01X-354570Y1017700D02*
X-355850Y1017280D01*
X-356820Y1016220D01*
X-357460Y1014950D01*
X-357940Y1013250D01*
X-358100Y1011350D01*
X-357940Y1009440D01*
X-357460Y1007750D01*
X-356820Y1006480D01*
X-355850Y1005420D01*
X-354570Y1005000D01*
X-353280Y1005420D01*
X-352310Y1006480D01*
X-351670Y1007750D01*
X-351190Y1009440D01*
X-351030Y1011350D01*
X-351190Y1013250D01*
X-351670Y1014950D01*
X-352310Y1016220D01*
X-353280Y1017280D01*
X-354570Y1017700D01*
G01X-326180Y968000D02*
Y980700D01*
X-322160D01*
X-320870Y980060D01*
X-320070Y979220D01*
X-319750Y977520D01*
X-320070Y975830D01*
X-321030Y974770D01*
X-322160Y974140D01*
X-326180D01*
G01X-322160D02*
X-319750Y968000D01*
G01X-313070Y978580D02*
X-312110Y979850D01*
X-310980Y980490D01*
X-309690Y980700D01*
X-308080Y980280D01*
X-306960Y979220D01*
X-306640Y977950D01*
X-306800Y976680D01*
X-307440Y975620D01*
X-310660Y973500D01*
X-312110Y972020D01*
X-313070Y969900D01*
X-313390Y968000D01*
X-306640D01*
G01X-300600Y969900D02*
X-299640Y968850D01*
X-298510Y968210D01*
X-297070Y968000D01*
X-295620Y968420D01*
X-294490Y969270D01*
X-293690Y970750D01*
X-293530Y972440D01*
X-293850Y974140D01*
X-294650Y975200D01*
X-295780Y976040D01*
X-296900Y976250D01*
X-298030Y976040D01*
X-299480Y975200D01*
X-299000Y980700D01*
X-294650D01*
G01X-376930Y1034140D02*
X-377890Y1034780D01*
X-379020Y1035200D01*
X-380300D01*
X-381750Y1034560D01*
X-382880Y1033510D01*
X-383680Y1032240D01*
X-384330Y1030120D01*
X-384490Y1028210D01*
X-384160Y1026310D01*
X-383680Y1025040D01*
X-382720Y1023770D01*
X-381590Y1022920D01*
X-380470Y1022500D01*
X-379340D01*
X-378210Y1022920D01*
X-377250Y1023560D01*
X-376440Y1024400D01*
G01X-370570Y1033080D02*
X-369610Y1034350D01*
X-368480Y1034990D01*
X-367190Y1035200D01*
X-365580Y1034780D01*
X-364460Y1033720D01*
X-364140Y1032450D01*
X-364300Y1031180D01*
X-364940Y1030120D01*
X-368160Y1028000D01*
X-369610Y1026520D01*
X-370570Y1024400D01*
X-370890Y1022500D01*
X-364140D01*
G01X-357300Y1023980D02*
X-356170Y1022920D01*
X-354890Y1022500D01*
X-353600Y1022920D01*
X-352470Y1024190D01*
X-351670Y1026100D01*
X-351350Y1028000D01*
Y1030330D01*
X-351670Y1032240D01*
X-352470Y1033930D01*
X-353440Y1034780D01*
X-354570Y1035200D01*
X-355850Y1034780D01*
X-356820Y1033930D01*
X-357460Y1032660D01*
X-357780Y1030970D01*
X-357460Y1029490D01*
X-356660Y1028000D01*
X-355690Y1027160D01*
X-354570Y1026940D01*
X-353280Y1027370D01*
X-352310Y1028430D01*
X-351350Y1030330D01*
G01X-383680Y1040000D02*
Y1052700D01*
X-379660D01*
X-378370Y1052060D01*
X-377570Y1051220D01*
X-377250Y1049520D01*
X-377570Y1047830D01*
X-378530Y1046770D01*
X-379660Y1046140D01*
X-383680D01*
G01X-379660D02*
X-377250Y1040000D01*
G01X-367520D02*
Y1052700D01*
X-369450Y1050160D01*
G01Y1040000D02*
X-365590D01*
G01X-354890D02*
X-354570Y1042750D01*
X-354080Y1045080D01*
X-353440Y1047200D01*
X-352630Y1049520D01*
X-351350Y1052700D01*
X-357780D01*
G01X-389430Y1166640D02*
X-390390Y1167280D01*
X-391520Y1167700D01*
X-392800D01*
X-394250Y1167060D01*
X-395380Y1166010D01*
X-396180Y1164740D01*
X-396830Y1162620D01*
X-396990Y1160710D01*
X-396660Y1158810D01*
X-396180Y1157540D01*
X-395220Y1156270D01*
X-394090Y1155420D01*
X-392970Y1155000D01*
X-391840D01*
X-390710Y1155420D01*
X-389750Y1156060D01*
X-388940Y1156900D01*
G01X-383070Y1165580D02*
X-382110Y1166850D01*
X-380980Y1167490D01*
X-379690Y1167700D01*
X-378080Y1167280D01*
X-376960Y1166220D01*
X-376640Y1164950D01*
X-376800Y1163680D01*
X-377440Y1162620D01*
X-380660Y1160500D01*
X-382110Y1159020D01*
X-383070Y1156900D01*
X-383390Y1155000D01*
X-376640D01*
G01X-370600Y1156900D02*
X-369640Y1155850D01*
X-368510Y1155210D01*
X-367070Y1155000D01*
X-365620Y1155420D01*
X-364490Y1156270D01*
X-363690Y1157750D01*
X-363530Y1159440D01*
X-363850Y1161140D01*
X-364650Y1162200D01*
X-365780Y1163040D01*
X-366900Y1163250D01*
X-368030Y1163040D01*
X-369480Y1162200D01*
X-369000Y1167700D01*
X-364650D01*
G01X-391180Y1135000D02*
Y1147700D01*
X-387160D01*
X-385870Y1147060D01*
X-385070Y1146220D01*
X-384750Y1144520D01*
X-385070Y1142830D01*
X-386030Y1141770D01*
X-387160Y1141140D01*
X-391180D01*
G01X-387160D02*
X-384750Y1135000D01*
G01X-375020D02*
Y1147700D01*
X-376950Y1145160D01*
G01Y1135000D02*
X-373090D01*
G01X-365120Y1140290D02*
X-364000Y1141770D01*
X-363030Y1142620D01*
X-361740Y1143040D01*
X-360620Y1142620D01*
X-359810Y1141770D01*
X-359170Y1140500D01*
X-359010Y1139020D01*
X-359170Y1137750D01*
X-359810Y1136480D01*
X-360780Y1135420D01*
X-361900Y1135000D01*
X-363190Y1135420D01*
X-364320Y1136690D01*
X-364960Y1138600D01*
X-365120Y1140710D01*
X-364800Y1143470D01*
X-364320Y1144950D01*
X-363510Y1146430D01*
X-362390Y1147490D01*
X-361260Y1147700D01*
X-360130Y1147280D01*
X-359330Y1146220D01*
G01X-345010Y1105000D02*
Y1117700D01*
X-341800D01*
X-340510Y1117060D01*
X-339540Y1116220D01*
X-338740Y1114950D01*
X-338100Y1113470D01*
X-337940Y1111350D01*
X-338100Y1109230D01*
X-338740Y1107750D01*
X-339540Y1106480D01*
X-340510Y1105630D01*
X-341800Y1105000D01*
X-345010D01*
G01X-331260Y1106480D02*
X-330130Y1105420D01*
X-328850Y1105000D01*
X-327560Y1105420D01*
X-326430Y1106690D01*
X-325630Y1108600D01*
X-325310Y1110500D01*
Y1112830D01*
X-325630Y1114740D01*
X-326430Y1116430D01*
X-327400Y1117280D01*
X-328530Y1117700D01*
X-329810Y1117280D01*
X-330780Y1116430D01*
X-331420Y1115160D01*
X-331740Y1113470D01*
X-331420Y1111990D01*
X-330620Y1110500D01*
X-329650Y1109660D01*
X-328530Y1109440D01*
X-327240Y1109870D01*
X-326270Y1110930D01*
X-325310Y1112830D01*
G01X-366180Y1380000D02*
Y1392700D01*
X-362160D01*
X-360870Y1392060D01*
X-360070Y1391220D01*
X-359750Y1389520D01*
X-360070Y1387830D01*
X-361030Y1386770D01*
X-362160Y1386140D01*
X-366180D01*
G01X-362160D02*
X-359750Y1380000D01*
G01X-350020D02*
Y1392700D01*
X-351950Y1390160D01*
G01Y1380000D02*
X-348090D01*
G01X-335130D02*
Y1392700D01*
X-341090Y1383600D01*
X-333040D01*
G01X-369430Y1521640D02*
X-370390Y1522280D01*
X-371520Y1522700D01*
X-372800D01*
X-374250Y1522060D01*
X-375380Y1521010D01*
X-376180Y1519740D01*
X-376830Y1517620D01*
X-376990Y1515710D01*
X-376660Y1513810D01*
X-376180Y1512540D01*
X-375220Y1511270D01*
X-374090Y1510420D01*
X-372970Y1510000D01*
X-371840D01*
X-370710Y1510420D01*
X-369750Y1511060D01*
X-368940Y1511900D01*
G01X-363070Y1520580D02*
X-362110Y1521850D01*
X-360980Y1522490D01*
X-359690Y1522700D01*
X-358080Y1522280D01*
X-356960Y1521220D01*
X-356640Y1519950D01*
X-356800Y1518680D01*
X-357440Y1517620D01*
X-360660Y1515500D01*
X-362110Y1514020D01*
X-363070Y1511900D01*
X-363390Y1510000D01*
X-356640D01*
G01X-347070Y1522700D02*
X-348350Y1522280D01*
X-349320Y1521220D01*
X-349960Y1519950D01*
X-350440Y1518250D01*
X-350600Y1516350D01*
X-350440Y1514440D01*
X-349960Y1512750D01*
X-349320Y1511480D01*
X-348350Y1510420D01*
X-347070Y1510000D01*
X-345780Y1510420D01*
X-344810Y1511480D01*
X-344170Y1512750D01*
X-343690Y1514440D01*
X-343530Y1516350D01*
X-343690Y1518250D01*
X-344170Y1519950D01*
X-344810Y1521220D01*
X-345780Y1522280D01*
X-347070Y1522700D01*
G01X-368390Y2155000D02*
Y2167700D01*
X-364370D01*
X-363080Y2167060D01*
X-362280Y2166220D01*
X-361960Y2164520D01*
X-362280Y2162830D01*
X-363240Y2161770D01*
X-364370Y2161140D01*
X-368390D01*
G01X-364370D02*
X-361960Y2155000D01*
G01X-356250Y2167700D02*
X-352230Y2155000D01*
X-348200Y2167700D01*
G01X-339280Y2155000D02*
Y2167700D01*
X-341210Y2165160D01*
G01Y2155000D02*
X-337350D01*
G01X-288180Y656000D02*
Y668700D01*
X-284160D01*
X-282870Y668060D01*
X-282070Y667220D01*
X-281750Y665520D01*
X-282070Y663830D01*
X-283030Y662770D01*
X-284160Y662140D01*
X-288180D01*
G01X-284160D02*
X-281750Y656000D01*
G01X-272020D02*
Y668700D01*
X-273950Y666160D01*
G01Y656000D02*
X-270090D01*
G01X-262600Y658540D02*
X-261640Y657060D01*
X-260350Y656210D01*
X-258900Y656000D01*
X-257620Y656210D01*
X-256330Y657270D01*
X-255530Y658540D01*
X-255370Y659810D01*
X-255690Y661290D01*
X-256810Y662350D01*
X-257940Y662770D01*
X-259390D01*
G01X-257940D02*
X-256970Y663410D01*
X-256170Y664470D01*
X-255850Y665740D01*
X-256170Y667010D01*
X-256970Y668060D01*
X-258420Y668700D01*
X-259870Y668490D01*
X-261320Y667640D01*
G01X-250010Y676000D02*
Y688700D01*
X-246800D01*
X-245510Y688060D01*
X-244540Y687220D01*
X-243740Y685950D01*
X-243100Y684470D01*
X-242940Y682350D01*
X-243100Y680230D01*
X-243740Y678750D01*
X-244540Y677480D01*
X-245510Y676630D01*
X-246800Y676000D01*
X-250010D01*
G01X-236580Y681290D02*
X-235460Y682770D01*
X-234490Y683620D01*
X-233200Y684040D01*
X-232080Y683620D01*
X-231270Y682770D01*
X-230630Y681500D01*
X-230470Y680020D01*
X-230630Y678750D01*
X-231270Y677480D01*
X-232240Y676420D01*
X-233360Y676000D01*
X-234650Y676420D01*
X-235780Y677690D01*
X-236420Y679600D01*
X-236580Y681710D01*
X-236260Y684470D01*
X-235780Y685950D01*
X-234970Y687430D01*
X-233850Y688490D01*
X-232720Y688700D01*
X-231590Y688280D01*
X-230790Y687220D01*
G01X-291820Y904000D02*
Y911870D01*
X-289380D01*
X-288600Y911480D01*
X-288120Y910950D01*
X-287920Y909900D01*
X-288120Y908850D01*
X-288700Y908200D01*
X-289380Y907800D01*
X-291820D01*
G01X-289380D02*
X-287920Y904000D01*
G01X-283850Y910560D02*
X-283270Y911350D01*
X-282580Y911740D01*
X-281810Y911870D01*
X-280830Y911610D01*
X-280150Y910950D01*
X-279960Y910160D01*
X-280050Y909380D01*
X-280440Y908720D01*
X-282390Y907410D01*
X-283270Y906490D01*
X-283850Y905180D01*
X-284040Y904000D01*
X-279960D01*
G01X-275780Y904920D02*
X-275100Y904260D01*
X-274320Y904000D01*
X-273550Y904260D01*
X-272860Y905050D01*
X-272380Y906230D01*
X-272180Y907410D01*
Y908850D01*
X-272380Y910030D01*
X-272860Y911080D01*
X-273450Y911610D01*
X-274130Y911870D01*
X-274910Y911610D01*
X-275490Y911080D01*
X-275880Y910300D01*
X-276080Y909250D01*
X-275880Y908330D01*
X-275400Y907410D01*
X-274810Y906890D01*
X-274130Y906750D01*
X-273350Y907020D01*
X-272770Y907670D01*
X-272180Y908850D01*
G01X-251820Y904000D02*
Y911870D01*
X-249380D01*
X-248600Y911480D01*
X-248120Y910950D01*
X-247920Y909900D01*
X-248120Y908850D01*
X-248700Y908200D01*
X-249380Y907800D01*
X-251820D01*
G01X-249380D02*
X-247920Y904000D01*
G01X-243850Y910560D02*
X-243270Y911350D01*
X-242580Y911740D01*
X-241810Y911870D01*
X-240830Y911610D01*
X-240150Y910950D01*
X-239960Y910160D01*
X-240050Y909380D01*
X-240440Y908720D01*
X-242390Y907410D01*
X-243270Y906490D01*
X-243850Y905180D01*
X-244040Y904000D01*
X-239960D01*
G01X-234320D02*
X-234130Y905710D01*
X-233840Y907150D01*
X-233450Y908460D01*
X-232960Y909900D01*
X-232180Y911870D01*
X-236080D01*
G01X-309430Y951640D02*
X-310390Y952280D01*
X-311520Y952700D01*
X-312800D01*
X-314250Y952060D01*
X-315380Y951010D01*
X-316180Y949740D01*
X-316830Y947620D01*
X-316990Y945710D01*
X-316660Y943810D01*
X-316180Y942540D01*
X-315220Y941270D01*
X-314090Y940420D01*
X-312970Y940000D01*
X-311840D01*
X-310710Y940420D01*
X-309750Y941060D01*
X-308940Y941900D01*
G01X-303550Y942540D02*
X-302590Y941060D01*
X-301300Y940210D01*
X-299850Y940000D01*
X-298570Y940210D01*
X-297280Y941270D01*
X-296480Y942540D01*
X-296320Y943810D01*
X-296640Y945290D01*
X-297760Y946350D01*
X-298890Y946770D01*
X-300340D01*
G01X-298890D02*
X-297920Y947410D01*
X-297120Y948470D01*
X-296800Y949740D01*
X-297120Y951010D01*
X-297920Y952060D01*
X-299370Y952700D01*
X-300820Y952490D01*
X-302270Y951640D01*
G01X-290120Y950580D02*
X-289160Y951850D01*
X-288030Y952490D01*
X-286740Y952700D01*
X-285130Y952280D01*
X-284010Y951220D01*
X-283690Y949950D01*
X-283850Y948680D01*
X-284490Y947620D01*
X-287710Y945500D01*
X-289160Y944020D01*
X-290120Y941900D01*
X-290440Y940000D01*
X-283690D01*
G01X-308980Y1097500D02*
X-310260Y1097710D01*
X-311390Y1098560D01*
X-312350Y1099830D01*
X-313000Y1101310D01*
X-313320Y1103000D01*
Y1104700D01*
X-313000Y1106390D01*
X-312350Y1107870D01*
X-311390Y1109140D01*
X-310260Y1109990D01*
X-308980Y1110200D01*
X-307690Y1109990D01*
X-306560Y1109140D01*
X-305600Y1107870D01*
X-304950Y1106390D01*
X-304630Y1104700D01*
Y1103000D01*
X-304950Y1101310D01*
X-305600Y1099830D01*
X-306560Y1098560D01*
X-307690Y1097710D01*
X-308980Y1097500D01*
G01X-307690Y1100890D02*
X-305760Y1097500D01*
G01X-299080Y1108080D02*
X-298120Y1109350D01*
X-296990Y1109990D01*
X-295700Y1110200D01*
X-294090Y1109780D01*
X-292970Y1108720D01*
X-292650Y1107450D01*
X-292810Y1106180D01*
X-293450Y1105120D01*
X-296670Y1103000D01*
X-298120Y1101520D01*
X-299080Y1099400D01*
X-299400Y1097500D01*
X-292650D01*
G01X-315010Y1255000D02*
Y1267700D01*
X-311800D01*
X-310510Y1267060D01*
X-309540Y1266220D01*
X-308740Y1264950D01*
X-308100Y1263470D01*
X-307940Y1261350D01*
X-308100Y1259230D01*
X-308740Y1257750D01*
X-309540Y1256480D01*
X-310510Y1255630D01*
X-311800Y1255000D01*
X-315010D01*
G01X-298530D02*
X-297400Y1255210D01*
X-296110Y1255850D01*
X-295310Y1256900D01*
X-294990Y1258390D01*
X-295310Y1259870D01*
X-296270Y1261140D01*
X-297720Y1261770D01*
X-299330D01*
X-300290Y1262200D01*
X-301100Y1263250D01*
X-301420Y1264740D01*
X-300940Y1266220D01*
X-299810Y1267280D01*
X-298530Y1267700D01*
X-297240Y1267280D01*
X-296110Y1266220D01*
X-295630Y1264740D01*
X-295950Y1263250D01*
X-296760Y1262200D01*
X-297720Y1261770D01*
X-299330D01*
X-300780Y1261140D01*
X-301740Y1259870D01*
X-302060Y1258390D01*
X-301740Y1256900D01*
X-300940Y1255850D01*
X-299650Y1255210D01*
X-298530Y1255000D01*
G01X-315010Y1555000D02*
Y1567700D01*
X-311800D01*
X-310510Y1567060D01*
X-309540Y1566220D01*
X-308740Y1564950D01*
X-308100Y1563470D01*
X-307940Y1561350D01*
X-308100Y1559230D01*
X-308740Y1557750D01*
X-309540Y1556480D01*
X-310510Y1555630D01*
X-311800Y1555000D01*
X-315010D01*
G01X-301580Y1565580D02*
X-300620Y1566850D01*
X-299490Y1567490D01*
X-298200Y1567700D01*
X-296590Y1567280D01*
X-295470Y1566220D01*
X-295150Y1564950D01*
X-295310Y1563680D01*
X-295950Y1562620D01*
X-299170Y1560500D01*
X-300620Y1559020D01*
X-301580Y1556900D01*
X-301900Y1555000D01*
X-295150D01*
G01X-317710Y1618000D02*
Y1630700D01*
X-314500D01*
X-313210Y1630060D01*
X-312240Y1629220D01*
X-311440Y1627950D01*
X-310800Y1626470D01*
X-310640Y1624350D01*
X-310800Y1622230D01*
X-311440Y1620750D01*
X-312240Y1619480D01*
X-313210Y1618630D01*
X-314500Y1618000D01*
X-317710D01*
G01X-298010D02*
X-304440D01*
Y1630700D01*
X-298010D01*
G01X-300580Y1624560D02*
X-304440D01*
G01X-284740Y1629640D02*
X-285700Y1630280D01*
X-286830Y1630700D01*
X-288110D01*
X-289560Y1630060D01*
X-290690Y1629010D01*
X-291490Y1627740D01*
X-292140Y1625620D01*
X-292300Y1623710D01*
X-291970Y1621810D01*
X-291490Y1620540D01*
X-290530Y1619270D01*
X-289400Y1618420D01*
X-288280Y1618000D01*
X-287150D01*
X-286020Y1618420D01*
X-285060Y1619060D01*
X-284250Y1619900D01*
G01X-272110Y1618000D02*
X-278540D01*
Y1630700D01*
X-272110D01*
G01X-274680Y1624560D02*
X-278540D01*
G01X-266560Y1618000D02*
Y1630700D01*
X-262380Y1620120D01*
X-258190Y1630700D01*
Y1618000D01*
G01X-248140Y1624770D02*
X-247490Y1625410D01*
X-247010Y1626470D01*
X-246690Y1627950D01*
X-247010Y1629220D01*
X-247660Y1630060D01*
X-248780Y1630700D01*
X-253120D01*
Y1618000D01*
X-247820D01*
X-246690Y1618850D01*
X-246050Y1620120D01*
X-245730Y1621600D01*
X-246050Y1623080D01*
X-247010Y1624350D01*
X-248140Y1624770D01*
X-253120D01*
G01X-233260Y1618000D02*
X-239690D01*
Y1630700D01*
X-233260D01*
G01X-235830Y1624560D02*
X-239690D01*
G01X-226740Y1618000D02*
Y1630700D01*
X-222720D01*
X-221430Y1630060D01*
X-220630Y1629220D01*
X-220310Y1627520D01*
X-220630Y1625830D01*
X-221590Y1624770D01*
X-222720Y1624140D01*
X-226740D01*
G01X-222720D02*
X-220310Y1618000D01*
G01X-215400Y1613770D02*
X-205750D01*
G01X-200680Y1628580D02*
X-199720Y1629850D01*
X-198590Y1630490D01*
X-197300Y1630700D01*
X-195690Y1630280D01*
X-194570Y1629220D01*
X-194250Y1627950D01*
X-194410Y1626680D01*
X-195050Y1625620D01*
X-198270Y1623500D01*
X-199720Y1622020D01*
X-200680Y1619900D01*
X-201000Y1618000D01*
X-194250D01*
G01X-184680Y1630700D02*
X-185960Y1630280D01*
X-186930Y1629220D01*
X-187570Y1627950D01*
X-188050Y1626250D01*
X-188210Y1624350D01*
X-188050Y1622440D01*
X-187570Y1620750D01*
X-186930Y1619480D01*
X-185960Y1618420D01*
X-184680Y1618000D01*
X-183390Y1618420D01*
X-182420Y1619480D01*
X-181780Y1620750D01*
X-181300Y1622440D01*
X-181140Y1624350D01*
X-181300Y1626250D01*
X-181780Y1627950D01*
X-182420Y1629220D01*
X-183390Y1630280D01*
X-184680Y1630700D01*
G01X-171730Y1618000D02*
Y1630700D01*
X-173660Y1628160D01*
G01Y1618000D02*
X-169800D01*
G01X-159100D02*
X-158780Y1620750D01*
X-158290Y1623080D01*
X-157650Y1625200D01*
X-156840Y1627520D01*
X-155560Y1630700D01*
X-161990D01*
G01X-317710Y1654540D02*
X-316750Y1653060D01*
X-315460Y1652210D01*
X-314010Y1652000D01*
X-312730Y1652210D01*
X-311440Y1653270D01*
X-310640Y1654540D01*
X-310480Y1655810D01*
X-310800Y1657290D01*
X-311920Y1658350D01*
X-313050Y1658770D01*
X-314500D01*
G01X-313050D02*
X-312080Y1659410D01*
X-311280Y1660470D01*
X-310960Y1661740D01*
X-311280Y1663010D01*
X-312080Y1664060D01*
X-313530Y1664700D01*
X-314980Y1664490D01*
X-316430Y1663640D01*
G01X-301230Y1651580D02*
X-301550Y1651790D01*
Y1652210D01*
X-301230Y1652420D01*
X-300900Y1652210D01*
Y1651790D01*
X-301230Y1651580D01*
G01X-288280Y1652000D02*
Y1664700D01*
X-290210Y1662160D01*
G01Y1652000D02*
X-286350D01*
G01X-273390D02*
Y1664700D01*
X-279350Y1655600D01*
X-271300D01*
G01X-262380Y1664700D02*
X-263660Y1664280D01*
X-264630Y1663220D01*
X-265270Y1661950D01*
X-265750Y1660250D01*
X-265910Y1658350D01*
X-265750Y1656440D01*
X-265270Y1654750D01*
X-264630Y1653480D01*
X-263660Y1652420D01*
X-262380Y1652000D01*
X-261090Y1652420D01*
X-260120Y1653480D01*
X-259480Y1654750D01*
X-259000Y1656440D01*
X-258840Y1658350D01*
X-259000Y1660250D01*
X-259480Y1661950D01*
X-260120Y1663220D01*
X-261090Y1664280D01*
X-262380Y1664700D01*
G01X-249430Y1651580D02*
X-249750Y1651790D01*
Y1652210D01*
X-249430Y1652420D01*
X-249100Y1652210D01*
Y1651790D01*
X-249430Y1651580D01*
G01X-239530Y1657290D02*
X-238410Y1658770D01*
X-237440Y1659620D01*
X-236150Y1660040D01*
X-235030Y1659620D01*
X-234220Y1658770D01*
X-233580Y1657500D01*
X-233420Y1656020D01*
X-233580Y1654750D01*
X-234220Y1653480D01*
X-235190Y1652420D01*
X-236310Y1652000D01*
X-237600Y1652420D01*
X-238730Y1653690D01*
X-239370Y1655600D01*
X-239530Y1657710D01*
X-239210Y1660470D01*
X-238730Y1661950D01*
X-237920Y1663430D01*
X-236800Y1664490D01*
X-235670Y1664700D01*
X-234540Y1664280D01*
X-233740Y1663220D01*
G01X-226580Y1662580D02*
X-225620Y1663850D01*
X-224490Y1664490D01*
X-223200Y1664700D01*
X-221590Y1664280D01*
X-220470Y1663220D01*
X-220150Y1661950D01*
X-220310Y1660680D01*
X-220950Y1659620D01*
X-224170Y1657500D01*
X-225620Y1656020D01*
X-226580Y1653900D01*
X-226900Y1652000D01*
X-220150D01*
G01X-213630Y1657290D02*
X-212510Y1658770D01*
X-211540Y1659620D01*
X-210250Y1660040D01*
X-209130Y1659620D01*
X-208320Y1658770D01*
X-207680Y1657500D01*
X-207520Y1656020D01*
X-207680Y1654750D01*
X-208320Y1653480D01*
X-209290Y1652420D01*
X-210410Y1652000D01*
X-211700Y1652420D01*
X-212830Y1653690D01*
X-213470Y1655600D01*
X-213630Y1657710D01*
X-213310Y1660470D01*
X-212830Y1661950D01*
X-212020Y1663430D01*
X-210900Y1664490D01*
X-209770Y1664700D01*
X-208640Y1664280D01*
X-207840Y1663220D01*
G01X-312890Y1690770D02*
X-312240Y1691410D01*
X-311760Y1692470D01*
X-311440Y1693950D01*
X-311760Y1695220D01*
X-312410Y1696060D01*
X-313530Y1696700D01*
X-317870D01*
Y1684000D01*
X-312570D01*
X-311440Y1684850D01*
X-310800Y1686120D01*
X-310480Y1687600D01*
X-310800Y1689080D01*
X-311760Y1690350D01*
X-312890Y1690770D01*
X-317870D01*
G01X-304440Y1684000D02*
Y1696700D01*
X-300580D01*
X-299290Y1696060D01*
X-298330Y1694580D01*
X-298010Y1692890D01*
X-298330Y1691200D01*
X-299130Y1689930D01*
X-300580Y1689290D01*
X-304440D01*
G01X-291330Y1694580D02*
X-290370Y1695850D01*
X-289240Y1696490D01*
X-287950Y1696700D01*
X-286340Y1696280D01*
X-285220Y1695220D01*
X-284900Y1693950D01*
X-285060Y1692680D01*
X-285700Y1691620D01*
X-288920Y1689500D01*
X-290370Y1688020D01*
X-291330Y1685900D01*
X-291650Y1684000D01*
X-284900D01*
G01X-280150Y1679770D02*
X-270500D01*
G01X-262380Y1696700D02*
X-263660Y1696280D01*
X-264630Y1695220D01*
X-265270Y1693950D01*
X-265750Y1692250D01*
X-265910Y1690350D01*
X-265750Y1688440D01*
X-265270Y1686750D01*
X-264630Y1685480D01*
X-263660Y1684420D01*
X-262380Y1684000D01*
X-261090Y1684420D01*
X-260120Y1685480D01*
X-259480Y1686750D01*
X-259000Y1688440D01*
X-258840Y1690350D01*
X-259000Y1692250D01*
X-259480Y1693950D01*
X-260120Y1695220D01*
X-261090Y1696280D01*
X-262380Y1696700D01*
G01X-252480Y1694580D02*
X-251520Y1695850D01*
X-250390Y1696490D01*
X-249100Y1696700D01*
X-247490Y1696280D01*
X-246370Y1695220D01*
X-246050Y1693950D01*
X-246210Y1692680D01*
X-246850Y1691620D01*
X-250070Y1689500D01*
X-251520Y1688020D01*
X-252480Y1685900D01*
X-252800Y1684000D01*
X-246050D01*
G01X-240500Y1696700D02*
X-236480Y1684000D01*
X-232450Y1696700D01*
G01X-223850Y1684000D02*
X-223530Y1686750D01*
X-223040Y1689080D01*
X-222400Y1691200D01*
X-221590Y1693520D01*
X-220310Y1696700D01*
X-226740D01*
G01X-207430Y677640D02*
X-208390Y678280D01*
X-209520Y678700D01*
X-210800D01*
X-212250Y678060D01*
X-213380Y677010D01*
X-214180Y675740D01*
X-214830Y673620D01*
X-214990Y671710D01*
X-214660Y669810D01*
X-214180Y668540D01*
X-213220Y667270D01*
X-212090Y666420D01*
X-210970Y666000D01*
X-209840D01*
X-208710Y666420D01*
X-207750Y667060D01*
X-206940Y667900D01*
G01X-198020Y666000D02*
Y678700D01*
X-199950Y676160D01*
G01Y666000D02*
X-196090D01*
G01X-187800Y667480D02*
X-186670Y666420D01*
X-185390Y666000D01*
X-184100Y666420D01*
X-182970Y667690D01*
X-182170Y669600D01*
X-181850Y671500D01*
Y673830D01*
X-182170Y675740D01*
X-182970Y677430D01*
X-183940Y678280D01*
X-185070Y678700D01*
X-186350Y678280D01*
X-187320Y677430D01*
X-187960Y676160D01*
X-188280Y674470D01*
X-187960Y672990D01*
X-187160Y671500D01*
X-186190Y670660D01*
X-185070Y670440D01*
X-183780Y670870D01*
X-182810Y671930D01*
X-181850Y673830D01*
G01X-171430Y877640D02*
X-172390Y878280D01*
X-173520Y878700D01*
X-174800D01*
X-176250Y878060D01*
X-177380Y877010D01*
X-178180Y875740D01*
X-178830Y873620D01*
X-178990Y871710D01*
X-178660Y869810D01*
X-178180Y868540D01*
X-177220Y867270D01*
X-176090Y866420D01*
X-174970Y866000D01*
X-173840D01*
X-172710Y866420D01*
X-171750Y867060D01*
X-170940Y867900D01*
G01X-162020Y866000D02*
Y878700D01*
X-163950Y876160D01*
G01Y866000D02*
X-160090D01*
G01X-152120Y871290D02*
X-151000Y872770D01*
X-150030Y873620D01*
X-148740Y874040D01*
X-147620Y873620D01*
X-146810Y872770D01*
X-146170Y871500D01*
X-146010Y870020D01*
X-146170Y868750D01*
X-146810Y867480D01*
X-147780Y866420D01*
X-148900Y866000D01*
X-150190Y866420D01*
X-151320Y867690D01*
X-151960Y869600D01*
X-152120Y871710D01*
X-151800Y874470D01*
X-151320Y875950D01*
X-150510Y877430D01*
X-149390Y878490D01*
X-148260Y878700D01*
X-147130Y878280D01*
X-146330Y877220D01*
G01X-209820Y904000D02*
Y911870D01*
X-207380D01*
X-206600Y911480D01*
X-206120Y910950D01*
X-205920Y909900D01*
X-206120Y908850D01*
X-206700Y908200D01*
X-207380Y907800D01*
X-209820D01*
G01X-207380D02*
X-205920Y904000D01*
G01X-201850Y910560D02*
X-201270Y911350D01*
X-200580Y911740D01*
X-199810Y911870D01*
X-198830Y911610D01*
X-198150Y910950D01*
X-197960Y910160D01*
X-198050Y909380D01*
X-198440Y908720D01*
X-200390Y907410D01*
X-201270Y906490D01*
X-201850Y905180D01*
X-202040Y904000D01*
X-197960D01*
G01X-192130D02*
X-191450Y904130D01*
X-190670Y904520D01*
X-190180Y905180D01*
X-189990Y906100D01*
X-190180Y907020D01*
X-190770Y907800D01*
X-191640Y908200D01*
X-192620D01*
X-193200Y908460D01*
X-193690Y909120D01*
X-193880Y910030D01*
X-193590Y910950D01*
X-192910Y911610D01*
X-192130Y911870D01*
X-191350Y911610D01*
X-190670Y910950D01*
X-190380Y910030D01*
X-190570Y909120D01*
X-191060Y908460D01*
X-191640Y908200D01*
X-192620D01*
X-193490Y907800D01*
X-194080Y907020D01*
X-194270Y906100D01*
X-194080Y905180D01*
X-193590Y904520D01*
X-192810Y904130D01*
X-192130Y904000D01*
G01X-216020Y1790000D02*
Y1802700D01*
X-209910D01*
G01X-212160Y1796560D02*
X-216020D01*
G01X-203550Y1802700D02*
Y1793600D01*
X-202910Y1791690D01*
X-201620Y1790420D01*
X-200020Y1790000D01*
X-198410Y1790420D01*
X-197120Y1791690D01*
X-196480Y1793600D01*
Y1802700D01*
G01X-190120Y1800580D02*
X-189160Y1801850D01*
X-188030Y1802490D01*
X-186740Y1802700D01*
X-185130Y1802280D01*
X-184010Y1801220D01*
X-183690Y1799950D01*
X-183850Y1798680D01*
X-184490Y1797620D01*
X-187710Y1795500D01*
X-189160Y1794020D01*
X-190120Y1791900D01*
X-190440Y1790000D01*
X-183690D01*
G01X-176020Y1870000D02*
Y1882700D01*
X-169910D01*
G01X-172160Y1876560D02*
X-176020D01*
G01X-163550Y1882700D02*
Y1873600D01*
X-162910Y1871690D01*
X-161620Y1870420D01*
X-160020Y1870000D01*
X-158410Y1870420D01*
X-157120Y1871690D01*
X-156480Y1873600D01*
Y1882700D01*
G01X-147070Y1870000D02*
Y1882700D01*
X-149000Y1880160D01*
G01Y1870000D02*
X-145140D01*
G01X-100480Y676000D02*
X-101760Y676210D01*
X-102890Y677060D01*
X-103850Y678330D01*
X-104500Y679810D01*
X-104820Y681500D01*
Y683200D01*
X-104500Y684890D01*
X-103850Y686370D01*
X-102890Y687640D01*
X-101760Y688490D01*
X-100480Y688700D01*
X-99190Y688490D01*
X-98060Y687640D01*
X-97100Y686370D01*
X-96450Y684890D01*
X-96130Y683200D01*
Y681500D01*
X-96450Y679810D01*
X-97100Y678330D01*
X-98060Y677060D01*
X-99190Y676210D01*
X-100480Y676000D01*
G01X-99190Y679390D02*
X-97260Y676000D01*
G01X-87530D02*
Y688700D01*
X-89460Y686160D01*
G01Y676000D02*
X-85600D01*
G01X-160010Y682700D02*
Y673600D01*
X-159370Y671690D01*
X-158080Y670420D01*
X-156480Y670000D01*
X-154870Y670420D01*
X-153580Y671690D01*
X-152940Y673600D01*
Y682700D01*
G01X-143530Y670000D02*
Y682700D01*
X-145460Y680160D01*
G01Y670000D02*
X-141600D01*
G01X-148010Y782000D02*
Y794700D01*
X-144800D01*
X-143510Y794060D01*
X-142540Y793220D01*
X-141740Y791950D01*
X-141100Y790470D01*
X-140940Y788350D01*
X-141100Y786230D01*
X-141740Y784750D01*
X-142540Y783480D01*
X-143510Y782630D01*
X-144800Y782000D01*
X-148010D01*
G01X-129590D02*
Y794700D01*
X-135550Y785600D01*
X-127500D01*
G01X-147690Y766000D02*
Y778700D01*
X-143670D01*
X-142380Y778060D01*
X-141580Y777220D01*
X-141260Y775520D01*
X-141580Y773830D01*
X-142540Y772770D01*
X-143670Y772140D01*
X-147690D01*
G01X-143670D02*
X-141260Y766000D01*
G01X-131850D02*
X-131530Y768750D01*
X-131040Y771080D01*
X-130400Y773200D01*
X-129590Y775520D01*
X-128310Y778700D01*
X-134740D01*
G01X-168010Y898000D02*
Y910700D01*
X-164800D01*
X-163510Y910060D01*
X-162540Y909220D01*
X-161740Y907950D01*
X-161100Y906470D01*
X-160940Y904350D01*
X-161100Y902230D01*
X-161740Y900750D01*
X-162540Y899480D01*
X-163510Y898630D01*
X-164800Y898000D01*
X-168010D01*
G01X-155060Y900540D02*
X-154100Y899060D01*
X-152810Y898210D01*
X-151360Y898000D01*
X-150080Y898210D01*
X-148790Y899270D01*
X-147990Y900540D01*
X-147830Y901810D01*
X-148150Y903290D01*
X-149270Y904350D01*
X-150400Y904770D01*
X-151850D01*
G01X-150400D02*
X-149430Y905410D01*
X-148630Y906470D01*
X-148310Y907740D01*
X-148630Y909010D01*
X-149430Y910060D01*
X-150880Y910700D01*
X-152330Y910490D01*
X-153780Y909640D01*
G01X-22170Y680000D02*
Y692700D01*
X-18150D01*
X-16860Y692060D01*
X-16060Y691220D01*
X-15740Y689520D01*
X-16060Y687830D01*
X-17020Y686770D01*
X-18150Y686140D01*
X-22170D01*
G01X-18150D02*
X-15740Y680000D01*
G01X-6010D02*
Y692700D01*
X-7940Y690160D01*
G01Y680000D02*
X-4080D01*
G01X6940D02*
Y692700D01*
X5010Y690160D01*
G01Y680000D02*
X8870D01*
G01X-22170Y736000D02*
Y748700D01*
X-18150D01*
X-16860Y748060D01*
X-16060Y747220D01*
X-15740Y745520D01*
X-16060Y743830D01*
X-17020Y742770D01*
X-18150Y742140D01*
X-22170D01*
G01X-18150D02*
X-15740Y736000D01*
G01X-6010D02*
Y748700D01*
X-7940Y746160D01*
G01Y736000D02*
X-4080D01*
G01X6940Y748700D02*
X5660Y748280D01*
X4690Y747220D01*
X4050Y745950D01*
X3570Y744250D01*
X3410Y742350D01*
X3570Y740440D01*
X4050Y738750D01*
X4690Y737480D01*
X5660Y736420D01*
X6940Y736000D01*
X8230Y736420D01*
X9200Y737480D01*
X9840Y738750D01*
X10320Y740440D01*
X10480Y742350D01*
X10320Y744250D01*
X9840Y745950D01*
X9200Y747220D01*
X8230Y748280D01*
X6940Y748700D01*
G01X-21690Y788000D02*
Y800700D01*
X-17670D01*
X-16380Y800060D01*
X-15580Y799220D01*
X-15260Y797520D01*
X-15580Y795830D01*
X-16540Y794770D01*
X-17670Y794140D01*
X-21690D01*
G01X-17670D02*
X-15260Y788000D01*
G01X-5530D02*
X-4400Y788210D01*
X-3110Y788850D01*
X-2310Y789900D01*
X-1990Y791390D01*
X-2310Y792870D01*
X-3270Y794140D01*
X-4720Y794770D01*
X-6330D01*
X-7290Y795200D01*
X-8100Y796250D01*
X-8420Y797740D01*
X-7940Y799220D01*
X-6810Y800280D01*
X-5530Y800700D01*
X-4240Y800280D01*
X-3110Y799220D01*
X-2630Y797740D01*
X-2950Y796250D01*
X-3760Y795200D01*
X-4720Y794770D01*
X-6330D01*
X-7780Y794140D01*
X-8740Y792870D01*
X-9060Y791390D01*
X-8740Y789900D01*
X-7940Y788850D01*
X-6650Y788210D01*
X-5530Y788000D01*
G01X-63890Y1596770D02*
X-63240Y1597410D01*
X-62760Y1598470D01*
X-62440Y1599950D01*
X-62760Y1601220D01*
X-63410Y1602060D01*
X-64530Y1602700D01*
X-68870D01*
Y1590000D01*
X-63570D01*
X-62440Y1590850D01*
X-61800Y1592120D01*
X-61480Y1593600D01*
X-61800Y1595080D01*
X-62760Y1596350D01*
X-63890Y1596770D01*
X-68870D01*
G01X-52230Y1590000D02*
Y1602700D01*
X-54160Y1600160D01*
G01Y1590000D02*
X-50300D01*
G01X-46850Y2072000D02*
X-40100Y2084700D01*
G01X-46850D02*
X-40100Y2072000D01*
G01X-33580Y2082580D02*
X-32620Y2083850D01*
X-31490Y2084490D01*
X-30200Y2084700D01*
X-28590Y2084280D01*
X-27470Y2083220D01*
X-27150Y2081950D01*
X-27310Y2080680D01*
X-27950Y2079620D01*
X-31170Y2077500D01*
X-32620Y2076020D01*
X-33580Y2073900D01*
X-33900Y2072000D01*
X-27150D01*
M02*
