G04 ================== begin FILE IDENTIFICATION RECORD ==================*
G04 Layout Name:  D:/Project/Circuit/BP2/BP2_02v5/pcb/BP2_02v5.brd*
G04 Film Name:    SILK_TOP*
G04 File Format:  Gerber RS274X*
G04 File Origin:  Cadence Allegro 16.6-2015-S073*
G04 Origin Date:  Wed Dec 07 15:02:34 2016*
G04 *
G04 Layer:  MANUFACTURING/AUTOSILK_TOP*
G04 *
G04 Offset:    (0.000 0.000)*
G04 Mirror:    No*
G04 Mode:      Positive*
G04 Rotation:  0*
G04 FullContactRelief:  No*
G04 UndefLineWidth:     0.200*
G04 ================== end FILE IDENTIFICATION RECORD ====================*
%FSLAX34Y34*MOMM*%
%IR0*IPPOS*OFA0.00000B0.00000*MIA0B0*SFA1.00000B1.00000*%
%ADD10C,.05*%
%ADD11C,.1*%
%ADD12C,.2*%
%ADD13C,.4*%
%ADD14C,.15*%
%ADD15C,.8*%
G75*
%LPD*%
G75*
G54D10*
G01X-883670Y2128040D02*
X-885520Y2127930D01*
X-883740Y2124200D01*
X-881680Y2119870D01*
X-880080Y2116750D01*
X-879350Y2115540D01*
X-878640Y2114520D01*
X-877900Y2113650D01*
X-877870Y2113630D01*
G02X-878010Y2113200I-173J-182D01*
G01X-881910Y2112730D01*
X-884020Y2112880D01*
X-885420Y2113280D01*
X-886340Y2113850D01*
X-887030Y2114520D01*
X-888040Y2115770D01*
X-888870Y2117160D01*
X-889670Y2118920D01*
X-890600Y2121290D01*
X-892830Y2127160D01*
X-893200Y2127130D01*
X-894910Y2119670D01*
X-895460Y2116020D01*
X-895390Y2115180D01*
X-895150Y2114380D01*
X-894740Y2113630D01*
X-894730Y2113610D01*
X-894870Y2113330D01*
X-905060D01*
X-905140Y2113560D01*
X-904430Y2114310D01*
X-903870Y2115120D01*
X-903430Y2115960D01*
X-902810Y2117730D01*
X-902370Y2119570D01*
X-899200Y2133270D01*
X-898200Y2134190D01*
X-897290Y2135330D01*
X-896530Y2136580D01*
X-895920Y2137890D01*
X-895110Y2140500D01*
X-894800Y2142590D01*
X-887900D01*
X-884980Y2142520D01*
X-882900Y2142300D01*
X-881470Y2141960D01*
X-880500Y2141520D01*
X-879930Y2141140D01*
X-879400Y2140660D01*
X-878910Y2140080D01*
X-878470Y2139410D01*
X-878110Y2138660D01*
X-877840Y2137830D01*
X-877660Y2136930D01*
X-877600Y2135960D01*
X-877770Y2134210D01*
X-878250Y2132480D01*
X-879020Y2130920D01*
X-880040Y2129680D01*
X-881060Y2128930D01*
X-882290Y2128370D01*
X-883670Y2128040D01*
G01X-889170Y2129160D02*
X-890350Y2128680D01*
X-891690Y2128520D01*
X-892880Y2128740D01*
X-890520Y2139270D01*
X-889930D01*
X-888740Y2139190D01*
X-887790Y2138960D01*
X-887050Y2138600D01*
X-886500Y2138140D01*
X-886140Y2137600D01*
X-885910Y2137020D01*
X-885810Y2136440D01*
X-885780Y2135870D01*
X-885880Y2134500D01*
X-886170Y2133180D01*
X-886650Y2131940D01*
X-887310Y2130830D01*
X-888160Y2129890D01*
X-889170Y2129160D01*
G01X-894810Y2142500D02*
X-884820D01*
G01X-894890Y2142000D02*
X-881640D01*
G01X-894960Y2141500D02*
X-880470D01*
G01X-895030Y2141000D02*
X-879780D01*
G01X-895110Y2140500D02*
X-879270D01*
G01X-895260Y2140000D02*
X-878860D01*
G01X-895420Y2139500D02*
X-878530D01*
G01X-887960Y2139000D02*
X-878280D01*
G01X-895580D02*
X-890580D01*
G01X-886930Y2138500D02*
X-878060D01*
G01X-895730D02*
X-890690D01*
G01X-886410Y2138000D02*
X-877900D01*
G01X-895890D02*
X-890810D01*
G01X-886100Y2137500D02*
X-877770D01*
G01X-896100D02*
X-890920D01*
G01X-885910Y2137000D02*
X-877680D01*
G01X-896340D02*
X-891030D01*
G01X-885820Y2136500D02*
X-877640D01*
G01X-896580D02*
X-891140D01*
G01X-885780Y2136000D02*
X-877610D01*
G01X-896880D02*
X-891250D01*
G01X-885800Y2135500D02*
X-877650D01*
G01X-897180D02*
X-891360D01*
G01X-885840Y2135000D02*
X-877700D01*
G01X-897550D02*
X-891480D01*
G01X-885880Y2134500D02*
X-877740D01*
G01X-897950D02*
X-891590D01*
G01X-885990Y2134000D02*
X-877830D01*
G01X-898400D02*
X-891700D01*
G01X-886100Y2133500D02*
X-877970D01*
G01X-898940D02*
X-891810D01*
G01X-886240Y2133000D02*
X-878110D01*
G01X-899260D02*
X-891920D01*
G01X-886430Y2132500D02*
X-878250D01*
G01X-899370D02*
X-892040D01*
G01X-886630Y2132000D02*
X-878490D01*
G01X-899490D02*
X-892150D01*
G01X-886910Y2131500D02*
X-878730D01*
G01X-899600D02*
X-892260D01*
G01X-887210Y2131000D02*
X-878980D01*
G01X-899720D02*
X-892370D01*
G01X-887610Y2130500D02*
X-879360D01*
G01X-899840D02*
X-892480D01*
G01X-888060Y2130000D02*
X-879770D01*
G01X-899950D02*
X-892600D01*
G01X-888690Y2129500D02*
X-880280D01*
G01X-900070D02*
X-892710D01*
G01X-889560Y2129000D02*
X-880970D01*
G01X-900180D02*
X-892820D01*
G01X-900300Y2128500D02*
X-882020D01*
G01X-900420Y2128000D02*
X-884310D01*
G01X-900530Y2127500D02*
X-885320D01*
G01X-892770Y2127000D02*
X-885080D01*
G01X-900650D02*
X-893230D01*
G01X-892580Y2126500D02*
X-884840D01*
G01X-900760D02*
X-893350D01*
G01X-892390Y2126000D02*
X-884600D01*
G01X-900880D02*
X-893460D01*
G01X-892200Y2125500D02*
X-884360D01*
G01X-901000D02*
X-893580D01*
G01X-892010Y2125000D02*
X-884130D01*
G01X-901110D02*
X-893690D01*
G01X-891820Y2124500D02*
X-883890D01*
G01X-901230D02*
X-893800D01*
G01X-891630Y2124000D02*
X-883650D01*
G01X-901340D02*
X-893920D01*
G01X-891440Y2123500D02*
X-883410D01*
G01X-901460D02*
X-894030D01*
G01X-891250Y2123000D02*
X-883170D01*
G01X-901570D02*
X-894150D01*
G01X-891060Y2122500D02*
X-882940D01*
G01X-901690D02*
X-894260D01*
G01X-890870Y2122000D02*
X-882700D01*
G01X-901800D02*
X-894380D01*
G01X-890680Y2121500D02*
X-882460D01*
G01X-901920D02*
X-894490D01*
G01X-890480Y2121000D02*
X-882220D01*
G01X-902040D02*
X-894600D01*
G01X-890290Y2120500D02*
X-881980D01*
G01X-902150D02*
X-894720D01*
G01X-890090Y2120000D02*
X-881740D01*
G01X-902270D02*
X-894830D01*
G01X-889890Y2119500D02*
X-881490D01*
G01X-902380D02*
X-894930D01*
G01X-889700Y2119000D02*
X-881230D01*
G01X-902500D02*
X-895010D01*
G01X-889480Y2118500D02*
X-880980D01*
G01X-902620D02*
X-895090D01*
G01X-889250Y2118000D02*
X-880720D01*
G01X-902740D02*
X-895160D01*
G01X-889020Y2117500D02*
X-880460D01*
G01X-902890D02*
X-895240D01*
G01X-888770Y2117000D02*
X-880200D01*
G01X-903060D02*
X-895320D01*
G01X-888480Y2116500D02*
X-879930D01*
G01X-903240D02*
X-895390D01*
G01X-888180Y2116000D02*
X-879630D01*
G01X-903420D02*
X-895460D01*
G01X-887830Y2115500D02*
X-879320D01*
G01X-903670D02*
X-895420D01*
G01X-887420Y2115000D02*
X-878970D01*
G01X-903960D02*
X-895330D01*
G01X-887010Y2114500D02*
X-878620D01*
G01X-904300D02*
X-895180D01*
G01X-886500Y2114000D02*
X-878190D01*
G01X-904730D02*
X-894940D01*
G01X-885780Y2113500D02*
X-877800D01*
G01X-905120D02*
X-894780D01*
G01X-884440Y2113000D02*
X-879650D01*
G01X-850060Y2124700D02*
X-850550Y2123320D01*
G02X-850920Y2123190I-236J79D01*
G01X-855440Y2126160D01*
X-854480Y2117160D01*
X-855530Y2116220D01*
X-856770Y2115320D01*
X-858090Y2114550D01*
X-859510Y2113900D01*
X-861010Y2113400D01*
X-862590Y2113030D01*
X-864250Y2112800D01*
X-865970Y2112730D01*
X-869760Y2113140D01*
X-872610Y2114250D01*
X-874670Y2115840D01*
X-876080Y2117740D01*
X-876970Y2119760D01*
X-877450Y2121690D01*
X-877650Y2123350D01*
X-877680Y2124520D01*
X-877610Y2126430D01*
X-877370Y2128320D01*
X-876980Y2130190D01*
X-876450Y2132000D01*
X-875760Y2133740D01*
X-874930Y2135380D01*
X-873960Y2136900D01*
X-872860Y2138300D01*
X-871680Y2139470D01*
X-870420Y2140470D01*
X-869060Y2141310D01*
X-867600Y2142000D01*
X-866040Y2142520D01*
X-864370Y2142890D01*
X-862600Y2143120D01*
X-860710Y2143190D01*
X-858850Y2143100D01*
X-856550Y2142680D01*
X-855340Y2142290D01*
X-854130Y2141730D01*
X-852960Y2140990D01*
X-851880Y2140030D01*
X-851120Y2139120D01*
X-850510Y2138140D01*
X-850030Y2137090D01*
X-849680Y2136000D01*
X-849260Y2133730D01*
X-849140Y2131450D01*
X-849250Y2129070D01*
X-849560Y2126820D01*
X-850060Y2124700D01*
G01X-857740Y2127670D02*
X-858330Y2124790D01*
X-859200Y2122010D01*
X-859830Y2120580D01*
X-860510Y2119380D01*
X-861240Y2118380D01*
X-861990Y2117580D01*
X-862780Y2116980D01*
X-863580Y2116560D01*
X-864380Y2116310D01*
X-865170Y2116230D01*
X-865760Y2116280D01*
X-866440Y2116470D01*
X-867170Y2116850D01*
X-867880Y2117470D01*
X-868520Y2118370D01*
X-869040Y2119600D01*
X-869380Y2121190D01*
X-869510Y2123200D01*
X-869350Y2126030D01*
X-868910Y2128990D01*
X-868240Y2131840D01*
X-867410Y2134300D01*
X-866670Y2135850D01*
X-865500Y2137610D01*
X-864740Y2138410D01*
X-863850Y2139080D01*
X-862830Y2139530D01*
X-861700Y2139690D01*
X-861080Y2139650D01*
X-860390Y2139480D01*
X-859650Y2139130D01*
X-858930Y2138540D01*
X-858290Y2137640D01*
X-857780Y2136410D01*
X-857440Y2134790D01*
X-857310Y2132730D01*
X-857420Y2130400D01*
X-857740Y2127670D01*
G01X-863520Y2143000D02*
X-858310D01*
G01X-866100Y2142500D02*
X-856000D01*
G01X-867590Y2142000D02*
X-854720D01*
G01X-868660Y2141500D02*
X-853770D01*
G01X-869560Y2141000D02*
X-852980D01*
G01X-870370Y2140500D02*
X-852410D01*
G01X-871010Y2140000D02*
X-851850D01*
G01X-860450Y2139500D02*
X-851430D01*
G01X-871640D02*
X-862900D01*
G01X-859490Y2139000D02*
X-851040D01*
G01X-872150D02*
X-863950D01*
G01X-858910Y2138500D02*
X-850730D01*
G01X-872650D02*
X-864620D01*
G01X-858550Y2138000D02*
X-850450D01*
G01X-873090D02*
X-865130D01*
G01X-858230Y2137500D02*
X-850220D01*
G01X-873490D02*
X-865580D01*
G01X-858020Y2137000D02*
X-850000D01*
G01X-873890D02*
X-865910D01*
G01X-874220Y2136500D02*
X-866240D01*
G01X-874540Y2136000D02*
X-866580D01*
G01X-874860Y2135500D02*
X-866840D01*
G01X-875120Y2135000D02*
X-867080D01*
G01X-875380Y2134500D02*
X-867320D01*
G01X-875630Y2134000D02*
X-867510D01*
G01X-875860Y2133500D02*
X-867680D01*
G01X-876050Y2133000D02*
X-867850D01*
G01X-876250Y2132500D02*
X-868020D01*
G01X-876450Y2132000D02*
X-868190D01*
G01X-876600Y2131500D02*
X-868320D01*
G01X-876740Y2131000D02*
X-868440D01*
G01X-876890Y2130500D02*
X-868560D01*
G01X-877020Y2130000D02*
X-868680D01*
G01X-877130Y2129500D02*
X-868790D01*
G01X-877230Y2129000D02*
X-868910D01*
G01X-877340Y2128500D02*
X-868980D01*
G01X-877410Y2128000D02*
X-869060D01*
G01X-877470Y2127500D02*
X-869130D01*
G01X-877540Y2127000D02*
X-869210D01*
G01X-877600Y2126500D02*
X-869280D01*
G01X-858080Y2126000D02*
X-855420D01*
G01X-877620D02*
X-869350D01*
G01X-858180Y2125500D02*
X-855370D01*
G01X-877640D02*
X-869380D01*
G01X-858280Y2125000D02*
X-855310D01*
G01X-877660D02*
X-869410D01*
G01X-858420Y2124500D02*
X-855260D01*
G01X-877680D02*
X-869440D01*
G01X-858570Y2124000D02*
X-855210D01*
G01X-877670D02*
X-869460D01*
G01X-858730Y2123500D02*
X-855150D01*
G01X-877650D02*
X-869490D01*
G01X-858890Y2123000D02*
X-855100D01*
G01X-877600D02*
X-869500D01*
G01X-859040Y2122500D02*
X-855050D01*
G01X-877540D02*
X-869470D01*
G01X-859200Y2122000D02*
X-855000D01*
G01X-877480D02*
X-869440D01*
G01X-859420Y2121500D02*
X-854940D01*
G01X-877400D02*
X-869400D01*
G01X-859640Y2121000D02*
X-854890D01*
G01X-877280D02*
X-869340D01*
G01X-859870Y2120500D02*
X-854840D01*
G01X-877150D02*
X-869240D01*
G01X-860160Y2120000D02*
X-854780D01*
G01X-877020D02*
X-869130D01*
G01X-860440Y2119500D02*
X-854730D01*
G01X-876850D02*
X-869000D01*
G01X-860780Y2119000D02*
X-854680D01*
G01X-876630D02*
X-868790D01*
G01X-861150Y2118500D02*
X-854620D01*
G01X-876410D02*
X-868580D01*
G01X-861600Y2118000D02*
X-854570D01*
G01X-876190D02*
X-868260D01*
G01X-862100Y2117500D02*
X-854520D01*
G01X-875900D02*
X-867900D01*
G01X-862750Y2117000D02*
X-854660D01*
G01X-875520D02*
X-867340D01*
G01X-863760Y2116500D02*
X-855220D01*
G01X-875150D02*
X-866500D01*
G01X-874780Y2116000D02*
X-855830D01*
G01X-874220Y2115500D02*
X-856520D01*
G01X-873580Y2115000D02*
X-857320D01*
G01X-872930Y2114500D02*
X-858200D01*
G01X-871970Y2114000D02*
X-859300D01*
G01X-870680Y2113500D02*
X-860700D01*
G01X-868470Y2113000D02*
X-862780D01*
G01X-911680Y2148210D02*
X-912860Y2148320D01*
X-914030D01*
X-919800Y2121920D01*
X-920600Y2116890D01*
X-920550Y2116180D01*
X-920320Y2115300D01*
X-919800Y2114250D01*
X-919470Y2113780D01*
G02X-919670Y2113390I-205J-141D01*
G01X-933730D01*
G02X-933880Y2113840I1J250D01*
G01X-933870Y2113850D01*
X-932940Y2114840D01*
X-932200Y2115900D01*
X-931610Y2117020D01*
X-930790Y2119370D01*
X-930200Y2121820D01*
X-925260Y2144050D01*
X-924520Y2149080D01*
X-924640Y2150220D01*
X-924970Y2151250D01*
X-925500Y2152170D01*
X-925600Y2152290D01*
X-925460Y2152580D01*
X-909580D01*
X-907290Y2152530D01*
X-904930Y2152290D01*
X-903780Y2152070D01*
X-902660Y2151750D01*
X-901620Y2151340D01*
X-900640Y2150800D01*
X-899510Y2149900D01*
X-898410Y2148520D01*
X-897940Y2147620D01*
X-897570Y2146560D01*
X-897330Y2145310D01*
X-897240Y2143870D01*
X-897430Y2141550D01*
X-898000Y2139260D01*
X-898990Y2137080D01*
X-900410Y2135100D01*
X-902290Y2133400D01*
X-904650Y2132080D01*
X-907520Y2131220D01*
X-910940Y2130910D01*
X-912180Y2130950D01*
X-913570Y2131120D01*
X-914830Y2131410D01*
G02X-915010Y2131740I55J244D01*
G01X-914990Y2131790D01*
X-913530Y2132250D01*
X-912460Y2132860D01*
X-911720Y2133490D01*
X-910910Y2134410D01*
X-910210Y2135460D01*
X-909620Y2136620D01*
X-909140Y2137840D01*
X-908770Y2139130D01*
X-908510Y2140440D01*
X-908360Y2141770D01*
X-908310Y2143080D01*
X-908450Y2144720D01*
X-908850Y2146000D01*
X-909440Y2146940D01*
X-910170Y2147590D01*
X-911680Y2148210D01*
G01X-925500Y2152500D02*
X-907030D01*
G01X-925400Y2152000D02*
X-903540D01*
G01X-925120Y2151500D02*
X-902030D01*
G01X-924890Y2151000D02*
X-901000D01*
G01X-924730Y2150500D02*
X-900260D01*
G01X-924610Y2150000D02*
X-899630D01*
G01X-924560Y2149500D02*
X-899190D01*
G01X-924530Y2149000D02*
X-898790D01*
G01X-924600Y2148500D02*
X-898400D01*
G01X-911160Y2148000D02*
X-898140D01*
G01X-924680D02*
X-914100D01*
G01X-910070Y2147500D02*
X-897900D01*
G01X-924750D02*
X-914210D01*
G01X-909510Y2147000D02*
X-897730D01*
G01X-924830D02*
X-914320D01*
G01X-909170Y2146500D02*
X-897560D01*
G01X-924900D02*
X-914430D01*
G01X-908850Y2146000D02*
X-897460D01*
G01X-924980D02*
X-914540D01*
G01X-908690Y2145500D02*
X-897370D01*
G01X-925050D02*
X-914650D01*
G01X-908540Y2145000D02*
X-897310D01*
G01X-925120D02*
X-914760D01*
G01X-908430Y2144500D02*
X-897280D01*
G01X-925200D02*
X-914870D01*
G01X-908390Y2144000D02*
X-897250D01*
G01X-925280D02*
X-914980D01*
G01X-908340Y2143500D02*
X-897270D01*
G01X-925390D02*
X-915090D01*
G01X-908310Y2143000D02*
X-897310D01*
G01X-925500D02*
X-915200D01*
G01X-908330Y2142500D02*
X-897350D01*
G01X-925610D02*
X-915300D01*
G01X-908350Y2142000D02*
X-897390D01*
G01X-925720D02*
X-915410D01*
G01X-908390Y2141500D02*
X-897440D01*
G01X-925830D02*
X-915520D01*
G01X-908450Y2141000D02*
X-897570D01*
G01X-925940D02*
X-915630D01*
G01X-908510Y2140500D02*
X-897690D01*
G01X-926050D02*
X-915740D01*
G01X-908600Y2140000D02*
X-897820D01*
G01X-926160D02*
X-915850D01*
G01X-908700Y2139500D02*
X-897940D01*
G01X-926270D02*
X-915960D01*
G01X-908810Y2139000D02*
X-898120D01*
G01X-926380D02*
X-916070D01*
G01X-908950Y2138500D02*
X-898350D01*
G01X-926500D02*
X-916180D01*
G01X-909100Y2138000D02*
X-898570D01*
G01X-926610D02*
X-916290D01*
G01X-909280Y2137500D02*
X-898800D01*
G01X-926720D02*
X-916400D01*
G01X-909470Y2137000D02*
X-899040D01*
G01X-926830D02*
X-916510D01*
G01X-909680Y2136500D02*
X-899400D01*
G01X-926940D02*
X-916620D01*
G01X-909930Y2136000D02*
X-899760D01*
G01X-927050D02*
X-916720D01*
G01X-910190Y2135500D02*
X-900120D01*
G01X-927160D02*
X-916830D01*
G01X-910520Y2135000D02*
X-900520D01*
G01X-927270D02*
X-916940D01*
G01X-910850Y2134500D02*
X-901070D01*
G01X-927380D02*
X-917050D01*
G01X-911270Y2134000D02*
X-901620D01*
G01X-927490D02*
X-917160D01*
G01X-911710Y2133500D02*
X-902180D01*
G01X-927600D02*
X-917270D01*
G01X-912300Y2133000D02*
X-903000D01*
G01X-927720D02*
X-917380D01*
G01X-913100Y2132500D02*
X-903900D01*
G01X-927830D02*
X-917490D01*
G01X-914320Y2132000D02*
X-904910D01*
G01X-927940D02*
X-917600D01*
G01X-914970Y2131500D02*
X-906580D01*
G01X-928050D02*
X-917710D01*
G01X-912580Y2131000D02*
X-909950D01*
G01X-928160D02*
X-917820D01*
G01X-928270Y2130500D02*
X-917930D01*
G01X-928380Y2130000D02*
X-918040D01*
G01X-928490Y2129500D02*
X-918150D01*
G01X-928600Y2129000D02*
X-918260D01*
G01X-928710Y2128500D02*
X-918360D01*
G01X-928820Y2128000D02*
X-918470D01*
G01X-928940Y2127500D02*
X-918580D01*
G01X-929050Y2127000D02*
X-918690D01*
G01X-929160Y2126500D02*
X-918800D01*
G01X-929270Y2126000D02*
X-918910D01*
G01X-929380Y2125500D02*
X-919020D01*
G01X-929490Y2125000D02*
X-919130D01*
G01X-929600Y2124500D02*
X-919240D01*
G01X-929710Y2124000D02*
X-919350D01*
G01X-929820Y2123500D02*
X-919460D01*
G01X-929940Y2123000D02*
X-919570D01*
G01X-930050Y2122500D02*
X-919680D01*
G01X-930160Y2122000D02*
X-919790D01*
G01X-930270Y2121500D02*
X-919870D01*
G01X-930390Y2121000D02*
X-919950D01*
G01X-930510Y2120500D02*
X-920030D01*
G01X-930630Y2120000D02*
X-920110D01*
G01X-930750Y2119500D02*
X-920190D01*
G01X-930920Y2119000D02*
X-920270D01*
G01X-931090Y2118500D02*
X-920350D01*
G01X-931260Y2118000D02*
X-920420D01*
G01X-931440Y2117500D02*
X-920500D01*
G01X-931620Y2117000D02*
X-920580D01*
G01X-931880Y2116500D02*
X-920570D01*
G01X-932140Y2116000D02*
X-920500D01*
G01X-932480Y2115500D02*
X-920370D01*
G01X-932820Y2115000D02*
X-920170D01*
G01X-933260Y2114500D02*
X-919920D01*
G01X-933720Y2114000D02*
X-919620D01*
G01X-933940Y2113500D02*
X-919470D01*
G01X-857810Y2136500D02*
X-849840D01*
G01X-857690Y2136000D02*
X-849680D01*
G01X-857580Y2135500D02*
X-849580D01*
G01X-857480Y2135000D02*
X-849490D01*
G01X-857420Y2134500D02*
X-849400D01*
G01X-857390Y2134000D02*
X-849310D01*
G01X-857360Y2133500D02*
X-849240D01*
G01X-857330Y2133000D02*
X-849220D01*
G01X-857320Y2132500D02*
X-849200D01*
G01X-857340Y2132000D02*
X-849170D01*
G01X-857370Y2131500D02*
X-849140D01*
G01X-857390Y2131000D02*
X-849160D01*
G01X-857410Y2130500D02*
X-849180D01*
G01X-857460Y2130000D02*
X-849210D01*
G01X-857520Y2129500D02*
X-849230D01*
G01X-857580Y2129000D02*
X-849260D01*
G01X-857640Y2128500D02*
X-849330D01*
G01X-857700Y2128000D02*
X-849400D01*
G01X-857780Y2127500D02*
X-849460D01*
G01X-857880Y2127000D02*
X-849530D01*
G01X-857980Y2126500D02*
X-849630D01*
G01X-855200Y2126000D02*
X-849750D01*
G01X-854440Y2125500D02*
X-849870D01*
G01X-853680Y2125000D02*
X-849990D01*
G01X-852920Y2124500D02*
X-850130D01*
G01X-852160Y2124000D02*
X-850310D01*
G01X-851400Y2123500D02*
X-850480D01*
G01X-834900Y2092040D02*
X-833570Y2091140D01*
X-831350Y2090680D01*
X-828670Y2091570D01*
X-827560Y2094030D01*
X-828260Y2095480D01*
X-829990Y2096200D01*
X-831000Y2096500D01*
X-832910Y2097700D01*
X-833540Y2099480D01*
X-833420Y2100530D01*
X-833070Y2101520D01*
X-832480Y2102400D01*
X-831650Y2103130D01*
X-830820Y2103580D01*
X-829980Y2103840D01*
X-829160Y2103970D01*
X-828410Y2104000D01*
X-825840Y2103390D01*
X-825010Y2102720D01*
G02X-824990Y2102340I-155J-199D01*
G01X-825690Y2101650D01*
X-826680Y2102420D01*
X-828530Y2102880D01*
X-830660Y2102230D01*
X-831320Y2101580D01*
X-831680Y2100940D01*
X-831830Y2100370D01*
X-831860Y2099930D01*
X-831340Y2098580D01*
X-829660Y2097790D01*
X-828360Y2097410D01*
X-826540Y2096380D01*
X-825820Y2094410D01*
X-825970Y2093370D01*
X-826390Y2092370D01*
X-827040Y2091480D01*
X-827880Y2090740D01*
X-828600Y2090310D01*
X-829480Y2089960D01*
X-830540Y2089730D01*
X-831770Y2089640D01*
X-834650Y2090300D01*
X-835570Y2090920D01*
G02X-835620Y2091300I135J211D01*
G01X-834900Y2092040D01*
G01X-828480Y2104000D02*
X-828400D01*
G01X-830960Y2103500D02*
X-826300D01*
G01X-831800Y2103000D02*
X-825360D01*
G01X-827000Y2102500D02*
X-824920D01*
G01X-832370D02*
X-829770D01*
G01X-826140Y2102000D02*
X-825340D01*
G01X-832750D02*
X-830890D01*
G01X-833080Y2101500D02*
X-831360D01*
G01X-833260Y2101000D02*
X-831640D01*
G01X-833430Y2100500D02*
X-831790D01*
G01X-833480Y2100000D02*
X-831860D01*
G01X-833540Y2099500D02*
X-831700D01*
G01X-833370Y2099000D02*
X-831500D01*
G01X-833190Y2098500D02*
X-831170D01*
G01X-833020Y2098000D02*
X-830100D01*
G01X-832590Y2097500D02*
X-828670D01*
G01X-831790Y2097000D02*
X-827640D01*
G01X-831000Y2096500D02*
X-826750D01*
G01X-829510Y2096000D02*
X-826400D01*
G01X-828300Y2095500D02*
X-826220D01*
G01X-828030Y2095000D02*
X-826040D01*
G01X-827780Y2094500D02*
X-825860D01*
G01X-827570Y2094000D02*
X-825880D01*
G01X-827790Y2093500D02*
X-825950D01*
G01X-828020Y2093000D02*
X-826130D01*
G01X-828250Y2092500D02*
X-826340D01*
G01X-828470Y2092000D02*
X-826660D01*
G01X-834940D02*
X-834840D01*
G01X-828890Y2091500D02*
X-827020D01*
G01X-835420D02*
X-834100D01*
G01X-830390Y2091000D02*
X-827580D01*
G01X-835650D02*
X-832900D01*
G01X-834950Y2090500D02*
X-828280D01*
G01X-833350Y2090000D02*
X-829390D01*
G01X-790930Y2142170D02*
X-790950Y2142200D01*
G02X-790750Y2142590I203J142D01*
G01X-775360D01*
G02X-775120Y2142280I0J-248D01*
G01X-776200Y2137800D01*
G02X-776640Y2137690I-247J54D01*
G01X-776890Y2137980D01*
X-777350Y2138280D01*
X-777930Y2138510D01*
X-778630Y2138660D01*
X-779470Y2138720D01*
X-782610D01*
X-784510Y2130390D01*
X-781420D01*
X-778450Y2130700D01*
G02X-778180Y2130400I27J-247D01*
G01X-779290Y2125570D01*
X-779490Y2125560D01*
X-779850Y2125970D01*
X-780290Y2126260D01*
X-781200Y2126480D01*
X-782070Y2126510D01*
X-785380D01*
X-786870Y2119670D01*
X-787420Y2115890D01*
X-787370Y2115170D01*
X-787160Y2114480D01*
X-786780Y2113760D01*
X-786760Y2113720D01*
G02X-786960Y2113330I-202J-143D01*
G01X-797350D01*
X-797400Y2113480D01*
X-796750Y2114140D01*
X-796200Y2114870D01*
X-795750Y2115670D01*
X-795050Y2117460D01*
X-794500Y2119570D01*
X-790840Y2136250D01*
X-790280Y2140030D01*
X-790340Y2140750D01*
X-790540Y2141440D01*
X-790930Y2142170D01*
G01X-790940Y2142500D02*
X-775160D01*
G01X-790840Y2142000D02*
X-775190D01*
G01X-790580Y2141500D02*
X-775310D01*
G01X-790410Y2141000D02*
X-775430D01*
G01X-790320Y2140500D02*
X-775550D01*
G01X-790280Y2140000D02*
X-775670D01*
G01X-790360Y2139500D02*
X-775790D01*
G01X-790430Y2139000D02*
X-775910D01*
G01X-790510Y2138500D02*
X-782660D01*
G01X-790580Y2138000D02*
X-782780D01*
G01X-790660Y2137500D02*
X-782890D01*
G01X-790730Y2137000D02*
X-783000D01*
G01X-790800Y2136500D02*
X-783120D01*
G01X-790900Y2136000D02*
X-783230D01*
G01X-791000Y2135500D02*
X-783340D01*
G01X-791110Y2135000D02*
X-783460D01*
G01X-791220Y2134500D02*
X-783570D01*
G01X-791330Y2134000D02*
X-783690D01*
G01X-791440Y2133500D02*
X-783800D01*
G01X-791550Y2133000D02*
X-783920D01*
G01X-791660Y2132500D02*
X-784030D01*
G01X-791770Y2132000D02*
X-784140D01*
G01X-791880Y2131500D02*
X-784260D01*
G01X-791990Y2131000D02*
X-784370D01*
G01X-792100Y2130500D02*
X-784480D01*
G01X-792210Y2130000D02*
X-778270D01*
G01X-792320Y2129500D02*
X-778390D01*
G01X-792430Y2129000D02*
X-778500D01*
G01X-792540Y2128500D02*
X-778620D01*
G01X-792650Y2128000D02*
X-778730D01*
G01X-792760Y2127500D02*
X-778850D01*
G01X-792870Y2127000D02*
X-778960D01*
G01X-792980Y2126500D02*
X-785380D01*
G01X-793090Y2126000D02*
X-785490D01*
G01X-793200Y2125500D02*
X-785600D01*
G01X-793310Y2125000D02*
X-785710D01*
G01X-793420Y2124500D02*
X-785820D01*
G01X-793530Y2124000D02*
X-785920D01*
G01X-793640Y2123500D02*
X-786030D01*
G01X-793750Y2123000D02*
X-786140D01*
G01X-793860Y2122500D02*
X-786250D01*
G01X-793970Y2122000D02*
X-786360D01*
G01X-794080Y2121500D02*
X-786470D01*
G01X-794190Y2121000D02*
X-786580D01*
G01X-794300Y2120500D02*
X-786690D01*
G01X-794410Y2120000D02*
X-786800D01*
G01X-794520Y2119500D02*
X-786900D01*
G01X-794650Y2119000D02*
X-786970D01*
G01X-794780Y2118500D02*
X-787040D01*
G01X-794910Y2118000D02*
X-787120D01*
G01X-795040Y2117500D02*
X-787190D01*
G01X-795230Y2117000D02*
X-787260D01*
G01X-795420Y2116500D02*
X-787340D01*
G01X-795620Y2116000D02*
X-787410D01*
G01X-795840Y2115500D02*
X-787390D01*
G01X-796130Y2115000D02*
X-787320D01*
G01X-796480Y2114500D02*
X-787170D01*
G01X-796890Y2114000D02*
X-786910D01*
G01X-797380Y2113500D02*
X-786720D01*
G01X-799710Y2141730D02*
X-798540Y2140990D01*
X-797450Y2140030D01*
X-796700Y2139120D01*
X-796090Y2138140D01*
X-795610Y2137090D01*
X-795250Y2136000D01*
X-794830Y2133730D01*
X-794720Y2131450D01*
X-795030Y2127410D01*
X-795930Y2123780D01*
X-797390Y2120580D01*
X-799360Y2117870D01*
X-801790Y2115690D01*
X-804660Y2114070D01*
X-807930Y2113070D01*
X-811560Y2112730D01*
X-815340Y2113140D01*
X-818180Y2114250D01*
X-820240Y2115840D01*
X-821660Y2117740D01*
X-822540Y2119760D01*
X-823020Y2121690D01*
X-823220Y2123350D01*
X-823260Y2124520D01*
X-823180Y2126430D01*
X-822950Y2128320D01*
X-822560Y2130190D01*
X-822020Y2132000D01*
X-821340Y2133740D01*
X-820510Y2135380D01*
X-819540Y2136900D01*
X-818430Y2138300D01*
X-817260Y2139470D01*
X-815990Y2140470D01*
X-814630Y2141310D01*
X-813170Y2142000D01*
X-811610Y2142520D01*
X-809950Y2142890D01*
X-808170Y2143120D01*
X-806290Y2143190D01*
X-804430Y2143100D01*
X-802130Y2142680D01*
X-800920Y2142290D01*
X-799710Y2141730D01*
G01X-803320Y2127670D02*
X-803900Y2124790D01*
X-804780Y2122010D01*
X-805410Y2120580D01*
X-806090Y2119380D01*
X-806810Y2118380D01*
X-807570Y2117580D01*
X-808350Y2116980D01*
X-809150Y2116560D01*
X-809960Y2116310D01*
X-810750Y2116230D01*
X-811340Y2116280D01*
X-812020Y2116470D01*
X-812740Y2116850D01*
X-813460Y2117470D01*
X-814100Y2118370D01*
X-814610Y2119600D01*
X-814960Y2121190D01*
X-815080Y2123200D01*
X-814920Y2126030D01*
X-814480Y2128990D01*
X-813820Y2131840D01*
X-812980Y2134300D01*
X-812250Y2135850D01*
X-811080Y2137610D01*
X-810320Y2138410D01*
X-809430Y2139080D01*
X-808410Y2139530D01*
X-807280Y2139690D01*
X-806660Y2139650D01*
X-805960Y2139480D01*
X-805230Y2139130D01*
X-804510Y2138540D01*
X-803870Y2137640D01*
X-803350Y2136410D01*
X-803010Y2134790D01*
X-802890Y2132730D01*
X-802990Y2130400D01*
X-803320Y2127670D01*
G01X-809100Y2143000D02*
X-803890D01*
G01X-811680Y2142500D02*
X-801570D01*
G01X-813160Y2142000D02*
X-800300D01*
G01X-814230Y2141500D02*
X-799350D01*
G01X-815140Y2141000D02*
X-798560D01*
G01X-815950Y2140500D02*
X-797990D01*
G01X-816590Y2140000D02*
X-797430D01*
G01X-806020Y2139500D02*
X-797010D01*
G01X-817220D02*
X-808470D01*
G01X-805070Y2139000D02*
X-796620D01*
G01X-817730D02*
X-809530D01*
G01X-804480Y2138500D02*
X-796310D01*
G01X-818230D02*
X-810200D01*
G01X-804120Y2138000D02*
X-796020D01*
G01X-818670D02*
X-810710D01*
G01X-803810Y2137500D02*
X-795800D01*
G01X-819070D02*
X-811150D01*
G01X-803600Y2137000D02*
X-795580D01*
G01X-819460D02*
X-811480D01*
G01X-803390Y2136500D02*
X-795410D01*
G01X-819800D02*
X-811820D01*
G01X-803270Y2136000D02*
X-795250D01*
G01X-820110D02*
X-812150D01*
G01X-803160Y2135500D02*
X-795160D01*
G01X-820430D02*
X-812420D01*
G01X-803060Y2135000D02*
X-795070D01*
G01X-820700D02*
X-812650D01*
G01X-803000Y2134500D02*
X-794970D01*
G01X-820950D02*
X-812890D01*
G01X-802970Y2134000D02*
X-794880D01*
G01X-821210D02*
X-813090D01*
G01X-802940Y2133500D02*
X-794820D01*
G01X-821430D02*
X-813260D01*
G01X-802910Y2133000D02*
X-794790D01*
G01X-821630D02*
X-813430D01*
G01X-802900Y2132500D02*
X-794770D01*
G01X-821830D02*
X-813600D01*
G01X-802920Y2132000D02*
X-794740D01*
G01X-822020D02*
X-813760D01*
G01X-802940Y2131500D02*
X-794720D01*
G01X-822170D02*
X-813900D01*
G01X-802970Y2131000D02*
X-794750D01*
G01X-822320D02*
X-814020D01*
G01X-802990Y2130500D02*
X-794790D01*
G01X-822470D02*
X-814130D01*
G01X-803040Y2130000D02*
X-794830D01*
G01X-822600D02*
X-814250D01*
G01X-803100Y2129500D02*
X-794870D01*
G01X-822700D02*
X-814370D01*
G01X-803160Y2129000D02*
X-794900D01*
G01X-822810D02*
X-814480D01*
G01X-803220Y2128500D02*
X-794940D01*
G01X-822910D02*
X-814560D01*
G01X-803280Y2128000D02*
X-794980D01*
G01X-822990D02*
X-814630D01*
G01X-803350Y2127500D02*
X-795020D01*
G01X-823050D02*
X-814710D01*
G01X-803460Y2127000D02*
X-795130D01*
G01X-823110D02*
X-814780D01*
G01X-803560Y2126500D02*
X-795260D01*
G01X-823170D02*
X-814860D01*
G01X-803660Y2126000D02*
X-795380D01*
G01X-823200D02*
X-814930D01*
G01X-803760Y2125500D02*
X-795500D01*
G01X-823220D02*
X-814960D01*
G01X-803860Y2125000D02*
X-795630D01*
G01X-823240D02*
X-814980D01*
G01X-803990Y2124500D02*
X-795750D01*
G01X-823260D02*
X-815010D01*
G01X-804150Y2124000D02*
X-795880D01*
G01X-823240D02*
X-815040D01*
G01X-804310Y2123500D02*
X-796060D01*
G01X-823230D02*
X-815070D01*
G01X-804460Y2123000D02*
X-796290D01*
G01X-823180D02*
X-815070D01*
G01X-804620Y2122500D02*
X-796520D01*
G01X-823120D02*
X-815040D01*
G01X-804780Y2122000D02*
X-796740D01*
G01X-823060D02*
X-815010D01*
G01X-805000Y2121500D02*
X-796970D01*
G01X-822980D02*
X-814980D01*
G01X-805220Y2121000D02*
X-797200D01*
G01X-822850D02*
X-814920D01*
G01X-805450Y2120500D02*
X-797450D01*
G01X-822730D02*
X-814810D01*
G01X-805730Y2120000D02*
X-797810D01*
G01X-822600D02*
X-814700D01*
G01X-806020Y2119500D02*
X-798180D01*
G01X-822430D02*
X-814570D01*
G01X-806360Y2119000D02*
X-798540D01*
G01X-822210D02*
X-814360D01*
G01X-806720Y2118500D02*
X-798900D01*
G01X-821990D02*
X-814150D01*
G01X-807170Y2118000D02*
X-799260D01*
G01X-821770D02*
X-813840D01*
G01X-807680Y2117500D02*
X-799770D01*
G01X-821470D02*
X-813480D01*
G01X-808330Y2117000D02*
X-800330D01*
G01X-821100D02*
X-812920D01*
G01X-809340Y2116500D02*
X-800890D01*
G01X-820730D02*
X-812080D01*
G01X-820360Y2116000D02*
X-801450D01*
G01X-819800Y2115500D02*
X-802130D01*
G01X-819150Y2115000D02*
X-803020D01*
G01X-818510Y2114500D02*
X-803910D01*
G01X-817540Y2114000D02*
X-804910D01*
G01X-816260Y2113500D02*
X-806540D01*
G01X-814050Y2113000D02*
X-808680D01*
G01X-778020Y2089880D02*
X-787780D01*
G02X-788020Y2090190I5J252D01*
G01X-785150Y2103710D01*
X-775530D01*
G02X-775280Y2103410I6J-249D01*
G01X-775470Y2102500D01*
X-783980D01*
X-784990Y2097790D01*
X-777460D01*
G02X-777220Y2097490I-3J-248D01*
G01X-777410Y2096580D01*
X-785240D01*
X-786410Y2091100D01*
X-778070D01*
G02X-777830Y2090800I-4J-249D01*
G01X-778020Y2089880D01*
G01X-785200Y2103500D02*
X-775280D01*
G01X-785300Y2103000D02*
X-775370D01*
G01X-785410Y2102500D02*
X-775470D01*
G01X-785510Y2102000D02*
X-784080D01*
G01X-785620Y2101500D02*
X-784190D01*
G01X-785720Y2101000D02*
X-784300D01*
G01X-785830Y2100500D02*
X-784410D01*
G01X-785940Y2100000D02*
X-784520D01*
G01X-786040Y2099500D02*
X-784620D01*
G01X-786150Y2099000D02*
X-784730D01*
G01X-786260Y2098500D02*
X-784840D01*
G01X-786360Y2098000D02*
X-784950D01*
G01X-786470Y2097500D02*
X-777220D01*
G01X-786570Y2097000D02*
X-777320D01*
G01X-786680Y2096500D02*
X-785260D01*
G01X-786790Y2096000D02*
X-785360D01*
G01X-786890Y2095500D02*
X-785470D01*
G01X-787000Y2095000D02*
X-785580D01*
G01X-787100Y2094500D02*
X-785680D01*
G01X-787210Y2094000D02*
X-785790D01*
G01X-787320Y2093500D02*
X-785900D01*
G01X-787420Y2093000D02*
X-786010D01*
G01X-787530Y2092500D02*
X-786110D01*
G01X-787640Y2092000D02*
X-786220D01*
G01X-787740Y2091500D02*
X-786330D01*
G01X-787850Y2091000D02*
X-777870D01*
G01X-787950Y2090500D02*
X-777890D01*
G01X-787980Y2090000D02*
X-778000D01*
G01X-795520Y2089880D02*
X-796640D01*
G02X-796880Y2090190I4J251D01*
G01X-794260Y2102500D01*
X-798810D01*
G02X-799060Y2102800I-5J250D01*
G01X-798870Y2103710D01*
X-788040D01*
G02X-787800Y2103410I-2J-247D01*
G01X-787980Y2102500D01*
X-792840D01*
X-795520Y2089880D01*
G01X-798910Y2103500D02*
X-787790D01*
G01X-799020Y2103000D02*
X-787880D01*
G01X-798850Y2102500D02*
X-787980D01*
G01X-794370Y2102000D02*
X-792940D01*
G01X-794480Y2101500D02*
X-793050D01*
G01X-794580Y2101000D02*
X-793160D01*
G01X-794690Y2100500D02*
X-793260D01*
G01X-794790Y2100000D02*
X-793370D01*
G01X-794900Y2099500D02*
X-793480D01*
G01X-795010Y2099000D02*
X-793580D01*
G01X-795110Y2098500D02*
X-793690D01*
G01X-795220Y2098000D02*
X-793800D01*
G01X-795330Y2097500D02*
X-793900D01*
G01X-795430Y2097000D02*
X-794010D01*
G01X-795540Y2096500D02*
X-794120D01*
G01X-795640Y2096000D02*
X-794220D01*
G01X-795750Y2095500D02*
X-794330D01*
G01X-795860Y2095000D02*
X-794440D01*
G01X-795960Y2094500D02*
X-794540D01*
G01X-796070Y2094000D02*
X-794650D01*
G01X-796180Y2093500D02*
X-794760D01*
G01X-796280Y2093000D02*
X-794860D01*
G01X-796390Y2092500D02*
X-794970D01*
G01X-796500Y2092000D02*
X-795070D01*
G01X-796600Y2091500D02*
X-795180D01*
G01X-796710Y2091000D02*
X-795290D01*
G01X-796820Y2090500D02*
X-795390D01*
G01X-796850Y2090000D02*
X-795500D01*
G01X-811030Y2092040D02*
X-809690Y2091140D01*
X-807470Y2090680D01*
X-804800Y2091570D01*
X-803680Y2094030D01*
X-804390Y2095480D01*
X-806120Y2096200D01*
X-807120Y2096500D01*
X-809040Y2097700D01*
X-809660Y2099480D01*
X-809550Y2100530D01*
X-809200Y2101520D01*
X-808610Y2102400D01*
X-807780Y2103130D01*
X-806950Y2103580D01*
X-806110Y2103840D01*
X-805290Y2103970D01*
X-804530Y2104000D01*
X-801970Y2103390D01*
X-801140Y2102720D01*
G02X-801120Y2102340I-152J-199D01*
G01X-801810Y2101650D01*
X-802800Y2102420D01*
X-804660Y2102880D01*
X-806780Y2102230D01*
X-807440Y2101580D01*
X-807800Y2100940D01*
X-807950Y2100370D01*
X-807990Y2099930D01*
X-807460Y2098580D01*
X-805780Y2097790D01*
X-804480Y2097410D01*
X-802670Y2096380D01*
X-801950Y2094410D01*
X-802090Y2093370D01*
X-802520Y2092370D01*
X-803170Y2091480D01*
X-804000Y2090740D01*
X-804720Y2090310D01*
X-805610Y2089960D01*
X-806670Y2089730D01*
X-807900Y2089640D01*
X-810780Y2090300D01*
X-811700Y2090920D01*
G02X-811740Y2091300I141J207D01*
G01X-811030Y2092040D01*
G01X-804600Y2104000D02*
X-804520D01*
G01X-807090Y2103500D02*
X-802420D01*
G01X-807920Y2103000D02*
X-801490D01*
G01X-803120Y2102500D02*
X-801040D01*
G01X-808490D02*
X-805900D01*
G01X-802260Y2102000D02*
X-801460D01*
G01X-808880D02*
X-807020D01*
G01X-809210Y2101500D02*
X-807490D01*
G01X-809380Y2101000D02*
X-807770D01*
G01X-809550Y2100500D02*
X-807920D01*
G01X-809610Y2100000D02*
X-807980D01*
G01X-809660Y2099500D02*
X-807820D01*
G01X-809490Y2099000D02*
X-807630D01*
G01X-809320Y2098500D02*
X-807300D01*
G01X-809140Y2098000D02*
X-806220D01*
G01X-808720Y2097500D02*
X-804800D01*
G01X-807920Y2097000D02*
X-803760D01*
G01X-807120Y2096500D02*
X-802870D01*
G01X-805630Y2096000D02*
X-802530D01*
G01X-804420Y2095500D02*
X-802350D01*
G01X-804150Y2095000D02*
X-802160D01*
G01X-803910Y2094500D02*
X-801980D01*
G01X-803690Y2094000D02*
X-802000D01*
G01X-803920Y2093500D02*
X-802080D01*
G01X-804150Y2093000D02*
X-802250D01*
G01X-804370Y2092500D02*
X-802460D01*
G01X-804600Y2092000D02*
X-802790D01*
G01X-811070D02*
X-810960D01*
G01X-805020Y2091500D02*
X-803150D01*
G01X-811550D02*
X-810230D01*
G01X-806520Y2091000D02*
X-803700D01*
G01X-811770D02*
X-809030D01*
G01X-811080Y2090500D02*
X-804400D01*
G01X-809480Y2090000D02*
X-805520D01*
G01X-820850Y2103710D02*
X-818090Y2096580D01*
X-812330Y2103710D01*
X-811250D01*
G02X-811060Y2103300I0J-249D01*
G01X-817630Y2095510D01*
X-818820Y2089880D01*
X-819940D01*
G02X-820180Y2090190I4J251D01*
G01X-819070Y2095420D01*
X-822400Y2103370D01*
G02X-822170Y2103710I229J93D01*
G01X-820850D01*
G01X-812500Y2103500D02*
X-811000D01*
G01X-822420D02*
X-820760D01*
G01X-812900Y2103000D02*
X-811320D01*
G01X-822250D02*
X-820570D01*
G01X-813310Y2102500D02*
X-811740D01*
G01X-822040D02*
X-820380D01*
G01X-813710Y2102000D02*
X-812160D01*
G01X-821830D02*
X-820180D01*
G01X-814110Y2101500D02*
X-812580D01*
G01X-821620D02*
X-819990D01*
G01X-814520Y2101000D02*
X-813000D01*
G01X-821410D02*
X-819800D01*
G01X-814920Y2100500D02*
X-813420D01*
G01X-821200D02*
X-819600D01*
G01X-815330Y2100000D02*
X-813850D01*
G01X-820990D02*
X-819410D01*
G01X-815730Y2099500D02*
X-814270D01*
G01X-820780D02*
X-819220D01*
G01X-816130Y2099000D02*
X-814690D01*
G01X-820570D02*
X-819020D01*
G01X-816540Y2098500D02*
X-815110D01*
G01X-820360D02*
X-818830D01*
G01X-816940Y2098000D02*
X-815530D01*
G01X-820150D02*
X-818640D01*
G01X-817350Y2097500D02*
X-815960D01*
G01X-819940D02*
X-818440D01*
G01X-817750Y2097000D02*
X-816380D01*
G01X-819730D02*
X-818250D01*
G01X-819520Y2096500D02*
X-816800D01*
G01X-819310Y2096000D02*
X-817220D01*
G01X-819100Y2095500D02*
X-817640D01*
G01X-819160Y2095000D02*
X-817740D01*
G01X-819270Y2094500D02*
X-817850D01*
G01X-819370Y2094000D02*
X-817950D01*
G01X-819480Y2093500D02*
X-818060D01*
G01X-819590Y2093000D02*
X-818160D01*
G01X-819690Y2092500D02*
X-818270D01*
G01X-819800Y2092000D02*
X-818380D01*
G01X-819900Y2091500D02*
X-818480D01*
G01X-820010Y2091000D02*
X-818590D01*
G01X-820120Y2090500D02*
X-818700D01*
G01X-820150Y2090000D02*
X-818800D01*
G01X-827060Y2152740D02*
X-824940Y2152150D01*
X-823320Y2151520D01*
X-823700Y2144800D01*
G02X-824110Y2144630I-249J21D01*
G01X-824970Y2145320D01*
X-826420Y2146360D01*
X-827740Y2147150D01*
X-828940Y2147720D01*
X-830050Y2148110D01*
X-831090Y2148340D01*
X-832080Y2148450D01*
X-833040Y2148480D01*
X-834510Y2148360D01*
X-836110Y2147860D01*
X-836850Y2147380D01*
X-837450Y2146720D01*
X-837850Y2145860D01*
X-837990Y2144780D01*
X-837880Y2143770D01*
X-837560Y2142850D01*
X-837020Y2141960D01*
X-836270Y2141090D01*
X-834150Y2139160D01*
X-831160Y2136700D01*
X-829890Y2135640D01*
X-828720Y2134580D01*
X-827650Y2133500D01*
X-826730Y2132360D01*
X-825970Y2131100D01*
X-825390Y2129690D01*
X-825020Y2128080D01*
X-824900Y2126240D01*
X-825140Y2123650D01*
X-825880Y2121160D01*
X-827110Y2118840D01*
X-828840Y2116780D01*
X-831070Y2115040D01*
X-833800Y2113690D01*
X-837040Y2112830D01*
X-840810Y2112520D01*
X-843050Y2112600D01*
X-845790Y2112910D01*
X-847300Y2113200D01*
X-848880Y2113600D01*
X-850500Y2114120D01*
X-852030Y2114730D01*
X-852920Y2121520D01*
G02X-852520Y2121740I246J26D01*
G01X-852360Y2121620D01*
X-851080Y2120710D01*
X-849670Y2119840D01*
X-848170Y2119050D01*
X-846580Y2118370D01*
X-844950Y2117840D01*
X-843280Y2117490D01*
X-841600Y2117360D01*
X-840280Y2117450D01*
X-839070Y2117700D01*
X-838000Y2118110D01*
X-837070Y2118680D01*
X-836320Y2119410D01*
X-835750Y2120280D01*
X-835400Y2121300D01*
X-835280Y2122430D01*
X-835360Y2123480D01*
X-835620Y2124420D01*
X-836060Y2125310D01*
X-836710Y2126200D01*
X-838640Y2128110D01*
X-841550Y2130620D01*
X-842900Y2131790D01*
X-844150Y2132950D01*
X-845260Y2134120D01*
X-846220Y2135330D01*
X-847010Y2136620D01*
X-847600Y2138010D01*
X-847960Y2139550D01*
X-848090Y2141260D01*
X-847790Y2143990D01*
X-846920Y2146390D01*
X-845520Y2148450D01*
X-843660Y2150160D01*
X-841380Y2151520D01*
X-838730Y2152510D01*
X-835760Y2153110D01*
X-832530Y2153310D01*
X-829570Y2153160D01*
X-827060Y2152740D01*
G01X-836300Y2153000D02*
X-828610D01*
G01X-838750Y2152500D02*
X-826180D01*
G01X-840100Y2152000D02*
X-824550D01*
G01X-841420Y2151500D02*
X-823320D01*
G01X-842260Y2151000D02*
X-823350D01*
G01X-843100Y2150500D02*
X-823380D01*
G01X-843840Y2150000D02*
X-823410D01*
G01X-844380Y2149500D02*
X-823440D01*
G01X-844930Y2149000D02*
X-823460D01*
G01X-845470Y2148500D02*
X-823490D01*
G01X-829750Y2148000D02*
X-823520D01*
G01X-845830D02*
X-835660D01*
G01X-828480Y2147500D02*
X-823550D01*
G01X-846170D02*
X-836670D01*
G01X-827490Y2147000D02*
X-823580D01*
G01X-846500D02*
X-837200D01*
G01X-826660Y2146500D02*
X-823610D01*
G01X-846840D02*
X-837550D01*
G01X-825920Y2146000D02*
X-823640D01*
G01X-847060D02*
X-837780D01*
G01X-825210Y2145500D02*
X-823660D01*
G01X-847240D02*
X-837900D01*
G01X-824570Y2145000D02*
X-823690D01*
G01X-847420D02*
X-837960D01*
G01X-847600Y2144500D02*
X-837960D01*
G01X-847790Y2144000D02*
X-837910D01*
G01X-847840Y2143500D02*
X-837790D01*
G01X-847900Y2143000D02*
X-837610D01*
G01X-847950Y2142500D02*
X-837350D01*
G01X-848010Y2142000D02*
X-837040D01*
G01X-848060Y2141500D02*
X-836620D01*
G01X-848070Y2141000D02*
X-836180D01*
G01X-848040Y2140500D02*
X-835620D01*
G01X-848000Y2140000D02*
X-835070D01*
G01X-847950Y2139500D02*
X-834520D01*
G01X-847830Y2139000D02*
X-833950D01*
G01X-847710Y2138500D02*
X-833340D01*
G01X-847590Y2138000D02*
X-832740D01*
G01X-847380Y2137500D02*
X-832130D01*
G01X-847170Y2137000D02*
X-831520D01*
G01X-846940Y2136500D02*
X-830920D01*
G01X-846630Y2136000D02*
X-830320D01*
G01X-846330Y2135500D02*
X-829740D01*
G01X-845960Y2135000D02*
X-829180D01*
G01X-845570Y2134500D02*
X-828640D01*
G01X-845160Y2134000D02*
X-828140D01*
G01X-844680Y2133500D02*
X-827650D01*
G01X-844200Y2133000D02*
X-827250D01*
G01X-843670Y2132500D02*
X-826840D01*
G01X-843130Y2132000D02*
X-826510D01*
G01X-842570Y2131500D02*
X-826210D01*
G01X-841990Y2131000D02*
X-825930D01*
G01X-841410Y2130500D02*
X-825720D01*
G01X-840830Y2130000D02*
X-825520D01*
G01X-840250Y2129500D02*
X-825350D01*
G01X-839670Y2129000D02*
X-825230D01*
G01X-839090Y2128500D02*
X-825120D01*
G01X-838520Y2128000D02*
X-825020D01*
G01X-838020Y2127500D02*
X-824980D01*
G01X-837520Y2127000D02*
X-824950D01*
G01X-837020Y2126500D02*
X-824910D01*
G01X-836570Y2126000D02*
X-824920D01*
G01X-836200Y2125500D02*
X-824960D01*
G01X-835900Y2125000D02*
X-825010D01*
G01X-835660Y2124500D02*
X-825060D01*
G01X-835500Y2124000D02*
X-825110D01*
G01X-835370Y2123500D02*
X-825180D01*
G01X-835320Y2123000D02*
X-825330D01*
G01X-835280Y2122500D02*
X-825480D01*
G01X-835320Y2122000D02*
X-825630D01*
G01X-835380Y2121500D02*
X-825780D01*
G01X-852920D02*
X-852200D01*
G01X-835500Y2121000D02*
X-825960D01*
G01X-852850D02*
X-851490D01*
G01X-835680Y2120500D02*
X-826230D01*
G01X-852790D02*
X-850740D01*
G01X-835930Y2120000D02*
X-826500D01*
G01X-852720D02*
X-849930D01*
G01X-836260Y2119500D02*
X-826760D01*
G01X-852660D02*
X-849030D01*
G01X-836740Y2119000D02*
X-827030D01*
G01X-852590D02*
X-848060D01*
G01X-837360Y2118500D02*
X-827400D01*
G01X-852520D02*
X-846890D01*
G01X-838280Y2118000D02*
X-827820D01*
G01X-852460D02*
X-845450D01*
G01X-840030Y2117500D02*
X-828230D01*
G01X-852390D02*
X-843330D01*
G01X-852330Y2117000D02*
X-828650D01*
G01X-852260Y2116500D02*
X-829190D01*
G01X-852190Y2116000D02*
X-829830D01*
G01X-852130Y2115500D02*
X-830470D01*
G01X-852060Y2115000D02*
X-831140D01*
G01X-851450Y2114500D02*
X-832160D01*
G01X-850130Y2114000D02*
X-833180D01*
G01X-848490Y2113500D02*
X-834530D01*
G01X-846240Y2113000D02*
X-836410D01*
G01X-777910Y2138500D02*
X-776040D01*
G01X-776920Y2138000D02*
X-776160D01*
G01X-780370Y2130500D02*
X-778180D01*
G01X-781720Y2126500D02*
X-779080D01*
G01X-779890Y2126000D02*
X-779200D01*
G01X-745390Y2145000D02*
Y2150870D01*
X-744260D01*
X-742110Y2150860D01*
X-740530Y2150070D01*
X-740340Y2149350D01*
X-740790Y2148290D01*
X-742420Y2147610D01*
X-741170Y2146640D01*
X-740690Y2145900D01*
X-740360Y2145380D01*
G02X-740580Y2145000I-215J-129D01*
G01X-741250D01*
X-741750Y2145920D01*
X-742520Y2147090D01*
X-743850Y2147630D01*
X-744510D01*
Y2145000D01*
X-745390D01*
G01X-741260Y2149300D02*
X-741510Y2148580D01*
X-742580Y2148130D01*
X-743690Y2148120D01*
X-744510D01*
Y2150370D01*
X-743680D01*
X-742060Y2150270D01*
X-741260Y2149300D01*
G01X-745390Y2150500D02*
X-741390D01*
G01X-741830Y2150000D02*
X-740510D01*
G01X-745390D02*
X-744510D01*
G01X-741420Y2149500D02*
X-740380D01*
G01X-745390D02*
X-744510D01*
G01X-741360Y2149000D02*
X-740490D01*
G01X-745390D02*
X-744510D01*
G01X-741690Y2148500D02*
X-740700D01*
G01X-745390D02*
X-744510D01*
G01X-745390Y2148000D02*
X-741490D01*
G01X-743530Y2147500D02*
X-742280D01*
G01X-745390D02*
X-744510D01*
G01X-742460Y2147000D02*
X-741640D01*
G01X-745390D02*
X-744510D01*
G01X-742130Y2146500D02*
X-741080D01*
G01X-745390D02*
X-744510D01*
G01X-741810Y2146000D02*
X-740760D01*
G01X-745390D02*
X-744510D01*
G01X-741520Y2145500D02*
X-740440D01*
G01X-745390D02*
X-744510D01*
G01X-741250Y2145000D02*
X-740550D01*
G01X-745390D02*
X-744510D01*
G01X-742710Y2153700D02*
X-739600Y2152940D01*
X-737350Y2150840D01*
X-736520Y2147950D01*
X-737350Y2145070D01*
X-739620Y2142980D01*
X-742710Y2142210D01*
X-745830Y2142990D01*
X-748080Y2145100D01*
X-748900Y2147950D01*
X-748060Y2150860D01*
X-745760Y2152960D01*
X-742710Y2153700D01*
G01X-747420Y2145380D02*
X-748160Y2147950D01*
X-747400Y2150510D01*
X-745430Y2152360D01*
X-742700Y2153030D01*
X-740010Y2152390D01*
X-738000Y2150530D01*
X-737240Y2147950D01*
X-737970Y2145410D01*
X-739960Y2143530D01*
X-742700Y2142850D01*
X-745400Y2143510D01*
X-747420Y2145380D01*
G01X-743550Y2153500D02*
X-741890D01*
G01X-742570Y2153000D02*
X-739860D01*
G01X-745610D02*
X-742840D01*
G01X-740490Y2152500D02*
X-739130D01*
G01X-746270D02*
X-744880D01*
G01X-739590Y2152000D02*
X-738590D01*
G01X-746810D02*
X-745820D01*
G01X-739050Y2151500D02*
X-738060D01*
G01X-747360D02*
X-746350D01*
G01X-738510Y2151000D02*
X-737520D01*
G01X-747900D02*
X-746880D01*
G01X-737990Y2150500D02*
X-737250D01*
G01X-748160D02*
X-747410D01*
G01X-737840Y2150000D02*
X-737110D01*
G01X-748310D02*
X-747560D01*
G01X-737700Y2149500D02*
X-736960D01*
G01X-748450D02*
X-747700D01*
G01X-737550Y2149000D02*
X-736820D01*
G01X-748600D02*
X-747850D01*
G01X-737400Y2148500D02*
X-736680D01*
G01X-748740D02*
X-747990D01*
G01X-737260Y2148000D02*
X-736540D01*
G01X-748890D02*
X-748140D01*
G01X-737370Y2147500D02*
X-736650D01*
G01X-748770D02*
X-748030D01*
G01X-737510Y2147000D02*
X-736800D01*
G01X-748630D02*
X-747880D01*
G01X-737660Y2146500D02*
X-736940D01*
G01X-748490D02*
X-747740D01*
G01X-737800Y2146000D02*
X-737090D01*
G01X-748340D02*
X-747600D01*
G01X-737940Y2145500D02*
X-737230D01*
G01X-748200D02*
X-747450D01*
G01X-738400Y2145000D02*
X-737430D01*
G01X-747980D02*
X-747010D01*
G01X-738940Y2144500D02*
X-737970D01*
G01X-747440D02*
X-746470D01*
G01X-739470Y2144000D02*
X-738510D01*
G01X-746910D02*
X-745920D01*
G01X-740100Y2143500D02*
X-739050D01*
G01X-746380D02*
X-745350D01*
G01X-742090Y2143000D02*
X-739590D01*
G01X-745840D02*
X-743320D01*
G01X-743880Y2142500D02*
X-741530D01*
G01X-756840Y2092040D02*
X-755500Y2091140D01*
X-753280Y2090680D01*
X-750600Y2091570D01*
X-749490Y2094030D01*
X-750190Y2095480D01*
X-751930Y2096200D01*
X-752930Y2096500D01*
X-754850Y2097700D01*
X-755470Y2099480D01*
X-755360Y2100530D01*
X-755010Y2101520D01*
X-754420Y2102400D01*
X-753580Y2103130D01*
X-752760Y2103580D01*
X-751920Y2103840D01*
X-751090Y2103970D01*
X-750340Y2104000D01*
X-747780Y2103390D01*
X-746940Y2102720D01*
G02X-746920Y2102340I-159J-199D01*
G01X-747620Y2101650D01*
X-748610Y2102420D01*
X-750470Y2102880D01*
X-752590Y2102230D01*
X-753250Y2101580D01*
X-753610Y2100940D01*
X-753760Y2100370D01*
X-753800Y2099930D01*
X-753270Y2098580D01*
X-751590Y2097790D01*
X-750290Y2097410D01*
X-748480Y2096380D01*
X-747750Y2094410D01*
X-747900Y2093370D01*
X-748320Y2092370D01*
X-748980Y2091480D01*
X-749810Y2090740D01*
X-750530Y2090310D01*
X-751420Y2089960D01*
X-752480Y2089730D01*
X-753710Y2089640D01*
X-756590Y2090300D01*
X-757510Y2090920D01*
G02X-757550Y2091300I143J207D01*
G01X-756840Y2092040D01*
G01X-750410Y2104000D02*
X-750330D01*
G01X-752900Y2103500D02*
X-748230D01*
G01X-753730Y2103000D02*
X-747300D01*
G01X-748930Y2102500D02*
X-746850D01*
G01X-754300D02*
X-751710D01*
G01X-748070Y2102000D02*
X-747270D01*
G01X-754680D02*
X-752830D01*
G01X-755010Y2101500D02*
X-753300D01*
G01X-755190Y2101000D02*
X-753580D01*
G01X-755360Y2100500D02*
X-753730D01*
G01X-755420Y2100000D02*
X-753790D01*
G01X-755470Y2099500D02*
X-753630D01*
G01X-755300Y2099000D02*
X-753440D01*
G01X-755130Y2098500D02*
X-753100D01*
G01X-754950Y2098000D02*
X-752030D01*
G01X-754520Y2097500D02*
X-750610D01*
G01X-753730Y2097000D02*
X-749570D01*
G01X-752930Y2096500D02*
X-748680D01*
G01X-751440Y2096000D02*
X-748340D01*
G01X-750230Y2095500D02*
X-748150D01*
G01X-749960Y2095000D02*
X-747970D01*
G01X-749720Y2094500D02*
X-747790D01*
G01X-749500Y2094000D02*
X-747810D01*
G01X-749730Y2093500D02*
X-747880D01*
G01X-749960Y2093000D02*
X-748060D01*
G01X-750180Y2092500D02*
X-748270D01*
G01X-750410Y2092000D02*
X-748600D01*
G01X-756880D02*
X-756770D01*
G01X-750830Y2091500D02*
X-748960D01*
G01X-757350D02*
X-756040D01*
G01X-752330Y2091000D02*
X-749510D01*
G01X-757580D02*
X-754840D01*
G01X-756890Y2090500D02*
X-750210D01*
G01X-755280Y2090000D02*
X-751320D01*
G01X-752090Y2142240D02*
X-754340Y2137370D01*
G02X-754750Y2137310I-225J109D01*
G01X-754800Y2137360D01*
X-755680Y2138000D01*
X-756910Y2138510D01*
X-758530Y2138720D01*
X-759930D01*
X-764140Y2119670D01*
X-764700Y2115890D01*
X-764580Y2114970D01*
X-764290Y2114170D01*
X-763890Y2113480D01*
X-763960Y2113330D01*
X-774580D01*
X-774650Y2113520D01*
X-774000Y2114180D01*
X-773460Y2114860D01*
X-773020Y2115600D01*
X-772340Y2117330D01*
X-771770Y2119570D01*
X-767540Y2138720D01*
X-770280D01*
X-771900Y2138510D01*
X-773140Y2138000D01*
X-773400Y2137810D01*
G02X-773800Y2138070I-156J198D01*
G01X-772760Y2142590D01*
X-752320D01*
G02X-752090Y2142240I1J-250D01*
G01X-772780Y2142500D02*
X-752130D01*
G01X-772900Y2142000D02*
X-752200D01*
G01X-773010Y2141500D02*
X-752440D01*
G01X-773130Y2141000D02*
X-752670D01*
G01X-773240Y2140500D02*
X-752900D01*
G01X-773350Y2140000D02*
X-753130D01*
G01X-773470Y2139500D02*
X-753360D01*
G01X-773580Y2139000D02*
X-753590D01*
G01X-756880Y2138500D02*
X-753820D01*
G01X-767590D02*
X-759980D01*
G01X-773700D02*
X-771930D01*
G01X-755670Y2138000D02*
X-754050D01*
G01X-767700D02*
X-760090D01*
G01X-773800D02*
X-773140D01*
G01X-754990Y2137500D02*
X-754280D01*
G01X-767810D02*
X-760200D01*
G01X-767920Y2137000D02*
X-760310D01*
G01X-768030Y2136500D02*
X-760420D01*
G01X-768140Y2136000D02*
X-760530D01*
G01X-768250Y2135500D02*
X-760640D01*
G01X-768360Y2135000D02*
X-760750D01*
G01X-768480Y2134500D02*
X-760860D01*
G01X-768580Y2134000D02*
X-760970D01*
G01X-768700Y2133500D02*
X-761080D01*
G01X-768810Y2133000D02*
X-761190D01*
G01X-768920Y2132500D02*
X-761300D01*
G01X-769030Y2132000D02*
X-761420D01*
G01X-769140Y2131500D02*
X-761520D01*
G01X-769250Y2131000D02*
X-761640D01*
G01X-769360Y2130500D02*
X-761750D01*
G01X-769470Y2130000D02*
X-761860D01*
G01X-769580Y2129500D02*
X-761970D01*
G01X-769690Y2129000D02*
X-762080D01*
G01X-769800Y2128500D02*
X-762190D01*
G01X-769910Y2128000D02*
X-762300D01*
G01X-770020Y2127500D02*
X-762410D01*
G01X-770130Y2127000D02*
X-762520D01*
G01X-770240Y2126500D02*
X-762630D01*
G01X-770350Y2126000D02*
X-762740D01*
G01X-770460Y2125500D02*
X-762850D01*
G01X-770570Y2125000D02*
X-762960D01*
G01X-770680Y2124500D02*
X-763080D01*
G01X-770800Y2124000D02*
X-763180D01*
G01X-770900Y2123500D02*
X-763300D01*
G01X-771020Y2123000D02*
X-763410D01*
G01X-771130Y2122500D02*
X-763520D01*
G01X-771240Y2122000D02*
X-763630D01*
G01X-771350Y2121500D02*
X-763740D01*
G01X-771460Y2121000D02*
X-763850D01*
G01X-771570Y2120500D02*
X-763960D01*
G01X-771680Y2120000D02*
X-764070D01*
G01X-771790Y2119500D02*
X-764170D01*
G01X-771920Y2119000D02*
X-764240D01*
G01X-772040Y2118500D02*
X-764320D01*
G01X-772170Y2118000D02*
X-764390D01*
G01X-772290Y2117500D02*
X-764460D01*
G01X-772470Y2117000D02*
X-764540D01*
G01X-772660Y2116500D02*
X-764610D01*
G01X-772860Y2116000D02*
X-764680D01*
G01X-773080Y2115500D02*
X-764650D01*
G01X-773380Y2115000D02*
X-764590D01*
G01X-773740Y2114500D02*
X-764410D01*
G01X-774170Y2114000D02*
X-764190D01*
G01X-774640Y2113500D02*
X-763900D01*
G01X-767890Y2091600D02*
X-767480D01*
X-760830Y2103710D01*
X-758850D01*
G02X-758610Y2103410I-2J-248D01*
G01X-761480Y2089880D01*
X-762530D01*
G02X-762780Y2090190I-3J253D01*
G01X-761110Y2098050D01*
X-760210Y2101920D01*
X-760690D01*
X-767300Y2089880D01*
X-768850D01*
X-770310Y2101920D01*
X-770790D01*
X-771550Y2098150D01*
X-773300Y2089880D01*
X-774360D01*
G02X-774600Y2090190I5J252D01*
G01X-771730Y2103710D01*
X-769390D01*
X-767890Y2091600D01*
G01X-760950Y2103500D02*
X-758600D01*
G01X-771770D02*
X-769360D01*
G01X-761220Y2103000D02*
X-758700D01*
G01X-771880D02*
X-769300D01*
G01X-761500Y2102500D02*
X-758800D01*
G01X-771990D02*
X-769240D01*
G01X-761770Y2102000D02*
X-758910D01*
G01X-772090D02*
X-769180D01*
G01X-760310Y2101500D02*
X-759010D01*
G01X-762040D02*
X-760920D01*
G01X-770260D02*
X-769120D01*
G01X-772200D02*
X-770880D01*
G01X-760420Y2101000D02*
X-759120D01*
G01X-762320D02*
X-761200D01*
G01X-770200D02*
X-769050D01*
G01X-772300D02*
X-770980D01*
G01X-760540Y2100500D02*
X-759220D01*
G01X-762590D02*
X-761470D01*
G01X-770140D02*
X-768990D01*
G01X-772410D02*
X-771080D01*
G01X-760660Y2100000D02*
X-759330D01*
G01X-762870D02*
X-761750D01*
G01X-770070D02*
X-768930D01*
G01X-772520D02*
X-771180D01*
G01X-760770Y2099500D02*
X-759440D01*
G01X-763140D02*
X-762020D01*
G01X-770010D02*
X-768870D01*
G01X-772620D02*
X-771280D01*
G01X-760890Y2099000D02*
X-759540D01*
G01X-763420D02*
X-762300D01*
G01X-769950D02*
X-768810D01*
G01X-772730D02*
X-771380D01*
G01X-761000Y2098500D02*
X-759650D01*
G01X-763690D02*
X-762570D01*
G01X-769890D02*
X-768740D01*
G01X-772840D02*
X-771480D01*
G01X-761120Y2098000D02*
X-759760D01*
G01X-763960D02*
X-762850D01*
G01X-769830D02*
X-768680D01*
G01X-772940D02*
X-771580D01*
G01X-761220Y2097500D02*
X-759860D01*
G01X-764240D02*
X-763120D01*
G01X-769770D02*
X-768620D01*
G01X-773050D02*
X-771690D01*
G01X-761330Y2097000D02*
X-759970D01*
G01X-764510D02*
X-763400D01*
G01X-769710D02*
X-768560D01*
G01X-773150D02*
X-771790D01*
G01X-761440Y2096500D02*
X-760070D01*
G01X-764790D02*
X-763670D01*
G01X-769650D02*
X-768500D01*
G01X-773260D02*
X-771900D01*
G01X-761540Y2096000D02*
X-760180D01*
G01X-765060D02*
X-763950D01*
G01X-769590D02*
X-768440D01*
G01X-773360D02*
X-772000D01*
G01X-761650Y2095500D02*
X-760290D01*
G01X-765340D02*
X-764220D01*
G01X-769530D02*
X-768370D01*
G01X-773470D02*
X-772110D01*
G01X-761750Y2095000D02*
X-760390D01*
G01X-765610D02*
X-764500D01*
G01X-769470D02*
X-768310D01*
G01X-773580D02*
X-772220D01*
G01X-761860Y2094500D02*
X-760500D01*
G01X-765890D02*
X-764770D01*
G01X-769410D02*
X-768250D01*
G01X-773680D02*
X-772320D01*
G01X-761970Y2094000D02*
X-760600D01*
G01X-766160D02*
X-765040D01*
G01X-769350D02*
X-768190D01*
G01X-773790D02*
X-772430D01*
G01X-762070Y2093500D02*
X-760710D01*
G01X-766440D02*
X-765320D01*
G01X-769290D02*
X-768120D01*
G01X-773900D02*
X-772530D01*
G01X-762180Y2093000D02*
X-760820D01*
G01X-766710D02*
X-765590D01*
G01X-769220D02*
X-768060D01*
G01X-774000D02*
X-772640D01*
G01X-762280Y2092500D02*
X-760920D01*
G01X-766980D02*
X-765870D01*
G01X-769160D02*
X-768000D01*
G01X-774110D02*
X-772740D01*
G01X-762390Y2092000D02*
X-761030D01*
G01X-767260D02*
X-766140D01*
G01X-769100D02*
X-767940D01*
G01X-774210D02*
X-772850D01*
G01X-762500Y2091500D02*
X-761130D01*
G01X-769040D02*
X-766420D01*
G01X-774320D02*
X-772960D01*
G01X-762600Y2091000D02*
X-761240D01*
G01X-768980D02*
X-766690D01*
G01X-774430D02*
X-773060D01*
G01X-762710Y2090500D02*
X-761350D01*
G01X-768920D02*
X-766970D01*
G01X-774530D02*
X-773170D01*
G01X-762740Y2090000D02*
X-761450D01*
G01X-768860D02*
X-767240D01*
G01X-774560D02*
X-773270D01*
G54D11*
G01X-879500Y1743000D02*
Y1942000D01*
X-820500D01*
Y1743000D01*
X-879500D01*
G01X-858000Y1942000D02*
Y1743000D01*
G01X-859000Y1942000D02*
Y1743000D01*
G01X-860000Y1942000D02*
Y1743000D01*
G01X-861000Y1942000D02*
Y1743000D01*
G01X-862000Y1942000D02*
Y1743000D01*
G01X-863000Y1942000D02*
Y1743000D01*
G01X-864000Y1942000D02*
Y1743000D01*
G01X-865000Y1942000D02*
Y1743000D01*
G01X-866000Y1942000D02*
Y1743000D01*
G01X-867000Y1942000D02*
Y1743000D01*
G01X-868000Y1942000D02*
Y1743000D01*
G01X-869000Y1942000D02*
Y1743000D01*
G01X-870000Y1942000D02*
Y1743000D01*
G01X-871000Y1942000D02*
Y1743000D01*
G01X-872000Y1942000D02*
Y1743000D01*
G01X-873000Y1942000D02*
Y1743000D01*
G01X-874000Y1942000D02*
Y1743000D01*
G01X-875000Y1942000D02*
Y1743000D01*
G01X-876000Y1942000D02*
Y1743000D01*
G01X-877000Y1942000D02*
Y1743000D01*
G01X-878000Y1942000D02*
Y1743000D01*
G01X-879000Y1942000D02*
Y1743000D01*
G01X-821000Y1942000D02*
Y1743000D01*
G01X-822000Y1942000D02*
Y1743000D01*
G01X-823000Y1942000D02*
Y1743000D01*
G01X-824000Y1942000D02*
Y1743000D01*
G01X-825000Y1942000D02*
Y1743000D01*
G01X-826000Y1942000D02*
Y1743000D01*
G01X-827000Y1942000D02*
Y1743000D01*
G01X-828000Y1942000D02*
Y1743000D01*
G01X-829000Y1942000D02*
Y1743000D01*
G01X-830000Y1942000D02*
Y1743000D01*
G01X-831000Y1942000D02*
Y1743000D01*
G01X-832000Y1942000D02*
Y1743000D01*
G01X-833000Y1942000D02*
Y1743000D01*
G01X-834000Y1942000D02*
Y1743000D01*
G01X-835000Y1942000D02*
Y1743000D01*
G01X-836000Y1942000D02*
Y1743000D01*
G01X-837000Y1942000D02*
Y1743000D01*
G01X-838000Y1942000D02*
Y1743000D01*
G01X-839000Y1942000D02*
Y1743000D01*
G01X-840000Y1942000D02*
Y1743000D01*
G01X-841000Y1942000D02*
Y1743000D01*
G01X-842000Y1942000D02*
Y1743000D01*
G01X-843000Y1942000D02*
Y1743000D01*
G01X-844000Y1942000D02*
Y1743000D01*
G01X-845000Y1942000D02*
Y1743000D01*
G01X-846000Y1942000D02*
Y1743000D01*
G01X-847000Y1942000D02*
Y1743000D01*
G01X-848000Y1942000D02*
Y1743000D01*
G01X-849000Y1942000D02*
Y1743000D01*
G01X-850000Y1942000D02*
Y1743000D01*
G01X-851000Y1942000D02*
Y1743000D01*
G01X-852000Y1942000D02*
Y1743000D01*
G01X-853000Y1942000D02*
Y1743000D01*
G01X-854000Y1942000D02*
Y1743000D01*
G01X-855000Y1942000D02*
Y1743000D01*
G01X-856000Y1942000D02*
Y1743000D01*
G01X-857000Y1942000D02*
Y1743000D01*
G54D12*
G01X-982600Y922600D02*
X-806600D01*
Y-17400D01*
X-982600D01*
Y922600D01*
G01X-950470Y2004060D02*
X-948940Y2001690D01*
X-946910Y2000340D01*
X-944630Y2000000D01*
X-942590Y2000340D01*
X-940560Y2002030D01*
X-939290Y2004060D01*
X-939040Y2006100D01*
X-939550Y2008470D01*
X-941320Y2010160D01*
X-943100Y2010840D01*
X-945390D01*
G01X-943100D02*
X-941580Y2011850D01*
X-940310Y2013550D01*
X-939800Y2015580D01*
X-940310Y2017610D01*
X-941580Y2019300D01*
X-943860Y2020320D01*
X-946150Y2019980D01*
X-948440Y2018630D01*
G01X-924560Y1999320D02*
X-925070Y1999660D01*
Y2000340D01*
X-924560Y2000680D01*
X-924050Y2000340D01*
Y1999660D01*
X-924560Y1999320D01*
G01X-904240Y2000000D02*
Y2020320D01*
X-907290Y2016260D01*
G01Y2000000D02*
X-901190D01*
G01X-880870D02*
Y2020320D01*
X-890270Y2005760D01*
X-877570D01*
G01X-863600Y2020320D02*
X-865630Y2019640D01*
X-867160Y2017950D01*
X-868170Y2015920D01*
X-868930Y2013210D01*
X-869190Y2010160D01*
X-868930Y2007110D01*
X-868170Y2004400D01*
X-867160Y2002370D01*
X-865630Y2000680D01*
X-863600Y2000000D01*
X-861570Y2000680D01*
X-860040Y2002370D01*
X-859030Y2004400D01*
X-858270Y2007110D01*
X-858010Y2010160D01*
X-858270Y2013210D01*
X-859030Y2015920D01*
X-860040Y2017950D01*
X-861570Y2019640D01*
X-863600Y2020320D01*
G01X-843280Y1999320D02*
X-843790Y1999660D01*
Y2000340D01*
X-843280Y2000680D01*
X-842770Y2000340D01*
Y1999660D01*
X-843280Y1999320D01*
G01X-827790Y2016930D02*
X-826260Y2018970D01*
X-824480Y2019980D01*
X-822450Y2020320D01*
X-819910Y2019640D01*
X-818130Y2017950D01*
X-817630Y2015920D01*
X-817880Y2013880D01*
X-818900Y2012190D01*
X-823980Y2008810D01*
X-826260Y2006430D01*
X-827790Y2003050D01*
X-828290Y2000000D01*
X-817630D01*
G01X-802640D02*
X-800860Y2000340D01*
X-798830Y2001350D01*
X-797560Y2003050D01*
X-797050Y2005420D01*
X-797560Y2007790D01*
X-799080Y2009820D01*
X-801370Y2010840D01*
X-803910D01*
X-805430Y2011510D01*
X-806700Y2013210D01*
X-807210Y2015580D01*
X-806450Y2017950D01*
X-804670Y2019640D01*
X-802640Y2020320D01*
X-800610Y2019640D01*
X-798830Y2017950D01*
X-798070Y2015580D01*
X-798580Y2013210D01*
X-799850Y2011510D01*
X-801370Y2010840D01*
X-803910D01*
X-806200Y2009820D01*
X-807720Y2007790D01*
X-808230Y2005420D01*
X-807720Y2003050D01*
X-806450Y2001350D01*
X-804420Y2000340D01*
X-802640Y2000000D01*
G01X-782320Y2020320D02*
X-784350Y2019640D01*
X-785880Y2017950D01*
X-786890Y2015920D01*
X-787650Y2013210D01*
X-787910Y2010160D01*
X-787650Y2007110D01*
X-786890Y2004400D01*
X-785880Y2002370D01*
X-784350Y2000680D01*
X-782320Y2000000D01*
X-780290Y2000680D01*
X-778760Y2002370D01*
X-777750Y2004400D01*
X-776990Y2007110D01*
X-776730Y2010160D01*
X-776990Y2013210D01*
X-777750Y2015920D01*
X-778760Y2017950D01*
X-780290Y2019640D01*
X-782320Y2020320D01*
G01X-950470Y1967500D02*
Y1987820D01*
X-945390D01*
X-943360Y1986800D01*
X-941830Y1985450D01*
X-940560Y1983420D01*
X-939550Y1981050D01*
X-939290Y1977660D01*
X-939550Y1974270D01*
X-940560Y1971900D01*
X-941830Y1969870D01*
X-943360Y1968520D01*
X-945390Y1967500D01*
X-950470D01*
G01X-928370Y1976640D02*
X-920240D01*
X-921000Y1979010D01*
X-922270Y1980370D01*
X-924050Y1981050D01*
X-925830Y1980710D01*
X-927350Y1979690D01*
X-928370Y1977320D01*
X-928880Y1975290D01*
Y1973260D01*
X-928370Y1971230D01*
X-927100Y1969190D01*
X-925580Y1967840D01*
X-923800Y1967500D01*
X-922020Y1968180D01*
X-920240Y1970210D01*
G01X-900180Y1979350D02*
X-901950Y1980710D01*
X-903480Y1981050D01*
X-905510Y1980370D01*
X-907030Y1979010D01*
X-908050Y1976640D01*
X-908300Y1974270D01*
X-908050Y1971900D01*
X-907030Y1969870D01*
X-905510Y1968180D01*
X-903480Y1967500D01*
X-901700Y1968180D01*
X-900180Y1969530D01*
G01X-887730Y1976640D02*
X-879600D01*
X-880360Y1979010D01*
X-881630Y1980370D01*
X-883410Y1981050D01*
X-885190Y1980710D01*
X-886710Y1979690D01*
X-887730Y1977320D01*
X-888240Y1975290D01*
Y1973260D01*
X-887730Y1971230D01*
X-886460Y1969190D01*
X-884940Y1967840D01*
X-883160Y1967500D01*
X-881380Y1968180D01*
X-879600Y1970210D01*
G01X-871220Y1967500D02*
Y1981050D01*
G01Y1977320D02*
X-870460Y1979010D01*
X-869190Y1980370D01*
X-867410Y1981050D01*
X-865630Y1980370D01*
X-864360Y1979010D01*
X-863600Y1977320D01*
Y1967500D01*
G01Y1977320D02*
X-862840Y1979010D01*
X-861570Y1980370D01*
X-859790Y1981050D01*
X-858010Y1980370D01*
X-856740Y1979010D01*
X-855980Y1976980D01*
Y1967500D01*
G01X-847850D02*
Y1987820D01*
G01Y1977660D02*
X-846580Y1979690D01*
X-845060Y1980710D01*
X-843530Y1981050D01*
X-841250Y1980370D01*
X-839720Y1979010D01*
X-838710Y1976640D01*
Y1973930D01*
X-839220Y1971230D01*
X-840230Y1969190D01*
X-842010Y1967840D01*
X-843530Y1967500D01*
X-845060Y1967840D01*
X-846580Y1968850D01*
X-847850Y1970550D01*
G01X-826770Y1976640D02*
X-818640D01*
X-819400Y1979010D01*
X-820670Y1980370D01*
X-822450Y1981050D01*
X-824230Y1980710D01*
X-825750Y1979690D01*
X-826770Y1977320D01*
X-827280Y1975290D01*
Y1973260D01*
X-826770Y1971230D01*
X-825500Y1969190D01*
X-823980Y1967840D01*
X-822200Y1967500D01*
X-820420Y1968180D01*
X-818640Y1970210D01*
G01X-806200Y1967500D02*
Y1981050D01*
G01Y1978340D02*
X-804930Y1979690D01*
X-803660Y1980710D01*
X-801880Y1981050D01*
X-800610Y1980710D01*
X-799080Y1979690D01*
G01X-766830Y1984430D02*
X-765300Y1986470D01*
X-763520Y1987480D01*
X-761490Y1987820D01*
X-758950Y1987140D01*
X-757170Y1985450D01*
X-756670Y1983420D01*
X-756920Y1981380D01*
X-757940Y1979690D01*
X-763020Y1976310D01*
X-765300Y1973930D01*
X-766830Y1970550D01*
X-767330Y1967500D01*
X-756670D01*
G01X-741680Y1987820D02*
X-743710Y1987140D01*
X-745240Y1985450D01*
X-746250Y1983420D01*
X-747010Y1980710D01*
X-747270Y1977660D01*
X-747010Y1974610D01*
X-746250Y1971900D01*
X-745240Y1969870D01*
X-743710Y1968180D01*
X-741680Y1967500D01*
X-739650Y1968180D01*
X-738120Y1969870D01*
X-737110Y1971900D01*
X-736350Y1974610D01*
X-736090Y1977660D01*
X-736350Y1980710D01*
X-737110Y1983420D01*
X-738120Y1985450D01*
X-739650Y1987140D01*
X-741680Y1987820D01*
G01X-721360Y1967500D02*
Y1987820D01*
X-724410Y1983760D01*
G01Y1967500D02*
X-718310D01*
G01X-705870Y1975970D02*
X-704090Y1978340D01*
X-702560Y1979690D01*
X-700530Y1980370D01*
X-698750Y1979690D01*
X-697480Y1978340D01*
X-696470Y1976310D01*
X-696210Y1973930D01*
X-696470Y1971900D01*
X-697480Y1969870D01*
X-699010Y1968180D01*
X-700790Y1967500D01*
X-702820Y1968180D01*
X-704600Y1970210D01*
X-705610Y1973260D01*
X-705870Y1976640D01*
X-705360Y1981050D01*
X-704600Y1983420D01*
X-703330Y1985790D01*
X-701550Y1987480D01*
X-699770Y1987820D01*
X-697990Y1987140D01*
X-696720Y1985450D01*
G01X-940350Y2048340D02*
X-939330Y2049350D01*
X-938570Y2051050D01*
X-938060Y2053420D01*
X-938570Y2055450D01*
X-939590Y2056800D01*
X-941360Y2057820D01*
X-948220D01*
Y2037500D01*
X-939840D01*
X-938060Y2038850D01*
X-937050Y2040890D01*
X-936540Y2043260D01*
X-937050Y2045630D01*
X-938570Y2047660D01*
X-940350Y2048340D01*
X-948220D01*
G01X-927140Y2037500D02*
Y2057820D01*
X-921040D01*
X-919010Y2056800D01*
X-917490Y2054430D01*
X-916980Y2051720D01*
X-917490Y2049010D01*
X-918760Y2046980D01*
X-921040Y2045970D01*
X-927140D01*
G01X-906570Y2054430D02*
X-905040Y2056470D01*
X-903260Y2057480D01*
X-901230Y2057820D01*
X-898690Y2057140D01*
X-896910Y2055450D01*
X-896410Y2053420D01*
X-896660Y2051380D01*
X-897680Y2049690D01*
X-902760Y2046310D01*
X-905040Y2043930D01*
X-906570Y2040550D01*
X-907070Y2037500D01*
X-896410D01*
G01X-889040Y2030730D02*
X-873800D01*
G01X-861100Y2057820D02*
X-863130Y2057140D01*
X-864660Y2055450D01*
X-865670Y2053420D01*
X-866430Y2050710D01*
X-866690Y2047660D01*
X-866430Y2044610D01*
X-865670Y2041900D01*
X-864660Y2039870D01*
X-863130Y2038180D01*
X-861100Y2037500D01*
X-859070Y2038180D01*
X-857540Y2039870D01*
X-856530Y2041900D01*
X-855770Y2044610D01*
X-855510Y2047660D01*
X-855770Y2050710D01*
X-856530Y2053420D01*
X-857540Y2055450D01*
X-859070Y2057140D01*
X-861100Y2057820D01*
G01X-845610Y2054430D02*
X-844080Y2056470D01*
X-842300Y2057480D01*
X-840270Y2057820D01*
X-837730Y2057140D01*
X-835950Y2055450D01*
X-835450Y2053420D01*
X-835700Y2051380D01*
X-836720Y2049690D01*
X-841800Y2046310D01*
X-844080Y2043930D01*
X-845610Y2040550D01*
X-846110Y2037500D01*
X-835450D01*
G01X-825030Y2051050D02*
X-820460Y2037500D01*
X-815890Y2051050D01*
G01X-805730Y2040550D02*
X-804200Y2038850D01*
X-802430Y2037840D01*
X-800140Y2037500D01*
X-797850Y2038180D01*
X-796080Y2039530D01*
X-794810Y2041900D01*
X-794550Y2044610D01*
X-795060Y2047320D01*
X-796330Y2049010D01*
X-798110Y2050370D01*
X-799890Y2050710D01*
X-801660Y2050370D01*
X-803950Y2049010D01*
X-803190Y2057820D01*
X-796330D01*
G01X-785150Y914400D02*
X-726150D01*
G01X-725650Y963400D02*
Y865400D01*
X-785650D01*
Y963400D01*
X-725650D01*
G01X-798900Y1161340D02*
G03X-800150Y999010I150868J-82332D01*
G01X-292100Y1942100D02*
Y1182100D01*
X-800100D01*
Y1942100D01*
G01D02*
X-292100D01*
G01X-203200Y77200D02*
X-711200D01*
G01D02*
Y837200D01*
X-203200D01*
Y77200D01*
G01X-724650Y853400D02*
X-740650D01*
G01X-732650Y861400D02*
Y845400D01*
G01X-595090Y1115120D02*
G03X-597270Y866280I10889J-124525D01*
G01X-775900Y997660D02*
G03X-774650Y1159990I-150870J82332D01*
G01X-643200Y713200D02*
X-371200D01*
Y301200D01*
X-643200D01*
Y434200D01*
G01Y480200D02*
Y713200D01*
G01X-360100Y1306100D02*
X-632100D01*
Y1718100D01*
X-360100D01*
Y1585100D01*
G01X-625000Y2147000D02*
Y2043000D01*
X-685000D01*
Y2147000D01*
X-625000D01*
G01X-655000Y2041000D02*
Y2031000D01*
G01X-650000Y2036000D02*
X-660000D01*
G01X-573310Y866080D02*
G03X-571130Y1114920I-10889J124525D01*
G01X-554000Y1172000D02*
X-506000D01*
Y1138000D01*
X-554000D01*
Y1172000D01*
G01X-503000Y2136000D02*
X-567000D01*
Y2054000D01*
X-503000D01*
G01X-480200Y1103600D02*
Y1083600D01*
G01X-490200Y1093600D02*
X-470200D01*
G01X-494000Y1172000D02*
X-446000D01*
Y1138000D01*
X-494000D01*
Y1172000D01*
G01X-503000Y2136000D02*
Y2054000D01*
G01X-450400Y-13650D02*
X-362400D01*
Y26350D01*
X-450400D01*
Y-13650D01*
G01X-315690Y1115120D02*
G03X-317870Y866280I10889J-124525D01*
G01X-434000Y1172000D02*
X-386000D01*
Y1138000D01*
X-434000D01*
Y1172000D01*
G01X-192500Y1987000D02*
X-442500D01*
Y2076000D01*
X-192500D01*
Y1987000D01*
G01Y2126700D02*
X-442500D01*
Y2215700D01*
X-192500D01*
Y2126700D01*
G01X-374000Y1172000D02*
X-326000D01*
Y1138000D01*
X-374000D01*
Y1172000D01*
G01X-360100Y1539100D02*
Y1306100D01*
G01X-235400Y26350D02*
X-323400D01*
Y-13650D01*
X-235400D01*
Y26350D01*
G01X-293910Y866080D02*
G03X-291730Y1114920I-10889J124525D01*
G01X-155000Y562500D02*
Y597500D01*
X-175000D01*
Y562500D01*
X-155000D01*
G01X-200800Y1103600D02*
Y1083600D01*
G01X-210800Y1093600D02*
X-190800D01*
G01X-232800Y1283480D02*
G03X-110320Y1282400I61350J11923D01*
G01X-110100Y1307320D02*
G03X-232580Y1308400I-61350J-11923D01*
G01X-160020Y1367790D02*
X-208280D01*
G01D02*
Y1400810D01*
G01X-160020D02*
X-208280D01*
G01X-213360Y1601470D02*
X-241300Y1570990D01*
Y1497330D01*
X-213360Y1459230D01*
G01X-136350Y200580D02*
G03X-13870Y199500I61350J11923D01*
G01X-135990Y296630D02*
Y248370D01*
G01X-169010Y296630D02*
Y248370D01*
G01X-135990D02*
X-169010D01*
G01X-13650Y224420D02*
G03X-136130Y225500I-61350J-11923D01*
G01X-135990Y296630D02*
X-169010D01*
G01X-137160Y490220D02*
X-165100Y459740D01*
Y386080D01*
X-137160Y347980D01*
G01X-154500Y609000D02*
Y641000D01*
X-170500D01*
Y609000D01*
X-154500D01*
G01X-150500Y641000D02*
Y609000D01*
X-134500D01*
Y641000D01*
X-150500D01*
G01X-116000Y562000D02*
Y598000D01*
G01D02*
X-94000D01*
G01Y562000D02*
X-116000D01*
G01X-130000Y625500D02*
Y634500D01*
X-122000D01*
G01X-108000D02*
X-100000D01*
Y625500D01*
G01X-112000Y620500D02*
X-118000D01*
G01X-120000Y582000D02*
Y573000D01*
X-128000D01*
G01X-142000D02*
X-150000D01*
Y582000D01*
G01X-138000Y587000D02*
X-132000D01*
G01X-84950Y776550D02*
Y811550D01*
X-104950D01*
Y776550D01*
X-84950D01*
G01X-141030Y812300D02*
Y763300D01*
X-163670D01*
Y812300D01*
X-141030D01*
G01X-13150Y1099500D02*
X-101150D01*
Y1059500D01*
X-13150D01*
Y1099500D01*
G01X-101150Y1116650D02*
X-13150D01*
Y1156650D01*
X-101150D01*
Y1116650D01*
G01X-109450Y1242400D02*
X-129450D01*
G01X-119450Y1252400D02*
Y1232400D01*
G01X-160020Y1367790D02*
Y1400810D01*
G01X-116840Y1459230D02*
X-86360Y1497330D01*
G01D02*
Y1570990D01*
X-116840Y1601470D01*
G01X22450Y1728980D02*
X-97550D01*
Y2065780D01*
X22450D01*
Y1728980D01*
G01X-13000Y159500D02*
X-33000D01*
G01X-23000Y169500D02*
Y149500D01*
G01X-40640Y347980D02*
X-10160Y386080D01*
G01D02*
Y459740D01*
X-40640Y490220D01*
G01X-37000Y604000D02*
Y636000D01*
X-53000D01*
Y604000D01*
X-37000D01*
G01X-35000Y562500D02*
Y597500D01*
X-55000D01*
Y562500D01*
X-35000D01*
G01X-94000Y598000D02*
Y562000D01*
G01X-88500Y604500D02*
Y640500D01*
G01X-66500D02*
Y604500D01*
G01D02*
X-88500D01*
G01X-30000Y578000D02*
Y587000D01*
X-22000D01*
G01X-30000Y629140D02*
Y637000D01*
X-21000D01*
G01X-59760Y576190D02*
X-90240D01*
Y583810D01*
X-59760D01*
Y576190D01*
G01X-35000Y665000D02*
X-70000D01*
Y645000D01*
X-35000D01*
Y665000D01*
G01Y690000D02*
X-70000D01*
Y670000D01*
X-35000D01*
Y690000D01*
G01X-88500Y640500D02*
X-66500D01*
G01X-30000Y673000D02*
Y682000D01*
X-22000D01*
G01X-80950Y766050D02*
Y802050D01*
G01X-58950D02*
Y766050D01*
G01D02*
X-80950D01*
G01X-11000Y718750D02*
X-47000D01*
Y755250D01*
X-11000D01*
Y718750D01*
G01X-54950Y796550D02*
X-19950D01*
Y816550D01*
X-54950D01*
Y796550D01*
G01X-80950Y802050D02*
X-58950D01*
G01X-8000Y587000D02*
X0D01*
Y578000D01*
G01X-12000Y573000D02*
X-18000D01*
G01X-18500Y623000D02*
X-11500D01*
G01X-9000Y637000D02*
X0D01*
Y629140D01*
G01X-8000Y682000D02*
X0D01*
Y673000D01*
G01X-12000Y668000D02*
X-18000D01*
G54D13*
G01X-591100Y1294100D02*
G03I-4000J0D01*
G01X-475870Y2055500D02*
G03I-1505J0D01*
G01X-404200Y725200D02*
G03I-4000J0D01*
G01X-125020Y759250D02*
G03X-127020Y761260I-2010J0D01*
G01D02*
G03X-129030Y759250I0J-2010D01*
G01D02*
G03X-127020Y757240I2010J0D01*
G01D02*
G03X-125020Y759250I-10J2010D01*
G01X-103550Y1769380D02*
G03I-2000J0D01*
G01X-58000Y605000D02*
G03X-60000Y607000I-2000J0D01*
G01D02*
G03X-62000Y605000I0J-2000D01*
G01D02*
G03X-61320Y603500I1994J0D01*
G01X-58680D02*
G03X-58000Y605000I-1314J1500D01*
G01X-49050Y705450D02*
G03X-51050Y707450I-2000J0D01*
G01D02*
G03X-53050Y705450I0J-2000D01*
G01D02*
G03X-51050Y703450I2000J0D01*
G01D02*
G03X-49050Y705450I0J2000D01*
G54D14*
G01X-911550Y933450D02*
X-904800Y946150D01*
G01X-911550D02*
X-904800Y933450D01*
G01X-895230D02*
Y946150D01*
X-897160Y943610D01*
G01Y933450D02*
X-893300D01*
G01X-829790Y971550D02*
X-825770Y958850D01*
X-821740Y971550D01*
G01X-816350Y958850D02*
Y971550D01*
X-813140D01*
X-811850Y970910D01*
X-810880Y970070D01*
X-810080Y968800D01*
X-809440Y967320D01*
X-809280Y965200D01*
X-809440Y963080D01*
X-810080Y961600D01*
X-810880Y960330D01*
X-811850Y959480D01*
X-813140Y958850D01*
X-816350D01*
G01X-803400Y961390D02*
X-802440Y959910D01*
X-801150Y959060D01*
X-799700Y958850D01*
X-798420Y959060D01*
X-797130Y960120D01*
X-796330Y961390D01*
X-796170Y962660D01*
X-796490Y964140D01*
X-797610Y965200D01*
X-798740Y965620D01*
X-800190D01*
G01X-798740D02*
X-797770Y966260D01*
X-796970Y967320D01*
X-796650Y968590D01*
X-796970Y969860D01*
X-797770Y970910D01*
X-799220Y971550D01*
X-800670Y971340D01*
X-802120Y970490D01*
G01X-844820Y1155700D02*
Y1143000D01*
G01X-848510Y1155700D02*
X-841120D01*
G01X-835240Y1143000D02*
Y1155700D01*
G01X-828490D02*
Y1143000D01*
G01Y1149350D02*
X-835240D01*
G01X-818920Y1143000D02*
Y1155700D01*
X-820850Y1153160D01*
G01Y1143000D02*
X-816990D01*
G01X-677940Y1116640D02*
X-678900Y1117280D01*
X-680030Y1117700D01*
X-681310D01*
X-682760Y1117060D01*
X-683890Y1116010D01*
X-684690Y1114740D01*
X-685340Y1112620D01*
X-685500Y1110710D01*
X-685170Y1108810D01*
X-684690Y1107540D01*
X-683730Y1106270D01*
X-682600Y1105420D01*
X-681480Y1105000D01*
X-680350D01*
X-679220Y1105420D01*
X-678260Y1106060D01*
X-677450Y1106900D01*
G01X-672060Y1107540D02*
X-671100Y1106060D01*
X-669810Y1105210D01*
X-668360Y1105000D01*
X-667080Y1105210D01*
X-665790Y1106270D01*
X-664990Y1107540D01*
X-664830Y1108810D01*
X-665150Y1110290D01*
X-666270Y1111350D01*
X-667400Y1111770D01*
X-668850D01*
G01X-667400D02*
X-666430Y1112410D01*
X-665630Y1113470D01*
X-665310Y1114740D01*
X-665630Y1116010D01*
X-666430Y1117060D01*
X-667880Y1117700D01*
X-669330Y1117490D01*
X-670780Y1116640D01*
G01X-669490Y2170200D02*
X-665470Y2157500D01*
X-661440Y2170200D01*
G01X-656050Y2157500D02*
Y2170200D01*
X-652840D01*
X-651550Y2169560D01*
X-650580Y2168720D01*
X-649780Y2167450D01*
X-649140Y2165970D01*
X-648980Y2163850D01*
X-649140Y2161730D01*
X-649780Y2160250D01*
X-650580Y2158980D01*
X-651550Y2158130D01*
X-652840Y2157500D01*
X-656050D01*
G01X-639570D02*
Y2170200D01*
X-641500Y2167660D01*
G01Y2157500D02*
X-637640D01*
G01X-551500Y1967700D02*
Y1958600D01*
X-550860Y1956690D01*
X-549570Y1955420D01*
X-547970Y1955000D01*
X-546360Y1955420D01*
X-545070Y1956690D01*
X-544430Y1958600D01*
Y1967700D01*
G01X-534050Y1961350D02*
X-530830D01*
Y1957540D01*
X-531800Y1956270D01*
X-532920Y1955420D01*
X-534530Y1955000D01*
X-536140Y1955420D01*
X-537270Y1956270D01*
X-538230Y1957540D01*
X-538880Y1959020D01*
X-539200Y1960710D01*
Y1962200D01*
X-538880Y1963470D01*
X-538230Y1964950D01*
X-537270Y1966220D01*
X-536300Y1967060D01*
X-535020Y1967700D01*
X-533890D01*
X-532600Y1967280D01*
X-531640Y1966430D01*
G01X-522070Y1955000D02*
Y1967700D01*
X-524000Y1965160D01*
G01Y1955000D02*
X-520140D01*
G01X-477190Y0D02*
Y12700D01*
X-473170D01*
X-471880Y12060D01*
X-471080Y11220D01*
X-470760Y9520D01*
X-471080Y7830D01*
X-472040Y6770D01*
X-473170Y6140D01*
X-477190D01*
G01X-473170D02*
X-470760Y0D01*
G01X-464080Y5290D02*
X-462960Y6770D01*
X-461990Y7620D01*
X-460700Y8040D01*
X-459580Y7620D01*
X-458770Y6770D01*
X-458130Y5500D01*
X-457970Y4020D01*
X-458130Y2750D01*
X-458770Y1480D01*
X-459740Y420D01*
X-460860Y0D01*
X-462150Y420D01*
X-463280Y1690D01*
X-463920Y3600D01*
X-464080Y5710D01*
X-463760Y8470D01*
X-463280Y9950D01*
X-462470Y11430D01*
X-461350Y12490D01*
X-460220Y12700D01*
X-459090Y12280D01*
X-458290Y11220D01*
G01X-509500Y741700D02*
Y732600D01*
X-508860Y730690D01*
X-507570Y729420D01*
X-505970Y729000D01*
X-504360Y729420D01*
X-503070Y730690D01*
X-502430Y732600D01*
Y741700D01*
G01X-492050Y735350D02*
X-488830D01*
Y731540D01*
X-489800Y730270D01*
X-490920Y729420D01*
X-492530Y729000D01*
X-494140Y729420D01*
X-495270Y730270D01*
X-496230Y731540D01*
X-496880Y733020D01*
X-497200Y734710D01*
Y736200D01*
X-496880Y737470D01*
X-496230Y738950D01*
X-495270Y740220D01*
X-494300Y741060D01*
X-493020Y741700D01*
X-491890D01*
X-490600Y741280D01*
X-489640Y740430D01*
G01X-478130Y729000D02*
Y741700D01*
X-484090Y732600D01*
X-476040D01*
G01X-486180Y1120000D02*
Y1132700D01*
X-482160D01*
X-480870Y1132060D01*
X-480070Y1131220D01*
X-479750Y1129520D01*
X-480070Y1127830D01*
X-481030Y1126770D01*
X-482160Y1126140D01*
X-486180D01*
G01X-482160D02*
X-479750Y1120000D01*
G01X-470020D02*
Y1132700D01*
X-471950Y1130160D01*
G01Y1120000D02*
X-468090D01*
G01X-460120Y1125290D02*
X-459000Y1126770D01*
X-458030Y1127620D01*
X-456740Y1128040D01*
X-455620Y1127620D01*
X-454810Y1126770D01*
X-454170Y1125500D01*
X-454010Y1124020D01*
X-454170Y1122750D01*
X-454810Y1121480D01*
X-455780Y1120420D01*
X-456900Y1120000D01*
X-458190Y1120420D01*
X-459320Y1121690D01*
X-459960Y1123600D01*
X-460120Y1125710D01*
X-459800Y1128470D01*
X-459320Y1129950D01*
X-458510Y1131430D01*
X-457390Y1132490D01*
X-456260Y1132700D01*
X-455130Y1132280D01*
X-454330Y1131220D01*
G01X-546180Y1120000D02*
Y1132700D01*
X-542160D01*
X-540870Y1132060D01*
X-540070Y1131220D01*
X-539750Y1129520D01*
X-540070Y1127830D01*
X-541030Y1126770D01*
X-542160Y1126140D01*
X-546180D01*
G01X-542160D02*
X-539750Y1120000D01*
G01X-530020D02*
Y1132700D01*
X-531950Y1130160D01*
G01Y1120000D02*
X-528090D01*
G01X-517390D02*
X-517070Y1122750D01*
X-516580Y1125080D01*
X-515940Y1127200D01*
X-515130Y1129520D01*
X-513850Y1132700D01*
X-520280D01*
G01X-519000Y1742700D02*
Y1733600D01*
X-518360Y1731690D01*
X-517070Y1730420D01*
X-515470Y1730000D01*
X-513860Y1730420D01*
X-512570Y1731690D01*
X-511930Y1733600D01*
Y1742700D01*
G01X-501550Y1736350D02*
X-498330D01*
Y1732540D01*
X-499300Y1731270D01*
X-500420Y1730420D01*
X-502030Y1730000D01*
X-503640Y1730420D01*
X-504770Y1731270D01*
X-505730Y1732540D01*
X-506380Y1734020D01*
X-506700Y1735710D01*
Y1737200D01*
X-506380Y1738470D01*
X-505730Y1739950D01*
X-504770Y1741220D01*
X-503800Y1742060D01*
X-502520Y1742700D01*
X-501390D01*
X-500100Y1742280D01*
X-499140Y1741430D01*
G01X-493100Y1732540D02*
X-492140Y1731060D01*
X-490850Y1730210D01*
X-489400Y1730000D01*
X-488120Y1730210D01*
X-486830Y1731270D01*
X-486030Y1732540D01*
X-485870Y1733810D01*
X-486190Y1735290D01*
X-487310Y1736350D01*
X-488440Y1736770D01*
X-489890D01*
G01X-488440D02*
X-487470Y1737410D01*
X-486670Y1738470D01*
X-486350Y1739740D01*
X-486670Y1741010D01*
X-487470Y1742060D01*
X-488920Y1742700D01*
X-490370Y1742490D01*
X-491820Y1741640D01*
G01X-549490Y2155200D02*
X-545470Y2142500D01*
X-541440Y2155200D01*
G01X-536050Y2142500D02*
Y2155200D01*
X-532840D01*
X-531550Y2154560D01*
X-530580Y2153720D01*
X-529780Y2152450D01*
X-529140Y2150970D01*
X-528980Y2148850D01*
X-529140Y2146730D01*
X-529780Y2145250D01*
X-530580Y2143980D01*
X-531550Y2143130D01*
X-532840Y2142500D01*
X-536050D01*
G01X-519890D02*
X-519570Y2145250D01*
X-519080Y2147580D01*
X-518440Y2149700D01*
X-517630Y2152020D01*
X-516350Y2155200D01*
X-522780D01*
G01X-470500Y860700D02*
Y851600D01*
X-469860Y849690D01*
X-468570Y848420D01*
X-466970Y848000D01*
X-465360Y848420D01*
X-464070Y849690D01*
X-463430Y851600D01*
Y860700D01*
G01X-453050Y854350D02*
X-449830D01*
Y850540D01*
X-450800Y849270D01*
X-451920Y848420D01*
X-453530Y848000D01*
X-455140Y848420D01*
X-456270Y849270D01*
X-457230Y850540D01*
X-457880Y852020D01*
X-458200Y853710D01*
Y855200D01*
X-457880Y856470D01*
X-457230Y857950D01*
X-456270Y859220D01*
X-455300Y860060D01*
X-454020Y860700D01*
X-452890D01*
X-451600Y860280D01*
X-450640Y859430D01*
G01X-444120Y858580D02*
X-443160Y859850D01*
X-442030Y860490D01*
X-440740Y860700D01*
X-439130Y860280D01*
X-438010Y859220D01*
X-437690Y857950D01*
X-437850Y856680D01*
X-438490Y855620D01*
X-441710Y853500D01*
X-443160Y852020D01*
X-444120Y849900D01*
X-444440Y848000D01*
X-437690D01*
G01X-426180Y1120000D02*
Y1132700D01*
X-422160D01*
X-420870Y1132060D01*
X-420070Y1131220D01*
X-419750Y1129520D01*
X-420070Y1127830D01*
X-421030Y1126770D01*
X-422160Y1126140D01*
X-426180D01*
G01X-422160D02*
X-419750Y1120000D01*
G01X-410020D02*
Y1132700D01*
X-411950Y1130160D01*
G01Y1120000D02*
X-408090D01*
G01X-400600Y1121900D02*
X-399640Y1120850D01*
X-398510Y1120210D01*
X-397070Y1120000D01*
X-395620Y1120420D01*
X-394490Y1121270D01*
X-393690Y1122750D01*
X-393530Y1124440D01*
X-393850Y1126140D01*
X-394650Y1127200D01*
X-395780Y1128040D01*
X-396900Y1128250D01*
X-398030Y1128040D01*
X-399480Y1127200D01*
X-399000Y1132700D01*
X-394650D01*
G01X-366180Y1120000D02*
Y1132700D01*
X-362160D01*
X-360870Y1132060D01*
X-360070Y1131220D01*
X-359750Y1129520D01*
X-360070Y1127830D01*
X-361030Y1126770D01*
X-362160Y1126140D01*
X-366180D01*
G01X-362160D02*
X-359750Y1120000D01*
G01X-350020D02*
Y1132700D01*
X-351950Y1130160D01*
G01Y1120000D02*
X-348090D01*
G01X-335130D02*
Y1132700D01*
X-341090Y1123600D01*
X-333040D01*
G01X-242940Y1126640D02*
X-243900Y1127280D01*
X-245030Y1127700D01*
X-246310D01*
X-247760Y1127060D01*
X-248890Y1126010D01*
X-249690Y1124740D01*
X-250340Y1122620D01*
X-250500Y1120710D01*
X-250170Y1118810D01*
X-249690Y1117540D01*
X-248730Y1116270D01*
X-247600Y1115420D01*
X-246480Y1115000D01*
X-245350D01*
X-244220Y1115420D01*
X-243260Y1116060D01*
X-242450Y1116900D01*
G01X-231590Y1115000D02*
Y1127700D01*
X-237550Y1118600D01*
X-229500D01*
G01X-227190Y2500D02*
Y15200D01*
X-223170D01*
X-221880Y14560D01*
X-221080Y13720D01*
X-220760Y12020D01*
X-221080Y10330D01*
X-222040Y9270D01*
X-223170Y8640D01*
X-227190D01*
G01X-223170D02*
X-220760Y2500D01*
G01X-214560Y4400D02*
X-213600Y3350D01*
X-212470Y2710D01*
X-211030Y2500D01*
X-209580Y2920D01*
X-208450Y3770D01*
X-207650Y5250D01*
X-207490Y6940D01*
X-207810Y8640D01*
X-208610Y9700D01*
X-209740Y10540D01*
X-210860Y10750D01*
X-211990Y10540D01*
X-213440Y9700D01*
X-212960Y15200D01*
X-208610D01*
G01X-179000Y563820D02*
X-191700D01*
Y567840D01*
X-191060Y569130D01*
X-190220Y569930D01*
X-188520Y570250D01*
X-186830Y569930D01*
X-185770Y568970D01*
X-185140Y567840D01*
Y563820D01*
G01Y567840D02*
X-179000Y570250D01*
G01Y579980D02*
X-191700D01*
X-189160Y578050D01*
G01X-179000D02*
Y581910D01*
G01X-191700Y592930D02*
X-191280Y591650D01*
X-190220Y590680D01*
X-188950Y590040D01*
X-187250Y589560D01*
X-185350Y589400D01*
X-183440Y589560D01*
X-181750Y590040D01*
X-180480Y590680D01*
X-179420Y591650D01*
X-179000Y592930D01*
X-179420Y594220D01*
X-180480Y595190D01*
X-181750Y595830D01*
X-183440Y596310D01*
X-185350Y596470D01*
X-187250Y596310D01*
X-188950Y595830D01*
X-190220Y595190D01*
X-191280Y594220D01*
X-191700Y592930D01*
G01X-178520Y2025000D02*
Y2037700D01*
X-172410D01*
G01X-174660Y2031560D02*
X-178520D01*
G01X-166050Y2037700D02*
Y2028600D01*
X-165410Y2026690D01*
X-164120Y2025420D01*
X-162520Y2025000D01*
X-160910Y2025420D01*
X-159620Y2026690D01*
X-158980Y2028600D01*
Y2037700D01*
G01X-149570Y2025000D02*
Y2037700D01*
X-151500Y2035160D01*
G01Y2025000D02*
X-147640D01*
G01X-178520Y2165000D02*
Y2177700D01*
X-172410D01*
G01X-174660Y2171560D02*
X-178520D01*
G01X-166050Y2177700D02*
Y2168600D01*
X-165410Y2166690D01*
X-164120Y2165420D01*
X-162520Y2165000D01*
X-160910Y2165420D01*
X-159620Y2166690D01*
X-158980Y2168600D01*
Y2177700D01*
G01X-152620Y2175580D02*
X-151660Y2176850D01*
X-150530Y2177490D01*
X-149240Y2177700D01*
X-147630Y2177280D01*
X-146510Y2176220D01*
X-146190Y2174950D01*
X-146350Y2173680D01*
X-146990Y2172620D01*
X-150210Y2170500D01*
X-151660Y2169020D01*
X-152620Y2166900D01*
X-152940Y2165000D01*
X-146190D01*
G01X-160940Y314640D02*
X-161900Y315280D01*
X-163030Y315700D01*
X-164310D01*
X-165760Y315060D01*
X-166890Y314010D01*
X-167690Y312740D01*
X-168340Y310620D01*
X-168500Y308710D01*
X-168170Y306810D01*
X-167690Y305540D01*
X-166730Y304270D01*
X-165600Y303420D01*
X-164480Y303000D01*
X-163350D01*
X-162220Y303420D01*
X-161260Y304060D01*
X-160450Y304900D01*
G01X-154580Y308290D02*
X-153460Y309770D01*
X-152490Y310620D01*
X-151200Y311040D01*
X-150080Y310620D01*
X-149270Y309770D01*
X-148630Y308500D01*
X-148470Y307020D01*
X-148630Y305750D01*
X-149270Y304480D01*
X-150240Y303420D01*
X-151360Y303000D01*
X-152650Y303420D01*
X-153780Y304690D01*
X-154420Y306600D01*
X-154580Y308710D01*
X-154260Y311470D01*
X-153780Y312950D01*
X-152970Y314430D01*
X-151850Y315490D01*
X-150720Y315700D01*
X-149590Y315280D01*
X-148790Y314220D01*
G01X-110640Y545060D02*
X-111280Y544100D01*
X-111700Y542970D01*
Y541690D01*
X-111060Y540240D01*
X-110010Y539110D01*
X-108740Y538310D01*
X-106620Y537660D01*
X-104710Y537500D01*
X-102810Y537830D01*
X-101540Y538310D01*
X-100270Y539270D01*
X-99420Y540400D01*
X-99000Y541520D01*
Y542650D01*
X-99420Y543780D01*
X-100060Y544740D01*
X-100900Y545550D01*
G01X-99000Y554470D02*
X-99210Y555600D01*
X-99850Y556890D01*
X-100900Y557690D01*
X-102390Y558010D01*
X-103870Y557690D01*
X-105140Y556730D01*
X-105770Y555280D01*
Y553670D01*
X-106200Y552710D01*
X-107250Y551900D01*
X-108740Y551580D01*
X-110220Y552060D01*
X-111280Y553190D01*
X-111700Y554470D01*
X-111280Y555760D01*
X-110220Y556890D01*
X-108740Y557370D01*
X-107250Y557050D01*
X-106200Y556240D01*
X-105770Y555280D01*
Y553670D01*
X-105140Y552220D01*
X-103870Y551260D01*
X-102390Y550940D01*
X-100900Y551260D01*
X-99850Y552060D01*
X-99210Y553350D01*
X-99000Y554470D01*
G01X-162990Y556700D02*
X-158970Y544000D01*
X-154940Y556700D01*
G01X-149550Y544000D02*
Y556700D01*
X-146340D01*
X-145050Y556060D01*
X-144080Y555220D01*
X-143280Y553950D01*
X-142640Y552470D01*
X-142480Y550350D01*
X-142640Y548230D01*
X-143280Y546750D01*
X-144080Y545480D01*
X-145050Y544630D01*
X-146340Y544000D01*
X-149550D01*
G01X-136120Y549290D02*
X-135000Y550770D01*
X-134030Y551620D01*
X-132740Y552040D01*
X-131620Y551620D01*
X-130810Y550770D01*
X-130170Y549500D01*
X-130010Y548020D01*
X-130170Y546750D01*
X-130810Y545480D01*
X-131780Y544420D01*
X-132900Y544000D01*
X-134190Y544420D01*
X-135320Y545690D01*
X-135960Y547600D01*
X-136120Y549710D01*
X-135800Y552470D01*
X-135320Y553950D01*
X-134510Y555430D01*
X-133390Y556490D01*
X-132260Y556700D01*
X-131130Y556280D01*
X-130330Y555220D01*
G01X-157000Y645820D02*
X-169700D01*
Y649840D01*
X-169060Y651130D01*
X-168220Y651930D01*
X-166520Y652250D01*
X-164830Y651930D01*
X-163770Y650970D01*
X-163140Y649840D01*
Y645820D01*
G01Y649840D02*
X-157000Y652250D01*
G01Y661980D02*
X-169700D01*
X-167160Y660050D01*
G01X-157000D02*
Y663910D01*
G01Y674930D02*
X-169700D01*
X-167160Y673000D01*
G01X-157000D02*
Y676860D01*
G01X-135000Y645820D02*
X-147700D01*
Y649840D01*
X-147060Y651130D01*
X-146220Y651930D01*
X-144520Y652250D01*
X-142830Y651930D01*
X-141770Y650970D01*
X-141140Y649840D01*
Y645820D01*
G01Y649840D02*
X-135000Y652250D01*
G01Y661980D02*
X-147700D01*
X-145160Y660050D01*
G01X-135000D02*
Y663910D01*
G01X-145580Y671880D02*
X-146850Y672840D01*
X-147490Y673970D01*
X-147700Y675260D01*
X-147280Y676870D01*
X-146220Y677990D01*
X-144950Y678310D01*
X-143680Y678150D01*
X-142620Y677510D01*
X-140500Y674290D01*
X-139020Y672840D01*
X-136900Y671880D01*
X-135000Y671560D01*
Y678310D01*
G01X-90940Y654640D02*
X-91900Y655280D01*
X-93030Y655700D01*
X-94310D01*
X-95760Y655060D01*
X-96890Y654010D01*
X-97690Y652740D01*
X-98340Y650620D01*
X-98500Y648710D01*
X-98170Y646810D01*
X-97690Y645540D01*
X-96730Y644270D01*
X-95600Y643420D01*
X-94480Y643000D01*
X-93350D01*
X-92220Y643420D01*
X-91260Y644060D01*
X-90450Y644900D01*
G01X-84260Y644480D02*
X-83130Y643420D01*
X-81850Y643000D01*
X-80560Y643420D01*
X-79430Y644690D01*
X-78630Y646600D01*
X-78310Y648500D01*
Y650830D01*
X-78630Y652740D01*
X-79430Y654430D01*
X-80400Y655280D01*
X-81530Y655700D01*
X-82810Y655280D01*
X-83780Y654430D01*
X-84420Y653160D01*
X-84740Y651470D01*
X-84420Y649990D01*
X-83620Y648500D01*
X-82650Y647660D01*
X-81530Y647440D01*
X-80240Y647870D01*
X-79270Y648930D01*
X-78310Y650830D01*
G01X-124700Y647010D02*
X-112000Y651030D01*
X-124700Y655060D01*
G01X-112000Y660450D02*
X-124700D01*
Y663660D01*
X-124060Y664950D01*
X-123220Y665920D01*
X-121950Y666720D01*
X-120470Y667360D01*
X-118350Y667520D01*
X-116230Y667360D01*
X-114750Y666720D01*
X-113480Y665920D01*
X-112630Y664950D01*
X-112000Y663660D01*
Y660450D01*
G01X-122580Y673880D02*
X-123850Y674840D01*
X-124490Y675970D01*
X-124700Y677260D01*
X-124280Y678870D01*
X-123220Y679990D01*
X-121950Y680310D01*
X-120680Y680150D01*
X-119620Y679510D01*
X-117500Y676290D01*
X-116020Y674840D01*
X-113900Y673880D01*
X-112000Y673560D01*
Y680310D01*
G01X-105640Y816050D02*
Y828750D01*
X-101620D01*
X-100330Y828110D01*
X-99530Y827270D01*
X-99210Y825570D01*
X-99530Y823880D01*
X-100490Y822820D01*
X-101620Y822190D01*
X-105640D01*
G01X-101620D02*
X-99210Y816050D01*
G01X-92530Y826630D02*
X-91570Y827900D01*
X-90440Y828540D01*
X-89150Y828750D01*
X-87540Y828330D01*
X-86420Y827270D01*
X-86100Y826000D01*
X-86260Y824730D01*
X-86900Y823670D01*
X-90120Y821550D01*
X-91570Y820070D01*
X-92530Y817950D01*
X-92850Y816050D01*
X-86100D01*
G01X-168940Y828750D02*
X-164920Y816050D01*
X-160890Y828750D01*
G01X-151970D02*
Y816050D01*
G01X-155660Y828750D02*
X-148270D01*
G01X-139020Y816050D02*
Y828750D01*
X-140950Y826210D01*
G01Y816050D02*
X-137090D01*
G01X-144940Y1393640D02*
X-145900Y1394280D01*
X-147030Y1394700D01*
X-148310D01*
X-149760Y1394060D01*
X-150890Y1393010D01*
X-151690Y1391740D01*
X-152340Y1389620D01*
X-152500Y1387710D01*
X-152170Y1385810D01*
X-151690Y1384540D01*
X-150730Y1383270D01*
X-149600Y1382420D01*
X-148480Y1382000D01*
X-147350D01*
X-146220Y1382420D01*
X-145260Y1383060D01*
X-144450Y1383900D01*
G01X-138580Y1392580D02*
X-137620Y1393850D01*
X-136490Y1394490D01*
X-135200Y1394700D01*
X-133590Y1394280D01*
X-132470Y1393220D01*
X-132150Y1391950D01*
X-132310Y1390680D01*
X-132950Y1389620D01*
X-136170Y1387500D01*
X-137620Y1386020D01*
X-138580Y1383900D01*
X-138900Y1382000D01*
X-132150D01*
G01X-110890Y1357840D02*
X-111850Y1358480D01*
X-112980Y1358900D01*
X-114260D01*
X-115710Y1358260D01*
X-116840Y1357210D01*
X-117640Y1355940D01*
X-118290Y1353820D01*
X-118450Y1351910D01*
X-118120Y1350010D01*
X-117640Y1348740D01*
X-116680Y1347470D01*
X-115550Y1346620D01*
X-114430Y1346200D01*
X-113300D01*
X-112170Y1346620D01*
X-111210Y1347260D01*
X-110400Y1348100D01*
G01X-101480Y1346200D02*
Y1358900D01*
X-103410Y1356360D01*
G01Y1346200D02*
X-99550D01*
G01X-24690Y278340D02*
X-25650Y278980D01*
X-26780Y279400D01*
X-28060D01*
X-29510Y278760D01*
X-30640Y277710D01*
X-31440Y276440D01*
X-32090Y274320D01*
X-32250Y272410D01*
X-31920Y270510D01*
X-31440Y269240D01*
X-30480Y267970D01*
X-29350Y267120D01*
X-28230Y266700D01*
X-27100D01*
X-25970Y267120D01*
X-25010Y267760D01*
X-24200Y268600D01*
G01X-18810D02*
X-17850Y267550D01*
X-16720Y266910D01*
X-15280Y266700D01*
X-13830Y267120D01*
X-12700Y267970D01*
X-11900Y269450D01*
X-11740Y271140D01*
X-12060Y272840D01*
X-12860Y273900D01*
X-13990Y274740D01*
X-15110Y274950D01*
X-16240Y274740D01*
X-17690Y273900D01*
X-17210Y279400D01*
X-12860D01*
G01X-38000Y538310D02*
X-50700D01*
Y542330D01*
X-50060Y543620D01*
X-49220Y544420D01*
X-47520Y544740D01*
X-45830Y544420D01*
X-44770Y543460D01*
X-44140Y542330D01*
Y538310D01*
G01Y542330D02*
X-38000Y544740D01*
G01X-39480Y551740D02*
X-38420Y552870D01*
X-38000Y554150D01*
X-38420Y555440D01*
X-39690Y556570D01*
X-41600Y557370D01*
X-43500Y557690D01*
X-45830D01*
X-47740Y557370D01*
X-49430Y556570D01*
X-50280Y555600D01*
X-50700Y554470D01*
X-50280Y553190D01*
X-49430Y552220D01*
X-48160Y551580D01*
X-46470Y551260D01*
X-44990Y551580D01*
X-43500Y552380D01*
X-42660Y553350D01*
X-42440Y554470D01*
X-42870Y555760D01*
X-43930Y556730D01*
X-45830Y557690D01*
G01X-29690Y508700D02*
Y496000D01*
X-23260D01*
G01X-16580Y506580D02*
X-15620Y507850D01*
X-14490Y508490D01*
X-13200Y508700D01*
X-11590Y508280D01*
X-10470Y507220D01*
X-10150Y505950D01*
X-10310Y504680D01*
X-10950Y503620D01*
X-14170Y501500D01*
X-15620Y500020D01*
X-16580Y497900D01*
X-16900Y496000D01*
X-10150D01*
G01X-90500Y540000D02*
Y552700D01*
X-87290D01*
X-86000Y552060D01*
X-85030Y551220D01*
X-84230Y549950D01*
X-83590Y548470D01*
X-83430Y546350D01*
X-83590Y544230D01*
X-84230Y542750D01*
X-85030Y541480D01*
X-86000Y540630D01*
X-87290Y540000D01*
X-90500D01*
G01X-77550D02*
Y552700D01*
X-74340D01*
X-73050Y552060D01*
X-72080Y551220D01*
X-71280Y549950D01*
X-70640Y548470D01*
X-70480Y546350D01*
X-70640Y544230D01*
X-71280Y542750D01*
X-72080Y541480D01*
X-73050Y540630D01*
X-74340Y540000D01*
X-77550D01*
G01X-61070D02*
Y552700D01*
X-63000Y550160D01*
G01Y540000D02*
X-59140D01*
G01X-55000Y612180D02*
X-62870D01*
Y614620D01*
X-62480Y615400D01*
X-61950Y615880D01*
X-60900Y616080D01*
X-59850Y615880D01*
X-59200Y615300D01*
X-58800Y614620D01*
Y612180D01*
G01Y614620D02*
X-55000Y616080D01*
G01Y622000D02*
X-62870D01*
X-61300Y620830D01*
G01X-55000D02*
Y623170D01*
G01X-56570Y627730D02*
X-55660Y628310D01*
X-55130Y629090D01*
X-55000Y629970D01*
X-55130Y630750D01*
X-55790Y631520D01*
X-56570Y632010D01*
X-57360Y632110D01*
X-58280Y631910D01*
X-58930Y631230D01*
X-59200Y630550D01*
Y629680D01*
G01Y630550D02*
X-59590Y631140D01*
X-60250Y631620D01*
X-61030Y631820D01*
X-61820Y631620D01*
X-62480Y631140D01*
X-62870Y630260D01*
X-62740Y629380D01*
X-62210Y628510D01*
G01X-93690Y659000D02*
Y671700D01*
X-89670D01*
X-88380Y671060D01*
X-87580Y670220D01*
X-87260Y668520D01*
X-87580Y666830D01*
X-88540Y665770D01*
X-89670Y665140D01*
X-93690D01*
G01X-89670D02*
X-87260Y659000D01*
G01X-77530D02*
X-76400Y659210D01*
X-75110Y659850D01*
X-74310Y660900D01*
X-73990Y662390D01*
X-74310Y663870D01*
X-75270Y665140D01*
X-76720Y665770D01*
X-78330D01*
X-79290Y666200D01*
X-80100Y667250D01*
X-80420Y668740D01*
X-79940Y670220D01*
X-78810Y671280D01*
X-77530Y671700D01*
X-76240Y671280D01*
X-75110Y670220D01*
X-74630Y668740D01*
X-74950Y667250D01*
X-75760Y666200D01*
X-76720Y665770D01*
X-78330D01*
X-79780Y665140D01*
X-80740Y663870D01*
X-81060Y662390D01*
X-80740Y660900D01*
X-79940Y659850D01*
X-78650Y659210D01*
X-77530Y659000D01*
G01X-93690Y676000D02*
Y688700D01*
X-89670D01*
X-88380Y688060D01*
X-87580Y687220D01*
X-87260Y685520D01*
X-87580Y683830D01*
X-88540Y682770D01*
X-89670Y682140D01*
X-93690D01*
G01X-89670D02*
X-87260Y676000D01*
G01X-77850D02*
X-77530Y678750D01*
X-77040Y681080D01*
X-76400Y683200D01*
X-75590Y685520D01*
X-74310Y688700D01*
X-80740D01*
G01X-90440Y711600D02*
X-86420Y724300D01*
X-82390Y711600D01*
G01X-83840Y716040D02*
X-88990D01*
G01X-77490Y724300D02*
X-73470Y711600D01*
X-69440Y724300D01*
G01X-60520Y711600D02*
Y724300D01*
X-62450Y721760D01*
G01Y711600D02*
X-58590D01*
G01X-80890Y760690D02*
X-81850Y761330D01*
X-82980Y761750D01*
X-84260D01*
X-85710Y761110D01*
X-86840Y760060D01*
X-87640Y758790D01*
X-88290Y756670D01*
X-88450Y754760D01*
X-88120Y752860D01*
X-87640Y751590D01*
X-86680Y750320D01*
X-85550Y749470D01*
X-84430Y749050D01*
X-83300D01*
X-82170Y749470D01*
X-81210Y750110D01*
X-80400Y750950D01*
G01X-71800Y749050D02*
X-71480Y751800D01*
X-70990Y754130D01*
X-70350Y756250D01*
X-69540Y758570D01*
X-68260Y761750D01*
X-74690D01*
G01X-66840Y1041400D02*
Y1054100D01*
X-62820D01*
X-61530Y1053460D01*
X-60730Y1052620D01*
X-60410Y1050920D01*
X-60730Y1049230D01*
X-61690Y1048170D01*
X-62820Y1047540D01*
X-66840D01*
G01X-62820D02*
X-60410Y1041400D01*
G01X-54210Y1043940D02*
X-53250Y1042460D01*
X-51960Y1041610D01*
X-50510Y1041400D01*
X-49230Y1041610D01*
X-47940Y1042670D01*
X-47140Y1043940D01*
X-46980Y1045210D01*
X-47300Y1046690D01*
X-48420Y1047750D01*
X-49550Y1048170D01*
X-51000D01*
G01X-49550D02*
X-48580Y1048810D01*
X-47780Y1049870D01*
X-47460Y1051140D01*
X-47780Y1052410D01*
X-48580Y1053460D01*
X-50030Y1054100D01*
X-51480Y1053890D01*
X-52930Y1053040D01*
G01X-66840Y1162050D02*
Y1174750D01*
X-62820D01*
X-61530Y1174110D01*
X-60730Y1173270D01*
X-60410Y1171570D01*
X-60730Y1169880D01*
X-61690Y1168820D01*
X-62820Y1168190D01*
X-66840D01*
G01X-62820D02*
X-60410Y1162050D01*
G01X-50680D02*
Y1174750D01*
X-52610Y1172210D01*
G01Y1162050D02*
X-48750D01*
G01X-92240Y1606550D02*
Y1593850D01*
X-85810D01*
G01X-76080D02*
Y1606550D01*
X-78010Y1604010D01*
G01Y1593850D02*
X-74150D01*
G01X-46850Y2072000D02*
X-40100Y2084700D01*
G01X-46850D02*
X-40100Y2072000D01*
G01X-33580Y2082580D02*
X-32620Y2083850D01*
X-31490Y2084490D01*
X-30200Y2084700D01*
X-28590Y2084280D01*
X-27470Y2083220D01*
X-27150Y2081950D01*
X-27310Y2080680D01*
X-27950Y2079620D01*
X-31170Y2077500D01*
X-32620Y2076020D01*
X-33580Y2073900D01*
X-33900Y2072000D01*
X-27150D01*
G01X4300Y560010D02*
X17000Y564030D01*
X4300Y568060D01*
G01X17000Y573450D02*
X4300D01*
Y576660D01*
X4940Y577950D01*
X5780Y578920D01*
X7050Y579720D01*
X8530Y580360D01*
X10650Y580520D01*
X12770Y580360D01*
X14250Y579720D01*
X15520Y578920D01*
X16370Y577950D01*
X17000Y576660D01*
Y573450D01*
G01X15100Y586400D02*
X16150Y587360D01*
X16790Y588490D01*
X17000Y589930D01*
X16580Y591380D01*
X15730Y592510D01*
X14250Y593310D01*
X12560Y593470D01*
X10860Y593150D01*
X9800Y592350D01*
X8960Y591220D01*
X8750Y590100D01*
X8960Y588970D01*
X9800Y587520D01*
X4300Y588000D01*
Y592350D01*
G01Y609010D02*
X17000Y613030D01*
X4300Y617060D01*
G01Y625980D02*
X17000D01*
G01X4300Y622290D02*
Y629680D01*
G01X6420Y635880D02*
X5150Y636840D01*
X4510Y637970D01*
X4300Y639260D01*
X4720Y640870D01*
X5780Y641990D01*
X7050Y642310D01*
X8320Y642150D01*
X9380Y641510D01*
X11500Y638290D01*
X12980Y636840D01*
X15100Y635880D01*
X17000Y635560D01*
Y642310D01*
G01X4300Y656010D02*
X17000Y660030D01*
X4300Y664060D01*
G01X17000Y669450D02*
X4300D01*
Y672660D01*
X4940Y673950D01*
X5780Y674920D01*
X7050Y675720D01*
X8530Y676360D01*
X10650Y676520D01*
X12770Y676360D01*
X14250Y675720D01*
X15520Y674920D01*
X16370Y673950D01*
X17000Y672660D01*
Y669450D01*
G01Y687870D02*
X4300D01*
X13400Y681910D01*
Y689960D01*
G01X-15640Y800050D02*
Y812750D01*
X-11620D01*
X-10330Y812110D01*
X-9530Y811270D01*
X-9210Y809570D01*
X-9530Y807880D01*
X-10490Y806820D01*
X-11620Y806190D01*
X-15640D01*
G01X-11620D02*
X-9210Y800050D01*
G01X2460D02*
Y812750D01*
X-3500Y803650D01*
X4550D01*
G54D15*
G01X-655770Y67850D02*
G03I-4005J0D01*
G01X-339520Y1951450D02*
G03I-4005J0D01*
M02*
