G04 ================== begin FILE IDENTIFICATION RECORD ==================*
G04 Layout Name:  D:/Project/Circuit/BP2/BP2_02v4/pcb/BP2_02V4.brd*
G04 Film Name:    BOTTOM*
G04 File Format:  Gerber RS274X*
G04 File Origin:  Cadence Allegro 16.6-S040*
G04 Origin Date:  Fri Mar 13 12:49:00 2015*
G04 *
G04 Layer:  ETCH/BOTTOM*
G04 Layer:  PIN/BOTTOM*
G04 Layer:  VIA CLASS/BOTTOM*
G04 *
G04 Offset:    (0.000 0.000)*
G04 Mirror:    No*
G04 Mode:      Positive*
G04 Rotation:  0*
G04 FullContactRelief:  No*
G04 UndefLineWidth:     0.250*
G04 ================== end FILE IDENTIFICATION RECORD ====================*
%FSLAX34Y34*MOMM*%
%IR0*IPPOS*OFA0.00000B0.00000*MIA0B0*SFA1.00000B1.00000*%
%ADD10C,1.*%
%ADD19C,2.1*%
%ADD15C,2.3*%
%ADD20C,1.5*%
%ADD11C,2.4*%
%ADD17C,2.7*%
%ADD14C,4.5*%
%ADD16R,2.3X2.3*%
%ADD13C,1.65*%
%ADD21R,1.5X1.5*%
%ADD12R,2.4X2.4*%
%ADD18R,2.7X2.7*%
%ADD22C,2.5*%
%ADD23C,.5*%
G75*
%LPD*%
G75*
G36*
G01X-50800Y704850D02*
G02X-38100Y717550I12700J0D01*
G01X6350D01*
G02X19050Y704850I0J-12700D01*
G01Y571500D01*
G02X-6350Y546100I-25400J0D01*
G01X-158750D01*
G02X-184150Y571500I0J25400D01*
G01Y622300D01*
G02X-158750Y647700I25400J0D01*
G01X-152400D01*
G03X-139700Y660400I0J12700D01*
G01Y679450D01*
G02X-127000Y692150I12700J0D01*
G01X-63500D01*
G03X-50800Y704850I0J12700D01*
G37*
G36*
G01X6350Y781050D02*
G02X-6350Y768350I-12700J0D01*
G01X-114300D01*
G02X-127000Y781050I0J12700D01*
G01Y812800D01*
G02X-114300Y825500I12700J0D01*
G01X-6350D01*
G02X6350Y812800I0J-12700D01*
G01Y781050D01*
G37*
G54D10*
G01X-19050Y552450D02*
X4490Y528910D01*
G02X6350Y524420I-4490J-4490D01*
G01Y256630D01*
G02X4490Y252140I-6350J0D01*
G01X-23540Y224110D01*
G02X-28030Y222250I-4490J4490D01*
G01X-120650D01*
G01X-127000Y825500D02*
X-114300Y812800D01*
X-889200Y0D03*
Y2222500D03*
X-463550Y6350D03*
X-215900Y1371600D03*
Y1397000D03*
X-88900Y0D03*
X-139700Y285750D03*
Y260350D03*
X-129700Y596900D03*
X-163900Y597350D03*
X-129700Y673100D03*
Y647700D03*
X-88900Y1047750D03*
Y2222500D03*
X-41750Y571500D03*
X-44450Y660400D03*
X-57150D03*
X-69850D03*
X-38100Y793750D03*
X2700Y596900D03*
Y571500D03*
X-6350Y793750D03*
G54D11*
X-863800Y177400D03*
X-914600Y228200D03*
X-863800Y279000D03*
X-914600Y329800D03*
X-863800Y380600D03*
Y482200D03*
X-914600Y431400D03*
Y533000D03*
X-863800Y583800D03*
X-914600Y634600D03*
X-863800Y685400D03*
Y787000D03*
X-914600Y736200D03*
Y837800D03*
G54D20*
X-196450Y1295400D03*
X-120250Y177800D03*
G54D12*
X-914600Y126600D03*
G54D21*
X-146450Y1295400D03*
X-70250Y177800D03*
G54D22*
G01X-914600Y126600D02*
X-863800Y177400D01*
G01D02*
X-745410Y59010D01*
G03X-740920Y57150I4490J4490D01*
G01X-463550D01*
G01X-914600Y533000D02*
X-863800Y482200D01*
G01D02*
X-765030D01*
G03X-760540Y484060I0J6350D01*
G01X-605110Y639490D01*
G02X-600620Y641350I4490J-4490D01*
G01X-313780D01*
G03X-309290Y643210I0J6350D01*
G01X-127000Y825500D01*
G01X-584200Y940600D02*
X-585000Y939800D01*
X-695870D01*
G03X-700360Y937940I0J-6350D01*
G01X-734740Y903560D01*
G03X-736600Y899070I4490J-4490D01*
G01Y802730D01*
G02X-738460Y798240I-6350J0D01*
G01X-776020Y760680D01*
G03X-777880Y756190I4490J-4490D01*
G01Y710650D01*
G02X-779740Y706160I-6350J0D01*
G01X-798640Y687260D01*
G02X-803130Y685400I-4490J4490D01*
G01X-863800D01*
G01X-437500Y2032000D02*
X-835570D01*
G03X-840060Y2030140I0J-6350D01*
G01X-912540Y1957660D01*
G03X-914400Y1953170I4490J-4490D01*
G01Y967830D01*
G03X-912540Y963340I6350J0D01*
G01X-839960Y890760D01*
G02X-838100Y886270I-4490J-4490D01*
G01Y815330D01*
G02X-839960Y810840I-6350J0D01*
G01X-863800Y787000D01*
G01X-120250Y177800D02*
X-607170D01*
G03X-611660Y175940I0J-6350D01*
G01X-660400Y127200D01*
G01X-584200Y1040600D02*
Y1140570D01*
G03X-586060Y1145060I-6350J0D01*
G01X-673100Y1232100D01*
G01X-584200Y787200D02*
Y940600D01*
G01X-519900D02*
X-584200D01*
G01X-519900D02*
X-304800D01*
G01X-419100Y1232100D02*
Y1044030D01*
G02X-420960Y1039540I-6350J0D01*
G01X-519900Y940600D01*
G01X-463550Y57150D02*
X-243530D01*
G03X-239040Y59010I0J6350D01*
G01X-120250Y177800D01*
G01X-376500Y2032000D02*
X-437500D01*
G01X-342900Y1892100D02*
Y1711180D01*
G03X-341040Y1706690I6350J0D01*
G01X-217760Y1583410D01*
G02X-215900Y1578920I-4490J-4490D01*
G01Y1397000D01*
G01X-259500Y2032000D02*
X-198500D01*
G01X-259500Y2171700D02*
X-198500D01*
G01X-196450Y1295400D02*
Y1259530D01*
G03X-194590Y1255040I6350J0D01*
G01X-128860Y1189310D01*
G02X-127000Y1184820I-4490J-4490D01*
G01Y1047750D01*
G01X-215900Y1371600D02*
Y1317480D01*
G03X-214040Y1312990I6350J0D01*
G01X-196450Y1295400D01*
G01X-215900Y1371600D02*
Y1397000D01*
G01X-82550Y1770380D02*
X-116750D01*
G02X-121240Y1772240I0J6350D01*
G01X-196640Y1847640D01*
G02X-198500Y1852130I4490J4490D01*
G01Y2032000D01*
G01Y2171700D02*
X-84200Y2057400D01*
X-82550D01*
Y2024380D01*
G01X-120250Y177800D02*
Y221850D01*
X-120650Y222250D01*
G01X-139700Y260350D02*
Y285750D01*
G01X-120650Y222250D02*
X-137840Y239440D01*
G02X-139700Y243930I4490J4490D01*
G01Y260350D01*
G01X-127000Y1047750D02*
Y825500D01*
G01X-82550Y1821180D02*
Y1770380D01*
G01Y1973580D02*
Y2024380D01*
G54D13*
X-787400Y1042000D03*
Y1117000D03*
G54D23*
G01X-463550Y6350D02*
Y57150D01*
G01X-88900Y1047750D02*
X-127000D01*
G54D14*
X-721100Y1562100D03*
X-632200Y457200D03*
X-371100Y1562100D03*
X-282200Y457200D03*
G54D15*
X-749300Y1892100D03*
X-673100Y1232100D03*
X-647700Y1892100D03*
X-558800Y127200D03*
X-584200Y787200D03*
X-546100Y1892100D03*
X-457200Y127200D03*
X-419100Y1232100D03*
X-444500Y1892100D03*
X-355600Y127200D03*
X-330200Y787200D03*
X-254000Y127200D03*
X-82550Y1821180D03*
Y1922780D03*
Y1871980D03*
Y1973580D03*
Y2024380D03*
G54D16*
X-660400Y127200D03*
X-342900Y1892100D03*
X-82550Y1770380D03*
G54D17*
X-584200Y940600D03*
X-304800D03*
G54D18*
X-584200Y1040600D03*
X-304800D03*
G54D19*
X-437500Y2032000D03*
Y2171700D03*
X-376500Y2032000D03*
Y2171700D03*
X-259500Y2032000D03*
Y2171700D03*
X-198500Y2032000D03*
Y2171700D03*
M02*
