M48
METRIC,TZ
T01C.5
T02C.8
T03C1.05
T04C1.4
T05C1.6
T06C2.
T07C4.5
T08C2.8
;LEADER: 12 
;HEADER: 
;CODE  : ASCII 
;FILE  : BP2_02V4-1-2.drl for  ... layers TOP and BOTTOM
;DESIGN: BP2_02V4.brd
;T01 Holesize 1. = 0.500000 Tolerance = +0.000000/-0.000000 PLATED MM Quantity = 18
;T02 Holesize 2. = 0.800000 Tolerance = +0.000000/-0.000000 PLATED MM Quantity = 4
;T03 Holesize 3. = 1.050000 Tolerance = +0.000000/-0.000000 PLATED MM Quantity = 2
;T04 Holesize 4. = 1.400000 Tolerance = +0.000000/-0.000000 PLATED MM Quantity = 8
;T05 Holesize 5. = 1.600000 Tolerance = +0.000000/-0.000000 PLATED MM Quantity = 35
;T06 Holesize 6. = 2.000000 Tolerance = +0.000000/-0.000000 PLATED MM Quantity = 4
;T07 Holesize 7. = 4.500000 Tolerance = +0.000000/-0.000000 PLATED MM Quantity = 4
;T08 Holesize 8. = 2.800000 Tolerance = +0.100000/-0.100000 NON_PLATED MM Quantity = 6
%
G90
T01
X-463550Y6350
X-41750Y571500
X2700
Y596900
X-69850Y660400
X-129700Y647700
Y673100
X-163900Y597350
X-129700Y596900
X-57150Y660400
X-44450
X-139700Y260350
Y285750
X-88900Y1047750
X-38100Y793750
X-215900Y1397000
X-6350Y793750
X-215900Y1371600
T02
X-146450Y1295400
X-196450
X-70250Y177800
X-120250
T03
X-787400Y1117000
Y1042000
T04
X-198500Y2032000
X-259500
X-376500
X-437500
X-198500Y2171700
X-259500
X-376500
X-437500
T05
X-342900Y1892100
R04X-101600
X-673100Y1232100
X-419100
X-660400Y127200
R04X101600
X-330200Y787200
X-584200
X-914600Y126600
X-863800Y177400
X-914600Y228200
X-863800Y279000
X-914600Y329800
X-863800Y380600
X-914600Y431400
X-863800Y482200
X-914600Y533000
X-863800Y583800
X-914600Y634600
X-863800Y685400
X-914600Y736200
X-863800Y787000
X-914600Y837800
X-82550Y1770380
R05Y50800
T06
X-584200Y1040600
Y940600
X-304800Y1040600
Y940600
T07
X-371100Y1562100
X-721100
X-632200Y457200
X-282200
T08
X-965400Y889000
Y0
X0Y889000
X0Y1333500
X0Y2222500
X0Y0
M30
