G04 ================== begin FILE IDENTIFICATION RECORD ==================*
G04 Layout Name:  D:/Project/Circuit/BP2/BP2_02v4/pcb/BP2_02V4.brd*
G04 Film Name:    MASK_TOP*
G04 File Format:  Gerber RS274X*
G04 File Origin:  Cadence Allegro 16.6-S040*
G04 Origin Date:  Fri Mar 13 12:49:00 2015*
G04 *
G04 Layer:  VIA CLASS/SOLDERMASK_TOP*
G04 Layer:  PIN/SOLDERMASK_TOP*
G04 Layer:  PACKAGE GEOMETRY/SOLDERMASK_TOP*
G04 *
G04 Offset:    (0.000 0.000)*
G04 Mirror:    No*
G04 Mode:      Positive*
G04 Rotation:  0*
G04 FullContactRelief:  No*
G04 UndefLineWidth:     0.000*
G04 ================== end FILE IDENTIFICATION RECORD ====================*
%FSLAX34Y34*MOMM*%
%IR0*IPPOS*OFA0.00000B0.00000*MIA0B0*SFA1.00000B1.00000*%
%ADD35R,.8X1.2*%
%ADD33O,.84X2.*%
%ADD26R,1.2X.8*%
%ADD10C,3.*%
%ADD32R,.84X2.*%
%ADD21C,2.3*%
%ADD16C,2.5*%
%ADD23C,1.7*%
%ADD11C,2.6*%
%ADD15C,4.5*%
%ADD18C,2.9*%
%ADD31R,.8X1.75*%
%ADD22R,1.75X.8*%
%ADD17R,2.5X2.5*%
%ADD13C,1.85*%
%ADD30R,1.7X1.7*%
%ADD12R,2.6X2.6*%
%ADD29R,1.6X1.3*%
%ADD27R,1.3X1.6*%
%ADD20R,1.4X3.6*%
%ADD34R,1.65X1.4*%
%ADD25R,9.2X4.2*%
%ADD24R,1.4X2.9*%
%ADD28R,1.4X1.65*%
%ADD14R,3.4X2.46*%
%ADD19R,2.46X3.4*%
%LPD*%
G75*
G54D10*
X-889200Y0D03*
Y2222500D03*
X-88900D03*
G54D20*
X-436900Y6350D03*
X-375900D03*
X-309900D03*
X-248900D03*
X-87650Y1079500D03*
X-26650D03*
Y1136650D03*
X-87650D03*
G54D11*
X-863800Y177400D03*
X-914600Y228200D03*
X-863800Y279000D03*
X-914600Y329800D03*
X-863800Y380600D03*
Y482200D03*
X-914600Y431400D03*
Y533000D03*
X-863800Y583800D03*
X-914600Y634600D03*
X-863800Y685400D03*
Y787000D03*
X-914600Y736200D03*
Y837800D03*
G54D12*
Y126600D03*
G54D30*
X-146450Y1295400D03*
X-70250Y177800D03*
G54D21*
X-437500Y2032000D03*
Y2171700D03*
X-376500Y2032000D03*
Y2171700D03*
X-259500Y2032000D03*
Y2171700D03*
X-198500Y2032000D03*
Y2171700D03*
G54D13*
X-787400Y1042000D03*
Y1117000D03*
G54D22*
X-179400Y774700D03*
Y787400D03*
Y800100D03*
Y812800D03*
X-125400Y787400D03*
Y774700D03*
Y812800D03*
Y800100D03*
G54D31*
X-38100Y627050D03*
X-50800D03*
X-63500D03*
X-76200D03*
Y681050D03*
X-63500D03*
X-50800D03*
X-38100D03*
G54D14*
X-755650Y879900D03*
Y948900D03*
G54D23*
X-196450Y1295400D03*
X-120250Y177800D03*
G54D32*
X-31750Y711700D03*
G54D24*
X-198900Y1384300D03*
X-169400D03*
X-122700Y273050D03*
X-93200D03*
G54D15*
X-721100Y1562100D03*
X-632200Y457200D03*
X-371100Y1562100D03*
X-282200Y457200D03*
G54D33*
X-31750Y774200D03*
X-19050D03*
X-6350Y711700D03*
Y774200D03*
G54D25*
X-165100Y1438600D03*
Y1622100D03*
X-88900Y327350D03*
Y510850D03*
G54D34*
X-57150Y778650D03*
Y796150D03*
G54D16*
X-749300Y1892100D03*
X-673100Y1232100D03*
X-647700Y1892100D03*
X-558800Y127200D03*
X-584200Y787200D03*
X-546100Y1892100D03*
X-457200Y127200D03*
X-419100Y1232100D03*
X-444500Y1892100D03*
X-355600Y127200D03*
X-330200Y787200D03*
X-254000Y127200D03*
X-82550Y1821180D03*
Y1922780D03*
Y1871980D03*
Y1973580D03*
Y2024380D03*
G54D17*
X-660400Y127200D03*
X-342900Y1892100D03*
X-82550Y1770380D03*
G54D26*
X-140900Y577850D03*
X-163900Y568350D03*
Y587350D03*
G54D35*
X-6350Y678250D03*
X3150Y655250D03*
X-15850D03*
G54D27*
X-143150Y622300D03*
X-161650D03*
X-117200D03*
X-98700D03*
X-117200Y571500D03*
X-98700D03*
Y596900D03*
X-117200D03*
X-98700Y673100D03*
X-117200D03*
X-54250Y596900D03*
X-72750D03*
X-15600Y622300D03*
X-34650Y812800D03*
X-16150D03*
X2900Y622300D03*
G54D18*
X-584200Y940600D03*
Y1040600D03*
X-304800Y940600D03*
Y1040600D03*
G54D19*
X-593300Y2171700D03*
X-524300D03*
G54D28*
X-116700Y647700D03*
X-99200D03*
X-27800Y596900D03*
Y571500D03*
X-54750D03*
X-72250D03*
X-10300Y596900D03*
Y571500D03*
G54D29*
X-88900Y790850D03*
Y809350D03*
M02*
