G04 ================== begin FILE IDENTIFICATION RECORD ==================*
G04 Layout Name:  D:/Project/Circuit/BP2/BP2_02v4/pcb/BP2_02V4.brd*
G04 Film Name:    MASK_BOT*
G04 File Format:  Gerber RS274X*
G04 File Origin:  Cadence Allegro 16.6-S040*
G04 Origin Date:  Fri Mar 13 12:49:00 2015*
G04 *
G04 Layer:  VIA CLASS/SOLDERMASK_BOTTOM*
G04 Layer:  PIN/SOLDERMASK_BOTTOM*
G04 Layer:  PACKAGE GEOMETRY/SOLDERMASK_BOTTOM*
G04 *
G04 Offset:    (0.000 0.000)*
G04 Mirror:    No*
G04 Mode:      Positive*
G04 Rotation:  0*
G04 FullContactRelief:  No*
G04 UndefLineWidth:     0.000*
G04 ================== end FILE IDENTIFICATION RECORD ====================*
%FSLAX34Y34*MOMM*%
%IR0*IPPOS*OFA0.00000B0.00000*MIA0B0*SFA1.00000B1.00000*%
%ADD10C,3.*%
%ADD18C,2.3*%
%ADD15C,2.5*%
%ADD19C,1.7*%
%ADD11C,2.6*%
%ADD14C,4.5*%
%ADD17C,2.9*%
%ADD16R,2.5X2.5*%
%ADD13C,1.85*%
%ADD20R,1.7X1.7*%
%ADD12R,2.6X2.6*%
%LPD*%
G75*
G54D10*
X-889200Y0D03*
Y2222500D03*
X-88900Y0D03*
Y2222500D03*
G54D20*
X-146450Y1295400D03*
X-70250Y177800D03*
G54D11*
X-863800Y177400D03*
X-914600Y228200D03*
X-863800Y279000D03*
X-914600Y329800D03*
X-863800Y380600D03*
Y482200D03*
X-914600Y431400D03*
Y533000D03*
X-863800Y583800D03*
X-914600Y634600D03*
X-863800Y685400D03*
Y787000D03*
X-914600Y736200D03*
Y837800D03*
G54D12*
Y126600D03*
G54D13*
X-787400Y1042000D03*
Y1117000D03*
G54D14*
X-721100Y1562100D03*
X-632200Y457200D03*
X-371100Y1562100D03*
X-282200Y457200D03*
G54D15*
X-749300Y1892100D03*
X-673100Y1232100D03*
X-647700Y1892100D03*
X-558800Y127200D03*
X-584200Y787200D03*
X-546100Y1892100D03*
X-457200Y127200D03*
X-419100Y1232100D03*
X-444500Y1892100D03*
X-355600Y127200D03*
X-330200Y787200D03*
X-254000Y127200D03*
X-82550Y1821180D03*
Y1922780D03*
Y1871980D03*
Y1973580D03*
Y2024380D03*
G54D16*
X-660400Y127200D03*
X-342900Y1892100D03*
X-82550Y1770380D03*
G54D17*
X-584200Y940600D03*
Y1040600D03*
X-304800Y940600D03*
Y1040600D03*
G54D18*
X-437500Y2032000D03*
Y2171700D03*
X-376500Y2032000D03*
Y2171700D03*
X-259500Y2032000D03*
Y2171700D03*
X-198500Y2032000D03*
Y2171700D03*
G54D19*
X-196450Y1295400D03*
X-120250Y177800D03*
M02*
