G04 ================== begin FILE IDENTIFICATION RECORD ==================*
G04 Layout Name:  D:/Project/Circuit/BP2/BP2_02v4/pcb/BP2_02V4.brd*
G04 Film Name:    SILK_TOP*
G04 File Format:  Gerber RS274X*
G04 File Origin:  Cadence Allegro 16.6-S040*
G04 Origin Date:  Fri Mar 13 12:49:00 2015*
G04 *
G04 Layer:  MANUFACTURING/AUTOSILK_TOP*
G04 *
G04 Offset:    (0.000 0.000)*
G04 Mirror:    No*
G04 Mode:      Positive*
G04 Rotation:  0*
G04 FullContactRelief:  No*
G04 UndefLineWidth:     0.200*
G04 ================== end FILE IDENTIFICATION RECORD ====================*
%FSLAX34Y34*MOMM*%
%IR0*IPPOS*OFA0.00000B0.00000*MIA0B0*SFA1.00000B1.00000*%
%ADD10C,.2*%
%ADD11C,.4*%
%ADD12C,.5*%
%ADD13C,.15*%
%ADD14C,.25*%
%ADD15C,.8*%
G75*
%LPD*%
G75*
G36*
G01X-850900Y2085200D02*
Y2235200D01*
X-700900D01*
Y2085200D01*
X-850900D01*
G37*
G54D10*
G01X-982600Y922600D02*
X-806600D01*
Y-17400D01*
X-982600D01*
Y922600D01*
G01X-785150Y914400D02*
X-726150D01*
G01X-725650Y963400D02*
Y865400D01*
X-785650D01*
Y963400D01*
X-725650D01*
G01X-798900Y1161340D02*
G03X-800150Y999010I150868J-82332D01*
G01X-292100Y1942100D02*
Y1182100D01*
X-800100D01*
Y1942100D01*
G01X-848360Y2012950D02*
Y2033270D01*
X-842260D01*
X-840230Y2032250D01*
X-838710Y2029880D01*
X-838200Y2027170D01*
X-838710Y2024460D01*
X-839980Y2022430D01*
X-842260Y2021420D01*
X-848360D01*
G01X-820930Y2023790D02*
X-819910Y2024800D01*
X-819150Y2026500D01*
X-818640Y2028870D01*
X-819150Y2030900D01*
X-820170Y2032250D01*
X-821940Y2033270D01*
X-828800D01*
Y2012950D01*
X-820420D01*
X-818640Y2014300D01*
X-817630Y2016340D01*
X-817120Y2018710D01*
X-817630Y2021080D01*
X-819150Y2023110D01*
X-820930Y2023790D01*
X-828800D01*
G01X-808230Y2012950D02*
Y2033270D01*
G01X-798580D02*
X-808230Y2020740D01*
G01X-797050Y2012950D02*
X-803910Y2026500D01*
G01X-788920Y2012950D02*
Y2033270D01*
X-782320Y2016340D01*
X-775720Y2033270D01*
Y2012950D01*
G01X-762000Y2012270D02*
X-762510Y2012610D01*
Y2013290D01*
X-762000Y2013630D01*
X-761490Y2013290D01*
Y2012610D01*
X-762000Y2012270D01*
G01X-738630Y2012950D02*
Y2033270D01*
X-748030Y2018710D01*
X-735330D01*
G01X-726190Y2029880D02*
X-724660Y2031920D01*
X-722880Y2032930D01*
X-720850Y2033270D01*
X-718310Y2032590D01*
X-716530Y2030900D01*
X-716030Y2028870D01*
X-716280Y2026830D01*
X-717300Y2025140D01*
X-722380Y2021760D01*
X-724660Y2019380D01*
X-726190Y2016000D01*
X-726690Y2012950D01*
X-716030D01*
G01X-705870Y2021420D02*
X-704090Y2023790D01*
X-702560Y2025140D01*
X-700530Y2025820D01*
X-698750Y2025140D01*
X-697480Y2023790D01*
X-696470Y2021760D01*
X-696210Y2019380D01*
X-696470Y2017350D01*
X-697480Y2015320D01*
X-699010Y2013630D01*
X-700790Y2012950D01*
X-702820Y2013630D01*
X-704600Y2015660D01*
X-705610Y2018710D01*
X-705870Y2022090D01*
X-705360Y2026500D01*
X-704600Y2028870D01*
X-703330Y2031240D01*
X-701550Y2032930D01*
X-699770Y2033270D01*
X-697990Y2032590D01*
X-696720Y2030900D01*
G01X-677670Y2012950D02*
Y2033270D01*
X-687070Y2018710D01*
X-674370D01*
G01X-664720Y2015320D02*
X-662940Y2013630D01*
X-660910Y2012950D01*
X-658880Y2013630D01*
X-657100Y2015660D01*
X-655830Y2018710D01*
X-655320Y2021760D01*
Y2025480D01*
X-655830Y2028530D01*
X-657100Y2031240D01*
X-658620Y2032590D01*
X-660400Y2033270D01*
X-662430Y2032590D01*
X-663960Y2031240D01*
X-664970Y2029210D01*
X-665480Y2026500D01*
X-664970Y2024130D01*
X-663700Y2021760D01*
X-662180Y2020400D01*
X-660400Y2020060D01*
X-658370Y2020740D01*
X-656840Y2022430D01*
X-655320Y2025480D01*
G01X-644400Y2015320D02*
X-642620Y2013630D01*
X-640590Y2012950D01*
X-638560Y2013630D01*
X-636780Y2015660D01*
X-635510Y2018710D01*
X-635000Y2021760D01*
Y2025480D01*
X-635510Y2028530D01*
X-636780Y2031240D01*
X-638300Y2032590D01*
X-640080Y2033270D01*
X-642110Y2032590D01*
X-643640Y2031240D01*
X-644650Y2029210D01*
X-645160Y2026500D01*
X-644650Y2024130D01*
X-643380Y2021760D01*
X-641860Y2020400D01*
X-640080Y2020060D01*
X-638050Y2020740D01*
X-636520Y2022430D01*
X-635000Y2025480D01*
G01X-619760Y2012270D02*
X-620270Y2012610D01*
Y2013290D01*
X-619760Y2013630D01*
X-619250Y2013290D01*
Y2012610D01*
X-619760Y2012270D01*
G01X-599440Y2033270D02*
X-601470Y2032590D01*
X-603000Y2030900D01*
X-604010Y2028870D01*
X-604770Y2026160D01*
X-605030Y2023110D01*
X-604770Y2020060D01*
X-604010Y2017350D01*
X-603000Y2015320D01*
X-601470Y2013630D01*
X-599440Y2012950D01*
X-597410Y2013630D01*
X-595880Y2015320D01*
X-594870Y2017350D01*
X-594110Y2020060D01*
X-593850Y2023110D01*
X-594110Y2026160D01*
X-594870Y2028870D01*
X-595880Y2030900D01*
X-597410Y2032590D01*
X-599440Y2033270D01*
G01X-579120D02*
X-581150Y2032590D01*
X-582680Y2030900D01*
X-583690Y2028870D01*
X-584450Y2026160D01*
X-584710Y2023110D01*
X-584450Y2020060D01*
X-583690Y2017350D01*
X-582680Y2015320D01*
X-581150Y2013630D01*
X-579120Y2012950D01*
X-577090Y2013630D01*
X-575560Y2015320D01*
X-574550Y2017350D01*
X-573790Y2020060D01*
X-573530Y2023110D01*
X-573790Y2026160D01*
X-574550Y2028870D01*
X-575560Y2030900D01*
X-577090Y2032590D01*
X-579120Y2033270D01*
G01X-563630Y2029880D02*
X-562100Y2031920D01*
X-560320Y2032930D01*
X-558290Y2033270D01*
X-555750Y2032590D01*
X-553970Y2030900D01*
X-553470Y2028870D01*
X-553720Y2026830D01*
X-554740Y2025140D01*
X-559820Y2021760D01*
X-562100Y2019380D01*
X-563630Y2016000D01*
X-564130Y2012950D01*
X-553470D01*
G01X-849880Y1981200D02*
Y2001520D01*
X-843280Y1984590D01*
X-836680Y2001520D01*
Y1981200D01*
G01X-818390D02*
Y1994750D01*
G01Y1992380D02*
X-819400Y1993730D01*
X-820930Y1994410D01*
X-822710Y1994750D01*
X-824480Y1994070D01*
X-826010Y1992710D01*
X-827020Y1990680D01*
X-827530Y1987970D01*
X-827020Y1985260D01*
X-826010Y1983230D01*
X-824480Y1981880D01*
X-822710Y1981200D01*
X-820930Y1981540D01*
X-819400Y1982550D01*
X-818390Y1983910D01*
G01X-806200Y1981200D02*
Y1994750D01*
G01Y1992040D02*
X-804930Y1993390D01*
X-803660Y1994410D01*
X-801880Y1994750D01*
X-800610Y1994410D01*
X-799080Y1993390D01*
G01X-778260Y1993050D02*
X-780030Y1994410D01*
X-781560Y1994750D01*
X-783590Y1994070D01*
X-785110Y1992710D01*
X-786130Y1990340D01*
X-786380Y1987970D01*
X-786130Y1985600D01*
X-785110Y1983570D01*
X-783590Y1981880D01*
X-781560Y1981200D01*
X-779780Y1981880D01*
X-778260Y1983230D01*
G01X-766320Y1981200D02*
Y2001520D01*
G01Y1991700D02*
X-765050Y1993390D01*
X-763780Y1994410D01*
X-761750Y1994750D01*
X-760220Y1994410D01*
X-758440Y1993050D01*
X-757680Y1991020D01*
Y1981200D01*
G01X-726190Y1998130D02*
X-724660Y2000170D01*
X-722880Y2001180D01*
X-720850Y2001520D01*
X-718310Y2000840D01*
X-716530Y1999150D01*
X-716030Y1997120D01*
X-716280Y1995080D01*
X-717300Y1993390D01*
X-722380Y1990010D01*
X-724660Y1987630D01*
X-726190Y1984250D01*
X-726690Y1981200D01*
X-716030D01*
G01X-701040Y2001520D02*
X-703070Y2000840D01*
X-704600Y1999150D01*
X-705610Y1997120D01*
X-706370Y1994410D01*
X-706630Y1991360D01*
X-706370Y1988310D01*
X-705610Y1985600D01*
X-704600Y1983570D01*
X-703070Y1981880D01*
X-701040Y1981200D01*
X-699010Y1981880D01*
X-697480Y1983570D01*
X-696470Y1985600D01*
X-695710Y1988310D01*
X-695450Y1991360D01*
X-695710Y1994410D01*
X-696470Y1997120D01*
X-697480Y1999150D01*
X-699010Y2000840D01*
X-701040Y2001520D01*
G01X-680720Y1981200D02*
Y2001520D01*
X-683770Y1997460D01*
G01Y1981200D02*
X-677670D01*
G01X-665990Y1984250D02*
X-664460Y1982550D01*
X-662690Y1981540D01*
X-660400Y1981200D01*
X-658110Y1981880D01*
X-656340Y1983230D01*
X-655070Y1985600D01*
X-654810Y1988310D01*
X-655320Y1991020D01*
X-656590Y1992710D01*
X-658370Y1994070D01*
X-660150Y1994410D01*
X-661920Y1994070D01*
X-664210Y1992710D01*
X-663450Y2001520D01*
X-656590D01*
G01X-800100Y1942100D02*
X-292100D01*
G01X-841250Y2055540D02*
X-840230Y2056550D01*
X-839470Y2058250D01*
X-838960Y2060620D01*
X-839470Y2062650D01*
X-840490Y2064000D01*
X-842260Y2065020D01*
X-849120D01*
Y2044700D01*
X-840740D01*
X-838960Y2046050D01*
X-837950Y2048090D01*
X-837440Y2050460D01*
X-837950Y2052830D01*
X-839470Y2054860D01*
X-841250Y2055540D01*
X-849120D01*
G01X-828040Y2044700D02*
Y2065020D01*
X-821940D01*
X-819910Y2064000D01*
X-818390Y2061630D01*
X-817880Y2058920D01*
X-818390Y2056210D01*
X-819660Y2054180D01*
X-821940Y2053170D01*
X-828040D01*
G01X-807470Y2061630D02*
X-805940Y2063670D01*
X-804160Y2064680D01*
X-802130Y2065020D01*
X-799590Y2064340D01*
X-797810Y2062650D01*
X-797310Y2060620D01*
X-797560Y2058580D01*
X-798580Y2056890D01*
X-803660Y2053510D01*
X-805940Y2051130D01*
X-807470Y2047750D01*
X-807970Y2044700D01*
X-797310D01*
G01X-789940Y2037930D02*
X-774700D01*
G01X-762000Y2065020D02*
X-764030Y2064340D01*
X-765560Y2062650D01*
X-766570Y2060620D01*
X-767330Y2057910D01*
X-767590Y2054860D01*
X-767330Y2051810D01*
X-766570Y2049100D01*
X-765560Y2047070D01*
X-764030Y2045380D01*
X-762000Y2044700D01*
X-759970Y2045380D01*
X-758440Y2047070D01*
X-757430Y2049100D01*
X-756670Y2051810D01*
X-756410Y2054860D01*
X-756670Y2057910D01*
X-757430Y2060620D01*
X-758440Y2062650D01*
X-759970Y2064340D01*
X-762000Y2065020D01*
G01X-746510Y2061630D02*
X-744980Y2063670D01*
X-743200Y2064680D01*
X-741170Y2065020D01*
X-738630Y2064340D01*
X-736850Y2062650D01*
X-736350Y2060620D01*
X-736600Y2058580D01*
X-737620Y2056890D01*
X-742700Y2053510D01*
X-744980Y2051130D01*
X-746510Y2047750D01*
X-747010Y2044700D01*
X-736350D01*
G01X-725930Y2058250D02*
X-721360Y2044700D01*
X-716790Y2058250D01*
G01X-697990Y2044700D02*
Y2065020D01*
X-707390Y2050460D01*
X-694690D01*
G01X-203200Y77200D02*
X-711200D01*
G01D02*
Y837200D01*
X-203200D01*
Y77200D01*
G01X-724650Y853400D02*
X-740650D01*
G01X-732650Y861400D02*
Y845400D01*
G01X-775900Y997660D02*
G03X-774650Y1159990I-150870J82332D01*
G01X-595090Y1115120D02*
G03X-597270Y866280I10889J-124525D01*
G01X-573310Y866080D02*
G03X-571130Y1114920I-10889J124525D01*
G01X-558800Y2142200D02*
Y2201200D01*
G01X-607800Y2201700D02*
X-509800D01*
Y2141700D01*
X-607800D01*
Y2201700D01*
G01X-480200Y1103600D02*
Y1083600D01*
G01X-490200Y1093600D02*
X-470200D01*
G01X-497800Y2202700D02*
Y2186700D01*
G01X-505800Y2194700D02*
X-489800D01*
G01X-446400Y-13650D02*
X-366400D01*
Y26350D01*
X-446400D01*
Y-13650D01*
G01X-315690Y1115120D02*
G03X-317870Y866280I10889J-124525D01*
G01X-185500Y1988000D02*
X-450500Y1987000D01*
Y2028380D01*
G01Y2035620D02*
Y2076000D01*
X-185500D01*
Y2035620D01*
G01Y2127700D02*
X-450500Y2126700D01*
Y2168080D01*
G01Y2175320D02*
Y2215700D01*
X-185500D01*
Y2175320D01*
G01X-239400Y26350D02*
X-319400D01*
Y-13650D01*
X-239400D01*
Y26350D01*
G01X-293910Y866080D02*
G03X-291730Y1114920I-10889J124525D01*
G01X-200800Y1103600D02*
Y1083600D01*
G01X-210800Y1093600D02*
X-190800D01*
G01X-232800Y1283480D02*
G03X-110320Y1282400I61350J11923D01*
G01X-110100Y1307320D02*
G03X-232580Y1308400I-61350J-11923D01*
G01X-160020Y1367790D02*
X-208280D01*
G01D02*
Y1400810D01*
G01X-213360Y1601470D02*
X-241300Y1570990D01*
Y1497330D01*
X-213360Y1459230D01*
G01X-160020Y1400810D02*
X-208280D01*
G01X-185500Y2028380D02*
Y1988000D01*
G01Y2168080D02*
Y2127700D01*
G01X-156600Y165880D02*
G03X-34120Y164800I61350J11923D01*
G01X-33900Y189720D02*
G03X-156380Y190800I-61350J-11923D01*
G01X-83820Y256540D02*
X-132080D01*
G01X-83820Y289560D02*
X-132080D01*
G01Y256540D02*
Y289560D01*
G01X-137160Y490220D02*
X-165100Y459740D01*
Y386080D01*
X-137160Y347980D01*
G01X-155650Y563350D02*
Y592350D01*
X-149150D01*
Y563350D01*
X-155650D01*
G01X-134400Y632300D02*
X-170400D01*
Y612300D01*
G01D02*
X-134400D01*
Y632300D01*
G01X-125950Y612300D02*
X-89950D01*
Y632300D01*
G01D02*
X-125950D01*
Y612300D01*
G01Y561500D02*
X-89950D01*
Y581500D01*
G01D02*
X-125950D01*
Y561500D01*
G01X-89950Y606900D02*
X-125950D01*
Y586900D01*
G01D02*
X-89950D01*
Y606900D01*
G01Y683100D02*
X-125950D01*
Y663100D01*
G01D02*
X-89950D01*
Y683100D01*
G01Y636700D02*
X-125950D01*
G01D02*
Y658700D01*
G01D02*
X-89950D01*
G01X-136400Y818250D02*
Y769250D01*
X-168400D01*
Y818250D01*
X-136400D01*
G01X-98900Y818100D02*
Y782100D01*
X-78900D01*
G01D02*
Y818100D01*
X-98900D01*
G01X-17150Y1099500D02*
X-97150D01*
Y1059500D01*
X-17150D01*
Y1099500D01*
G01X-97150Y1116650D02*
X-17150D01*
Y1156650D01*
X-97150D01*
Y1116650D01*
G01X-109450Y1242400D02*
X-129450D01*
G01X-119450Y1252400D02*
Y1232400D01*
G01X-160020Y1367790D02*
Y1400810D01*
G01X-116840Y1459230D02*
X-86360Y1497330D01*
G01D02*
Y1570990D01*
X-116840Y1601470D01*
G01X17450Y1728980D02*
X-102550D01*
Y2065780D01*
X17450D01*
Y1728980D01*
G01X-169420Y2017010D02*
X-167890Y2014640D01*
X-165860Y2013290D01*
X-163580Y2012950D01*
X-161540Y2013290D01*
X-159510Y2014980D01*
X-158240Y2017010D01*
X-157990Y2019050D01*
X-158500Y2021420D01*
X-160270Y2023110D01*
X-162050Y2023790D01*
X-164340D01*
G01X-162050D02*
X-160530Y2024800D01*
X-159260Y2026500D01*
X-158750Y2028530D01*
X-159260Y2030560D01*
X-160530Y2032250D01*
X-162810Y2033270D01*
X-165100Y2032930D01*
X-167390Y2031580D01*
G01X-149860Y2012950D02*
X-143510Y2033270D01*
X-137160Y2012950D01*
G01X-139450Y2020060D02*
X-147570D01*
G01X-169420Y2156710D02*
X-167890Y2154340D01*
X-165860Y2152990D01*
X-163580Y2152650D01*
X-161540Y2152990D01*
X-159510Y2154680D01*
X-158240Y2156710D01*
X-157990Y2158750D01*
X-158500Y2161120D01*
X-160270Y2162810D01*
X-162050Y2163490D01*
X-164340D01*
G01X-162050D02*
X-160530Y2164500D01*
X-159260Y2166200D01*
X-158750Y2168230D01*
X-159260Y2170260D01*
X-160530Y2171950D01*
X-162810Y2172970D01*
X-165100Y2172630D01*
X-167390Y2171280D01*
G01X-149860Y2152650D02*
X-143510Y2172970D01*
X-137160Y2152650D01*
G01X-139450Y2159760D02*
X-147570D01*
G01X-33250Y124800D02*
X-53250D01*
G01X-43250Y134800D02*
Y114800D01*
G01X-83820Y256540D02*
Y289560D01*
G01X-40640Y347980D02*
X-10160Y386080D01*
G01D02*
Y459740D01*
X-40640Y490220D01*
G01X-45500Y606900D02*
X-81500D01*
Y586900D01*
G01D02*
X-45500D01*
Y606900D01*
G01X11650Y632300D02*
X-24350D01*
Y612300D01*
G01D02*
X11650D01*
Y632300D01*
G01X-37050Y607900D02*
X-1050D01*
G01Y585900D02*
X-37050D01*
G01D02*
Y607900D01*
G01Y582500D02*
X-1050D01*
G01Y560500D02*
X-37050D01*
G01D02*
Y582500D01*
G01X-81500D02*
X-45500D01*
G01D02*
Y560500D01*
G01D02*
X-81500D01*
G01D02*
Y582500D01*
G01X8150Y663500D02*
X-20850D01*
Y670000D01*
X8150D01*
Y663500D01*
G01X-81650Y670050D02*
X-32650D01*
Y638050D01*
X-81650D01*
Y670050D01*
G01X-89950Y658700D02*
Y636700D01*
G01X-1050Y724700D02*
X-37050D01*
Y761200D01*
X-1050D01*
Y724700D01*
G01X-68150Y769400D02*
Y805400D01*
G01X-46150D02*
Y769400D01*
G01D02*
X-68150D01*
G01X-43400Y802800D02*
X-7400D01*
Y822800D01*
G01D02*
X-43400D01*
Y802800D01*
G01X-68150Y805400D02*
X-46150D01*
G01X-1050Y607900D02*
Y585900D01*
G01Y582500D02*
Y560500D01*
G54D11*
G01X-108550Y1769380D02*
G03I-2000J0D01*
G01X-39100Y711400D02*
G03X-41100Y713400I-2000J0D01*
G01D02*
G03X-43100Y711400I0J-2000D01*
G01D02*
G03X-41100Y709400I2000J0D01*
G01D02*
G03X-39100Y711400I0J2000D01*
G54D12*
G01X-143900Y779250D02*
G03I-2500J0D01*
G01X-40150Y660050D02*
G03X-42650Y662550I-2500J0D01*
G01D02*
G03X-45150Y660050I0J-2500D01*
G01D02*
G03X-42650Y657550I2500J0D01*
G01D02*
G03X-40150Y660050I0J2500D01*
G54D13*
G01X-911550Y933450D02*
X-904800Y946150D01*
G01X-911550D02*
X-904800Y933450D01*
G01X-895230D02*
Y946150D01*
X-897160Y943610D01*
G01Y933450D02*
X-893300D01*
G01X-829790Y971550D02*
X-825770Y958850D01*
X-821740Y971550D01*
G01X-816350Y958850D02*
Y971550D01*
X-813140D01*
X-811850Y970910D01*
X-810880Y970070D01*
X-810080Y968800D01*
X-809440Y967320D01*
X-809280Y965200D01*
X-809440Y963080D01*
X-810080Y961600D01*
X-810880Y960330D01*
X-811850Y959480D01*
X-813140Y958850D01*
X-816350D01*
G01X-803400Y961390D02*
X-802440Y959910D01*
X-801150Y959060D01*
X-799700Y958850D01*
X-798420Y959060D01*
X-797130Y960120D01*
X-796330Y961390D01*
X-796170Y962660D01*
X-796490Y964140D01*
X-797610Y965200D01*
X-798740Y965620D01*
X-800190D01*
G01X-798740D02*
X-797770Y966260D01*
X-796970Y967320D01*
X-796650Y968590D01*
X-796970Y969860D01*
X-797770Y970910D01*
X-799220Y971550D01*
X-800670Y971340D01*
X-802120Y970490D01*
G01X-844820Y1155700D02*
Y1143000D01*
G01X-848510Y1155700D02*
X-841120D01*
G01X-835240Y1143000D02*
Y1155700D01*
G01X-828490D02*
Y1143000D01*
G01Y1149350D02*
X-835240D01*
G01X-818920Y1143000D02*
Y1155700D01*
X-820850Y1153160D01*
G01Y1143000D02*
X-816990D01*
G01X-581650Y1968500D02*
Y1959400D01*
X-581010Y1957490D01*
X-579720Y1956220D01*
X-578120Y1955800D01*
X-576510Y1956220D01*
X-575220Y1957490D01*
X-574580Y1959400D01*
Y1968500D01*
G01X-564200Y1962150D02*
X-560980D01*
Y1958340D01*
X-561950Y1957070D01*
X-563070Y1956220D01*
X-564680Y1955800D01*
X-566290Y1956220D01*
X-567420Y1957070D01*
X-568380Y1958340D01*
X-569030Y1959820D01*
X-569350Y1961510D01*
Y1963000D01*
X-569030Y1964270D01*
X-568380Y1965750D01*
X-567420Y1967020D01*
X-566450Y1967860D01*
X-565170Y1968500D01*
X-564040D01*
X-562750Y1968080D01*
X-561790Y1967230D01*
G01X-552220Y1955800D02*
Y1968500D01*
X-554150Y1965960D01*
G01Y1955800D02*
X-550290D01*
G01X-575790Y2222500D02*
X-571770Y2209800D01*
X-567740Y2222500D01*
G01X-562350Y2209800D02*
Y2222500D01*
X-559140D01*
X-557850Y2221860D01*
X-556880Y2221020D01*
X-556080Y2219750D01*
X-555440Y2218270D01*
X-555280Y2216150D01*
X-555440Y2214030D01*
X-556080Y2212550D01*
X-556880Y2211280D01*
X-557850Y2210430D01*
X-559140Y2209800D01*
X-562350D01*
G01X-545870D02*
Y2222500D01*
X-547800Y2219960D01*
G01Y2209800D02*
X-543940D01*
G01X-510940Y1122890D02*
X-511900Y1123530D01*
X-513030Y1123950D01*
X-514310D01*
X-515760Y1123310D01*
X-516890Y1122260D01*
X-517690Y1120990D01*
X-518340Y1118870D01*
X-518500Y1116960D01*
X-518170Y1115060D01*
X-517690Y1113790D01*
X-516730Y1112520D01*
X-515600Y1111670D01*
X-514480Y1111250D01*
X-513350D01*
X-512220Y1111670D01*
X-511260Y1112310D01*
X-510450Y1113150D01*
G01X-505060Y1113790D02*
X-504100Y1112310D01*
X-502810Y1111460D01*
X-501360Y1111250D01*
X-500080Y1111460D01*
X-498790Y1112520D01*
X-497990Y1113790D01*
X-497830Y1115060D01*
X-498150Y1116540D01*
X-499270Y1117600D01*
X-500400Y1118020D01*
X-501850D01*
G01X-500400D02*
X-499430Y1118660D01*
X-498630Y1119720D01*
X-498310Y1120990D01*
X-498630Y1122260D01*
X-499430Y1123310D01*
X-500880Y1123950D01*
X-502330Y1123740D01*
X-503780Y1122890D01*
G01X-473240Y-12700D02*
Y0D01*
X-469220D01*
X-467930Y-640D01*
X-467130Y-1480D01*
X-466810Y-3180D01*
X-467130Y-4870D01*
X-468090Y-5930D01*
X-469220Y-6560D01*
X-473240D01*
G01X-469220D02*
X-466810Y-12700D01*
G01X-460130Y-7410D02*
X-459010Y-5930D01*
X-458040Y-5080D01*
X-456750Y-4660D01*
X-455630Y-5080D01*
X-454820Y-5930D01*
X-454180Y-7200D01*
X-454020Y-8680D01*
X-454180Y-9950D01*
X-454820Y-11220D01*
X-455790Y-12280D01*
X-456910Y-12700D01*
X-458200Y-12280D01*
X-459330Y-11010D01*
X-459970Y-9100D01*
X-460130Y-6990D01*
X-459810Y-4230D01*
X-459330Y-2750D01*
X-458520Y-1270D01*
X-457400Y-210D01*
X-456270Y0D01*
X-455140Y-420D01*
X-454340Y-1480D01*
G01X-470500Y860700D02*
Y851600D01*
X-469860Y849690D01*
X-468570Y848420D01*
X-466970Y848000D01*
X-465360Y848420D01*
X-464070Y849690D01*
X-463430Y851600D01*
Y860700D01*
G01X-453050Y854350D02*
X-449830D01*
Y850540D01*
X-450800Y849270D01*
X-451920Y848420D01*
X-453530Y848000D01*
X-455140Y848420D01*
X-456270Y849270D01*
X-457230Y850540D01*
X-457880Y852020D01*
X-458200Y853710D01*
Y855200D01*
X-457880Y856470D01*
X-457230Y857950D01*
X-456270Y859220D01*
X-455300Y860060D01*
X-454020Y860700D01*
X-452890D01*
X-451600Y860280D01*
X-450640Y859430D01*
G01X-444120Y858580D02*
X-443160Y859850D01*
X-442030Y860490D01*
X-440740Y860700D01*
X-439130Y860280D01*
X-438010Y859220D01*
X-437690Y857950D01*
X-437850Y856680D01*
X-438490Y855620D01*
X-441710Y853500D01*
X-443160Y852020D01*
X-444120Y849900D01*
X-444440Y848000D01*
X-437690D01*
G01X-377590Y1122890D02*
X-378550Y1123530D01*
X-379680Y1123950D01*
X-380960D01*
X-382410Y1123310D01*
X-383540Y1122260D01*
X-384340Y1120990D01*
X-384990Y1118870D01*
X-385150Y1116960D01*
X-384820Y1115060D01*
X-384340Y1113790D01*
X-383380Y1112520D01*
X-382250Y1111670D01*
X-381130Y1111250D01*
X-380000D01*
X-378870Y1111670D01*
X-377910Y1112310D01*
X-377100Y1113150D01*
G01X-366240Y1111250D02*
Y1123950D01*
X-372200Y1114850D01*
X-364150D01*
G01X-231940Y-12700D02*
Y0D01*
X-227920D01*
X-226630Y-640D01*
X-225830Y-1480D01*
X-225510Y-3180D01*
X-225830Y-4870D01*
X-226790Y-5930D01*
X-227920Y-6560D01*
X-231940D01*
G01X-227920D02*
X-225510Y-12700D01*
G01X-219310Y-10800D02*
X-218350Y-11850D01*
X-217220Y-12490D01*
X-215780Y-12700D01*
X-214330Y-12280D01*
X-213200Y-11430D01*
X-212400Y-9950D01*
X-212240Y-8260D01*
X-212560Y-6560D01*
X-213360Y-5500D01*
X-214490Y-4660D01*
X-215610Y-4450D01*
X-216740Y-4660D01*
X-218190Y-5500D01*
X-217710Y0D01*
X-213360D01*
G01X-176990Y558700D02*
X-172970Y546000D01*
X-168940Y558700D01*
G01X-163550Y546000D02*
Y558700D01*
X-160340D01*
X-159050Y558060D01*
X-158080Y557220D01*
X-157280Y555950D01*
X-156640Y554470D01*
X-156480Y552350D01*
X-156640Y550230D01*
X-157280Y548750D01*
X-158080Y547480D01*
X-159050Y546630D01*
X-160340Y546000D01*
X-163550D01*
G01X-150120Y556580D02*
X-149160Y557850D01*
X-148030Y558490D01*
X-146740Y558700D01*
X-145130Y558280D01*
X-144010Y557220D01*
X-143690Y555950D01*
X-143850Y554680D01*
X-144490Y553620D01*
X-147710Y551500D01*
X-149160Y550020D01*
X-150120Y547900D01*
X-150440Y546000D01*
X-143690D01*
G01X-177690Y636000D02*
Y648700D01*
X-173670D01*
X-172380Y648060D01*
X-171580Y647220D01*
X-171260Y645520D01*
X-171580Y643830D01*
X-172540Y642770D01*
X-173670Y642140D01*
X-177690D01*
G01X-173670D02*
X-171260Y636000D01*
G01X-161850D02*
X-161530Y638750D01*
X-161040Y641080D01*
X-160400Y643200D01*
X-159590Y645520D01*
X-158310Y648700D01*
X-164740D01*
G01X-131690Y544000D02*
Y556700D01*
X-127670D01*
X-126380Y556060D01*
X-125580Y555220D01*
X-125260Y553520D01*
X-125580Y551830D01*
X-126540Y550770D01*
X-127670Y550140D01*
X-131690D01*
G01X-127670D02*
X-125260Y544000D01*
G01X-118260Y545480D02*
X-117130Y544420D01*
X-115850Y544000D01*
X-114560Y544420D01*
X-113430Y545690D01*
X-112630Y547600D01*
X-112310Y549500D01*
Y551830D01*
X-112630Y553740D01*
X-113430Y555430D01*
X-114400Y556280D01*
X-115530Y556700D01*
X-116810Y556280D01*
X-117780Y555430D01*
X-118420Y554160D01*
X-118740Y552470D01*
X-118420Y550990D01*
X-117620Y549500D01*
X-116650Y548660D01*
X-115530Y548440D01*
X-114240Y548870D01*
X-113270Y549930D01*
X-112310Y551830D01*
G01X-102180Y534000D02*
Y546700D01*
X-98160D01*
X-96870Y546060D01*
X-96070Y545220D01*
X-95750Y543520D01*
X-96070Y541830D01*
X-97030Y540770D01*
X-98160Y540140D01*
X-102180D01*
G01X-98160D02*
X-95750Y534000D01*
G01X-86020D02*
Y546700D01*
X-87950Y544160D01*
G01Y534000D02*
X-84090D01*
G01X-73070Y546700D02*
X-74350Y546280D01*
X-75320Y545220D01*
X-75960Y543950D01*
X-76440Y542250D01*
X-76600Y540350D01*
X-76440Y538440D01*
X-75960Y536750D01*
X-75320Y535480D01*
X-74350Y534420D01*
X-73070Y534000D01*
X-71780Y534420D01*
X-70810Y535480D01*
X-70170Y536750D01*
X-69690Y538440D01*
X-69530Y540350D01*
X-69690Y542250D01*
X-70170Y543950D01*
X-70810Y545220D01*
X-71780Y546280D01*
X-73070Y546700D01*
G01X-141900Y636000D02*
Y643870D01*
X-139460D01*
X-138680Y643480D01*
X-138200Y642950D01*
X-138000Y641900D01*
X-138200Y640850D01*
X-138780Y640200D01*
X-139460Y639800D01*
X-141900D01*
G01X-139460D02*
X-138000Y636000D01*
G01X-132080D02*
X-131400Y636130D01*
X-130620Y636520D01*
X-130130Y637180D01*
X-129940Y638100D01*
X-130130Y639020D01*
X-130720Y639800D01*
X-131590Y640200D01*
X-132570D01*
X-133150Y640460D01*
X-133640Y641120D01*
X-133830Y642030D01*
X-133540Y642950D01*
X-132860Y643610D01*
X-132080Y643870D01*
X-131300Y643610D01*
X-130620Y642950D01*
X-130330Y642030D01*
X-130520Y641120D01*
X-131010Y640460D01*
X-131590Y640200D01*
X-132570D01*
X-133440Y639800D01*
X-134030Y639020D01*
X-134220Y638100D01*
X-134030Y637180D01*
X-133540Y636520D01*
X-132760Y636130D01*
X-132080Y636000D01*
G01X-163180Y596000D02*
Y608700D01*
X-159160D01*
X-157870Y608060D01*
X-157070Y607220D01*
X-156750Y605520D01*
X-157070Y603830D01*
X-158030Y602770D01*
X-159160Y602140D01*
X-163180D01*
G01X-159160D02*
X-156750Y596000D01*
G01X-147020D02*
Y608700D01*
X-148950Y606160D01*
G01Y596000D02*
X-145090D01*
G01X-137120Y606580D02*
X-136160Y607850D01*
X-135030Y608490D01*
X-133740Y608700D01*
X-132130Y608280D01*
X-131010Y607220D01*
X-130690Y605950D01*
X-130850Y604680D01*
X-131490Y603620D01*
X-134710Y601500D01*
X-136160Y600020D01*
X-137120Y597900D01*
X-137440Y596000D01*
X-130690D01*
G01X-124180Y688000D02*
Y700700D01*
X-120160D01*
X-118870Y700060D01*
X-118070Y699220D01*
X-117750Y697520D01*
X-118070Y695830D01*
X-119030Y694770D01*
X-120160Y694140D01*
X-124180D01*
G01X-120160D02*
X-117750Y688000D01*
G01X-108020D02*
Y700700D01*
X-109950Y698160D01*
G01Y688000D02*
X-106090D01*
G01X-98600Y690540D02*
X-97640Y689060D01*
X-96350Y688210D01*
X-94900Y688000D01*
X-93620Y688210D01*
X-92330Y689270D01*
X-91530Y690540D01*
X-91370Y691810D01*
X-91690Y693290D01*
X-92810Y694350D01*
X-93940Y694770D01*
X-95390D01*
G01X-93940D02*
X-92970Y695410D01*
X-92170Y696470D01*
X-91850Y697740D01*
X-92170Y699010D01*
X-92970Y700060D01*
X-94420Y700700D01*
X-95870Y700490D01*
X-97320Y699640D01*
G01X-142940Y663640D02*
X-143900Y664280D01*
X-145030Y664700D01*
X-146310D01*
X-147760Y664060D01*
X-148890Y663010D01*
X-149690Y661740D01*
X-150340Y659620D01*
X-150500Y657710D01*
X-150170Y655810D01*
X-149690Y654540D01*
X-148730Y653270D01*
X-147600Y652420D01*
X-146480Y652000D01*
X-145350D01*
X-144220Y652420D01*
X-143260Y653060D01*
X-142450Y653900D01*
G01X-136260Y653480D02*
X-135130Y652420D01*
X-133850Y652000D01*
X-132560Y652420D01*
X-131430Y653690D01*
X-130630Y655600D01*
X-130310Y657500D01*
Y659830D01*
X-130630Y661740D01*
X-131430Y663430D01*
X-132400Y664280D01*
X-133530Y664700D01*
X-134810Y664280D01*
X-135780Y663430D01*
X-136420Y662160D01*
X-136740Y660470D01*
X-136420Y658990D01*
X-135620Y657500D01*
X-134650Y656660D01*
X-133530Y656440D01*
X-132240Y656870D01*
X-131270Y657930D01*
X-130310Y659830D01*
G01X-168990Y834700D02*
X-164970Y822000D01*
X-160940Y834700D01*
G01X-152020D02*
Y822000D01*
G01X-155710Y834700D02*
X-148320D01*
G01X-139070Y822000D02*
Y834700D01*
X-141000Y832160D01*
G01Y822000D02*
X-137140D01*
G01X-97690D02*
Y834700D01*
X-93670D01*
X-92380Y834060D01*
X-91580Y833220D01*
X-91260Y831520D01*
X-91580Y829830D01*
X-92540Y828770D01*
X-93670Y828140D01*
X-97690D01*
G01X-93670D02*
X-91260Y822000D01*
G01X-84580Y832580D02*
X-83620Y833850D01*
X-82490Y834490D01*
X-81200Y834700D01*
X-79590Y834280D01*
X-78470Y833220D01*
X-78150Y831950D01*
X-78310Y830680D01*
X-78950Y829620D01*
X-82170Y827500D01*
X-83620Y826020D01*
X-84580Y823900D01*
X-84900Y822000D01*
X-78150D01*
G01X-142640Y1389590D02*
X-143600Y1390230D01*
X-144730Y1390650D01*
X-146010D01*
X-147460Y1390010D01*
X-148590Y1388960D01*
X-149390Y1387690D01*
X-150040Y1385570D01*
X-150200Y1383660D01*
X-149870Y1381760D01*
X-149390Y1380490D01*
X-148430Y1379220D01*
X-147300Y1378370D01*
X-146180Y1377950D01*
X-145050D01*
X-143920Y1378370D01*
X-142960Y1379010D01*
X-142150Y1379850D01*
G01X-136280Y1388530D02*
X-135320Y1389800D01*
X-134190Y1390440D01*
X-132900Y1390650D01*
X-131290Y1390230D01*
X-130170Y1389170D01*
X-129850Y1387900D01*
X-130010Y1386630D01*
X-130650Y1385570D01*
X-133870Y1383450D01*
X-135320Y1381970D01*
X-136280Y1379850D01*
X-136600Y1377950D01*
X-129850D01*
G01X-110890Y1357840D02*
X-111850Y1358480D01*
X-112980Y1358900D01*
X-114260D01*
X-115710Y1358260D01*
X-116840Y1357210D01*
X-117640Y1355940D01*
X-118290Y1353820D01*
X-118450Y1351910D01*
X-118120Y1350010D01*
X-117640Y1348740D01*
X-116680Y1347470D01*
X-115550Y1346620D01*
X-114430Y1346200D01*
X-113300D01*
X-112170Y1346620D01*
X-111210Y1347260D01*
X-110400Y1348100D01*
G01X-101480Y1346200D02*
Y1358900D01*
X-103410Y1356360D01*
G01Y1346200D02*
X-99550D01*
G01X-168420Y2044700D02*
Y2057400D01*
X-162310D01*
G01X-164560Y2051260D02*
X-168420D01*
G01X-155950Y2057400D02*
Y2048300D01*
X-155310Y2046390D01*
X-154020Y2045120D01*
X-152420Y2044700D01*
X-150810Y2045120D01*
X-149520Y2046390D01*
X-148880Y2048300D01*
Y2057400D01*
G01X-139470Y2044700D02*
Y2057400D01*
X-141400Y2054860D01*
G01Y2044700D02*
X-137540D01*
G01X-168420Y2184400D02*
Y2197100D01*
X-162310D01*
G01X-164560Y2190960D02*
X-168420D01*
G01X-155950Y2197100D02*
Y2188000D01*
X-155310Y2186090D01*
X-154020Y2184820D01*
X-152420Y2184400D01*
X-150810Y2184820D01*
X-149520Y2186090D01*
X-148880Y2188000D01*
Y2197100D01*
G01X-142520Y2194980D02*
X-141560Y2196250D01*
X-140430Y2196890D01*
X-139140Y2197100D01*
X-137530Y2196680D01*
X-136410Y2195620D01*
X-136090Y2194350D01*
X-136250Y2193080D01*
X-136890Y2192020D01*
X-140110Y2189900D01*
X-141560Y2188420D01*
X-142520Y2186300D01*
X-142840Y2184400D01*
X-136090D01*
G01X-44940Y243640D02*
X-45900Y244280D01*
X-47030Y244700D01*
X-48310D01*
X-49760Y244060D01*
X-50890Y243010D01*
X-51690Y241740D01*
X-52340Y239620D01*
X-52500Y237710D01*
X-52170Y235810D01*
X-51690Y234540D01*
X-50730Y233270D01*
X-49600Y232420D01*
X-48480Y232000D01*
X-47350D01*
X-46220Y232420D01*
X-45260Y233060D01*
X-44450Y233900D01*
G01X-39060D02*
X-38100Y232850D01*
X-36970Y232210D01*
X-35530Y232000D01*
X-34080Y232420D01*
X-32950Y233270D01*
X-32150Y234750D01*
X-31990Y236440D01*
X-32310Y238140D01*
X-33110Y239200D01*
X-34240Y240040D01*
X-35360Y240250D01*
X-36490Y240040D01*
X-37940Y239200D01*
X-37460Y244700D01*
X-33110D01*
G01X-68940Y279640D02*
X-69900Y280280D01*
X-71030Y280700D01*
X-72310D01*
X-73760Y280060D01*
X-74890Y279010D01*
X-75690Y277740D01*
X-76340Y275620D01*
X-76500Y273710D01*
X-76170Y271810D01*
X-75690Y270540D01*
X-74730Y269270D01*
X-73600Y268420D01*
X-72480Y268000D01*
X-71350D01*
X-70220Y268420D01*
X-69260Y269060D01*
X-68450Y269900D01*
G01X-62580Y273290D02*
X-61460Y274770D01*
X-60490Y275620D01*
X-59200Y276040D01*
X-58080Y275620D01*
X-57270Y274770D01*
X-56630Y273500D01*
X-56470Y272020D01*
X-56630Y270750D01*
X-57270Y269480D01*
X-58240Y268420D01*
X-59360Y268000D01*
X-60650Y268420D01*
X-61780Y269690D01*
X-62420Y271600D01*
X-62580Y273710D01*
X-62260Y276470D01*
X-61780Y277950D01*
X-60970Y279430D01*
X-59850Y280490D01*
X-58720Y280700D01*
X-57590Y280280D01*
X-56790Y279220D01*
G01X-81500Y606900D02*
X-88000Y550000D01*
G01X-29690Y508700D02*
Y496000D01*
X-23260D01*
G01X-16580Y506580D02*
X-15620Y507850D01*
X-14490Y508490D01*
X-13200Y508700D01*
X-11590Y508280D01*
X-10470Y507220D01*
X-10150Y505950D01*
X-10310Y504680D01*
X-10950Y503620D01*
X-14170Y501500D01*
X-15620Y500020D01*
X-16580Y497900D01*
X-16900Y496000D01*
X-10150D01*
G01X-17430Y555640D02*
X-18390Y556280D01*
X-19520Y556700D01*
X-20800D01*
X-22250Y556060D01*
X-23380Y555010D01*
X-24180Y553740D01*
X-24830Y551620D01*
X-24990Y549710D01*
X-24660Y547810D01*
X-24180Y546540D01*
X-23220Y545270D01*
X-22090Y544420D01*
X-20970Y544000D01*
X-19840D01*
X-18710Y544420D01*
X-17750Y545060D01*
X-16940Y545900D01*
G01X-8020Y544000D02*
Y556700D01*
X-9950Y554160D01*
G01Y544000D02*
X-6090D01*
G01X4930Y556700D02*
X3650Y556280D01*
X2680Y555220D01*
X2040Y553950D01*
X1560Y552250D01*
X1400Y550350D01*
X1560Y548440D01*
X2040Y546750D01*
X2680Y545480D01*
X3650Y544420D01*
X4930Y544000D01*
X6220Y544420D01*
X7190Y545480D01*
X7830Y546750D01*
X8310Y548440D01*
X8470Y550350D01*
X8310Y552250D01*
X7830Y553950D01*
X7190Y555220D01*
X6220Y556280D01*
X4930Y556700D01*
G01X-54940Y555640D02*
X-55900Y556280D01*
X-57030Y556700D01*
X-58310D01*
X-59760Y556060D01*
X-60890Y555010D01*
X-61690Y553740D01*
X-62340Y551620D01*
X-62500Y549710D01*
X-62170Y547810D01*
X-61690Y546540D01*
X-60730Y545270D01*
X-59600Y544420D01*
X-58480Y544000D01*
X-57350D01*
X-56220Y544420D01*
X-55260Y545060D01*
X-54450Y545900D01*
G01X-45530Y544000D02*
X-44400Y544210D01*
X-43110Y544850D01*
X-42310Y545900D01*
X-41990Y547390D01*
X-42310Y548870D01*
X-43270Y550140D01*
X-44720Y550770D01*
X-46330D01*
X-47290Y551200D01*
X-48100Y552250D01*
X-48420Y553740D01*
X-47940Y555220D01*
X-46810Y556280D01*
X-45530Y556700D01*
X-44240Y556280D01*
X-43110Y555220D01*
X-42630Y553740D01*
X-42950Y552250D01*
X-43760Y551200D01*
X-44720Y550770D01*
X-46330D01*
X-47780Y550140D01*
X-48740Y548870D01*
X-49060Y547390D01*
X-48740Y545900D01*
X-47940Y544850D01*
X-46650Y544210D01*
X-45530Y544000D01*
G01X-80500Y692000D02*
Y704700D01*
X-77290D01*
X-76000Y704060D01*
X-75030Y703220D01*
X-74230Y701950D01*
X-73590Y700470D01*
X-73430Y698350D01*
X-73590Y696230D01*
X-74230Y694750D01*
X-75030Y693480D01*
X-76000Y692630D01*
X-77290Y692000D01*
X-80500D01*
G01X-68040D02*
X-64020Y704700D01*
X-59990Y692000D01*
G01X-61440Y696440D02*
X-66590D01*
G01X-51070Y692000D02*
Y704700D01*
X-53000Y702160D01*
G01Y692000D02*
X-49140D01*
G01X-80490Y717550D02*
X-76470Y730250D01*
X-72440Y717550D01*
G01X-73890Y721990D02*
X-79040D01*
G01X-67540Y730250D02*
X-63520Y717550D01*
X-59490Y730250D01*
G01X-50570Y717550D02*
Y730250D01*
X-52500Y727710D01*
G01Y717550D02*
X-48640D01*
G01X-85490Y767290D02*
X-86450Y767930D01*
X-87580Y768350D01*
X-88860D01*
X-90310Y767710D01*
X-91440Y766660D01*
X-92240Y765390D01*
X-92890Y763270D01*
X-93050Y761360D01*
X-92720Y759460D01*
X-92240Y758190D01*
X-91280Y756920D01*
X-90150Y756070D01*
X-89030Y755650D01*
X-87900D01*
X-86770Y756070D01*
X-85810Y756710D01*
X-85000Y757550D01*
G01X-76400Y755650D02*
X-76080Y758400D01*
X-75590Y760730D01*
X-74950Y762850D01*
X-74140Y765170D01*
X-72860Y768350D01*
X-79290D01*
G01X-66840Y1041400D02*
Y1054100D01*
X-62820D01*
X-61530Y1053460D01*
X-60730Y1052620D01*
X-60410Y1050920D01*
X-60730Y1049230D01*
X-61690Y1048170D01*
X-62820Y1047540D01*
X-66840D01*
G01X-62820D02*
X-60410Y1041400D01*
G01X-54210Y1043940D02*
X-53250Y1042460D01*
X-51960Y1041610D01*
X-50510Y1041400D01*
X-49230Y1041610D01*
X-47940Y1042670D01*
X-47140Y1043940D01*
X-46980Y1045210D01*
X-47300Y1046690D01*
X-48420Y1047750D01*
X-49550Y1048170D01*
X-51000D01*
G01X-49550D02*
X-48580Y1048810D01*
X-47780Y1049870D01*
X-47460Y1051140D01*
X-47780Y1052410D01*
X-48580Y1053460D01*
X-50030Y1054100D01*
X-51480Y1053890D01*
X-52930Y1053040D01*
G01X-66840Y1162050D02*
Y1174750D01*
X-62820D01*
X-61530Y1174110D01*
X-60730Y1173270D01*
X-60410Y1171570D01*
X-60730Y1169880D01*
X-61690Y1168820D01*
X-62820Y1168190D01*
X-66840D01*
G01X-62820D02*
X-60410Y1162050D01*
G01X-50680D02*
Y1174750D01*
X-52610Y1172210D01*
G01Y1162050D02*
X-48750D01*
G01X-92240Y1606550D02*
Y1593850D01*
X-85810D01*
G01X-76080D02*
Y1606550D01*
X-78010Y1604010D01*
G01Y1593850D02*
X-74150D01*
G01X-51850Y2072000D02*
X-45100Y2084700D01*
G01X-51850D02*
X-45100Y2072000D01*
G01X-38580Y2082580D02*
X-37620Y2083850D01*
X-36490Y2084490D01*
X-35200Y2084700D01*
X-33590Y2084280D01*
X-32470Y2083220D01*
X-32150Y2081950D01*
X-32310Y2080680D01*
X-32950Y2079620D01*
X-36170Y2077500D01*
X-37620Y2076020D01*
X-38580Y2073900D01*
X-38900Y2072000D01*
X-32150D01*
G01X-7820Y636000D02*
Y643870D01*
X-5380D01*
X-4600Y643480D01*
X-4120Y642950D01*
X-3920Y641900D01*
X-4120Y640850D01*
X-4700Y640200D01*
X-5380Y639800D01*
X-7820D01*
G01X-5380D02*
X-3920Y636000D01*
G01X2000D02*
Y643870D01*
X830Y642300D01*
G01Y636000D02*
X3170D01*
G01X9870D02*
Y643870D01*
X8700Y642300D01*
G01Y636000D02*
X11040D01*
G01X8270Y591210D02*
X7690Y591610D01*
X7010Y591870D01*
X6230D01*
X5350Y591480D01*
X4670Y590820D01*
X4180Y590030D01*
X3790Y588720D01*
X3700Y587540D01*
X3890Y586360D01*
X4180Y585570D01*
X4770Y584790D01*
X5450Y584260D01*
X6130Y584000D01*
X6810D01*
X7490Y584260D01*
X8080Y584660D01*
X8560Y585180D01*
G01X14000Y584000D02*
Y591870D01*
X12830Y590300D01*
G01Y584000D02*
X15170D01*
G01X21870D02*
Y591870D01*
X20700Y590300D01*
G01Y584000D02*
X23040D01*
G01X17240Y696920D02*
X9370Y694490D01*
X17240Y692060D01*
G01X9370Y688760D02*
X17240D01*
Y686810D01*
X16850Y686040D01*
X16320Y685450D01*
X15530Y684970D01*
X14620Y684580D01*
X13300Y684480D01*
X11990Y684580D01*
X11080Y684970D01*
X10290Y685450D01*
X9760Y686040D01*
X9370Y686810D01*
Y688760D01*
G01Y677580D02*
X17240D01*
X11600Y681180D01*
Y676320D01*
G01X-3690Y806000D02*
Y818700D01*
X330D01*
X1620Y818060D01*
X2420Y817220D01*
X2740Y815520D01*
X2420Y813830D01*
X1460Y812770D01*
X330Y812140D01*
X-3690D01*
G01X330D02*
X2740Y806000D01*
G01X14410D02*
Y818700D01*
X8450Y809600D01*
X16500D01*
G54D14*
G01X-165150Y595350D02*
G03X-166400Y596600I-1250J0D01*
G01D02*
G03X-167650Y595350I0J-1250D01*
G01D02*
G03X-166400Y594100I1250J0D01*
G01D02*
G03X-165150Y595350I0J1250D01*
G01X-119150Y766250D02*
G03X-120400Y767500I-1250J0D01*
G01D02*
G03X-121650Y766250I0J-1250D01*
G01D02*
G03X-120400Y765000I1250J0D01*
G01D02*
G03X-119150Y766250I0J1250D01*
G01X-22600Y652750D02*
G03X-23850Y654000I-1250J0D01*
G01D02*
G03X-25100Y652750I0J-1250D01*
G01D02*
G03X-23850Y651500I1250J0D01*
G01D02*
G03X-22600Y652750I0J1250D01*
G01X-28400Y686050D02*
G03X-29650Y687300I-1250J0D01*
G01D02*
G03X-30900Y686050I0J-1250D01*
G01D02*
G03X-29650Y684800I1250J0D01*
G01D02*
G03X-28400Y686050I0J1250D01*
G54D15*
G01X-655770Y67850D02*
G03I-4005J0D01*
G01X-339520Y1951450D02*
G03I-4005J0D01*
M02*
